<svg width="16" height="12" fill="none" xmlns="http://www.w3.org/2000/svg">
  <g mask="url(#VG_-_Virgin_Islands_(British)__a)">
    <path fill-rule="evenodd" clip-rule="evenodd" d="M0 0v12h16V0H0z" fill="#2E42A5"/>
    <g mask="url(#VG_-_Virgin_Islands_(British)__b)">
      <g mask="url(#VG_-_Virgin_Islands_(British)__c)">
        <path d="M-1.002 6.5l1.98.868L9.045.944l1.045-1.29-2.118-.29-3.29 2.768-2.649 1.865L-1.002 6.5z" fill="#F7FCFF"/>
        <path d="M-.731 7.108l1.009.505 9.436-8.08H8.298L-.731 7.109z" fill="#F50100"/>
        <path d="M10.002 6.5l-1.98.868L-.045.944-1.09-.346l2.118-.29 3.29 2.768 2.649 1.865L10.002 6.5z" fill="#F7FCFF"/>
        <path d="M9.935 6.937l-1.01.504-4.018-3.46-1.19-.386L-1.19-.342H.227L5.13 3.502l1.303.463 3.502 2.972z" fill="#F50100"/>
        <path fill-rule="evenodd" clip-rule="evenodd" d="M4.992 0h-1v3H0v1h3.992v3h1V4H9V3H4.992V0z" fill="#F50100"/>
        <path d="M3.992 0v-.75h-.75V0h.75zm1 0h.75v-.75h-.75V0zm-1 3v.75h.75V3h-.75zM0 3v-.75h-.75V3H0zm0 1h-.75v.75H0V4zm3.992 0h.75v-.75h-.75V4zm0 3h-.75v.75h.75V7zm1 0v.75h.75V7h-.75zm0-3v-.75h-.75V4h.75zM9 4v.75h.75V4H9zm0-1h.75v-.75H9V3zM4.992 3h-.75v.75h.75V3zm-1-2.25h1v-1.5h-1v1.5zM4.742 3V0h-1.5v3h1.5zM0 3.75h3.992v-1.5H0v1.5zM.75 4V3h-1.5v1h1.5zm3.242-.75H0v1.5h3.992v-1.5zM4.742 7V4h-1.5v3h1.5zm.25-.75h-1v1.5h1v-1.5zM4.242 4v3h1.5V4h-1.5zM9 3.25H4.992v1.5H9v-1.5zM8.25 3v1h1.5V3h-1.5zm-3.258.75H9v-1.5H4.992v1.5zM4.242 0v3h1.5V0h-1.5z" fill="#F7FCFF" mask="url(#VG_-_Virgin_Islands_(British)__d)"/>
      </g>
      <path fill-rule="evenodd" clip-rule="evenodd" d="M10.123 5.016v3.265s-.048 2.701 2.441 2.701c2.49 0 2.49-2.701 2.49-2.701V5.016h-4.93z" fill="#3B7E05" stroke="#F7FCFF" stroke-width=".25"/>
      <path fill-rule="evenodd" clip-rule="evenodd" d="M10.118 9.944l.397-.398c.62.766 1.272 1.138 1.965 1.138.693 0 1.344-.372 1.963-1.138l.226.227.01-.015c.137.117.229.227.272.353a.421.421 0 01-.171.51.97.97 0 01-.104.058.26.26 0 01-.202.022.29.29 0 01-.187-.173c-.562.498-1.166.75-1.807.75-.636 0-1.235-.248-1.793-.737a.29.29 0 01-.19.168.26.26 0 01-.201-.026.957.957 0 01-.103-.06.421.421 0 01-.162-.512.526.526 0 01.095-.158l-.008-.009z" fill="#FFD018"/>
      <path d="M10.515 9.546l.058-.047-.052-.065-.059.06.053.052zm-.397.398l-.053-.053-.047.048.042.053.058-.048zm4.325-.398l.053-.053-.059-.059-.052.065.058.047zm.226.227l-.053.053.064.064.051-.075-.062-.042zm.01-.015l.048-.057-.064-.054-.047.07.063.041zm.272.353l.071-.024-.07.024zm-.171.51l-.04-.064.04.063zm-.104.058l-.031-.068.031.068zm-.202.022l.02-.072-.02.072zm-.187-.173l.07-.028-.04-.098-.08.07.05.056zm-3.6.013l.049-.056-.077-.068-.041.094.069.03zm-.19.168l-.018-.072.019.072zm-.201-.026l.032-.067-.032.067zm-.103-.06l-.04.063.04-.063zm-.162-.512l.07.026-.07-.026zm.095-.158l.057.048.04-.047-.04-.048-.057.047zm.336-.46l-.397.398.107.106.396-.398-.106-.106zm2.018 1.116c-.663 0-1.295-.355-1.907-1.11l-.116.094c.628.776 1.3 1.166 2.023 1.166v-.15zm1.905-1.11c-.61.755-1.243 1.11-1.905 1.11v.15c.724 0 1.394-.39 2.021-1.165l-.116-.095zm.337.22l-.226-.226-.106.106.226.227.106-.106zm-.106-.003l-.01.015.125.084.01-.015-.125-.084zm.406.37c-.05-.144-.153-.264-.295-.385l-.097.115c.134.113.213.211.25.32l.142-.05zm-.203.598a.496.496 0 00.203-.597l-.142.049a.347.347 0 01-.14.421l.08.127zm-.111.063a.963.963 0 00.111-.063l-.08-.127a.884.884 0 01-.095.054l.064.136zm-.255.027a.326.326 0 00.255-.027l-.063-.136a.269.269 0 01-.076.025.177.177 0 01-.075-.007l-.04.145zm-.235-.217c.043.106.13.187.235.217l.041-.145a.216.216 0 01-.137-.13l-.14.058zm-1.738.797c.663 0 1.283-.262 1.857-.77l-.1-.112c-.551.488-1.138.732-1.757.732v.15zm-1.843-.756c.57.498 1.186.756 1.843.756v-.15c-.614 0-1.196-.24-1.744-.72l-.099.114zm-.12.184a.365.365 0 00.238-.21l-.137-.061a.216.216 0 01-.14.126l.039.145zm-.254-.031a.326.326 0 00.254.031l-.039-.145a.18.18 0 01-.075.005.269.269 0 01-.075-.026l-.065.135zm-.11-.065c.041.027.077.049.11.065l.065-.135a.87.87 0 01-.094-.056l-.082.126zm-.193-.6a.496.496 0 00.192.6l.082-.126a.347.347 0 01-.133-.423l-.141-.052zm.108-.181a.602.602 0 00-.108.18l.14.052a.454.454 0 01.083-.136l-.115-.096zm-.008.087a.76.76 0 00.008.008l.116-.094-.007-.009-.117.095z" fill="#fff"/>
      <path d="M11.066 7.324l-.038-.164V5.771a.375.375 0 01.75 0v1.303l.36.74a.375.375 0 01-.083.439l-.413.383v.72a.375.375 0 11-.75 0v-.884c0-.105.043-.205.12-.276l.33-.304-.276-.568z" fill="#FFD018"/>
      <path d="M13.626 5.75v3.702" stroke="#FFD018" stroke-width=".75" stroke-linecap="round" stroke-linejoin="round"/>
      <path fill-rule="evenodd" clip-rule="evenodd" d="M12.32 6.293l-.168.547s-.282.364-.334.543c-.052.178-.08.297-.066.297.014 0 .13-.05.13-.174 0-.123.438-.52.438-.52l.13-.693h-.13z" fill="#FFC6B5"/>
      <path fill-rule="evenodd" clip-rule="evenodd" d="M13.686 5.434a.058.058 0 00.006-.026c0-.03-.022-.054-.05-.054-.027 0-.05.024-.05.054 0 .013.004.025.011.034l-.189.293.02.016.189-.293a.047.047 0 00.046-.004l.199.297.02-.016-.202-.3zm-.007.254a.057.057 0 00.013-.037c0-.03-.022-.054-.05-.054-.027 0-.05.025-.05.054 0 .019.008.035.021.044l-.047.057h-.321s.035.081.144.102c.034.032.12.091.12.091l-.05.06h.347v-.06c.084 0 .116-.067.127-.09.005-.01.006-.013.006 0 0 .042.062 0 .062 0s.102-.103.102-.2c0-.096-.214.097-.214.097h-.145l-.065-.064z" fill="#FFD018"/>
      <path fill-rule="evenodd" clip-rule="evenodd" d="M12.73 6.074a.06.06 0 01.008.028c0 .032-.133.078-.23.078-.096 0-.058-.078 0-.121.059-.043-.004-.118-.058-.118-.051 0-.051-.072-.051-.13v-.235c0-.091.025-.08.072-.06a.26.26 0 00.105.027c.072 0 .076.017.087.061a.375.375 0 00.044.116c.045.08.035.1.021.128a.183.183 0 00-.021.093c0 .084.014.113.023.133zm.12.58l.027-.307s-.028-.113.038-.113c.067 0 .17.538.207.754.024.138.002.163-.06.237a1.365 1.365 0 00-.146.2.499.499 0 00-.09.341c.003.05.005.09-.025.133-.072.1-.101.006-.13-.087a1.194 1.194 0 00-.006-.02c-.027-.087.097-.348.182-.526l.03-.065c.08-.17.073-.23.038-.302-.034-.072-.066-.245-.066-.245z" fill="#FFC6B5"/>
      <path fill-rule="evenodd" clip-rule="evenodd" d="M13.01 9.685c0 .078-.06.141-.134.141-.073 0-.133-.063-.133-.141 0-.078.06-.142.133-.142.074 0 .134.064.134.142zm-.71.04c-.06.05-.133.061-.163.025s-.006-.106.054-.156.132-.062.163-.026c.03.036.006.106-.054.156z" fill="#FFD018"/>
      <path fill-rule="evenodd" clip-rule="evenodd" d="M12.476 5.392s-.14.029-.093.098c.046.07-.06.052.093.06.152.01.194.065.173.106-.02.041-.037.143 0 .205.038.062.05.169.116.115.066-.053.192-.127.153-.223-.038-.097.016-.209-.069-.263-.085-.054-.104-.021-.152-.098-.048-.076-.12-.097-.17-.049l-.051.05z" fill="#A95601"/>
      <path fill-rule="evenodd" clip-rule="evenodd" d="M12.448 6.089s-.279.336-.233.454c.045.118.114.125.08.293-.035.168.02.428-.08.76-.1.33-.167 1.107-.134 1.107s.079.429.04.621c-.04.193-.315.354-.04.354s.308.038.418 0c.11-.038.266.11.266 0s.012-.132.096-.132h.154c.074 0 .172.069.172-.095s.018-.517-.077-.79c-.095-.274-.063-.1-.156-.465-.055-.217-.098-.303-.131-.379-.023-.052-.09.04-.105-.042-.005-.027.04-.19.04-.21.004-.13.103-.153.103-.376 0-.26-.062-.544 0-.687.062-.142.215-.057.154-.195-.06-.139-.08-.218-.195-.218h-.372z" fill="#F7FCFF"/>
    </g>
  </g>
</svg>
