<svg width="16" height="12" fill="none" xmlns="http://www.w3.org/2000/svg">
  <path fill-rule="evenodd" clip-rule="evenodd" d="M0 0h16v12H0V0z" fill="#2E42A5"/>
  <g clip-path="url(#KY_-_Cayman_Islands__clip0)">
    <path d="M11.287 6.231h-.125v1.615c0 .985.413 1.644.835 2.054.21.205.423.347.587.44a2.088 2.088 0 00.272.127.371.371 0 00.027.008h0a.16.16 0 00.041.006c.02 0 .037-.004.042-.006h0a.902.902 0 00.092-.035c.05-.023.117-.057.194-.103a2.64 2.64 0 00.547-.44c.393-.412.774-1.07.774-2.052V6.231h-3.285z" fill="#fff" stroke="#F7FCFF" stroke-width=".25"/>
    <mask id="a" maskUnits="userSpaceOnUse" x="11" y="6" width="4" height="5">
      <path d="M11.287 6.231h-.125v1.615c0 .985.413 1.644.835 2.054.21.205.423.347.587.44a2.088 2.088 0 00.272.127.371.371 0 00.027.008h0a.16.16 0 00.041.006c.02 0 .037-.004.042-.006h0a.902.902 0 00.092-.035c.05-.023.117-.057.194-.103a2.64 2.64 0 00.547-.44c.393-.412.774-1.07.774-2.052V6.231h-3.285z" fill="#fff" stroke="#fff" stroke-width=".25"/>
    </mask>
    <g mask="url(#a)">
      <path fill="#F50100" d="M11.084 6.106h3.6v1.7h-3.6z"/>
      <path d="M12.69 8.156c.114 0 .345-.156.402-.193.211-.156.365-.012.49.06.134.073.384.157.537 0 .154-.156.24-.144.346-.144.02-.18.02-.362.02-.567v-.144c-.135-.036-.202.012-.346.169-.144.156-.307.12-.519.024-.201-.109-.403-.302-.604 0-.058.084-.193.205-.327.205-.144 0-.269-.12-.326-.205-.211-.302-.403-.109-.605 0-.211.096-.384.132-.528-.024-.135-.157-.202-.205-.346-.17v.145c0 .205.01.386.03.567.105 0 .181-.012.335.145.154.156.413.072.538 0 .134-.073.288-.217.499-.06.058.036.278.192.403.192z" fill="#F50100"/>
      <path fill-rule="evenodd" clip-rule="evenodd" d="M11.718 6.88s.087.006.19.138c.102.133.48.049.48-.031s-.23-.128-.141-.265c.088-.137.237-.137.357-.066.035 0 .03.468.11.442.248-.08.65-.242.767-.173.155.091.273.068.234-.062-.04-.13-.14-.212-.335-.14-.195.07-.15.14-.317.14-.169 0-.458.114-.33-.14.116-.23.253-.234.305-.138.027.05-.192.158-.192.208 0 .07.563-.137.635-.137.072 0 .27-.005.29.066.02.071.14.137.048.203-.09.067-.242.108-.138.193.104.085.366.124.378.213.011.088.124.22.079.22s-.127.125-.204.087c-.076-.038-.085-.071-.012-.102.073-.03.073-.16.012-.16-.06 0-.055-.01-.192-.055-.138-.046-.32-.096-.308 0 .01.095.104.3-.061.32-.165.02-.243.098-.275.035-.032-.063-.147-.147-.056-.174.09-.027.176.091.209.072.032-.02.102-.089.04-.171-.061-.082-.181-.085-.087-.147.095-.061.038-.108-.141.02-.18.127-.28.235-.438.22-.158-.015-.229.055-.28.034-.05-.02-.297.229-.368.166-.071-.064-.3-.088-.26-.166.042-.077.097-.118.16-.077.061.04.122.08.164.04.042-.04.174-.227.144-.255-.03-.027-.137-.074-.309-.074-.171 0-.175-.143-.216-.208-.04-.065.058-.075.058-.075z" fill="#FFD100"/>
      <path d="M12.69 9.356c.114 0 .345-.156.402-.193.211-.156.365-.012.49.06.134.073.384.157.537 0 .154-.156.24-.144.346-.144.02-.18.02-.362.02-.567v-.144c-.135-.036-.202.012-.346.169-.144.156-.307.12-.519.024-.201-.109-.403-.302-.604 0-.058.084-.193.205-.327.205-.144 0-.269-.12-.326-.205-.211-.302-.403-.109-.605 0-.211.096-.384.132-.528-.024-.135-.157-.202-.205-.346-.17v.145c0 .205.01.386.03.567.105 0 .181-.012.335.145.154.156.413.072.538 0 .134-.073.288-.217.499-.06.058.036.278.192.403.192zm0 1.15c.114 0 .345-.156.402-.193.211-.156.365-.012.49.06.134.073.384.158.537 0 .154-.156.24-.144.346-.144.02-.18.02-.362.02-.567v-.144c-.135-.036-.202.012-.346.169-.144.156-.307.12-.519.024-.201-.109-.403-.302-.604 0-.058.084-.193.205-.327.205-.144 0-.269-.12-.326-.205-.211-.302-.403-.109-.605 0-.211.096-.384.132-.528-.024-.135-.157-.202-.205-.346-.17v.145c0 .205.01.386.03.567.105 0 .181-.012.335.145.154.156.413.072.538 0 .134-.073.288-.217.499-.06.058.036.278.192.403.192z" fill="#0B50A0"/>
      <mask id="b" fill="#fff">
        <path fill-rule="evenodd" clip-rule="evenodd" d="M12.9 10.149l-.285.17.081-.345-.274-.254h.358l.12-.326.141.326h.305l-.24.254.116.344-.321-.17z"/>
      </mask>
      <path fill-rule="evenodd" clip-rule="evenodd" d="M12.9 10.149l-.285.17.081-.345-.274-.254h.358l.12-.326.141.326h.305l-.24.254.116.344-.321-.17z" fill="#059334"/>
      <path d="M12.9 10.149l.258-.487-.273-.143-.265.157.28.473zm-.285.17l-.536-.128-.299 1.261 1.115-.66-.28-.474zm.081-.345l.536.127.074-.313-.236-.218-.374.404zm-.274-.254v-.55h-1.405l1.032.954.373-.404zm.358 0v.55h.384l.132-.36-.516-.19zm.12-.326l.505-.218-.545-1.263-.476 1.291.516.19zm.141.326l-.505.218.143.332h.362v-.55zm.305 0l.4.379.878-.928h-1.278v.55zm-.24.254l-.399-.378-.227.24.105.312.521-.174zm.116.344l-.257.487 1.214.641-.436-1.302-.521.174zm-.602-.642l-.286.17.561.945.286-.169-.56-.946zm.53.77l.082-.345-1.07-.254-.083.345 1.07.253zm-.08-.876l-.274-.253-.747.807.274.254.747-.808zm-.648.7h.358v-1.1h-.358v1.1zm.874-.36l.12-.326-1.032-.38-.12.326 1.032.38zm-.9-.298l.14.326 1.01-.435-.14-.327-1.01.436zm.645.659h.305v-1.1h-.305v1.1zm-.094-.929l-.24.254.799.756.24-.253-.8-.757zm-.362.806l.115.345 1.043-.35-.115-.344-1.043.35zm.894-.316l-.321-.17-.514.973.32.17.515-.973z" fill="#FFD100" mask="url(#b)"/>
      <mask id="c" fill="#fff">
        <path fill-rule="evenodd" clip-rule="evenodd" d="M12.1 9.149l-.285.17.081-.345-.274-.254h.358l.12-.326.141.326h.305l-.24.254.116.344-.321-.17z"/>
      </mask>
      <path fill-rule="evenodd" clip-rule="evenodd" d="M12.1 9.149l-.285.17.081-.345-.274-.254h.358l.12-.326.141.326h.305l-.24.254.116.344-.321-.17z" fill="#059334"/>
      <path d="M12.1 9.149l.258-.487-.273-.143-.265.157.28.473zm-.285.17l-.535-.128-.3 1.261 1.115-.66-.28-.474zm.081-.345l.536.127.074-.313-.236-.218-.374.404zm-.274-.254v-.55h-1.405l1.032.954.373-.404zm.358 0v.55h.384l.132-.36-.516-.19zm.12-.326l.505-.218-.545-1.263-.476 1.291.516.19zm.141.326l-.505.218.143.332h.362v-.55zm.305 0l.4.379.879-.928h-1.279v.55zm-.24.254l-.399-.378-.227.24.105.312.521-.174zm.116.344l-.257.487 1.214.641-.436-1.302-.521.174zm-.602-.642l-.286.17.561.946.286-.17-.56-.946zm.53.77l.082-.345-1.07-.254-.082.344 1.07.254zm-.08-.876l-.274-.253-.747.807.274.254.747-.808zm-.648.7h.358v-1.1h-.358v1.1zm.874-.36l.12-.326-1.032-.38-.12.326 1.032.38zm-.9-.298l.14.326 1.01-.435-.14-.327-1.01.436zm.645.659h.305v-1.1h-.305v1.1zm-.094-.929l-.24.254.799.756.24-.253-.8-.757zm-.362.806l.115.345 1.043-.35-.115-.344-1.043.35zm.894-.316l-.321-.17-.514.973.321.17.514-.973z" fill="#FFD100" mask="url(#c)"/>
      <mask id="d" fill="#fff">
        <path fill-rule="evenodd" clip-rule="evenodd" d="M13.7 9.149l-.285.17.081-.345-.274-.254h.358l.12-.326.141.326h.305l-.24.254.116.344-.321-.17z"/>
      </mask>
      <path fill-rule="evenodd" clip-rule="evenodd" d="M13.7 9.149l-.285.17.081-.345-.274-.254h.358l.12-.326.141.326h.305l-.24.254.116.344-.321-.17z" fill="#059334"/>
      <path d="M13.7 9.149l.258-.487-.273-.143-.265.157.28.473zm-.285.17l-.535-.128-.3 1.261 1.115-.66-.28-.474zm.081-.345l.535.127.075-.313-.236-.218-.374.404zm-.274-.254v-.55h-1.405l1.032.954.373-.404zm.358 0v.55h.384l.132-.36-.516-.19zm.12-.326l.505-.218-.545-1.263-.476 1.291.516.19zm.141.326l-.505.218.143.332h.362v-.55zm.305 0l.4.379.879-.928h-1.279v.55zm-.24.254l-.399-.378-.227.24.105.312.521-.174zm.116.344l-.257.487 1.214.641-.436-1.302-.521.174zm-.602-.642l-.286.17.561.946.286-.17-.56-.946zm.53.77l.082-.345-1.07-.254-.082.344 1.07.254zm-.08-.876l-.274-.253-.747.807.274.254.747-.808zm-.648.7h.358v-1.1h-.358v1.1zm.874-.36l.12-.326-1.032-.38-.12.326 1.032.38zm-.9-.298l.14.326 1.01-.435-.14-.327-1.01.436zm.645.659h.305v-1.1h-.305v1.1zm-.094-.929l-.24.254.799.756.24-.253-.8-.757zm-.362.806l.115.345 1.043-.35-.115-.344-1.043.35zm.894-.316l-.321-.17-.514.973.32.17.515-.973z" fill="#FFD100" mask="url(#d)"/>
    </g>
  </g>
  <path d="M10.524 10.39c.046.13.375.303.758.082.26-.156.428-.377.59-.77.045-.099.068-.222-.04-.295-.083-.066-.221-.14-.282-.205-.031-.033-.062-.058-.085-.082a.35.35 0 01.046.057c.154.197-.007.483-.176.656-.122.122-.344.425-.666.139-.069-.066-.23.205-.145.418zm4.654 0c-.053.13-.382.303-.758.082-.26-.156-.428-.377-.597-.77-.038-.099-.06-.222.046-.295.085-.066.222-.14.284-.205a.783.783 0 01.084-.082.35.35 0 00-.046.057c-.153.197.007.483.168.656.123.122.352.425.674.139.069-.066.222.205.145.418z" fill="#FFD100"/>
  <path d="M12.851 11.094c.613 0 1.554-.295 2.06-1.327.084-.172 0-.262-.1-.32a1.176 1.176 0 01-.306-.237c.122.131.1.221.015.369-.39.696-.926 1.048-1.669 1.048s-1.278-.352-1.669-1.048c-.084-.148-.107-.238.008-.37-.061.075-.2.19-.306.239-.1.057-.184.147-.1.319a2.307 2.307 0 002.067 1.327z" fill="#FFD100"/>
  <path d="M11.435 9.71c-.016-.082-.115-.05-.146.049a1.37 1.37 0 01-.107-.18c-.092-.148-.107-.246.023-.385.061-.066.184-.14.268-.058.176.156.084.41-.038.574zm2.825 0c.015-.082.122-.05.153.049a1.37 1.37 0 00.107-.18c.092-.148.107-.246-.03-.385-.054-.066-.177-.14-.269-.058-.168.156-.084.41.039.574z" fill="#F50100"/>
  <path fill-rule="evenodd" clip-rule="evenodd" d="M12.492 4.272a3.232 3.232 0 00-.682-.685c-.087-.069-.143-.113-.143-.133 0-.058.455.096.92.488a1.1 1.1 0 01.033-.068c-.137-.273-.372-.516-.505-.654-.064-.065-.104-.107-.1-.117.01-.03.392.217.731.593a.451.451 0 01.105-.081l-.224-.373h.8l-.239.397c.052.037.1.089.143.152.356-.429.804-.721.815-.688l-.27.613a3.164 3.164 0 00-.399.31l-.024.022.008.025a.866.866 0 01.016-.047l.055.471.001.073c.23-.255.473-.356.473-.322 0 .011-.026.036-.066.073-.103.098-.304.287-.405.578-.004.012-.016.011-.031.004-.072.391-.27.672-.504.672-.29 0-.527-.436-.533-.98a1.817 1.817 0 00-.247-.274c-.04-.037-.066-.062-.066-.073 0-.026.146.029.319.173.004-.05.01-.1.019-.149zm1.04.225c.234-.45.613-.748.818-.91.087-.069.143-.113.143-.133 0-.045-.276.038-.617.262l-.344.781z" fill="#FFD100"/>
  <path d="M11.893 5.151c-.064-.11-.239-.158-.312-.06-.027.024-.064.024-.091.036-.046 0-.105.03-.087.152.05 0 .05.03.077.03.019-.012.066.212.158.2.1 0 .19.056.209.08.027.037.064.134.018.183a.302.302 0 000 .377c.12.122.422.304.761-.048.33-.341.844-.146.88-.025.046.122.064.195.074.256.009.048.256.121.293.158.046.037.11.024.092-.085-.037-.34-.193-.39-.211-.548.091.012.156.012.192-.036.028-.049.064-.134.101-.158.028-.025.028-.05-.01-.037-.045.012-.072.037-.155.024-.195-.028-.147-.95-.792-1.13-.4-.111-.896.65-1.033.725a.067.067 0 01-.008.004c-.064 0-.12-.037-.156-.098z" fill="#059334"/>
  <mask id="e" maskUnits="userSpaceOnUse" x="0" y="0" width="9" height="7">
    <path fill="#fff" d="M0 0h9v7H0z"/>
  </mask>
  <g mask="url(#e)">
    <path d="M-1.002 6.5l1.98.869L9.045.944l1.045-1.29-2.118-.29-3.29 2.768-2.649 1.865L-1.002 6.5z" fill="#F7FCFF"/>
    <path d="M-.731 7.108l1.009.505 9.437-8.08H8.298L-.731 7.109z" fill="#F50100"/>
    <path d="M10.002 6.5l-1.98.869L-.045.944-1.09-.346l2.118-.29 3.29 2.768 2.649 1.865L10.002 6.5z" fill="#F7FCFF"/>
    <path d="M9.935 6.937l-1.01.504-4.018-3.46-1.19-.386L-1.19-.342H.227L5.13 3.502l1.303.463 3.502 2.972z" fill="#F50100"/>
    <mask id="f" maskUnits="userSpaceOnUse" x="-1" y="-1" width="11" height="9" fill="#000">
      <path fill="#fff" d="M-1-1h11v9H-1z"/>
      <path fill-rule="evenodd" clip-rule="evenodd" d="M4.992 0h-1v3H0v1h3.992v3h1V4H9V3H4.992V0z"/>
    </mask>
    <path fill-rule="evenodd" clip-rule="evenodd" d="M4.992 0h-1v3H0v1h3.992v3h1V4H9V3H4.992V0z" fill="#F50100"/>
    <path d="M3.992 0v-.75h-.75V0h.75zm1 0h.75v-.75h-.75V0zm-1 3v.75h.75V3h-.75zM0 3v-.75h-.75V3H0zm0 1h-.75v.75H0V4zm3.992 0h.75v-.75h-.75V4zm0 3h-.75v.75h.75V7zm1 0v.75h.75V7h-.75zm0-3v-.75h-.75V4h.75zM9 4v.75h.75V4H9zm0-1h.75v-.75H9V3zM4.992 3h-.75v.75h.75V3zm-1-2.25h1v-1.5h-1v1.5zM4.742 3V0h-1.5v3h1.5zM0 3.75h3.992v-1.5H0v1.5zM.75 4V3h-1.5v1h1.5zm3.242-.75H0v1.5h3.992v-1.5zM4.742 7V4h-1.5v3h1.5zm.25-.75h-1v1.5h1v-1.5zM4.242 4v3h1.5V4h-1.5zM9 3.25H4.992v1.5H9v-1.5zM8.25 3v1h1.5V3h-1.5zm-3.258.75H9v-1.5H4.992v1.5zM4.242 0v3h1.5V0h-1.5z" fill="#F7FCFF" mask="url(#f)"/>
  </g>
  <defs>
    <clipPath id="KY_-_Cayman_Islands__clip0">
      <path fill="#fff" transform="translate(11.284 6.356)" d="M0 0h4v4H0z"/>
    </clipPath>
  </defs>
</svg>
