<svg width="16" height="12" fill="none" xmlns="http://www.w3.org/2000/svg">
  <mask id="a" maskUnits="userSpaceOnUse" x="0" y="0" width="16" height="12">
    <path fill="#fff" d="M0 0h16v12H0z"/>
  </mask>
  <g mask="url(#a)" fill-rule="evenodd" clip-rule="evenodd">
    <path d="M0 0h16v12H0V0z" fill="#5EAA22"/>
    <path d="M0 0l16 12H0V0z" fill="#4141DB"/>
    <path d="M3 4.5l-.5.366.067-.616L2 4l.567-.25-.067-.616.5.366.5-.366-.067.616L4 4l-.567.25.067.616L3 4.5zm-1 3l-.5.366.067-.616L1 7l.567-.25-.067-.616.5.366.5-.366-.067.616L3 7l-.567.25.067.616L2 7.5zm2 3l-.5.366.067-.616L3 10l.567-.25-.067-.616.5.366.5-.366-.067.616L5 10l-.567.25.067.616L4 10.5zm.5-4.75l-.25.183.033-.308L4 5.5l.283-.125-.033-.308.25.183.25-.183-.033.308L5 5.5l-.283.125.033.308-.25-.183z" fill="#fff"/>
    <path d="M10.78 6.112c-.186-.195 1.496-.653 1.67-1.244.231-.514.077-.931-.796-1.297-.873-.366-1.756-1.074-.741-1.074 1.014 0 1.014.145 1.287.572.273.426.862.518.874 0 0-.883.084-1.002-.63-1.77-.712-.767 1.788.316 1.581 1.631-.206 1.316-.455.892-.297 1.113.158.22 1.108-.465.99.448-.333.526-.992 1.307-3.938 1.621z" fill="#FECA00"/>
    <path d="M8 8.5a2.5 2.5 0 100-5 2.5 2.5 0 000 5z" fill="#FECA00"/>
    <path d="M6.476 5.081c.284-.063.672.696 1.372.411.7-.284.846-.828 1.178-.63.333.2.376.679.155.92-.222.24-.598.298-.598.602s-.073 1.39-.217 1.075c-.43-.35-.168-.906-.698-1.075-.531-.17-.853-.163-1.245-.092-.391.071.263-.196.402-.45.282-.272-.478-.67-.349-.761z" fill="#548650"/>
  </g>
</svg>
