<svg width="16" height="12" fill="none" xmlns="http://www.w3.org/2000/svg">
  <mask id="a" maskUnits="userSpaceOnUse" x="0" y="0" width="16" height="12">
    <path fill="#fff" d="M0 0h16v12H0z"/>
  </mask>
  <g mask="url(#a)">
    <path fill-rule="evenodd" clip-rule="evenodd" d="M0 0v12h16V0H0z" fill="#3195F9"/>
    <mask id="b" maskUnits="userSpaceOnUse" x="0" y="0" width="16" height="12">
      <path fill-rule="evenodd" clip-rule="evenodd" d="M0 0v12h16V0H0z" fill="#fff"/>
    </mask>
    <g mask="url(#b)">
      <path d="M-.91 12.72l.346.52.52-.348L18.086.791l.52-.347-.347-.52-1.11-1.664-.347-.52-.52.348-18.13 12.101-.52.347.347.52 1.11 1.664z" fill="#E31D1C" stroke="#FECA00" stroke-width="1.25"/>
      <path fill-rule="evenodd" clip-rule="evenodd" d="M2.465 4.303L.723 5.512l.556-2.07L0 2.119l1.732-.072L2.465 0l.733 2.047h1.73L3.65 3.442l.64 1.948-1.826-1.087z" fill="#FECA00"/>
    </g>
  </g>
</svg>
