<svg width="16" height="12" fill="none" xmlns="http://www.w3.org/2000/svg">
  <mask id="a" maskUnits="userSpaceOnUse" x="0" y="0" width="16" height="12">
    <path fill="#fff" d="M0 0h16v12H0z"/>
  </mask>
  <g mask="url(#a)">
    <path fill-rule="evenodd" clip-rule="evenodd" d="M0 0v12.288h16.384V0H0z" fill="#F7FCFF"/>
    <mask id="b" maskUnits="userSpaceOnUse" x="0" y="0" width="17" height="13">
      <path fill-rule="evenodd" clip-rule="evenodd" d="M0 0v12.288h16.384V0H0z" fill="#fff"/>
    </mask>
    <g mask="url(#b)" fill-rule="evenodd" clip-rule="evenodd">
      <path d="M0 0v4.096h16.384V0H0z" fill="#009D00"/>
      <path d="M0 4.096v4.096h16.384V4.096H0z" fill="#fff"/>
      <path d="M0 8.192v4.096h16.384V8.192H0z" fill="#F80000"/>
    </g>
    <path fill-rule="evenodd" clip-rule="evenodd" d="M0 0v12.288l4.096-6.066L0 0z" fill="#0075D5"/>
    <path d="M7.46 4.55l.003.011-.016-.014-.103-.095-.012.139h.011l-.019.012-.122.068.128.055.005-.01.004.02.028.138.092-.105-.009-.008.022.003.138.016-.071-.12-.01.006.01-.02.058-.127-.137.031zm.512 0l.003.011-.016-.014-.103-.095-.012.139h.011l-.02.012-.12.068.127.055.005-.01.004.02.027.138.093-.105-.01-.008.023.003.138.016-.071-.12-.01.006.01-.02.058-.127-.137.031zm.512 0l.003.011-.016-.014-.103-.095-.012.139h.011l-.019.012-.122.068.129.055.004-.01.004.02.028.138.092-.105-.009-.008.022.003.138.016-.071-.12-.01.006.01-.02.058-.127-.137.031zm.512 0L9 4.561l-.016-.014-.103-.095-.012.139h.011l-.019.012-.122.068.128.055.005-.01.004.02.028.138.092-.105-.009-.008.022.003.138.016-.071-.12-.01.006.01-.02.058-.127-.137.031zm.512 0l.003.011-.016-.014-.103-.095-.012.139h.011l-.019.012-.122.068.128.055.005-.01.004.02.027.138.093-.105-.009-.008.022.003.138.016-.071-.12-.01.006.01-.02.058-.127-.137.031zm.512 0l.003.011-.016-.014-.103-.095-.012.139h.011l-.019.012-.122.068.129.055.004-.01.004.02.028.138.092-.105-.009-.008.022.003.138.016-.071-.12-.01.006.01-.02.058-.127-.136.031z" fill="#FFD500" stroke="#000" stroke-width=".03"/>
    <path d="M7.71 5.15h1.988v1.506a.994.994 0 11-1.988 0V5.15z" stroke="#373737" stroke-width=".06"/>
    <path fill-rule="evenodd" clip-rule="evenodd" d="M8.564 6.123s-.103 1.211-.206 1.285c-.104.073.494.11.55.055.058-.055-.26-1.042-.15-1.34.109-.297.285-.321.285-.321s-.222-.047-.286.042c-.063.09-.252-.042-.252-.042l.059.321z" fill="#6F3E1D"/>
    <path fill-rule="evenodd" clip-rule="evenodd" d="M8.541 6.055h-.08s-.053.21-.176.105c-.124-.105-.298-.068-.298-.068s.016-.126.205-.176c.19-.05.27-.456.27-.456s.268-.1.431.105c.163.204.393.117.393.117s.168.095.084.234-.227.24-.352.139c-.125-.102-.477 0-.477 0z" fill="#009D29"/>
  </g>
</svg>
