<svg width="16" height="12" fill="none" xmlns="http://www.w3.org/2000/svg">
  <mask id="a" maskUnits="userSpaceOnUse" x="0" y="0" width="16" height="12">
    <path fill="#fff" d="M0 0h16v12H0z"/>
  </mask>
  <g mask="url(#a)">
    <path fill-rule="evenodd" clip-rule="evenodd" d="M0 0v12h16V0H0z" fill="#F7FCFF"/>
    <mask id="b" maskUnits="userSpaceOnUse" x="0" y="0" width="16" height="12">
      <path fill-rule="evenodd" clip-rule="evenodd" d="M0 0v12h16V0H0z" fill="#fff"/>
    </mask>
    <g mask="url(#b)">
      <path fill-rule="evenodd" clip-rule="evenodd" d="M0 0v3h16V0H0zm0 9v3h16V9H0z" fill="#BF2714"/>
      <mask id="c" maskUnits="userSpaceOnUse" x="5" y="3" width="6" height="6">
        <path fill-rule="evenodd" clip-rule="evenodd" d="M8 9a3 3 0 100-6 3 3 0 000 6z" fill="#fff"/>
      </mask>
      <g mask="url(#c)">
        <path fill-rule="evenodd" clip-rule="evenodd" d="M7.019 6.688l.22-3.613C5.95 3.338 5 4.314 5 6.101c0 .943.627.831 1.553.665.148-.026.304-.054.466-.08zm1.428-3.661l.511 3.672c.185.034.361.072.528.109.904.197 1.514.33 1.514-.706 0-1.845-1.108-2.898-2.553-3.075z" fill="#FA8F21"/>
        <path fill-rule="evenodd" clip-rule="evenodd" d="M8 9c1.657 0 3-.895 3-2S9.657 5 8 5s-3 .895-3 2 1.343 2 3 2z" fill="#5277B9"/>
        <path fill-rule="evenodd" clip-rule="evenodd" d="M5.274 6.882a.098.098 0 01.143-.115l.187.109a.098.098 0 00.091.004l.462-.216a.098.098 0 01.099.01l.498.359.689-.371a.098.098 0 01.086-.004l.518.226c.027.011.056.01.082-.002l.466-.224a.098.098 0 01.079-.003l.575.23c.026.01.056.01.08-.003l.447-.22a.098.098 0 01.089 0l.409.215c.03.015.065.015.094-.002l.213-.12a.098.098 0 01.143.11l-.044.168H5.322l-.048-.15zm-.002.593a.098.098 0 01.145-.113l.17.102a.098.098 0 00.094.005l.438-.213a.098.098 0 01.102.01l.478.357.662-.37a.098.098 0 01.088-.003l.495.223a.098.098 0 00.085-.002l.443-.221a.098.098 0 01.082-.003l.55.227a.1.1 0 00.083-.003l.424-.218a.098.098 0 01.092.001l.389.211c.03.017.067.016.097-.001l.195-.115a.098.098 0 01.145.11l-.042.164H5.318l-.046-.148zm.098.394a.098.098 0 01.146-.113l.17.102a.098.098 0 00.093.004l.439-.213a.098.098 0 01.102.01l.478.357.662-.369a.098.098 0 01.088-.004l.495.223a.098.098 0 00.084-.002l.444-.221a.098.098 0 01.081-.003l.55.228a.1.1 0 00.083-.004l.425-.217a.098.098 0 01.092 0l.388.212c.03.016.067.016.097-.002l.195-.114a.098.098 0 01.145.109l-.042.164H5.416l-.045-.147zm.591.393a.098.098 0 01.145-.113l.17.102a.098.098 0 00.093.004l.439-.212a.098.098 0 01.102.01l.478.357.662-.37a.098.098 0 01.088-.003l.495.223a.098.098 0 00.084-.002l.444-.222a.098.098 0 01.081-.002l.55.227a.1.1 0 00.083-.003l.425-.218a.098.098 0 01.092.001l.389.211c.03.017.066.016.096-.001l.195-.115a.098.098 0 01.145.11l-.042.164H6.006l-.045-.148zm-.787.492a.098.098 0 01.145-.113l.17.102a.098.098 0 00.093.004l.439-.213a.098.098 0 01.102.01l.478.358.662-.37a.098.098 0 01.088-.003l.495.222a.098.098 0 00.084-.001l.444-.222a.098.098 0 01.082-.003l.55.228c.026.011.056.01.082-.003l.425-.218a.098.098 0 01.092.001l.389.211c.03.016.067.016.096-.002l.195-.114a.098.098 0 01.146.11l-.043.164H5.22l-.046-.148z" fill="#5277B9"/>
        <path d="M6.334 4.723h.5l-.012 1.976c.084.266.204.37.39.37v.5c-.423 0-.722-.26-.878-.795V4.723zm3.262 0h-.5l.012 1.976c-.084.266-.204.37-.39.37v.5c.422 0 .721-.26.878-.795V4.723z" fill="red"/>
        <path fill-rule="evenodd" clip-rule="evenodd" d="M8.362 3.454s-.829-.217-.829.333v1.731l.967.288V4.39s-.484-.296-.484-.527c0-.23.346-.41.346-.41z" fill="red"/>
        <path d="M6.967 6.445l.315-.403m-.028.39l-.302-.405m.468.418l.315-.403m-.028.39l-.302-.405m.447.418l.316-.403m-.028.39l-.302-.405m.467.418l.315-.403m-.028.39l-.302-.405m.467.418l.315-.403m-.027.39l-.303-.405" stroke="#000" stroke-width=".5"/>
      </g>
    </g>
  </g>
</svg>
