<svg width="16" height="12" fill="none" xmlns="http://www.w3.org/2000/svg">
  <mask id="a" maskUnits="userSpaceOnUse" x="0" y="0" width="16" height="12">
    <path fill="#fff" d="M0 0h16v12H0z"/>
  </mask>
  <g mask="url(#a)">
    <path fill-rule="evenodd" clip-rule="evenodd" d="M0 0h16v12H0V0z" fill="#F7FCFF"/>
    <path fill-rule="evenodd" clip-rule="evenodd" d="M0 0h7v12H0V0z" fill="#FFDC17"/>
    <path d="M11.39 6.376l-.172.01c.041.594.169 1.052.385 1.375.349.521.809.924 1.117.924.07 0 .086.026.063.09-.033.091-.137.18-.27.215-.222.058-.727.087-1.506.087v.168c.795 0 1.309-.03 1.55-.093.188-.048.337-.177.389-.322.06-.167-.03-.312-.226-.312-.23 0-.653-.372-.972-.848-.198-.296-.318-.728-.357-1.294zm-.817 0l.173.01c-.041.594-.168 1.052-.385 1.375-.348.521-.808.924-1.116.924-.07 0-.086.026-.063.09.033.091.136.18.27.215.222.058.726.087 1.505.087v.168c-.794 0-1.308-.03-1.55-.093-.188-.048-.337-.177-.389-.322-.06-.167.031-.312.227-.312.228 0 .653-.372.971-.848.198-.296.318-.728.357-1.294z" fill="#AF0100"/>
    <path fill-rule="evenodd" clip-rule="evenodd" d="M14.034 3.399L9.463 6.962a1.67 1.67 0 00-.517-.08c-.742 0-1.362.473-1.362 1.088 0 .614.62 1.088 1.362 1.088.085 0 .169-.006.25-.018a.479.479 0 01-.16-.21c-.033-.093-.02-.18.033-.238-.04.004-.081.006-.123.006-.5 0-.886-.295-.886-.628s.386-.628.886-.628.887.295.887.628c0 .102-.037.2-.101.287l.036-.033c.159-.147-.197.461-.505.461-.07 0-.086.026-.063.09.03.086.124.17.245.208.501-.157.863-.544.863-1.013a.92.92 0 00-.166-.525l2.456-2.085.165.17.118-.107.41.304-.171.132.35.426.706-.545.012-.006-.002-.001.044-.034-.35-.426-.17.13-.458-.317.053-.048-.147-.153.222-.188.118.122.126-.115.398.315-.167.129.35.425.605-.466.07-.038-.01-.008.095-.074-.35-.426-.198.153-.435-.334.059-.054-.101-.104.452-.384-.358-.439z" fill="#F4B300"/>
    <path fill-rule="evenodd" clip-rule="evenodd" d="M11.692 7.97c0-.277.125-.524.33-.713L9.399 5.224l-.03.023.077.07-.207.213-.11-.099-.401.31.153.118-.35.426-.699-.539-.02-.012.003-.001-.044-.034.35-.426.17.13.458-.317-.053-.048.198-.205-.231-.18-.16.166-.121-.11-.393.317.157.122-.35.425-.586-.452-.088-.052.01-.008-.096-.074.35-.426.198.153.436-.334-.06-.054.12-.123-.47-.365.296-.36 4.541 3.517c.184-.073.39-.114.608-.114.742 0 1.362.474 1.362 1.089 0 .614-.62 1.088-1.362 1.088a1.72 1.72 0 01-.25-.018.479.479 0 00.16-.21c.033-.093.02-.18-.033-.238.04.004.081.006.123.006.5 0 .887-.295.887-.628s-.387-.628-.887-.628-.886.295-.886.628c0 .102.036.2.1.287a2.008 2.008 0 01-.036-.033c-.159-.147.197.461.505.461.07 0 .086.026.063.09-.03.086-.123.17-.245.208-.501-.157-.863-.544-.863-1.013z" fill="#BFBFBF"/>
    <path fill-rule="evenodd" clip-rule="evenodd" d="M10.87 5.898a.065.065 0 00-.064.065v.27h-.24a.063.063 0 100 .125h.24v3.577c0 .036.029.065.064.065H11a.065.065 0 00.065-.065V6.358h.37a.063.063 0 100-.125h-.37v-.27A.065.065 0 0011 5.898h-.13z" fill="#AF0100"/>
    <path fill-rule="evenodd" clip-rule="evenodd" d="M10.935 10.008c.143 0 .26-.058.26-.13 0-.071-.117-.13-.26-.13-.143 0-.26.059-.26.13 0 .072.117.13.26.13z" fill="#AF0100"/>
    <path fill-rule="evenodd" clip-rule="evenodd" d="M10 2.9a.9.9 0 111.8 0v1.622H10V2.9z" fill="#F4B300"/>
    <path fill-rule="evenodd" clip-rule="evenodd" d="M10.892 4.61c.502 0 .908-.068.908-.152 0-.083-.407-.151-.908-.151-.502 0-.908.068-.908.151 0 .084.406.152.908.152z" fill="#AF0100"/>
  </g>
</svg>
