<svg width="16" height="12" fill="none" xmlns="http://www.w3.org/2000/svg">
  <mask id="a" maskUnits="userSpaceOnUse" x="0" y="0" width="16" height="12">
    <path fill="#fff" d="M0 0h16v12H0z"/>
  </mask>
  <g mask="url(#a)">
    <path fill-rule="evenodd" clip-rule="evenodd" d="M0 0v12h16V0H0z" fill="#F7FCFF"/>
    <mask id="b" maskUnits="userSpaceOnUse" x="0" y="0" width="16" height="12">
      <path fill-rule="evenodd" clip-rule="evenodd" d="M0 0v12h16V0H0z" fill="#fff"/>
    </mask>
    <g mask="url(#b)" fill-rule="evenodd" clip-rule="evenodd" fill="#4564F9">
      <path d="M0 0v4h16V0H0zm0 8v4h16V8H0zm8.41-1.434l-.589.309.113-.655-.476-.51h.657l.294-.644.294.643h.657l-.475.511.112.655-.588-.31zm-3-1l-.589.309.113-.655-.476-.51h.657l.294-.644.294.643h.657l-.475.511.112.655-.588-.31zm0 2l-.589.309.113-.655-.476-.51h.657l.294-.644.294.643h.657l-.475.511.112.655-.588-.31zm6-2l-.589.309.113-.655-.476-.51h.657l.294-.644.294.643h.657l-.475.511.112.655-.588-.31zm0 2l-.589.309.113-.655-.476-.51h.657l.294-.644.294.643h.657l-.475.511.112.655-.588-.31z"/>
    </g>
  </g>
</svg>
