<svg width="16" height="12" fill="none" xmlns="http://www.w3.org/2000/svg">
  <mask id="a" maskUnits="userSpaceOnUse" x="0" y="0" width="16" height="12">
    <path fill="#fff" d="M0 0h16v12H0z"/>
  </mask>
  <g mask="url(#a)">
    <path fill-rule="evenodd" clip-rule="evenodd" d="M0 0v12h16V0H0z" fill="#4EC7EE"/>
    <mask id="b" maskUnits="userSpaceOnUse" x="0" y="0" width="16" height="12">
      <path fill-rule="evenodd" clip-rule="evenodd" d="M0 0v12h16V0H0z" fill="#fff"/>
    </mask>
    <g mask="url(#b)">
      <path d="M2.045 11.618c-.032.236.119.403.371.51.34.145.682.01.997-.34l-.408-.368c-.14.155-.241.215-.32.214.154-.11.35-.244.588-.404l.115-.166c.092-.395-.194-.608-.63-.608-.257 0-.463.05-.593.16-.214.18-.177.466.048.615a.593.593 0 00.054.032c-.126.107-.203.217-.222.355z" fill="#FFE402"/>
      <path d="M2.282 11.248s.063-.139.032-.21" stroke="#FFE402" stroke-width=".55"/>
      <path d="M4.285 11.618c.032.236-.119.403-.372.51-.339.145-.681.01-.997-.34l.409-.368c.14.155.24.215.319.214-.153-.11-.349-.244-.587-.404l-.115-.166c-.092-.395.194-.608.63-.608.257 0 .462.05.593.16.214.18.177.466-.048.615a.593.593 0 01-.054.032c.126.107.203.217.222.355z" fill="#FFE402"/>
      <path d="M4.298 11.135l-.501.226c-.07-.156-.092-.298-.033-.433l.504.219c.017-.04.017-.04.03-.012zM2.045.382c-.032-.235.119-.403.371-.51.34-.145.682-.01.997.34L3.005.58c-.14-.155-.241-.215-.32-.214.154.11.35.244.588.404l.115.166c.092.395-.194.608-.63.608-.257 0-.463-.05-.593-.16-.214-.18-.177-.466.048-.615a.582.582 0 01.054-.032C2.141.631 2.064.52 2.045.382z" fill="#FFE402"/>
      <path d="M4.285.382c.032-.235-.119-.403-.372-.51-.339-.145-.681-.01-.997.34l.409.368c.14-.155.24-.215.319-.214-.153.11-.349.244-.587.404l-.115.166c-.092.395.194.608.63.608.257 0 .462-.05.593-.16.214-.18.177-.466-.048-.615a.582.582 0 00-.054-.032c.126-.106.203-.217.222-.355z" fill="#FFE402"/>
      <path fill-rule="evenodd" clip-rule="evenodd" d="M2.547 10.031c-.316.01-.512.075-.512.379 0 .335.326.44.673.44.314 0 .667-.195.667-.544 0-.212-.27-.64-.95-1.57-.023-.021-.036-.033-.046-.033a.437.437 0 01.21-.05c.033 0 .076.017.119.039v.364h.72v-.275c0-.31-.46-.678-.84-.678-.331 0-.598.158-.733.385-.133.225-.031.44.16.611.285.393.506.718.645.932h-.113zm.034.254a.454.454 0 01-.029-.007c.007.007.033.038.033.132a.884.884 0 01-.006.112.264.264 0 01-.05-.335l.001-.002-.01-.02.004-.003c.016-.008.03-.015.006.023l.05.1zm-.029-.007l-.01-.003c.002 0 .003 0 .005.002h.005zm.273.028c0-.01-.003-.015-.008-.018l.003.004a.049.049 0 01.005.014z" fill="#FFE402"/>
      <path fill-rule="evenodd" clip-rule="evenodd" d="M3.783 10.031c.315.01.512.075.512.379 0 .335-.326.44-.673.44-.314 0-.668-.195-.668-.544 0-.212.27-.64.95-1.57.024-.021.037-.033.047-.033a.437.437 0 00-.21-.05.299.299 0 00-.119.039v.364h-.72v-.275c0-.31.46-.678.84-.678.331 0 .597.158.732.385.134.225.032.44-.16.611-.285.393-.506.718-.644.932h.113zm-.034.254a.454.454 0 00.029-.007c-.007.007-.033.038-.033.132 0 .05.002.087.005.112a.264.264 0 00.051-.335l-.001-.002.01-.02-.004-.003c-.016-.008-.03-.015-.006.023l-.051.1zm.029-.007l.01-.003a.022.022 0 00-.005.002h-.005zm-.274.028c0-.01.004-.015.01-.018l-.004.004a.049.049 0 00-.006.014z" fill="#FFE402"/>
      <path fill-rule="evenodd" clip-rule="evenodd" d="M2.547 6.677c-.316-.009-.512-.074-.512-.378 0-.335.326-.44.673-.44.314 0 .667.195.667.544 0 .212-.27.64-.95 1.57-.023.021-.036.032-.046.033.04.022.113.05.21.05a.299.299 0 00.119-.039v-.364h.72v.275c0 .31-.46.677-.84.677-.331 0-.598-.157-.733-.384-.133-.225-.031-.44.16-.611.285-.393.506-.718.645-.932h-.113zm.034-.253a.461.461 0 00-.029.007c.007-.007.033-.038.033-.132a.884.884 0 00-.006-.112.264.264 0 00-.05.334l.001.003-.01.02.004.003c.016.008.03.015.006-.023l.05-.1zm-.029.007l-.01.003a.017.017 0 00.005-.002l.005-.001zm.273-.028c0 .01-.003.015-.008.018l.003-.004a.05.05 0 00.005-.014z" fill="#FFE402"/>
      <path fill-rule="evenodd" clip-rule="evenodd" d="M3.783 6.677c.315-.009.512-.074.512-.378 0-.335-.326-.44-.673-.44-.314 0-.668.195-.668.544 0 .212.27.64.95 1.57.024.021.037.032.047.033a.437.437 0 01-.21.05.299.299 0 01-.119-.039v-.364h-.72v.275c0 .31.46.677.84.677.331 0 .597-.157.732-.384.134-.225.032-.44-.16-.611a22.959 22.959 0 01-.644-.932h.113zm-.034-.253l.029.007c-.007-.007-.033-.038-.033-.132 0-.05.002-.087.005-.112a.264.264 0 01.051.334l-.001.003.01.02-.004.003c-.016.008-.03.015-.006-.023l-.051-.1zm.029.007l.01.003a.017.017 0 01-.005-.002l-.005-.001zm-.274-.028c0 .01.004.015.01.018l-.004-.004a.049.049 0 01-.006-.014z" fill="#FFE402"/>
      <path fill-rule="evenodd" clip-rule="evenodd" d="M2.547 5.323c-.316.009-.512.074-.512.378 0 .335.326.44.673.44.314 0 .667-.195.667-.544 0-.212-.27-.64-.95-1.57-.023-.021-.036-.032-.046-.033a.437.437 0 01.21-.05c.033 0 .076.017.119.039v.364h.72v-.275c0-.31-.46-.677-.84-.677-.331 0-.598.157-.733.384-.133.225-.031.44.16.611.285.393.506.718.645.932h-.113zm.034.253a.469.469 0 01-.029-.007c.007.007.033.038.033.132a.884.884 0 01-.006.112.264.264 0 01-.05-.334l.001-.003-.01-.02.004-.003c.016-.008.03-.015.006.023l.05.1zm-.029-.007l-.01-.003.005.002.005.001zm.273.028c0-.01-.003-.015-.008-.018l.003.004a.05.05 0 01.005.014z" fill="#FFE402"/>
      <path fill-rule="evenodd" clip-rule="evenodd" d="M3.783 5.323c.315.009.512.074.512.378 0 .335-.326.44-.673.44-.314 0-.668-.195-.668-.544 0-.212.27-.64.95-1.57.024-.021.037-.032.047-.033a.437.437 0 00-.21-.05.299.299 0 00-.119.039v.364h-.72v-.275c0-.31.46-.677.84-.677.331 0 .597.157.732.384.134.225.032.44-.16.611-.285.393-.506.718-.644.932h.113zm-.034.253a.469.469 0 00.029-.007c-.007.007-.033.038-.033.132 0 .05.002.087.005.112a.264.264 0 00.051-.334L3.8 5.476l.01-.02-.004-.003c-.016-.008-.03-.015-.006.023l-.051.1zm.029-.007l.01-.003a.017.017 0 00-.005.002l-.005.001zm-.274.028c0-.01.004-.015.01-.018l-.004.004a.049.049 0 00-.006.014z" fill="#FFE402"/>
      <path fill-rule="evenodd" clip-rule="evenodd" d="M2.547 1.968c-.316-.009-.512-.074-.512-.378 0-.335.326-.44.673-.44.314 0 .667.195.667.544 0 .212-.27.64-.95 1.57-.023.021-.036.033-.046.033a.43.43 0 00.21.05.299.299 0 00.119-.039v-.364h.72v.275c0 .31-.46.678-.84.678-.331 0-.598-.158-.733-.385-.133-.225-.031-.44.16-.611.285-.393.506-.718.645-.932h-.113zm.034-.253a.469.469 0 00-.029.007c.007-.007.033-.038.033-.132a.884.884 0 00-.006-.112.264.264 0 00-.05.335l.001.002-.01.02.004.003c.016.008.03.015.006-.023l.05-.1zm-.029.007l-.01.003a.017.017 0 00.005-.002h.005zm.273-.028c0 .01-.003.015-.008.018l.003-.004a.05.05 0 00.005-.014z" fill="#FFE402"/>
      <path fill-rule="evenodd" clip-rule="evenodd" d="M3.783 1.968c.315-.009.512-.074.512-.378 0-.335-.326-.44-.673-.44-.314 0-.668.195-.668.544 0 .212.27.64.95 1.57.024.021.037.033.047.033a.437.437 0 01-.21.05.299.299 0 01-.119-.039v-.364h-.72v.275c0 .31.46.678.84.678.331 0 .597-.158.732-.385.134-.225.032-.44-.16-.611a22.959 22.959 0 01-.644-.932h.113zm-.034-.253l.029.007c-.007-.007-.033-.038-.033-.132 0-.05.002-.087.005-.112a.264.264 0 01.051.335l-.001.002.01.02-.004.003c-.016.008-.03.015-.006-.023l-.051-.1zm.029.007l.01.003a.017.017 0 01-.005-.002h-.005zm-.274-.028c0 .01.004.015.01.018l-.004-.004a.049.049 0 01-.006-.014zm5.989-.302l.205.764s.003.174-.194.174c-.196 0-.205-.174-.205-.174l.194-.764zm1.732 2.918c0 .994-.759 1.8-1.695 1.8s-1.695-.806-1.695-1.8.76-1.8 1.695-1.8c.936 0 1.695.806 1.695 1.8zm-.934-2l.027-.79-.41.673s-.04.17.147.227c.187.057.236-.11.236-.11zm.78-.416l-.258.748s-.095.145-.258.036c-.162-.11-.073-.26-.073-.26l.588-.524zm.147 1.228l.465-.64-.716.33s-.129.116-.005.269c.123.152.256.04.256.04zm.888.117l-.64.465s-.161.064-.232-.119a.19.19 0 01.089-.254l.783-.092zm-.562 1.102l.748-.257-.776-.141s-.172.021-.159.217c.014.196.187.181.187.181zm.686.607l-.79.028s-.17-.037-.125-.228c.044-.191.215-.162.215-.162l.7.362zm-1.067.603l.764.204-.564-.55s-.155-.079-.253.091c-.098.17.053.255.053.255zm.245.883l-.67-.42s-.12-.124.023-.258.269-.014.269-.014l.378.692zm-1.207-.107l.52.597-.16-.772S10.476 6 10.3 6.086c-.177.086-.099.24-.099.24zm-.277.854l-.321-.722s-.03-.171.164-.202c.193-.03.23.14.23.14l-.073.784zM9 6.396l.082.787.312-.724s.018-.173-.176-.204c-.194-.03-.218.141-.218.141zm-.715.532l.151-.776s.074-.157.25-.071c.176.086.11.246.11.246l-.51.601zm-.318-1.186l-.371.699.663-.426s.111-.134-.032-.268c-.143-.133-.26-.005-.26-.005zm-.892.022l.559-.56s.149-.088.247.081a.19.19 0 01-.047.266l-.76.213zm.392-1.178l-.698.372.788.018s.167-.049.123-.24c-.045-.191-.213-.15-.213-.15zm-.763-.493l.777-.15s.173.01.16.205c-.014.195-.188.193-.188.193l-.749-.248zm.97-.762l-.786-.083.643.456s.165.053.236-.13c.07-.183-.093-.243-.093-.243zm-.367-.841l.723.321s.136.108.013.26c-.124.152-.265.05-.265.05l-.47-.631zm1.208-.071l-.597-.52.266.743s.105.138.268.029c.162-.11.063-.252.063-.252zm.154-.896l.42.67s.052.166-.135.223a.19.19 0 01-.248-.106l-.037-.787z" fill="#FFE402"/>
      <path d="M5.774 4l.721.073c-.346 2.347.588 3.404 3.019 3.404 2.46 0 3.6-1.105 3.6-3.477 0 0 .512-.029.507.073-.11 2.73-1.281 4.481-4.179 4.481-3.036 0-4.104-1.598-3.668-4.554z" fill="#FFE402"/>
      <path d="M5.99 5.4l.68.073c-.326 2.347.556 3.404 2.851 3.404 2.324 0 3.4-1.105 3.4-3.477 0 0 .484-.03.48.073-.104 2.73-1.21 4.481-3.947 4.481-2.867 0-3.877-1.598-3.465-4.554z" fill="#FFE402"/>
    </g>
  </g>
</svg>
