<svg width="16" height="12" fill="none" xmlns="http://www.w3.org/2000/svg">
  <mask id="a" maskUnits="userSpaceOnUse" x="0" y="0" width="16" height="12">
    <path fill="#fff" d="M0 0h16v12H0z"/>
  </mask>
  <g mask="url(#a)">
    <path fill-rule="evenodd" clip-rule="evenodd" d="M0 0v12h16V0H0z" fill="#F7FCFF"/>
    <mask id="b" maskUnits="userSpaceOnUse" x="0" y="0" width="16" height="12">
      <path fill-rule="evenodd" clip-rule="evenodd" d="M0 0v12h16V0H0z" fill="#fff"/>
    </mask>
    <g mask="url(#b)" fill-rule="evenodd" clip-rule="evenodd">
      <path d="M0 0v4h16V0H0z" fill="#272727"/>
      <path d="M0 8v4h16V8H0z" fill="#093"/>
    </g>
    <path fill-rule="evenodd" clip-rule="evenodd" d="M0 0v12l10-6L0 0z" fill="#E31D1C"/>
    <mask id="c" maskUnits="userSpaceOnUse" x="0" y="0" width="10" height="12">
      <path fill-rule="evenodd" clip-rule="evenodd" d="M0 0v12l10-6L0 0z" fill="#fff"/>
    </mask>
    <g mask="url(#c)">
      <path fill-rule="evenodd" clip-rule="evenodd" d="M4.5 6.935l-.934.565.213-1.102L3 5.573l1.055-.044L4.5 4.5l.446 1.029H6l-.777.87.234 1.101-.956-.565z" fill="#F7FCFF"/>
    </g>
  </g>
</svg>
