<svg width="16" height="12" fill="none" xmlns="http://www.w3.org/2000/svg">
  <mask id="a" maskUnits="userSpaceOnUse" x="0" y="0" width="16" height="12">
    <path fill="#fff" d="M0 0h16v12H0z"/>
  </mask>
  <g mask="url(#a)">
    <path fill-rule="evenodd" clip-rule="evenodd" d="M11 0h5v12h-5V0z" fill="#D9071E"/>
    <path fill-rule="evenodd" clip-rule="evenodd" d="M0 0h6v12H0V0z" fill="#3D58DB"/>
    <path fill-rule="evenodd" clip-rule="evenodd" d="M5 0h6v12H5V0z" fill="#FBCD17"/>
    <path fill-rule="evenodd" clip-rule="evenodd" d="M10.86 9.807l-.527.288L8.587 6.9l.527-.287 1.745 3.194zm-5.603.077l.526.288L7.53 6.977l-.527-.288-1.745 3.195z" fill="#FD1900"/>
    <path fill-rule="evenodd" clip-rule="evenodd" d="M5.689 4.695V7.47c0 .617-.53 1.42-.799 1.72-.267.298-.8.983-.8.983V2.704c0-.838.8-1.125.8-1.125s.664.13.799 1.125v.97c.206.161.892.657 1.335.448.526-.249.708-.962.708-.962s-.05-.72-.265-.72c-.216 0-.233-1.015.594-1.015s.924.391.924.703c0 .163-.131.425-.256.675-.113.226-.22.442-.22.565 0 .256.193.754.476.754.198 0 1.153-.371 1.706-.593v-.825c.134-.994.798-1.125.798-1.125s.8.287.8 1.125v7.47s-.532-.686-.8-.985c-.267-.299-.798-1.102-.798-1.719V4.695H5.689zm.886 5.221c.54-.352 1.332-1.93 1.332-1.93l.263.06s.4 1.046 1.58 1.87c-1.257.335-1.58 1.01-1.58 1.01 0-.54-1.595-1.01-1.595-1.01zm-.087-1c.365 0 .66-.28.66-.624 0-.346-.295-.625-.66-.625-.365 0-.66.28-.66.625s.295.625.66.625zm3.872-.624c0 .345-.295.625-.66.625-.365 0-.66-.28-.66-.625 0-.346.295-.625.66-.625.365 0 .66.28.66.625z" fill="#A77B3B"/>
    <path d="M12.57 5.204l.459.198-1.87 4.326-.459-.198 1.87-4.326z" fill="#FDFF00"/>
    <path opacity=".3" fill-rule="evenodd" clip-rule="evenodd" d="M5.52 3.917h5.28v3.82s-1.344.404-2.64 1.068c-.957-.71-2.64-1.069-2.64-1.069v-3.82z" fill="#E1E5E8"/>
    <mask id="b" maskUnits="userSpaceOnUse" x="5" y="3" width="6" height="6">
      <path fill-rule="evenodd" clip-rule="evenodd" d="M5.52 3.917h5.28v3.82s-1.344.404-2.64 1.068c-.957-.71-2.64-1.069-2.64-1.069v-3.82z" fill="#fff"/>
    </mask>
    <g mask="url(#b)">
      <path fill="#3D58DB" d="M5.52 6.417h5.28v2.5H5.52z"/>
      <path fill="#FD1900" d="M5.52 3.917h5.28v2.5H5.52z"/>
      <path fill-rule="evenodd" clip-rule="evenodd" d="M7.893 5.041l-.4.033.231-.311-.246-.323.402.052.154-.355.172.363.4-.033-.23.311.245.322-.402-.051-.154.355-.172-.363z" fill="#FDFF00"/>
      <path fill-rule="evenodd" clip-rule="evenodd" d="M7.175 4.336S6.1 4.99 6.458 5.459c.359.47.81.53.81.53s-1.1 1.65.836 2.592c2.072-.91.982-2.592.982-2.592s.638-.141.765-.649c.128-.507-.833-1.09-.833-1.09s.6.87.463 1.09c-.137.22-.87.445-1.377.445s-1.29-.142-1.415-.527c-.127-.386.486-.922.486-.922z" fill="#FDFF00"/>
    </g>
    <path fill-rule="evenodd" clip-rule="evenodd" d="M2.368 5.764s.527.624 1.024.42c.496-.204.376-.934.376-.934l-.376.34h-.32v.174l-.25-.173v.173h-.454zm.357.958s.642.56 1.075.402c.433-.158.324-.917.324-.917l-.376.341h-.32v.174l-.25-.174v.174h-.453zm1.73 1.271c-.433.159-1.075-.401-1.075-.401h.453v-.174l.25.174v-.174h.32l.376-.341s.109.758-.324.916z" fill="#048F02"/>
    <path fill-rule="evenodd" clip-rule="evenodd" d="M6.99 1.124h-.5v.298h-.236v.5h.236v.872h.5v-.872h.286v-.5H6.99v-.298z" fill="#FDFF00"/>
    <path fill-rule="evenodd" clip-rule="evenodd" d="M7.58 1.692l-1.159.299 1.158.366v-.665z" fill="#DB4400"/>
  </g>
</svg>
