<svg width="16" height="12" fill="none" xmlns="http://www.w3.org/2000/svg">
  <path fill="#fff" d="M0 0h16v12H0z"/>
  <path d="M5.616 6.32l4.316 5.18H.5V.842L9.04 5.5H4.931l.684.82z" fill="#C51918" stroke="#4857A1"/>
  <mask id="a" maskUnits="userSpaceOnUse" x="0" y="0" width="11" height="12">
    <path d="M5.616 6.32l4.316 5.18H.5V.842L9.04 5.5H4.931l.684.82z" fill="#fff" stroke="#fff"/>
  </mask>
  <g mask="url(#a)" fill-rule="evenodd" clip-rule="evenodd">
    <path d="M2.915 10.005l-.613.795-.028-1.003-.963.283.567-.828-.946-.337.946-.337-.567-.828.963.283.028-1.004.613.796.612-.796.029 1.004.963-.283-.567.828.945.337-.945.337.567.828-.963-.283-.029 1.003-.612-.795zM2.9 4.07l-.32.415-.015-.524-.503.148.296-.433-.493-.176.493-.176-.296-.433.503.148.015-.524.32.416.32-.416.015.524.503-.148-.296.433.493.176-.493.176.296.433-.503-.148-.015.524-.32-.416z" fill="#F7FCFF"/>
    <path d="M2.833 3.947c1.113.004 1.707-.627 1.707-.627.117.72-.79 1.2-1.696 1.2-.907 0-1.456-.654-1.794-1.2 0 0 .67.623 1.783.627z" fill="#F9FAFA"/>
  </g>
</svg>
