<svg width="16" height="12" fill="none" xmlns="http://www.w3.org/2000/svg">
  <mask id="a" maskUnits="userSpaceOnUse" x="0" y="0" width="16" height="12">
    <path fill="#fff" d="M0 0h16v12H0z"/>
  </mask>
  <g mask="url(#a)">
    <path fill-rule="evenodd" clip-rule="evenodd" d="M0 0v12h16V0H0z" fill="#2E42A5"/>
    <mask id="b" maskUnits="userSpaceOnUse" x="0" y="0" width="16" height="12">
      <path fill-rule="evenodd" clip-rule="evenodd" d="M0 0v12h16V0H0z" fill="#fff"/>
    </mask>
    <g mask="url(#b)">
      <path d="M12.37 10.562c-.603 0-1.008-.138-1.291-.367-.284-.23-.477-.576-.602-1.055-.126-.481-.178-1.075-.198-1.774a49.768 49.768 0 01-.008-1.596l.002-.501h4.255c.075 1.37.094 2.683-.177 3.667-.142.515-.358.917-.667 1.191-.305.27-.723.435-1.314.435z" fill="#fff" stroke="#E6E617" stroke-width=".5"/>
      <path fill-rule="evenodd" clip-rule="evenodd" d="M10.242 8.967c0 1.031.853 2.05 2.116 2.05a2.332 2.332 0 002.347-2.085l-4.463.035z" fill="#82E5FF"/>
      <path fill-rule="evenodd" clip-rule="evenodd" d="M10.867 7.1c0 .774.648 1.4 1.446 1.4.798 0 1.446-.626 1.446-1.4 0-.774-.648-1.4-1.446-1.4-.798 0-1.446.626-1.446 1.4zm2.292 0c0 .451-.379.817-.846.817-.467 0-.846-.366-.846-.817 0-.451.379-.817.846-.817.467 0 .846.366.846.817z" fill="#E18600"/>
      <path fill-rule="evenodd" clip-rule="evenodd" d="M12.069 5.505s-.526.232-.412.668c.114.436.243.499.243.499s.186-.945.937-.945l-.768-.222zm-.942 2.357s.432.379.78.091c.346-.288.348-.431.348-.431s-.934.23-1.252-.45l.123.79zm2.603-.058s.021-.574-.42-.663c-.443-.088-.555 0-.555 0s.767.581.438 1.256l.536-.593z" fill="#E18600"/>
      <mask id="c" maskUnits="userSpaceOnUse" x="0" y="0" width="9" height="7">
        <path fill="#fff" d="M0 0h9v7H0z"/>
      </mask>
      <g mask="url(#c)">
        <path d="M-1.002 6.5l1.98.868L9.045.944l1.045-1.29-2.118-.29-3.29 2.768-2.649 1.865L-1.002 6.5z" fill="#F7FCFF"/>
        <path d="M-.731 7.108l1.009.505 9.437-8.08H8.298L-.731 7.109z" fill="#F50100"/>
        <path d="M10.002 6.5l-1.98.868L-.045.944-1.09-.346l2.118-.29 3.29 2.768 2.649 1.865L10.002 6.5z" fill="#F7FCFF"/>
        <path d="M9.935 6.937l-1.01.504-4.018-3.46-1.19-.386L-1.19-.342H.227L5.13 3.502l1.303.463 3.502 2.972z" fill="#F50100"/>
        <mask id="d" maskUnits="userSpaceOnUse" x="-1" y="-1" width="11" height="9" fill="#000">
          <path fill="#fff" d="M-1-1h11v9H-1z"/>
          <path fill-rule="evenodd" clip-rule="evenodd" d="M4.992 0h-1v3H0v1h3.992v3h1V4H9V3H4.992V0z"/>
        </mask>
        <path fill-rule="evenodd" clip-rule="evenodd" d="M4.992 0h-1v3H0v1h3.992v3h1V4H9V3H4.992V0z" fill="#F50100"/>
        <path d="M3.992 0v-.75h-.75V0h.75zm1 0h.75v-.75h-.75V0zm-1 3v.75h.75V3h-.75zM0 3v-.75h-.75V3H0zm0 1h-.75v.75H0V4zm3.992 0h.75v-.75h-.75V4zm0 3h-.75v.75h.75V7zm1 0v.75h.75V7h-.75zm0-3v-.75h-.75V4h.75zM9 4v.75h.75V4H9zm0-1h.75v-.75H9V3zM4.992 3h-.75v.75h.75V3zm-1-2.25h1v-1.5h-1v1.5zM4.742 3V0h-1.5v3h1.5zM0 3.75h3.992v-1.5H0v1.5zM.75 4V3h-1.5v1h1.5zm3.242-.75H0v1.5h3.992v-1.5zM4.742 7V4h-1.5v3h1.5zm.25-.75h-1v1.5h1v-1.5zM4.242 4v3h1.5V4h-1.5zM9 3.25H4.992v1.5H9v-1.5zM8.25 3v1h1.5V3h-1.5zm-3.258.75H9v-1.5H4.992v1.5zM4.242 0v3h1.5V0h-1.5z" fill="#F7FCFF" mask="url(#d)"/>
      </g>
    </g>
  </g>
</svg>
