<svg width="16" height="12" fill="none" xmlns="http://www.w3.org/2000/svg">
  <mask id="a" maskUnits="userSpaceOnUse" x="0" y="0" width="16" height="12">
    <path fill="#fff" d="M0 0h16v12H0z"/>
  </mask>
  <g mask="url(#a)">
    <path fill-rule="evenodd" clip-rule="evenodd" d="M0 0v12h16V0H0z" fill="#4857A1"/>
    <mask id="b" maskUnits="userSpaceOnUse" x="0" y="0" width="16" height="12">
      <path fill-rule="evenodd" clip-rule="evenodd" d="M0 0v12h16V0H0z" fill="#fff"/>
    </mask>
    <g mask="url(#b)" fill-rule="evenodd" clip-rule="evenodd">
      <path d="M0 0v4h16V0H0z" fill="#C51918"/>
      <path d="M0 8v4h16V8H0z" fill="#F7FCFF"/>
      <path d="M5.26 1.348l-.064-.244.171.047-.002-.01c.754.07 1.922.447 2.142.84.085.151.002.28-.106.448l-.05.078c-.054.088-.103.171-.149.25-.17.288-.3.512-.505.624l.004.64-3.369-.028-.004-.644c-.175-.12-.298-.329-.452-.591a6.88 6.88 0 00-.2-.329c-.107-.168-.19-.296-.105-.448.166-.296.913-.589 1.593-.744.128-.043.262-.083.394-.121l.055.037a3.72 3.72 0 01.17-.02l.08.171h.264s.166.464.166.721a.86.86 0 01-.166.47v.178l.091.008c0-.016.001-.032.004-.05.015-.084.064-.146.109-.138.045.007.07.083.054.168a.29.29 0 01-.01.038c.178.023.377.055.566.088.072-.132.16-.261.243-.385.216-.32.406-.6.229-.769a.512.512 0 00-.175-.089 5.825 5.825 0 00-.82-.138l-.007-.036a31.083 31.083 0 00-.15-.022zm1.282 1.55l.152.031.001.1c.334-.24.568-.78.588-.956.012-.105-.163-.228-.439-.34.126.235-.05.469-.271.76a5.13 5.13 0 00-.256.362l.083.016a.266.266 0 01.01-.081c.022-.084.075-.142.12-.13.044.012.062.09.04.172a.273.273 0 01-.028.067zM4.82 2.675v-.198s-.143-.15-.166-.465a2.396 2.396 0 01.065-.63c-.2.026-.411.064-.617.11-.165.042-.298.089-.355.142-.177.168.013.449.23.769.08.12.164.244.235.371.121-.025.244-.048.358-.066a.282.282 0 01-.01-.054c-.008-.085.023-.158.069-.162.045-.004.088.062.096.148a.286.286 0 010 .046c.033-.005.065-.008.095-.011zm-.978.18a5.15 5.15 0 00-.255-.36c-.226-.3-.405-.537-.262-.777-.323.121-.54.251-.529.356.019.167.227.655.53.91V2.98s.124-.033.308-.077a.273.273 0 01-.031-.065c-.027-.082-.013-.16.03-.174.044-.014.1.041.127.123.01.029.014.057.014.083l.068-.016z" fill="#F6C540"/>
      <path d="M4.297 1.342a.145.145 0 00.082.025c.077 0 .14-.059.14-.132 0-.073-.063-.132-.14-.132a.141.141 0 00-.125.073.145.145 0 00-.2.036.145.145 0 00-.09-.03c-.077 0-.14.059-.14.131l.001.012a.143.143 0 00-.109-.049.138.138 0 00-.138.112.143.143 0 00-.11-.05.138.138 0 00-.137.104.145.145 0 00-.082-.025.14.14 0 00-.133.09.146.146 0 00-.062-.013.138.138 0 00-.138.109.149.149 0 00-.028-.003.136.136 0 00-.14.13.15.15 0 00-.025-.002.136.136 0 00-.138.159.149.149 0 00-.028-.003c-.077 0-.14.059-.14.132 0 .055.036.102.087.122a.125.125 0 00-.004.034c0 .055.036.103.087.122a.125.125 0 00-.004.034c0 .071.06.129.134.132a.129.129 0 00-.052.102c0 .073.063.132.14.132.078 0 .14-.06.14-.132 0-.071-.06-.13-.134-.132a.129.129 0 00.051-.102.132.132 0 00-.087-.122.125.125 0 00.005-.034.132.132 0 00-.088-.123.125.125 0 00.002-.06c.01.002.019.003.029.003a.136.136 0 00.14-.13.149.149 0 00.025.002c.07 0 .127-.047.138-.11a.14.14 0 00.16-.088.146.146 0 00.146-.01.128.128 0 00.023.048.126.126 0 00-.027.078c0 .07.06.129.134.131a.129.129 0 00-.051.103c0 .055.036.102.087.122a.125.125 0 00-.004.034c0 .055.036.103.087.122a.125.125 0 00-.005.034c0 .073.063.132.14.132.078 0 .14-.06.14-.132a.132.132 0 00-.087-.122.125.125 0 00.004-.034.132.132 0 00-.087-.123.125.125 0 00.005-.033c0-.071-.06-.13-.135-.132a.126.126 0 00.025-.18.126.126 0 000-.157.127.127 0 00.025-.057c.026.03.066.05.11.05.078 0 .14-.06.14-.132v-.012a.143.143 0 00.226-.011c.025.019.056.03.09.03.054 0 .102-.03.125-.073zm-.83.26a.143.143 0 00.114-.055.143.143 0 00-.113-.053.026.026 0 00.026-.025c0-.013-.012-.024-.026-.024-.014 0-.026.011-.026.024 0 .014.012.025.026.025-.03 0-.06.009-.082.025a.132.132 0 00-.055-.077.125.125 0 00.024.105.126.126 0 00-.023.109.132.132 0 00.054-.08.145.145 0 00.082.025zm0 .048a.143.143 0 00-.112.054.143.143 0 00.113.053.143.143 0 00.113-.053.143.143 0 00-.113-.054zm0 0c.015 0 .027-.011.027-.024a.026.026 0 00-.026-.025.026.026 0 00-.026.025c0 .013.012.024.026.024zm-.08-.073a.137.137 0 01-.032-.03.137.137 0 01.03-.028.125.125 0 01.001.058zm.382.629a.147.147 0 00-.053-.01.139.139 0 00-.135.098.15.15 0 00.052.01.14.14 0 00.136-.098zm-.083-.156a.147.147 0 00-.053-.01.139.139 0 00-.135.098c.016.006.034.01.053.01.065 0 .12-.042.135-.099zm-.13-.166h-.005a.145.145 0 00-.089.03h.006a.145.145 0 00.088-.03zm-.745.546h-.006a.145.145 0 00-.088.03h.006a.145.145 0 00.088-.03zm-.036-.224a.139.139 0 01-.135.098.147.147 0 01-.053-.01.139.139 0 01.136-.098.13.13 0 01.052.01zm-.083-.156a.139.139 0 01-.135.098.147.147 0 01-.053-.01.139.139 0 01.136-.098.13.13 0 01.052.01zm-.107-.163a.136.136 0 00.109.102.136.136 0 00-.109-.102zm.277-.025a.134.134 0 01-.114-.13V1.73a.134.134 0 01.114.13v.002zm.164-.107a.134.134 0 01-.11-.152.134.134 0 01.11.152zm.16-.088a.131.131 0 01-.077-.118c0-.015.003-.028.007-.041a.131.131 0 01.078.118.125.125 0 01-.007.04zm.42-.177a.127.127 0 01-.028-.102.127.127 0 01.028.102zm.22-.165a.123.123 0 00.03.071.127.127 0 00-.03-.07zm.256.06a.126.126 0 01-.029-.173c.032.024.052.06.052.101a.128.128 0 01-.023.072zm.215-.043a.13.13 0 01-.058-.107c0-.02.005-.04.015-.059a.13.13 0 01.057.107.125.125 0 01-.014.059zm-1.409.414c.014 0 .026-.01.026-.024 0-.013-.012-.024-.026-.024-.014 0-.026.01-.026.024 0 .013.012.024.026.024zm-.165.128a.025.025 0 00.025-.024.025.025 0 00-.025-.025.025.025 0 00-.026.025c0 .013.011.024.026.024zm-.166.156c.014 0 .026-.01.026-.024s-.012-.024-.026-.024c-.014 0-.026.01-.026.024 0 .013.012.024.026.024zm.083.156c.014 0 .025-.01.025-.024s-.011-.024-.025-.024c-.014 0-.026.01-.026.024 0 .013.012.024.026.024zm.083.156c.014 0 .025-.01.025-.024a.025.025 0 00-.025-.024c-.015 0-.026.01-.026.024 0 .013.011.024.026.024zm.108.21c0 .013-.011.024-.026.024-.014 0-.025-.01-.025-.024 0-.013.011-.024.025-.024.015 0 .026.01.026.024zm.223-.912a.025.025 0 00.025-.024.025.025 0 00-.025-.025.026.026 0 00-.026.025c0 .013.012.024.026.024zm.195-.077c.015 0 .026-.01.026-.024s-.011-.024-.026-.024c-.014 0-.025.01-.025.024 0 .013.011.024.025.024zm.467-.14c.014 0 .026-.012.026-.025 0-.013-.012-.024-.026-.024-.014 0-.025.01-.025.024 0 .013.011.024.025.024zm.249-.095a.025.025 0 00.025-.025.025.025 0 00-.025-.024c-.014 0-.026.011-.026.024 0 .014.012.025.026.025zm.206-.03c.014 0 .026-.012.026-.025 0-.013-.012-.024-.026-.024-.014 0-.025.01-.025.024 0 .013.011.024.025.024zm.208-.048a.026.026 0 00.026-.025c0-.013-.012-.024-.026-.024-.014 0-.026.011-.026.024 0 .014.012.025.026.025zm-.911.546c.014 0 .026-.011.026-.024a.026.026 0 00-.026-.025.026.026 0 00-.026.025c0 .013.012.024.026.024zm.083.234c.014 0 .025-.01.025-.024s-.011-.024-.025-.024c-.014 0-.026.01-.026.024 0 .013.012.024.026.024zm.082.156c.015 0 .026-.01.026-.024s-.011-.024-.026-.024c-.014 0-.025.01-.025.024 0 .013.011.024.025.024zm.083.156c.014 0 .026-.01.026-.024 0-.013-.012-.024-.026-.024-.014 0-.025.01-.025.024 0 .013.011.024.025.024zm3.644.234c.014 0 .026-.01.026-.024 0-.013-.012-.024-.026-.024-.014 0-.025.01-.025.024 0 .013.011.024.025.024zm-.14-.024c0 .073.063.132.14.132.077 0 .14-.06.14-.132a.129.129 0 00-.051-.102.136.136 0 00.134-.132.125.125 0 00-.005-.034.132.132 0 00.088-.122.125.125 0 00-.005-.034.132.132 0 00.088-.122c0-.073-.063-.132-.14-.132-.01 0-.02 0-.029.003a.125.125 0 00.003-.027c0-.073-.063-.132-.14-.132a.15.15 0 00-.026.002.136.136 0 00-.14-.13.118.118 0 00-.027.003.138.138 0 00-.138-.11.146.146 0 00-.063.015.14.14 0 00-.133-.091.139.139 0 00-.081.025.138.138 0 00-.137-.104.143.143 0 00-.11.05.138.138 0 00-.139-.112.143.143 0 00-.109.05v-.013a.136.136 0 00-.14-.132.145.145 0 00-.088.03.145.145 0 00-.2-.035.141.141 0 00-.125-.073c-.078 0-.14.06-.14.132 0 .073.062.132.14.132.03 0 .059-.01.082-.025a.145.145 0 00.214.043c.025.036.068.06.118.06a.143.143 0 00.109-.049v.012c0 .073.062.132.14.132.044 0 .084-.02.11-.05a.127.127 0 00.025.057.126.126 0 000 .157.126.126 0 00.024.18.136.136 0 00-.134.132c0 .011.002.023.005.034a.132.132 0 00-.088.122c0 .011.002.023.005.034a.132.132 0 00-.088.122c0 .073.063.132.14.132.078 0 .14-.06.14-.132a.125.125 0 00-.004-.034.132.132 0 00.087-.122.125.125 0 00-.005-.034.132.132 0 00.088-.122.129.129 0 00-.052-.103.136.136 0 00.135-.131c0-.03-.01-.057-.027-.078a.128.128 0 00.023-.048.145.145 0 00.145.01.14.14 0 00.16.089.14.14 0 00.138.109c.01 0 .018 0 .026-.002.001.072.063.13.14.13.01 0 .02-.001.029-.003a.126.126 0 00.001.06.132.132 0 00-.087.123.1.1 0 00.005.034.132.132 0 00-.088.122c0 .041.02.078.052.102a.136.136 0 00-.135.132zm-.44-.985a.145.145 0 01-.195-.03.145.145 0 01.195-.029.125.125 0 000 .059zm.03-.03a.126.126 0 01.024.109.132.132 0 01-.055-.08.137.137 0 00.032-.029zm0 0a.137.137 0 00-.03-.028.132.132 0 01.055-.077.125.125 0 01-.024.105zm-.225.747a.139.139 0 00-.136-.098.147.147 0 00-.052.01c.016.056.07.098.135.098a.147.147 0 00.053-.01zm.082-.156a.139.139 0 00-.135-.098.147.147 0 00-.052.01c.015.056.07.098.135.098a.147.147 0 00.052-.01zm.036-.225a.145.145 0 00-.088-.03h-.006c.024.02.055.03.089.03h.005zm.108-.21a.143.143 0 00-.113-.053.143.143 0 00-.113.054.143.143 0 00.113.053.143.143 0 00.113-.053zm-.942-.361a.13.13 0 00.058-.107.125.125 0 00-.015-.059.13.13 0 00-.058.107c0 .021.006.041.015.059zm.214.043a.126.126 0 00.029-.173.126.126 0 00-.029.173zm.257-.06a.127.127 0 01-.03.071.127.127 0 01.03-.07zm.22.165a.127.127 0 00.028-.102.127.127 0 00-.029.102zm.419.177a.131.131 0 00.077-.118.125.125 0 00-.007-.041.131.131 0 00-.077.118c0 .014.002.028.007.04zm.16.088a.134.134 0 00.11-.152.134.134 0 00-.11.152zm.333.234a.136.136 0 00.108-.102.136.136 0 00-.108.102zm-.055-.259v.002a.135.135 0 01-.114.13V1.86c0-.065.05-.119.114-.13zm.056.32a.147.147 0 01.053-.01c.065 0 .12.042.135.098a.147.147 0 01-.052.01.139.139 0 01-.136-.099zm-.082.156a.147.147 0 01.052-.01c.065 0 .12.042.135.098a.147.147 0 01-.052.01.139.139 0 01-.135-.098zm.052.254a.145.145 0 01-.088-.03h.005a.14.14 0 01.088.03h-.005zm0-.108c.014 0 .026-.01.026-.024 0-.013-.012-.024-.026-.024-.014 0-.026.01-.026.024 0 .013.012.024.026.024zm.083-.156c.014 0 .026-.01.026-.024s-.012-.024-.026-.024c-.014 0-.026.01-.026.024 0 .013.012.024.026.024zm.083-.156c.014 0 .025-.01.025-.024s-.011-.024-.025-.024c-.015 0-.026.01-.026.024 0 .013.011.024.026.024zm-.166-.156c.014 0 .026-.011.026-.024a.026.026 0 00-.026-.025.026.026 0 00-.026.025c0 .013.012.024.026.024zm-.166-.128c.015 0 .026-.01.026-.024 0-.013-.011-.024-.026-.024-.014 0-.025.01-.025.024 0 .013.011.024.025.024zm-.165-.106a.025.025 0 00.025-.024.025.025 0 00-.025-.025.026.026 0 00-.026.025c0 .013.012.024.026.024zm-.196-.077c.014 0 .026-.01.026-.024s-.012-.024-.026-.024c-.014 0-.025.01-.025.024 0 .013.011.024.025.024zm-.218-.08c.014 0 .025-.01.025-.024a.025.025 0 00-.025-.024c-.014 0-.026.011-.026.024 0 .014.012.025.026.025zm-.249-.06c.014 0 .026-.012.026-.025 0-.013-.012-.024-.026-.024-.014 0-.025.01-.025.024 0 .013.011.024.025.024zm-.248-.095a.025.025 0 00.025-.025.025.025 0 00-.025-.024c-.014 0-.026.011-.026.024 0 .014.012.025.026.025zm-.207-.03c.014 0 .026-.012.026-.025 0-.013-.012-.024-.026-.024-.014 0-.025.01-.025.024 0 .013.011.024.025.024zm-.207-.048a.025.025 0 00.025-.025.025.025 0 00-.025-.024c-.014 0-.026.011-.026.024 0 .014.012.025.026.025zm.91.39c.015 0 .026-.011.026-.024a.025.025 0 00-.025-.025.026.026 0 00-.026.025c0 .013.012.024.026.024zm0 .156c.015 0 .026-.011.026-.024a.025.025 0 00-.025-.025.026.026 0 00-.026.025c0 .013.012.024.026.024zm-.082.234c.014 0 .026-.01.026-.024s-.012-.024-.026-.024c-.014 0-.026.01-.026.024 0 .013.012.024.026.024zm-.083.156c.014 0 .026-.01.026-.024s-.012-.024-.026-.024c-.014 0-.026.01-.026.024 0 .013.012.024.026.024zm-.083.156c.014 0 .026-.01.026-.024 0-.013-.012-.024-.026-.024-.014 0-.025.01-.025.024 0 .013.011.024.025.024z" fill="#fff"/>
      <path d="M5.11.46l-.219.007-.004.341-.404.006.002.207.4-.005-.006.389.219-.007.005-.385.397-.006V.8l-.393.005.004-.344z" fill="#F6C540"/>
      <path d="M2.02 4.003h5.943v4.756s-.18 2.37-2.972 2.37c-2.791 0-2.971-2.37-2.971-2.37V4.003z" fill="#C51918"/>
      <path d="M3.813 4.168c-.054 0-.138.036-.25.078-.11.042-.227.132-.113.222s.277.289.277.215c0-.074.195-.146.195-.11 0 .036-.06.11.098.11s.24.044.07.044c-.168 0-.186.073-.296.073-.11 0-.344-.074-.344-.117 0-.044.136.214.277.214.142 0 .222.125.293.062.07-.062.063-.062.177-.062.115 0 .073-.253.073-.253s-.402-.476-.457-.476zm2.294 0c.054 0 .138.036.25.078.11.042.227.132.113.222s-.277.289-.277.215c0-.074-.195-.146-.195-.11 0 .036.06.11-.098.11s-.24.044-.07.044c.168 0 .187.073.296.073.11 0 .344-.074.344-.117 0-.044-.135.214-.277.214-.141 0-.222.125-.293.062-.07-.062-.062-.062-.177-.062-.114 0-.073-.253-.073-.253s.402-.476.457-.476z" fill="#E8AA00"/>
      <path d="M6.835 4.685c.114.25-.759 1.18-.759 1.18h-.098c-.04 0-.117-.095-.21-.21a3.243 3.243 0 00-.205-.24c-.135-.138-.064-.253.003-.36.02-.034.04-.066.054-.098a.447.447 0 00.038-.129c.005-.03.01-.065.039-.143.042-.116.188-.265.29-.369.04-.04.072-.073.09-.095.054-.068.012-.068-.101-.067h-.051c-.152 0-.44.067-.527.145-.087.079-.177.095-.31.095-.134 0-.051.085.07.142-.13.023-.214.228-.264.41-.026-.182-.086-.387-.216-.41.121-.057.203-.142.07-.142s-.224-.016-.31-.095c-.087-.078-.376-.144-.527-.144H3.86c-.114-.002-.155-.002-.1.066.017.022.05.055.089.095.101.104.248.253.29.369a.575.575 0 01.038.143c.005.032.01.06.038.129.014.032.034.064.054.097.067.108.139.223.004.36-.072.074-.143.162-.206.24-.092.116-.169.211-.21.211H3.76s-.873-.93-.759-1.18c.044-.097.115-.188.174-.264.093-.12.156-.2.03-.2-.204 0-1.018.487-1.018 1.584s.075 1.72.25 2.158c.119.298.01.588-.071.804a.831.831 0 00-.07.246c0 .196.32.025.32-.098 0-.058.044.029.09.12.051.1.105.205.105.127 0-.083.05-.17.096-.248.035-.061.067-.115.067-.156 0-.04.045-.039.095-.037.064.002.137.004.137-.079 0-.056.023-.067.051-.081.048-.023.11-.053.11-.305 0-.186.04-.12.086-.044.041.07.088.147.113.044.003-.01.03-.053.061-.106a2.04 2.04 0 00.127-.228 1.67 1.67 0 01-.293.557c-.093.113-.255.358-.255.358s.15.08.255 0c.06-.044.063-.002.067.043.004.036.007.075.038.075.02 0 .038.003.054.005a.259.259 0 00.033.004c-.035.084-.066.219.039.129a.712.712 0 01.163-.107c.04-.02.057-.029.057-.07 0-.042.016-.028.042-.006.022.02.052.045.083.045.041 0 .05-.054.062-.132a1.028 1.028 0 01.056-.225c.046-.134.067-.197.119-.027.024.08.067.135.104.184.05.067.091.12.06.2-.011.03-.026.066-.042.104-.055.13-.122.288-.122.413 0 .075-.072.176-.14.271-.079.112-.152.215-.097.257.103.077-.021.337-.125.47-.104.133.767.44.919.44.002 0 .004-.002.006-.004v.003s1.089-.05 1.089-.439c-.104-.133-.228-.393-.126-.47.056-.042-.018-.145-.097-.257-.067-.095-.14-.196-.14-.27 0-.126-.066-.285-.121-.414l-.043-.104c-.03-.08.01-.133.06-.2a.574.574 0 00.105-.184c.052-.17.073-.107.119.027l.015.044c.022.066.032.129.04.181.013.078.021.132.062.132.032 0 .061-.026.084-.045.025-.022.042-.036.042.005 0 .042.016.05.057.07a.712.712 0 01.163.108c.105.09.074-.045.039-.129.01 0 .02-.002.032-.004.017-.002.035-.005.054-.005.031 0 .035-.039.038-.075.005-.045.009-.087.067-.043.105.08.256 0 .256 0s-.162-.245-.256-.358a1.67 1.67 0 01-.293-.557c.02.05.08.15.127.228a.825.825 0 01.061.106c.026.103.072.025.114-.044.046-.076.085-.142.085.044 0 .252.063.282.11.305.029.014.052.025.052.081 0 .083.073.08.137.079.05-.002.095-.003.095.037s.032.095.067.156c.045.077.096.165.096.248 0 .078.053-.027.104-.127.046-.091.09-.178.09-.12 0 .123.32.294.32.098a.824.824 0 00-.069-.246c-.081-.216-.19-.506-.071-.804.174-.437.25-1.061.25-2.158S6.835 4.22 6.63 4.22c-.125 0-.063.08.03.2.06.076.13.167.174.264zm-.759 3.213zm.069 1.018c0-.028.02.003.039.048-.024 0-.04-.008-.04-.049zm-2.493.048c.024 0 .039-.008.039-.049 0-.027-.02.004-.039.05zm.101-1.042z" fill="#F7FCFF"/>
      <path d="M3.884 5.942h2.215V7.59s-.238.821-1.108.821c-.87 0-1.107-.821-1.107-.821V5.94z" fill="#C51918"/>
      <path d="M5.29 5.918h-.58v.946h-.828v.339h.828V8.42h.58V7.203h.828v-.339H5.29v-.946z" fill="#F7FCFF"/>
      <path d="M3.437 9.663c.269-.31.521-.585.297-.78-.225-.195-.493-.026-.762.284s-.437.643-.213.838c.225.195.409-.032.678-.342zm2.931 0c-.27-.31-.522-.585-.297-.78.224-.195.492-.026.761.284.27.31.438.643.214.838-.225.195-.409-.032-.678-.342z" fill="#E8AA00"/>
    </g>
  </g>
</svg>
