<svg width="16" height="12" fill="none" xmlns="http://www.w3.org/2000/svg">
  <mask id="a" maskUnits="userSpaceOnUse" x="0" y="0" width="16" height="12">
    <path fill="#fff" d="M0 0h16v12H0z"/>
  </mask>
  <g mask="url(#a)">
    <path fill-rule="evenodd" clip-rule="evenodd" d="M0 0v12h16V0H0z" fill="#F7FCFF"/>
    <mask id="b" maskUnits="userSpaceOnUse" x="0" y="0" width="16" height="12">
      <path fill-rule="evenodd" clip-rule="evenodd" d="M0 0v12h16V0H0z" fill="#fff"/>
    </mask>
    <g mask="url(#b)">
      <path fill-rule="evenodd" clip-rule="evenodd" d="M0 1v10h16V1H0z" fill="#FECA00"/>
      <path d="M0 4.125h-.875v3.75h17.75v-3.75H0z" fill="#272727" stroke="#E31D1C" stroke-width="1.75"/>
      <path fill-rule="evenodd" clip-rule="evenodd" d="M0 2V0h16v2H0zm0 10v-2h16v2H0z" fill="#5EAA22"/>
    </g>
    <path d="M.298-.401L-.5-.995V12.98l.794-.575L8.459 6.48l.551-.4-.546-.406L.298-.401z" fill="#F7FCFF" stroke="#272727"/>
    <mask id="c" maskUnits="userSpaceOnUse" x="-1" y="-2" width="11" height="16">
      <path d="M.298-.401L-.5-.995V12.98l.794-.575L8.459 6.48l.551-.4-.546-.406L.298-.401z" fill="#fff" stroke="#fff"/>
    </mask>
    <g mask="url(#c)" fill-rule="evenodd" clip-rule="evenodd">
      <path d="M3.74 7.14L1.85 8.663l.866-2.038-1.489-1.434h1.758l.721-1.73.766 1.73h1.755L4.66 6.626l.785 2.038L3.739 7.14z" fill="#E31D1C"/>
      <path d="M2.509 4.21s-.028-.065.134-.124c.162-.058.212-.182.339-.091.126.091.206-.092.242.17.037.264.137.678.137.678L5.005 6.08h-.309s-.48.706-.402 1.326c0 0-.331-.05-.781-.05s-.744.108-.744.108l-.26-.962s.094-.162.134-.292c.04-.13.208-.154.208-.258 0-.104-.165-.19-.082-.459.082-.268.082-1.07.082-1.07s-.26-.115-.208-.115c.053 0 .174-.096.087-.096h-.22z" fill="#FECA00"/>
    </g>
  </g>
</svg>
