<svg width="16" height="12" fill="none" xmlns="http://www.w3.org/2000/svg">
  <mask id="a" maskUnits="userSpaceOnUse" x="0" y="0" width="16" height="12">
    <path fill="#fff" d="M0 0h16v12H0z"/>
  </mask>
  <g mask="url(#a)">
    <path fill-rule="evenodd" clip-rule="evenodd" d="M0 0v12h16V0H0z" fill="#29C470"/>
    <mask id="b" maskUnits="userSpaceOnUse" x="0" y="0" width="16" height="12">
      <path fill-rule="evenodd" clip-rule="evenodd" d="M0 0v12h16V0H0z" fill="#fff"/>
    </mask>
    <g mask="url(#b)">
      <path fill="#C51918" d="M1-.161h5v13.162H1z"/>
      <mask id="c" maskUnits="userSpaceOnUse" x="1" y="-1" width="5" height="14">
        <path fill="#fff" d="M1-.161h5v13.162H1z"/>
      </mask>
      <g mask="url(#c)">
        <path fill-rule="evenodd" clip-rule="evenodd" d="M1.298.453l-.273.35L1 .78l.265-.34V.364L1.298.27l-.02-.033-.155.157.3-.47v.16l.059.053.138-.241-.139-.233-.1.077.04.081-.027.02-.226-.378.144.099.025-.037-.138-.14.061-.068-.2-.293L1.083-1l.22.32-.058.062.135.137-.062.09-.041-.028.078.132.133-.102.169.283-.17.296L1.39.102V.038L1.291.19l.042.074-.035.109v.079zm-.273 2.862l.273-.35v-.08l.035-.109-.042-.073.099-.154v.064l.098.089.17-.296-.17-.284-.132.102-.078-.132.04.029.063-.09-.135-.137.057-.063-.219-.32-.026.023.201.294-.06.067.137.14-.025.037-.144-.098.226.377.028-.02-.04-.08.1-.077.138.232-.138.241-.058-.052v-.16l-.301.469.156-.156.019.033-.031.095-.001.006v.068L1 3.29l.025.025zm.273 1.94l-.273.35L1 5.581l.265-.34v-.076l.032-.095-.02-.033-.155.156.3-.47v.161l.059.052.138-.241-.139-.233-.1.077.04.082-.027.02-.226-.378.144.098.025-.037-.138-.14.061-.067-.2-.294.025-.023.22.32-.058.063.135.137-.062.09-.041-.029.078.132.133-.102.169.283-.17.297-.098-.09V4.84l-.099.154.042.073-.035.11v.078zm-.273 2.677l.273-.351V7.5l.035-.108-.042-.073.099-.154v.064l.098.088.17-.296-.17-.283-.132.102-.078-.132.04.028.063-.09-.135-.136.057-.063-.219-.32-.026.023.201.294-.06.067.137.14-.025.037-.144-.099.226.378.028-.02-.04-.08.1-.078.138.233-.138.241-.058-.052v-.16l-.301.469.156-.157.019.033-.031.095-.001.007v.068L1 7.907l.025.025zm0 2.068l.273-.35v-.08l.035-.109-.042-.073.099-.154v.064l.098.089.17-.297-.17-.283-.132.102-.078-.132.04.029.063-.09-.135-.137.057-.063-.219-.32-.026.023.201.294-.06.067.137.14-.025.037-.144-.098.226.377.028-.02-.04-.08.1-.077.138.232-.138.241-.058-.052v-.16l-.301.469.156-.156.019.033-.031.095-.001.006v.068L1 9.975l.025.025zm4.95 0l-.273-.35v-.08l-.035-.109.042-.073-.099-.154v.064l-.098.089-.17-.297.17-.283.132.102.078-.132-.04.029-.063-.09.135-.137-.057-.063.219-.32.026.023-.201.294.06.067-.137.14.025.037.144-.098-.226.377-.028-.02.04-.08-.1-.077-.138.232.138.241.058-.052v-.16l.301.469-.156-.156-.019.033.031.095.001.006v.068l.265.34-.025.025zm-.273-2.42l.273.352L6 7.907l-.265-.34v-.075l-.032-.095.02-.033.155.157-.3-.47v.16l-.059.053-.138-.241.139-.233.1.077-.04.082.027.019.226-.378-.144.099-.025-.037.138-.14-.061-.067.2-.294-.025-.023-.22.32.058.063-.135.137.062.09.041-.029-.078.132-.133-.102-.169.283.17.296.098-.088v-.064l.099.154-.042.073.035.109v.079zm.273-1.975l-.273-.35v-.08l-.035-.109.042-.073-.099-.154v.064l-.098.089-.17-.297.17-.283.132.102.078-.132-.04.029-.063-.09.135-.137-.057-.063.219-.32.026.023-.201.294.06.067-.137.14.025.037.144-.098-.226.377-.028-.02.04-.08-.1-.078-.138.233.138.241.058-.052v-.16l.301.469-.156-.156-.019.033.031.095.001.006v.068L6 5.58l-.025.025zm-.273-2.64l.273.35L6 3.291l-.265-.34v-.076l-.032-.095.02-.033.155.156-.3-.469v.16l-.059.052-.138-.241.139-.232.1.076-.04.082.027.02.226-.378-.144.098-.025-.037.138-.14-.061-.067.2-.294-.025-.023-.22.32.058.063-.135.137.062.09.041-.029-.078.132-.133-.102-.169.284.17.296.098-.089v-.064l.099.154-.042.073.035.11v.078zM5.975.803l-.273-.35v-.08L5.667.266 5.709.19 5.61.038v.064L5.512.19l-.17-.296.17-.283.132.102.078-.132-.04.028-.063-.09.135-.137-.057-.062.219-.32.026.023-.201.293.06.068-.137.14.025.037.144-.099-.226.378-.028-.02.04-.081-.1-.077-.138.233.138.241.058-.052v-.16l.301.469-.156-.157-.019.033.031.095.001.007v.068L6 .779l-.025.025z" fill="#E8AA00"/>
        <path fill-rule="evenodd" clip-rule="evenodd" d="M3.653 7.282h.777v.183h.177v.145h.212v.474h-.212v.146H4.43v.146h-.756l-.21.186-.21-.186h-.7V8.23h-.177v-.146H2.2V7.61h.177v-.145h.177v-.183h.722l.189-.167.188.167z" fill="#389F5D"/>
        <path d="M4.43 7.282h.075v-.075H4.43v.075zm-.777 0l-.05.056.022.02h.028v-.076zm.777.183h-.075v.075h.075v-.075zm.177 0h.075V7.39h-.075v.075zm0 .145h-.075v.075h.075V7.61zm.212 0h.075v-.075H4.82v.075zm0 .474v.075h.075v-.075H4.82zm-.212 0V8.01h-.075v.075h.075zm0 .146v.075h.075V8.23h-.075zm-.177 0v-.075h-.075v.075h.075zm0 .146v.075h.075v-.075H4.43zm-.756 0v-.075h-.028l-.022.019.05.056zm-.21.186l-.049.056.05.044.05-.044-.05-.056zm-.21-.186l.05-.056-.02-.019h-.03v.075zm-.7 0h-.075v.075h.075v-.075zm0-.146h.075v-.075h-.075v.075zm-.177 0h-.075v.075h.075V8.23zm0-.146h.075V8.01h-.075v.075zm-.177 0h-.075v.075H2.2v-.075zm0-.474v-.075h-.075v.075H2.2zm.177 0v.075h.075V7.61h-.075zm0-.145V7.39h-.075v.075h.075zm.177 0v.075h.075v-.075h-.075zm0-.183v-.075h-.075v.075h.075zm.722 0v.075h.028l.021-.018-.05-.057zm.189-.167l.05-.056-.05-.044-.05.044.05.056zm.965.092h-.777v.15h.777v-.15zm.075.258v-.183h-.15v.183h.15zm.102-.075H4.43v.15h.177v-.15zm.075.22v-.145h-.15v.145h.15zm.137-.075h-.212v.15h.212v-.15zm.075.55V7.61h-.15v.474h.15zm-.287.074h.212v-.15h-.212v.15zm.075.071v-.146h-.15v.146h.15zm-.252.075h.177v-.15H4.43v.15zm.075.071V8.23h-.15v.146h.15zm-.831.075h.756v-.15h-.756v.15zm-.16.167l.21-.186-.1-.112-.209.186.1.112zm-.309-.186l.21.186.1-.112-.21-.186-.1.112zm-.651.02h.7v-.15h-.7v.15zm-.075-.222v.146h.15V8.23h-.15zm-.102.075h.177v-.15h-.177v.15zm-.075-.22v.145h.15v-.146h-.15zm-.102.074h.177v-.15H2.2v.15zm-.075-.549v.474h.15V7.61h-.15zm.252-.075H2.2v.15h.177v-.15zm-.075-.07v.145h.15v-.145h-.15zm.252-.075h-.177v.15h.177v-.15zm-.075-.108v.183h.15v-.183h-.15zm.797-.075h-.722v.15h.722v-.15zm.05.132l.189-.168-.1-.112-.19.167.1.113zm.089-.168l.188.167.1-.112-.188-.167-.1.112z" fill="#E8AA00"/>
        <path fill-rule="evenodd" clip-rule="evenodd" d="M2.658 7.704v-.322h.375l-.375.322zm1.578 0v-.322h-.375l.375.322zm-1.578.583v-.322l.375.322h-.375zm1.578-.322v.322h-.375l.375-.322z" fill="#C51918"/>
        <path fill-rule="evenodd" clip-rule="evenodd" d="M3.323 7.41l.129-.17.128.17h-.257zm0 .158l.129.17.128-.17h-.257zm.129.4l-.13.17h.258l-.128-.17zm-.13.329l.13.17.128-.17h-.257z" fill="#E8AA00"/>
        <path fill-rule="evenodd" clip-rule="evenodd" d="M3.325 7.39v.072h-.074v.1h.074v.073h.26v-.073h.074v-.1h-.074V7.39h-.26zm.26.801v-.073h-.26v.073h-.074v.1h.074v.073h.26v-.073h.074v-.1h-.074zm-.758-.416l.123-.17.122.17h-.245zm0 .159l.123.17.122-.17h-.245zm1.15-.33l-.124.17H4.1l-.122-.17zm-.124.33l.124.17.122-.17h-.246z" fill="#AF0100"/>
        <path fill-rule="evenodd" clip-rule="evenodd" d="M2.826 7.754v.074h-.07v.102h.07v.075h.247V7.93h.07v-.102h-.07v-.074h-.247zm1.274.074v-.074h-.247v.074h-.071v.102h.07v.075H4.1V7.93h.07v-.102H4.1z" fill="#E8AA00"/>
        <mask id="d" maskUnits="userSpaceOnUse" x="2" y="8" width="3" height="3">
          <path fill-rule="evenodd" clip-rule="evenodd" d="M3.109 8.625l-.886.5v.828l.886.52h.959l.907-.52v-.828l-.907-.5h-.96z" fill="#fff"/>
        </mask>
        <g mask="url(#d)">
          <path d="M2.235 9.548h1.381v.911h-1.38v-.911z" fill="#E8AA00"/>
          <path fill="#F9E8E7" d="M2.094 8.636h1.522v.911H2.094z"/>
          <path d="M2.448 9.168l.458-.276v.276h-.458zm2.69-.532H3.616v.911h1.522z" fill="#E8AA00"/>
          <path d="M4.678 9.168l-.458-.276v.276h.458zm.319 1.292H3.616v-.911h1.38z" fill="#F9E8E7"/>
          <path d="M4.642 9.928l-.458.276v-.276h.458z" fill="#E8AA00"/>
          <path d="M2.448 9.87l.458.277V9.87h-.458z" fill="#FCFCFC"/>
        </g>
        <path fill-rule="evenodd" clip-rule="evenodd" d="M3.12 9.183h.23l.23-.073.23.073h.23v.693h-.23l-.23.11-.23-.11h-.23v-.693z" fill="#C51918"/>
        <path fill-rule="evenodd" clip-rule="evenodd" d="M3.9 8.769h.124v.14h.051v.1h-.05v.055h-.126v-.295zm-1.256.437h-.125v.295h.125v-.054h.05v-.1h-.05v-.14zm.177 0h-.125v.295h.125v-.295zm-.177.365h-.125v.295h.125v-.054h.05v-.1h-.05v-.141zm.052 0h.125v.295h-.125V9.57zm1.77-.365h.125v.141h.05v.1h-.05v.054h-.125v-.295zm.302 0h-.125v.295h.125v-.295zm-.177.365h-.125v.295h.125v-.054h.05v-.1h-.05v-.141zm.052 0h.125v.295h-.125V9.57zM4.2 8.769h-.125v.295H4.2v-.295zm-1.026 0H3.05v.295h.125V9.01h.05v-.1h-.05v-.141zm.052 0h.125v.295h-.125v-.295zm.672 1.24h.125v.14h.051v.1h-.05v.054h-.126v-.295zm.302 0h-.125v.294H4.2v-.295zm-1.026 0H3.05v.294h.125v-.054h.05v-.1h-.05v-.14zm.052 0h.125v.294h-.125v-.295z" fill="#C9343F"/>
        <path fill-rule="evenodd" clip-rule="evenodd" d="M3.513 9.333h.035v-.099h-.177v.113h-.146v.163h.136v-.037h-.1v-.09h.12l.18.157-.18.157h-.12v-.09h.1v-.036h-.136v.162h.146v.114h.177v-.1h-.035v.063h-.107v-.087l.184-.16.184.16v.087h-.106v-.062h-.035v.099h.177v-.114h.146v-.162H3.82v.036h.1v.09H3.8l-.18-.157.18-.156h.12v.09h-.1v.036h.136v-.163H3.81v-.113h-.177v.1h.035V9.27h.106v.087l-.184.16-.184-.16V9.27h.107v.062z" fill="#fff"/>
        <path fill-rule="evenodd" clip-rule="evenodd" d="M3.792 2.4H3.17v2h.623v-2zm-1.402.423h.39V3.9h-.39V2.823zm1.83 0h.39V3.9h-.39V2.823z" fill="#E8AA00"/>
        <path fill-rule="evenodd" clip-rule="evenodd" d="M3.169 2.554h-.39v1.538h.39V2.554zm-.78.423H2v.73h.39v-.73zm2.221 0H5v.73h-.39v-.73zm-.428-.423h-.39v1.538h.39V2.554z" fill="#389F5D"/>
        <path fill-rule="evenodd" clip-rule="evenodd" d="M3.09 2.746a.116.116 0 01-.116.116.116.116 0 01-.117-.116c0-.064.052-.115.117-.115s.117.051.117.115zm-.778.385a.116.116 0 01-.117.115.116.116 0 01-.117-.115.117.117 0 01.234 0zm0 .423a.116.116 0 01-.117.115.116.116 0 01-.117-.115.117.117 0 01.234 0zm.662.461a.116.116 0 00.117-.115.116.116 0 00-.117-.115.116.116 0 00-.117.115c0 .064.052.115.117.115zm1.831-.769a.116.116 0 00.117-.115.116.116 0 00-.117-.116.116.116 0 00-.117.116c0 .064.053.115.117.115zm.117.308a.116.116 0 01-.117.115.116.116 0 01-.117-.115.117.117 0 01.234 0zm-.935.461a.116.116 0 00.117-.115.116.116 0 00-.117-.115.116.116 0 00-.117.115c0 .064.052.115.117.115zm.117-1.269a.116.116 0 01-.117.116.116.116 0 01-.117-.116c0-.064.052-.115.117-.115s.117.051.117.115z" fill="#E1E5E8"/>
        <path fill-rule="evenodd" clip-rule="evenodd" d="M3.597 2.592a.116.116 0 01-.116.116.116.116 0 01-.117-.116c0-.063.052-.115.117-.115.064 0 .116.052.116.115zm-.896.423a.116.116 0 01-.117.116.116.116 0 01-.116-.116c0-.063.052-.115.116-.115.065 0 .117.052.117.115zm.78 1.347a.116.116 0 00.116-.116.116.116 0 00-.116-.115.116.116 0 00-.117.115c0 .064.052.116.117.116zm1.051-1.347a.116.116 0 01-.116.116.116.116 0 01-.117-.116c0-.063.052-.115.117-.115.064 0 .116.052.116.115zm-1.948.808a.116.116 0 00.117-.115.116.116 0 00-.117-.116.116.116 0 00-.116.116c0 .063.052.115.116.115zm1.948-.115a.116.116 0 01-.116.115.116.116 0 01-.117-.115.116.116 0 01.233 0z" fill="#C51918"/>
        <path fill-rule="evenodd" clip-rule="evenodd" d="M2.803 3.196l.38-.343h.615l.433.393h.574V3.4h-.559v.008l-.448.456h-.615l-.38-.412V3.4h-.647v-.154h.647v-.05z" fill="#C51918"/>
        <path fill-rule="evenodd" clip-rule="evenodd" d="M3.505 3.138l.185.187-.194.183-.193-.183.184-.187.01-.008.008.008zm.034.451l.022-.02-.023-.02.192-.183.2.203-.09.095h-.053l-.1.063-.148-.138zm-.043.04l-.184.17-.124-.077h-.061l-.146-.154.239-.242-.24-.227.157-.153.058.044.082-.083-.025-.025.042-.04.202.204.202-.205.042.04-.025.026.083.083.057-.044.158.153-.24.227.238.242-.145.154h-.062l-.123.077-.185-.17zM3.6 3.15l.003-.003-.056-.051-.007-.007.144-.133.11.111.058-.045.078.075-.197.187L3.6 3.15zm-.123.418l-.171.158-.1-.063h-.053l-.09-.095.2-.203.214.203zm-.413-.47l.198.186.192-.195-.144-.133-.11.111-.058-.045-.078.075zm-.84 7.622c-.104-.132-.175-.221-.193-.22-.059.004-.113.622.645 1.092 0 0 .112.062.177 0 .065-.062 0-.154 0-.154a6.621 6.621 0 01-.629-.717zm2.552 0c.104-.132.175-.221.193-.22.059.004.113.622-.645 1.092 0 0-.112.062-.177 0-.065-.062 0-.154 0-.154.245-.23.474-.52.629-.717zm-.056.832c-.249.074-.537.089-.648.041a.637.637 0 00-.112-.036 1.008 1.008 0 00-.343-.011l-.05.006a.336.336 0 01-.02.002.108.108 0 00-.025.003.108.108 0 00-.025-.003l-.02-.002-.05-.006a1.008 1.008 0 00-.344.011.636.636 0 00-.111.036c-.11.048-.4.033-.649-.041 0 0 .454.182.723.101a.479.479 0 01.083-.026.774.774 0 01.25-.01c-.04.018-.087.04-.14.06v.023c.106-.043.23-.063.283-.07.053.007.177.027.283.07v-.022a2.952 2.952 0 01-.14-.062.774.774 0 01.25.01.479.479 0 01.083.027c.269.08.722-.101.722-.101z" fill="#E8AA00"/>
        <path fill-rule="evenodd" clip-rule="evenodd" d="M2.882 4.989l-.626.551v.526l.547.55h1.118l.616-.587v-.447l-.616-.593H2.882z" fill="#389F5D"/>
        <path fill-rule="evenodd" clip-rule="evenodd" d="M3.097 5.047h-.141v.11h.141v-.11zm0 1.43h-.141v.11h.141v-.11zm.213 0h.141v.11H3.31v-.11zm.141-1.43H3.31v.11h.141v-.11zm.213 1.43h.141v.11h-.141v-.11zm.141-1.43h-.141v.11h.141v-.11z" fill="#C51918"/>
        <path fill-rule="evenodd" clip-rule="evenodd" d="M3.277 5.019h-.144v.11h.144v-.11zm0 1.458h-.144v.11h.144v-.11zm.216-1.458h.144v.11h-.144v-.11zm.144 1.458h-.144v.11h.144v-.11z" fill="#E8AA00"/>
        <path fill-rule="evenodd" clip-rule="evenodd" d="M2.457 4.921h1.89v.292h.27V6.42h-.27v.25h-1.89v-.25h-.294V5.213h.294v-.292zm.106.401h-.294v.99h.294v.249h1.678v-.25h.27v-.989h-.27V5.03H2.563v.292z" fill="#750100"/>
        <path fill-rule="evenodd" clip-rule="evenodd" d="M3.204 4.8h-.177v.182h.176V4.8zm.283 0H3.31v.182h.177V4.8zm.106 0h.177v.182h-.177V4.8zm-.39 1.823h-.176v.182h.176v-.182zm.107 0h.177v.182H3.31v-.182zm.46 0h-.177v.182h.177v-.182zm-1.773-.404v-.177h.183v.177h-.183zm0-.468v.177h.183V5.75h-.183zm0-.115v-.177h.183v.177h-.183zm2.549.406v.177h.182v-.177h-.182zm0-.114V5.75h.182v.177h-.182zm0-.47v.178h.182v-.177h-.182z" fill="#389F5D"/>
        <path fill-rule="evenodd" clip-rule="evenodd" d="M2.89 5.142l-.306.266v.859l.253.18h1.099l.252-.18v-.86l-.285-.265H2.889z" fill="#C51918"/>
        <path fill-rule="evenodd" clip-rule="evenodd" d="M3.402 5.498l-.369.315h.369v-.315z" fill="#E1E5E8"/>
        <path d="M3.402 6.099l-.369-.315h.369v.315z" fill="#E8AA00"/>
        <path fill-rule="evenodd" clip-rule="evenodd" d="M3.37 5.498l.368.315H3.37v-.315z" fill="#E8AA00"/>
        <path fill-rule="evenodd" clip-rule="evenodd" d="M3.386 5.898a.112.112 0 100-.223.112.112 0 000 .223z" fill="#29AE66"/>
        <path d="M3.37 6.099l.368-.315H3.37v.315z" fill="#E1E5E8"/>
        <path fill-rule="evenodd" clip-rule="evenodd" d="M2.602 5.675h-.319v.102h.319v-.102zm0 .186h-.319v.102h.319v-.102zm1.593-.186h.318v.102h-.318v-.102zm.318.186h-.318v.102h.318v-.102z" fill="#C51918"/>
        <path fill-rule="evenodd" clip-rule="evenodd" d="M2.566 5.566h-.283v.111h.283v-.111zm0 .186h-.283v.111h.283v-.111zm-.283.186h.283v.111h-.283v-.111zm2.195-.372h-.283v.111h.283v-.111zm-.283.186h.283v.111h-.283v-.111zm.283.186h-.283v.111h.283v-.111zM4.993.795L4.99.998H3.512l-.001.92h-.464c-.08 0-.303-.156-.303-.156h-.377l-.174-.177v-.179l-.186-.221V.982h1.48l.001-.92h.464c.081 0 .303.155.303.155h.377l.174.178v.179l.187.221z" fill="#E8AA00"/>
        <path fill-rule="evenodd" clip-rule="evenodd" d="M2.007.795v.203h1.48l.001.92h.464c.081 0 .303-.156.303-.156h.377l.174-.177v-.179l.187-.221L4.99.982H3.512l-.001-.92h-.464c-.08 0-.303.155-.303.155h-.377l-.174.178v.179l-.186.221z" fill="#E1E5E8"/>
        <path fill-rule="evenodd" clip-rule="evenodd" d="M3.001.343L2.985.264l.32-.073C3.341.173 3.408.12 3.5.034l.043.049.008-.009a.992.992 0 00.196.157l.32.073-.017.079-.177-.037.017.015a.22.22 0 00-.04.032l-.074-.01.007-.026-.02-.003a.85.85 0 00-.045.11L3.643.442l.03-.145L3.504.14l-.118.11c.015.013.03.029.044.046a.705.705 0 01-.036.013H3.39l.02.093-.075.022a1.117 1.117 0 00-.028-.072L3.3.353a.22.22 0 00-.04-.032l.022-.019a.185.185 0 00-.01-.015l-.27.056zm.013.286l.043-.067-.22-.148L2.86.38 2.798.333 2.771.37 2.684.312 2.64.379l.084.056-.017.024.063.048.02-.028.223.15zm-.272.08l.042-.067-.22-.148.024-.034-.063-.047-.027.038-.087-.059-.043.067.084.056-.017.024.063.048.02-.028.224.15zm-.117.24l.042-.067-.22-.148L2.47.7 2.41.653 2.382.69 2.294.632l-.043.067.084.056-.017.024.063.048.02-.028.224.15zm.003.192l-.042-.067-.224.15-.02-.027-.063.047.017.024-.083.056.042.067.088-.058.027.038.062-.048-.024-.034.22-.148zm.075.173l.042.067-.22.148.024.034-.062.048-.028-.038-.087.058-.043-.067.084-.056-.017-.024.063-.047.02.027.224-.15zm.272.08l.043.067-.22.148.024.034-.063.048-.027-.038-.087.058-.043-.067.084-.056-.017-.024.063-.047.02.027.223-.15zm.416.383a.7.7 0 00-.036-.013L3.34 1.76l.03-.139-.075-.022a.603.603 0 01-.063.137l-.27-.055-.016.078.308.07v.001l.044.03.006-.004c.039.027.092.072.158.133l.025-.028.025.028c.091-.085.158-.138.196-.157l.01-.002a.31.31 0 00.041.03l.045-.03-.005-.015.005-.005.223-.051-.016-.078-.27.055A.602.602 0 013.68 1.6l-.075.022.03.145-.147.138-.114-.107a.542.542 0 00.018-.02zm.954-.636l.043-.067.224.15.02-.027.062.047-.017.024.084.056-.043.067-.087-.058-.027.038-.063-.048.024-.034-.22-.148zm-.117.24l.043-.067.224.15.02-.027.062.047-.017.024.084.056-.043.067-.087-.058-.027.038-.063-.048.024-.034-.22-.148zm-.273.08l.043-.067.224.15.02-.027.063.047-.018.024.084.056-.042.067-.088-.058-.027.038-.063-.048.025-.034-.22-.148zm.429-.539l.043.067.224-.15.02.028.062-.048-.017-.024L4.8.74 4.757.672 4.67.731 4.643.693 4.58.74l.024.034-.22.148zm-.117-.24L4.31.75 4.534.6l.02.028.062-.048L4.6.555 4.683.5 4.64.432l-.087.059-.027-.038L4.463.5l.024.034-.22.148zm-.273-.08l.043.067.224-.15.02.028.063-.048-.018-.024L4.41.42 4.368.352 4.28.411 4.253.373 4.19.42l.025.034-.22.148z" fill="#C51918"/>
        <path fill-rule="evenodd" clip-rule="evenodd" d="M3.104.577l.441-.234v.64h1.091l-.26.187v.245h-.411l-.442.234v-.64h-1.09l.26-.188V.577h.41z" fill="#C51918"/>
        <path fill-rule="evenodd" clip-rule="evenodd" d="M3.965.577L3.523.343v.64h-1.09l.26.187v.245h.41l.442.234v-.64h1.091L4.376.82V.577h-.411z" fill="#29AE66"/>
        <path fill-rule="evenodd" clip-rule="evenodd" d="M2.89.742L2.962.6l.183.098.05-.075.128.091-.039.059.542.29.034-.05.128.091-.023.033.059.032-.072.142-.076-.04-.061.09-.129-.09.05-.075-.541-.29-.045.066L3.022.88l.034-.05L2.89.742z" fill="#29AE66"/>
        <path fill-rule="evenodd" clip-rule="evenodd" d="M4.045.703L3.963.567l-.176.11-.055-.071-.122.1.043.055-.52.327-.037-.047-.122.1.025.032-.056.035.082.136.072-.045.068.087.122-.1-.056-.071.52-.327.05.062.121-.1-.037-.046.16-.1z" fill="#C51918"/>
      </g>
      <path fill-rule="evenodd" clip-rule="evenodd" d="M9.537 1s1.165 2.76.13 3.933C8.632 6.106 6 5.88 6 5.88s3.378 1.526 4.85-.575C12.322 3.204 9.537 1 9.537 1z" fill="#F7FCFF"/>
      <path fill-rule="evenodd" clip-rule="evenodd" d="M7.422 2.624l-.308.217.109-.363-.3-.23.376-.008.123-.358.123.358.376.008-.3.23.11.363-.309-.217zm.06 1.003l-.309.217.11-.364-.3-.23.375-.007.124-.359.123.359.376.008-.3.23.109.363-.308-.217zm-1.246.294l.309-.217.308.217-.109-.363.3-.23-.376-.008-.123-.358-.124.358-.375.008.299.23-.109.363zm1.246.758l-.309.217.11-.364-.3-.23.375-.007.124-.36.123.36.376.008-.3.229.109.364-.308-.217zm.71-1.142l.309-.217.308.217-.109-.363.3-.23-.376-.007-.123-.36-.124.36-.375.007.299.23-.109.363z" fill="#F7FCFF"/>
    </g>
  </g>
</svg>
