<svg width="16" height="12" fill="none" xmlns="http://www.w3.org/2000/svg">
  <mask id="a" maskUnits="userSpaceOnUse" x="0" y="0" width="16" height="12">
    <path fill="#fff" d="M0 0h16v12H0z"/>
  </mask>
  <g mask="url(#a)">
    <path fill-rule="evenodd" clip-rule="evenodd" d="M0 0v12h16V0H0z" fill="#F7FCFF"/>
    <mask id="b" maskUnits="userSpaceOnUse" x="0" y="0" width="16" height="12">
      <path fill-rule="evenodd" clip-rule="evenodd" d="M0 0v12h16V0H0z" fill="#fff"/>
    </mask>
    <g mask="url(#b)" fill-rule="evenodd" clip-rule="evenodd">
      <path d="M6 0h4v4h6v4h-6v4H6V8H0V4h6V0z" fill="#E31D1C"/>
      <path d="M6.503 1.523L7 2.4V5H3.433v-.029l-.88-.498v2.98L3.385 7H7v2.525l-.497.878h2.98l-.479-.88H9V7h3.6l.833.453v-2.98l-.88.498V5H9V2.403h.004l.479-.88h-2.98z" fill="#FECA00"/>
    </g>
  </g>
</svg>
