<svg width="16" height="12" fill="none" xmlns="http://www.w3.org/2000/svg">
  <mask id="a" maskUnits="userSpaceOnUse" x="0" y="0" width="16" height="12">
    <path fill="#fff" d="M0 0h16v12H0z"/>
  </mask>
  <g mask="url(#a)">
    <path fill-rule="evenodd" clip-rule="evenodd" d="M0 0h16v12H0V0z" fill="#F7FCFF"/>
    <path d="M-1.35.622L-2.376.003v12.394l1.024-.62 8.27-5 .954-.577-.955-.578-8.269-5z" fill="#F7FCFF" stroke="#E31D1C" stroke-width="1.35"/>
    <path d="M17.46.616l1.014-.589v12.346l-1.014-.59-8.609-5L7.846 6.2l1.005-.584 8.61-5z" fill="#F7FCFF" stroke="#E31D1C" stroke-width="1.35"/>
    <path fill-rule="evenodd" clip-rule="evenodd" d="M6.837 2.352S6.408 4.25 7.89 4.98c0 0 1.424-.776 1.104-2.629 0 0-.611-.204-1.097-.204s-1.06.205-1.06.205z" fill="#E31D1C"/>
    <path d="M6.71 2.548l-.324-.946c.605-.208 1.128-.314 1.574-.314.458 0 .935.111 1.43.329l-.401.915c-.375-.164-.718-.244-1.029-.244-.322 0-.74.085-1.25.26zM7.925 3.95a.625.625 0 100-1.25.625.625 0 000 1.25z" fill="#FECA00"/>
  </g>
</svg>
