<svg width="16" height="12" fill="none" xmlns="http://www.w3.org/2000/svg">
  <mask id="a" maskUnits="userSpaceOnUse" x="0" y="0" width="16" height="12">
    <path fill="#fff" d="M0 0h16v12H0z"/>
  </mask>
  <g mask="url(#a)">
    <path fill-rule="evenodd" clip-rule="evenodd" d="M0 0h16v12H0V0z" fill="#2E42A5"/>
    <mask id="b" maskUnits="userSpaceOnUse" x="0" y="0" width="9" height="7">
      <path fill="#fff" d="M0 0h9v7H0z"/>
    </mask>
    <g mask="url(#b)">
      <path d="M-1.002 6.5l1.98.868L9.045.944l1.045-1.29-2.118-.29-3.29 2.768-2.649 1.865L-1.002 6.5z" fill="#F7FCFF"/>
      <path d="M-.731 7.108l1.009.505 9.437-8.08H8.298L-.731 7.109z" fill="#F50100"/>
      <path d="M10.002 6.5l-1.98.868L-.045.944-1.09-.346l2.118-.29 3.29 2.768 2.649 1.865L10.002 6.5z" fill="#F7FCFF"/>
      <path d="M9.935 6.937l-1.01.504-4.018-3.46-1.19-.386L-1.19-.342H.227L5.13 3.502l1.303.463 3.502 2.972z" fill="#F50100"/>
      <mask id="c" maskUnits="userSpaceOnUse" x="-1" y="-1" width="11" height="9" fill="#000">
        <path fill="#fff" d="M-1-1h11v9H-1z"/>
        <path fill-rule="evenodd" clip-rule="evenodd" d="M4.992 0h-1v3H0v1h3.992v3h1V4H9V3H4.992V0z"/>
      </mask>
      <path fill-rule="evenodd" clip-rule="evenodd" d="M4.992 0h-1v3H0v1h3.992v3h1V4H9V3H4.992V0z" fill="#F50100"/>
      <path d="M3.992 0v-.75h-.75V0h.75zm1 0h.75v-.75h-.75V0zm-1 3v.75h.75V3h-.75zM0 3v-.75h-.75V3H0zm0 1h-.75v.75H0V4zm3.992 0h.75v-.75h-.75V4zm0 3h-.75v.75h.75V7zm1 0v.75h.75V7h-.75zm0-3v-.75h-.75V4h.75zM9 4v.75h.75V4H9zm0-1h.75v-.75H9V3zM4.992 3h-.75v.75h.75V3zm-1-2.25h1v-1.5h-1v1.5zM4.742 3V0h-1.5v3h1.5zM0 3.75h3.992v-1.5H0v1.5zM.75 4V3h-1.5v1h1.5zm3.242-.75H0v1.5h3.992v-1.5zM4.742 7V4h-1.5v3h1.5zm.25-.75h-1v1.5h1v-1.5zM4.242 4v3h1.5V4h-1.5zM9 3.25H4.992v1.5H9v-1.5zM8.25 3v1h1.5V3h-1.5zm-3.258.75H9v-1.5H4.992v1.5zM4.242 0v3h1.5V0h-1.5z" fill="#F7FCFF" mask="url(#c)"/>
    </g>
    <path d="M4.408 9.834l-.59.546.058-.802-.795-.121.664-.455-.4-.697.768.236.295-.748.295.748.769-.236-.4.697.663.455-.795.121.058.802-.59-.546zm6.368-3.765l-.394.364.04-.535-.53-.08.442-.304-.267-.464.512.157.197-.499.197.499.512-.157-.267.464.442.303-.53.081.04.535-.394-.364zm.939-3.692l-.394.363.04-.534-.53-.081.442-.303-.268-.465.513.157.197-.498.197.498.512-.157-.267.465.442.303-.53.08.04.535-.394-.363zm2.346 1.846l-.393.364.039-.535-.53-.08.442-.304-.267-.464.513.157.196-.499.197.499.513-.157-.267.464.442.303-.53.081.039.535-.394-.364zM12.184 9.53l-.394.364.04-.534-.53-.081.442-.303-.267-.465.512.157.197-.498.197.498.512-.157-.267.465.443.303-.53.08.039.535-.394-.363zm1.643-2.882l-.4.21.076-.445-.323-.316.447-.065.2-.405.2.405.447.065-.324.316.077.445-.4-.21z" fill="#F7FCFF"/>
  </g>
</svg>
