<svg width="16" height="12" fill="none" xmlns="http://www.w3.org/2000/svg">
  <mask id="a" maskUnits="userSpaceOnUse" x="0" y="0" width="16" height="12">
    <path fill="#fff" d="M0 0h16v12H0z"/>
  </mask>
  <g mask="url(#a)">
    <path fill-rule="evenodd" clip-rule="evenodd" d="M0 0v12h16V0H0z" fill="#5BA3DA"/>
    <mask id="b" maskUnits="userSpaceOnUse" x="0" y="0" width="16" height="12">
      <path fill-rule="evenodd" clip-rule="evenodd" d="M0 0v12h16V0H0z" fill="#fff"/>
    </mask>
    <g mask="url(#b)" fill-rule="evenodd" clip-rule="evenodd">
      <path d="M2.78 4.29L.242 3.536l2.595-.74.633-2.36.731 2.433 2.4.641-2.407.724-.718 2.324L2.78 4.29z" fill="#EF2929"/>
      <path d="M2.78 4.29L.242 3.536l2.595-.74.633-2.36.731 2.433 2.4.641-2.407.724-.718 2.324L2.78 4.29z" fill="red"/>
      <path d="M16 7H0v1h16V7zm0 2H0v1h16V9z" fill="#FAD615"/>
    </g>
  </g>
</svg>
