<svg width="16" height="12" fill="none" xmlns="http://www.w3.org/2000/svg">
  <mask id="a" maskUnits="userSpaceOnUse" x="0" y="0" width="16" height="12">
    <path fill="#fff" d="M0 0h16v12H0z"/>
  </mask>
  <g mask="url(#a)">
    <path fill-rule="evenodd" clip-rule="evenodd" d="M0 0h16v12H0V0z" fill="#fff"/>
    <path fill-rule="evenodd" clip-rule="evenodd" d="M0 5.467V0h8L0 5.467z" fill="#FEDA00"/>
    <path fill-rule="evenodd" clip-rule="evenodd" d="M0 12h16.005V0L0 12z" fill="#00268D"/>
    <mask id="b" fill="#fff">
      <path fill-rule="evenodd" clip-rule="evenodd" d="M4.677 2.5l.263.566a2.2 2.2 0 011.936 2.129l.477.238-.521.261A2.202 2.202 0 014.96 7.432L4.677 8l-.284-.568a2.202 2.202 0 01-1.871-1.738L2 5.434l.477-.24a2.2 2.2 0 011.918-2.126l.282-.568z"/>
    </mask>
    <path fill-rule="evenodd" clip-rule="evenodd" d="M4.677 2.5l.263.566a2.2 2.2 0 011.936 2.129l.477.238-.521.261A2.202 2.202 0 014.96 7.432L4.677 8l-.284-.568a2.202 2.202 0 01-1.871-1.738L2 5.434l.477-.24a2.2 2.2 0 011.918-2.126l.282-.568z" fill="#fff"/>
    <path d="M4.94 3.066l-.453.21.117.253.277.033.06-.496zM4.677 2.5l.453-.211-.44-.943-.461.932.448.222zm2.199 2.695l-.5.012.008.3.268.135.224-.447zm.477.238l.224.448.894-.448-.894-.447-.224.447zm-.521.261l-.224-.447-.217.109-.049.238.49.1zM4.96 7.432l-.064-.496-.264.034-.12.238.448.224zM4.677 8l-.448.224.448.894.447-.894L4.677 8zm-.284-.568l.447-.224-.12-.238-.263-.034-.064.496zM2.522 5.694l.49-.1-.05-.238-.217-.11-.223.448zM2 5.434l-.224-.448-.894.447.894.448L2 5.433zm.477-.24l.224.448.269-.135.007-.3-.5-.012zm1.918-2.126l.064.496.265-.034.12-.24-.449-.222zm.998-.213l-.263-.566-.907.422.264.566.906-.422zm1.983 2.327A2.7 2.7 0 004.999 2.57l-.118.993a1.7 1.7 0 011.495 1.645l1-.025zm.2-.196L7.1 4.747l-.448.895.478.239.447-.895zm-.52 1.155l.52-.26-.446-.895-.522.26.447.895zM5.024 7.928a2.702 2.702 0 002.297-2.134l-.98-.2a1.702 1.702 0 01-1.445 1.342l.128.992zm-.511-.72l-.285.568.895.448.284-.569-.894-.447zm.61.568l-.284-.568-.895.447.284.569.895-.448zM2.032 5.794a2.702 2.702 0 002.297 2.134l.128-.992A1.702 1.702 0 013.01 5.594l-.98.2zm-.256.087l.522.26.447-.894-.521-.26-.448.894zm.478-1.134l-.478.24.448.894.477-.24-.447-.894zm2.078-2.175a2.7 2.7 0 00-2.354 2.61l1 .025a1.7 1.7 0 011.48-1.643l-.126-.992zm-.103-.294l-.282.568.896.444.282-.568-.896-.444z" fill="#000" mask="url(#b)"/>
    <path fill-rule="evenodd" clip-rule="evenodd" d="M4.688 4.15l-.325.545h-.64l.32.572-.32.548h.64l.325.56.33-.56h.634l-.312-.548.312-.572h-.635l-.33-.545z" fill="#F00A17"/>
  </g>
</svg>
