<svg width="16" height="12" fill="none" xmlns="http://www.w3.org/2000/svg">
  <mask id="a" maskUnits="userSpaceOnUse" x="0" y="0" width="16" height="12">
    <path fill="#fff" d="M0 0h16v12H0z"/>
  </mask>
  <g mask="url(#a)" fill-rule="evenodd" clip-rule="evenodd">
    <path d="M0 0h16v3H0V0z" fill="#3D58DB"/>
    <path d="M0 3h16v3H0V3z" fill="#F7FCFF"/>
    <path d="M0 6h16v3H0V6z" fill="#73BE4A"/>
    <path d="M0 9h16v3H0V9z" fill="#FFD018"/>
    <path d="M2.265 2.708l-1.213.84.388-1.44-.89-.92 1.205-.049.51-1.424.51 1.424h1.203l-.888.97.444 1.355-1.27-.756z" fill="#FECA00"/>
    <path d="M6 0h4v12H6V0z" fill="#E11C1B"/>
  </g>
</svg>
