<svg width="16" height="12" fill="none" xmlns="http://www.w3.org/2000/svg">
  <g mask="url(#CC_-_Cocos_(Keeling)_Islands__a)">
    <path fill-rule="evenodd" clip-rule="evenodd" d="M0 0h16v12H0V0z" fill="#5EAA22"/>
    <path fill-rule="evenodd" clip-rule="evenodd" d="M12 3.5l-.5.366.067-.616L11 3l.567-.25-.067-.616.5.366.5-.366-.067.616L13 3l-.567.25.067.616L12 3.5zm-.519 3.34l-.5.365.067-.616-.567-.25.567-.25-.067-.616.5.366.5-.366-.066.616.566.25-.566.25.066.616-.5-.366zM13 9.5l-.5.366.067-.616L12 9l.567-.25-.067-.616.5.366.5-.366-.067.616L14 9l-.567.25.067.616L13 9.5zm.5-4.75l-.25.183.034-.308L13 4.5l.284-.125-.034-.308.25.183.25-.183-.034.308L14 4.5l-.284.125.034.308-.25-.183zM3.5 7a2.5 2.5 0 100-5 2.5 2.5 0 000 5z" fill="#FECA00"/>
    <path d="M3.245 5.994l-.18-.127c.397-.52.292-1.246.18-1.724l.73-.172c.167.712-.205 1.334-.73 2.023z" fill="#915E2B"/>
    <path fill-rule="evenodd" clip-rule="evenodd" d="M9.949 7.472c-.33.565-.852.822-1.552.822a1.897 1.897 0 010-3.794c.8 0 1.437.28 1.73 1.041-.232-.23-.59-.387-1.127-.367-.828 0-1.367.645-1.367 1.198 0 .552.539 1.303 1.367 1.303.417-.006.724-.083.949-.203z" fill="#FECA00"/>
    <path fill-rule="evenodd" clip-rule="evenodd" d="M3.5 4.37c.828 0 1.357-.224 1.357-.5s-.529-.5-1.357-.5-1.258.224-1.258.5.43.5 1.258.5z" fill="#5EAA22"/>
  </g>
</svg>
