<svg width="16" height="12" fill="none" xmlns="http://www.w3.org/2000/svg">
  <mask id="a" maskUnits="userSpaceOnUse" x="0" y="0" width="16" height="12">
    <path fill="#fff" d="M0 0h16v12H0z"/>
  </mask>
  <g mask="url(#a)">
    <path fill-rule="evenodd" clip-rule="evenodd" d="M0 0v12h16V0H0z" fill="#73BE4A"/>
    <mask id="b" maskUnits="userSpaceOnUse" x="0" y="0" width="16" height="12">
      <path fill-rule="evenodd" clip-rule="evenodd" d="M0 0v12h16V0H0z" fill="#fff"/>
    </mask>
    <g mask="url(#b)">
      <path fill-rule="evenodd" clip-rule="evenodd" d="M0-1v7h16v-7H0z" fill="#69F"/>
    </g>
    <path fill-rule="evenodd" clip-rule="evenodd" d="M0 0v12l9-6-9-6z" fill="#fff"/>
    <mask id="c" maskUnits="userSpaceOnUse" x="0" y="0" width="9" height="12">
      <path fill-rule="evenodd" clip-rule="evenodd" d="M0 0v12l9-6-9-6z" fill="#fff"/>
    </mask>
    <g mask="url(#c)">
      <path fill-rule="evenodd" clip-rule="evenodd" d="M3.501 6.947L2.254 7.7l.285-1.47L1.5 5.132l1.406-.06.595-1.371.595 1.372H5.5L4.464 6.23l.312 1.47L3.5 6.947z" fill="#E31D1C"/>
    </g>
  </g>
</svg>
