<svg width="16" height="12" fill="none" xmlns="http://www.w3.org/2000/svg">
  <mask id="a" maskUnits="userSpaceOnUse" x="0" y="0" width="16" height="12">
    <path fill="#fff" d="M0 0h16v12H0z"/>
  </mask>
  <g mask="url(#a)">
    <path fill-rule="evenodd" clip-rule="evenodd" d="M0 0v12h16V0H0z" fill="#279E19"/>
    <mask id="b" maskUnits="userSpaceOnUse" x="0" y="0" width="16" height="12">
      <path fill-rule="evenodd" clip-rule="evenodd" d="M0 0v12h16V0H0z" fill="#fff"/>
    </mask>
    <g mask="url(#b)" fill-rule="evenodd" clip-rule="evenodd">
      <path d="M8 0h1v7h7v1H9v4H8V8H0V7h8V0z" fill="#F7FCFF"/>
      <path d="M7 0h1v6h8v1H8v5H7V7H0V6h7V0z" fill="#272727"/>
      <path d="M6 0h1v5h9v1H7v6H6V6H0V5h6V0z" fill="#FECA00"/>
      <path d="M8 10a4 4 0 100-8 4 4 0 000 8z" fill="#C51918"/>
      <path d="M7.363 4.206s.19-.616.631-.298c.692.341.92.733 1.188 1.176.267.444-.655.119-.827-.13-.172-.25-1.127-.331-.992-.54.135-.208 0-.208 0-.208z" fill="#804BFF"/>
      <path d="M7.207 7.363s-.47.642 0 .642 2.374-.138 2.146-.32c-.228-.184-1.92 0-1.92 0l-.226-.322z" fill="#A95601"/>
      <path d="M7.91 7.342c-.05-.054-.906-1.997-.508-2.4.398-.405.632-.167.632.438s.024 2.112-.125 1.962z" fill="#804BFF"/>
      <path d="M7.859 7.027s-.05.472.193 1.024c.243.55.734.54.734.09 0-.452.357-.029.495.272.137.302-.219-2.673-.724-3.339-.505-.666-.992-.708-.845-.278.147.43.147 2.231.147 2.231z" fill="#279E19"/>
      <path d="M7.564 3.8s-.214.137-.214.514c0 .378.506-.116.506-.116L7.564 3.8zm.046-.143l.44-.232.44.232-.083-.491.356-.348-.493-.071-.22-.447-.22.447-.493.071.356.348-.084.49zm0 5.9l.44-.232.44.232-.083-.491.356-.348-.493-.071-.22-.447-.22.447-.493.071.356.348-.084.49zm2.8-2.8l.083-.491-.356-.348.493-.071.22-.447.22.447.493.071-.356.348.084.49-.441-.231-.44.232zm-5.7 0l.44-.232.44.232-.083-.491.356-.348-.493-.071-.22-.447-.22.447-.493.071.356.348-.084.49zM6.233 4.35l-.14.478-.294-.401-.498.015.29-.405-.167-.469.474.152.394-.305.002.498.412.28-.473.157zm4.105 4.379l.14-.478.472-.156-.412-.28-.002-.499-.394.305-.474-.152.168.47-.29.404.497-.016.295.402zm.07-4.437l-.14.478-.294-.402-.498.015.29-.404-.167-.469.474.152.394-.305.002.498.412.28-.473.157zM6.211 8.87l.14-.478.472-.156-.411-.28-.003-.499-.394.305-.474-.152.168.47-.29.404.497-.016.295.402z" fill="#FECA00"/>
    </g>
  </g>
</svg>
