<svg width="16" height="12" fill="none" xmlns="http://www.w3.org/2000/svg">
  <mask id="a" maskUnits="userSpaceOnUse" x="0" y="0" width="16" height="12">
    <path fill="#fff" d="M0 0h16v12H0z"/>
  </mask>
  <g mask="url(#a)">
    <path fill-rule="evenodd" clip-rule="evenodd" d="M0 0v12h16V0H0z" fill="#F7FCFF"/>
    <mask id="b" maskUnits="userSpaceOnUse" x="0" y="0" width="16" height="12">
      <path fill-rule="evenodd" clip-rule="evenodd" d="M0 0v12h16V0H0z" fill="#fff"/>
    </mask>
    <g mask="url(#b)">
      <path fill-rule="evenodd" clip-rule="evenodd" d="M0 0v4h16V0H0z" fill="#BF2714"/>
      <path fill-rule="evenodd" clip-rule="evenodd" d="M0 8v4h16V8H0z" fill="#272727"/>
      <path d="M6.13 5.11l.5.023-.126 2.735-.5-.023.126-2.735zm.522.17l.5.028-.126 2.218-.5-.028.126-2.218z" fill="#C09302"/>
      <path d="M7.174 5.446l.499.04-.126 1.529-.498-.041.125-1.528zM9.87 5.11l-.5.023.126 2.735.5-.023L9.87 5.11zm-.522.17l-.5.028.126 2.218.5-.028-.126-2.218z" fill="#C09302"/>
      <path d="M8.826 5.446l-.499.04.126 1.529.498-.041-.125-1.528zm-.839 2.217l-.488-.111.207-.9.487.111-.206.9z" fill="#C09302"/>
      <path d="M8.36 7.663l.487-.111-.206-.9-.488.111.207.9z" fill="#C09302"/>
      <path d="M8.236 7.655h-.5v-.884h.5v.884zm-.919-2.198l.5.012-.029 1.19-.5-.012.03-1.19zm.87 0l.5.012-.03 1.19-.5-.012.03-1.19z" fill="#C09302"/>
      <path d="M6.669 7.961l.13-.482c.53.142.938.213 1.215.213.278 0 .686-.07 1.216-.213l.13.482c-.57.153-1.016.23-1.346.23-.33 0-.776-.077-1.345-.23zm-.528-2.85c-.033-.33.16-.554.488-.525.107.01.228.041.39.096l.092.032c.222.08.282.1.295.102-.05-.011.095-.273.128-.317.004.028-.012.024-.052.016l-.451-.09.32-.33a.585.585 0 01.433-.171c.018 0 .034-.001.088-.005l.085-.004c.312-.01.536.078.536.399 0 .115.015.3.038.44.009.047.024.09-.022.11.002-.017.111-.06.281-.13l.02-.01c.494-.206.552-.225.711-.128.106.065.207.18.32.353l-.418.274a.872.872 0 00-.159-.198c.063.044-.149.114-.26.161l-.02.008c-.385.161-.436.18-.546.18-.299 0-.406-.306-.436-.745-.092.304-.367.687-.594.687-.1 0-.052.016-.464-.13l-.086-.03a1.345 1.345 0 00-.272-.072.227.227 0 01.02-.02l-.465.047z" fill="#C09302"/>
    </g>
  </g>
</svg>
