<svg width="16" height="12" fill="none" xmlns="http://www.w3.org/2000/svg">
  <path fill-rule="evenodd" clip-rule="evenodd" d="M0 0v12h16V0H0z" fill="#5DAA22"/>
  <mask id="a" maskUnits="userSpaceOnUse" x="0" y="0" width="16" height="12">
    <path fill-rule="evenodd" clip-rule="evenodd" d="M0 0v12h16V0H0z" fill="#fff"/>
  </mask>
  <g mask="url(#a)" fill-rule="evenodd" clip-rule="evenodd">
    <path d="M0 0v6h16V0H0z" fill="#F7FCFF"/>
    <path d="M7.346 4.454c-.01-.285-.018-.56.334-.887.916-.814 1.849-1.453 2.89-2.067-.21.376-.362 1.075.192 1.12.178.002 2.125-.872 2.125-.872-.677.527-1.456 1.263-.552 1.58-.83.276-1.518 1.171-.915 1.892-.43-.13-.996.166-1.098.5.106-.001.294.015.523.036.83.073 2.209.194 2.278-.283-.447.233-1.221.138-1.245-.53.006-.573.813-.895 1.5-.466l.105-.231c.036-.079.07-.157.107-.235-.252.033-.614.048-.874-.017.53-.535 1.333-1.579 1.784-2.173-.1.74-.037 2.427.136 2.778-.21-.08-.578-.335-.693-.582l-.244.81c.394.853-.028 2.118-.25 2.786-.07.208-.12.358-.12.42-.18.072-.313-.041-.446-.154a.915.915 0 00-.204-.146c.114.315.033.814-.038 1.25-.026.164-.052.319-.064.452a.61.61 0 00.1.393.267.267 0 01.018.034c.107.045.357.167.374.184 0 0 .31.016.29.349-.152-.195-.357-.133-.357-.133-.027.018-.26-.06-.26-.06-.117-.084-.45-.155-.797-.14-.225.01-.498.084-.548.098l-.008.002c-.005 0-.286.2-.286.2s-.068-.017-.073-.017c-.011 0-.186-.002-.416.155a.602.602 0 01.307-.41 1.2 1.2 0 01.318-.107c.026-.006.048-.01.061-.015a1.076 1.076 0 00-.396-.07 1.872 1.872 0 01-.126.006c-.177.004-.426.01-.492.125-.005-.135.132-.288.284-.36a.712.712 0 01.217-.055c.039-.005.065-.009.07-.017.031-.057-.071-.147-.104-.175a.076.076 0 01-.009-.009c0-.005-.192-.13-.328.011.027-.294.462-.298.505-.255l.127.133.128.133a43.23 43.23 0 01.24.162c.13.061.471.012.643-.184.1-.114.103-.328.104-.437l.001-.045.008-.122c.017-.23.044-.607-.008-.79-.024-.083-.217-.073-.466-.06-.25.013-.557.029-.803-.043-.388-.114-.78-.341-1.017-.48-.12-.069-.2-.115-.221-.113a.367.367 0 01-.082.079c-.057.046-.128.103-.163.188-.087.212-.07.513 0 .592 0 0 .611.005.748.081.342.19.322.475.31.621l-.002.047a12.672 12.672 0 01-.561-.205c-.336.577-.813.982-1.494 1.17.075.037.225.072.348.1.089.02.163.037.183.05.202.045.345.113.343.316-.135-.161-.267-.157-.374-.078-.144.064-.247-.008-.35-.08a.657.657 0 00-.16-.092c-.144-.11-.716-.043-.879-.022-.203.022-.435.077-.536.2-.052.043-.08.003-.092-.015-.003-.005-.006-.009-.007-.008-.234-.08-.338.139-.338.139-.055-.254.065-.308.192-.344l-.26-.16c-.005-.032-.178-.067-.291.043.01-.23.278-.375.39-.299a.268.268 0 01.338.022.492.492 0 00.432.073.408.408 0 00-.317-.255.282.282 0 01-.095-.065.554.554 0 00-.128-.09c-.124-.057-.28-.058-.355 0 .048-.287.578-.367.79-.034.129.14.327.211.49.238.3-.036.602-.287.793-.446.073-.06.13-.108.164-.125 0 0-.544-.56-.957-.849-.385-.27-1.488.254-1.637.325a.374.374 0 01-.017.008c-.027.251-.214.483-.214.483a2.098 2.098 0 00-.107-.23c-.075-.144-.145-.28-.137-.438-.202.28-.347.429-.493.577-.074.077-.148.153-.23.246-.195.214-.295.465-.364.743.146.089.552.167.552.167.177.004.308.108.306.305-.158-.175-.317-.067-.317-.067-.13.115-.295.063-.453 0-.137-.155-.799-.204-1.113-.016-.224.217-.535.236-.62.105 0 0-.14-.006-.384.083.062-.405.296-.294.296-.294a.315.315 0 010-.05c.001-.014.002-.028 0-.05l-.088-.033c-.158-.074-.354-.056-.442.022.06-.265.291-.267.463-.238a.375.375 0 00.052-.119l.015-.047a3.689 3.689 0 01-.024-.027c-.09-.097-.189-.206-.299-.11.105-.453.627-.106.808.015l.041.027c.37.132 1.332-1.378 1.38-1.484-.275-.013-.582.017-.797.097-.061.199-.17.303-.296.425l-.065.063c.003-.57-.25-.859-.613-1.271-.02-.023-.04-.047-.062-.07-.454-.318-.655-.957-.691-1.166-.07.195-.121.254-.137.272l-.004.006c-.101.117-.41.085-.34.039.042-.01.246-.333.246-.333l.089-.87c-.066-.03-.116-.159-.176-.315-.02-.05-.04-.104-.063-.157-.097-.231-.226-.467-.302-.488.144-.027.333-.03.452.114a.95.95 0 01.175.31c.018.046.034.088.06.128-.05-.127-.013-.215.045-.354.025-.057.052-.123.08-.204v-.037c0-.127.002-.205-.125-.284.254-.007.322.19.342.25a.075.075 0 00.006.015c.11.154.065.28.028.381-.024.067-.044.123-.012.169a.295.295 0 00.05-.06c.033-.044.065-.088.122-.079a.466.466 0 00.12-.36c.178.109.135.27.077.426.01.236-.02.3-.166.383-.147.093-.174.17-.157.283a.629.629 0 01.08.208c.044.155.103.365.243.557.206.285.536.545.706.68.055.042.092.072.105.086.022-.034.11-.107.193-.177.05-.041.099-.082.13-.112-.103-.085-.033-.853.175-1.553.2-.67.535-1.276.6-1.286 0-.006-.088-.222-.088-.222s-.424.068-.5.482c-.052-.086-.103-.215-.103-.215s-.37.482-.374.47c-.104-.066-.145-.343-.175-.549a1.563 1.563 0 00-.036-.2c-.199-.008-.347-.018-.496-.027-.149-.009-.297-.018-.496-.027l.036.305c-.14.002-1.097-.836-1.035-1.476.352.296.9.646 1.3.732l-.157.083-.16.084a8.672 8.672 0 002.227-.122c-.123-.273-.525-.272-.525-.272l-.018.227s-.5.028-.503.022c-.05-.277-.296-.282-.296-.282a1.913 1.913 0 00-.52.014 3.42 3.42 0 01-.25.024c.32-.426.739-.458 1.16-.49a8.47 8.47 0 00.229-.02c.036-.224.22-.29.437-.321l1.02.055c.13-.184 1.024-.509 1.237-.509-.033.252-.472.689-.59.77-.12.193-.109.213-.063.3l.014.027c.02.037.032.056.044.075.012.019.024.038.044.075.194-.076.489.285.534.427-.218-.028-.485-.04-.482.06.003.05.08.082.15.111a.566.566 0 01.088.042.526.526 0 01.173.392.475.475 0 01-.172-.065c-.118-.06-.237-.122-.312.037-.053.116-.01.19.13.243.256.075.425.36.425.522 0 .079-.118.017-.256-.054-.145-.075-.31-.16-.383-.107-.087.063-.031.383-.005.533l.01.066c.03.24.067.49.084.544l.483-.105.495-.106c.143-.139.207-.369.193-.616a2.778 2.778 0 00-.001-.217zm5.739.573c-.15-.169-.302-.227-.43-.225-.186.003-.32.133-.306.232.041.326.664.213.736-.007z" fill="#D21034"/>
  </g>
</svg>
