<svg width="16" height="12" fill="none" xmlns="http://www.w3.org/2000/svg">
  <mask id="a" maskUnits="userSpaceOnUse" x="0" y="0" width="16" height="12">
    <path fill="#fff" d="M0 0h16v12H0z"/>
  </mask>
  <g mask="url(#a)">
    <path fill="#F7FCFF" d="M0 0h16v12H0z"/>
    <path fill-rule="evenodd" clip-rule="evenodd" d="M0 8h16v4H0V8z" fill="#C51918"/>
    <path fill-rule="evenodd" clip-rule="evenodd" d="M8.229.633h-.947v.848h.467l-.033 2.33H6.334V2.753h.474v-.847H5.86v.424h-.474v-.424h-.948v.847h.474v1.06h-.999v.848h.474v2.542h-.474v.848h9v-.848h-.947V4.66h.947v-.848h-.928l.023-1.06h.483v-.847h-.947v.424h-.474v-.424h-.947v.847h.464l-.023 1.06H9.137L9.17 1.48h.48V.633h-.947v.424h-.474V.633z" fill="#DB000B"/>
    <path fill-rule="evenodd" clip-rule="evenodd" d="M5.808 6.845a.553.553 0 111.105 0v.914H5.808v-.914zm4.052 0a.553.553 0 011.106 0v.914H9.86v-.914zm-2.21-.182a.737.737 0 011.474 0v1.463H7.65V6.663z" fill="#272727"/>
    <path fill-rule="evenodd" clip-rule="evenodd" d="M8.661 7.599l-.09.166-.169-.252-1.379.925 1.538.732 1.356-.887-1.256-.684zm-.63.765l.444-.297.469.255-.422.276-.49-.234zm-.452 1.903h.737V11h-.737v-.733z" fill="#E8AA00"/>
    <path fill-rule="evenodd" clip-rule="evenodd" d="M8 9h.874v2H8V9z" fill="#E8AA00"/>
  </g>
</svg>
