<svg width="16" height="12" fill="none" xmlns="http://www.w3.org/2000/svg">
  <path d="M0 0v4h16V0H0z" fill="#002488"/>
  <path d="M0 4v8h16V4H0z" fill="#DA121A"/>
  <path d="M2.774.567c-.193.317-.216.571-.084 1.01.063.205.133.51.162.676.039.234.035.257.04.308h.21c.008-.082.014-.175.031-.304.02-.15.08-.463.145-.68.128-.436.12-.703-.08-1.005-.073-.113-.17-.205-.215-.205-.043 0-.142.085-.209.2zm.42 1.786c-.017.084-.02.113-.029.208h.14a1.57 1.57 0 01.05-.187c.11-.35.433-.49.419-.163a.287.287 0 01-.085.19c.052-.014.163-.066.253-.117.502-.302.304-1.043-.222-.819-.273.117-.437.441-.526.888zm-.588.359c.22.001.6.004.783.002l.001-.099c-.134-.001-.65.002-.783.002l-.001.095zm-.139.37s.11.012.212.005a.55.55 0 00.22-.05c-.017.122-.018.24-.018.24a.685.685 0 00.066.274c.046.063.073.064.107-.004a.676.676 0 00.068-.27 1.204 1.204 0 00-.028-.238c.07.03.115.038.22.048.109.01.208.005.208.005s-.146-.073-.21-.163c-.064-.089-.05-.074-.096-.188-.056-.003-.34 0-.43 0-.05.104-.054.126-.115.191a.861.861 0 01-.204.15zM2.27 1.465c.272.117.436.441.526.888.017.083.02.113.029.207h-.14a1.57 1.57 0 00-.05-.187c-.11-.348-.433-.488-.419-.162.005.09.043.14.085.19a1.347 1.347 0 01-.253-.117c-.502-.302-.304-1.043.222-.819zM7.814.567c-.192.317-.215.571-.084 1.01.063.205.133.51.162.676.039.234.035.257.04.308h.21c.008-.082.014-.175.031-.304.02-.15.08-.463.145-.68.128-.436.12-.703-.08-1.005-.073-.113-.17-.205-.214-.205-.044 0-.143.085-.21.2zm.946.898c-.272.117-.436.441-.526.888-.017.084-.02.113-.029.208h.14c.012-.064.021-.097.05-.187.11-.35.433-.49.419-.163a.287.287 0 01-.085.19c.052-.014.163-.066.253-.117.502-.302.304-1.043-.222-.819zM7.646 2.712c.22.001.6.004.783.002l.001-.099c-.134-.001-.65.002-.783.002l-.001.095zm.064.22c-.079.086-.203.15-.203.15s.11.012.212.005a.55.55 0 00.22-.05c-.017.122-.018.24-.018.24a.685.685 0 00.066.274c.046.063.073.064.107-.004a.676.676 0 00.068-.27 1.204 1.204 0 00-.028-.238c.07.03.115.038.22.048.109.01.208.005.208.005s-.146-.073-.21-.163c-.064-.089-.05-.074-.096-.188-.056-.003-.34 0-.43 0-.05.104-.054.126-.115.191zm-.4-1.467c.272.117.437.441.526.888.017.083.02.113.029.207h-.14a1.572 1.572 0 00-.05-.187c-.11-.348-.433-.488-.419-.162.005.09.043.14.085.19a1.347 1.347 0 01-.253-.117c-.502-.302-.304-1.043.222-.819zm5.544-.898c-.192.317-.215.571-.084 1.01.063.205.133.51.162.676.039.234.035.257.04.308h.21c.008-.082.014-.175.031-.304.02-.15.08-.463.145-.68.128-.436.12-.703-.08-1.005-.073-.113-.17-.205-.214-.205-.044 0-.143.085-.21.2zm.946.898c-.272.117-.436.441-.526.888-.017.084-.02.113-.029.208h.14c.013-.064.021-.097.05-.187.11-.35.433-.49.419-.163a.287.287 0 01-.085.19 1.35 1.35 0 00.253-.117c.502-.302.304-1.043-.222-.819zm-1.114 1.247c.22.001.6.004.783.002l.001-.099c-.134-.001-.649.002-.783.002l-.001.095zm.064.22c-.079.086-.203.15-.203.15s.11.012.212.005a.549.549 0 00.22-.05c-.017.122-.018.24-.018.24a.686.686 0 00.066.274c.046.063.073.064.107-.004a.675.675 0 00.068-.27 1.203 1.203 0 00-.028-.238c.07.03.115.038.22.048.109.01.208.005.208.005s-.146-.073-.21-.163c-.063-.089-.05-.074-.096-.188-.056-.003-.34 0-.43 0-.05.104-.054.126-.115.191zm-.4-1.467c.273.117.437.441.526.888.017.083.02.113.029.207h-.14a1.545 1.545 0 00-.05-.187c-.11-.348-.433-.488-.419-.162.005.09.043.14.086.19a1.348 1.348 0 01-.254-.117c-.502-.302-.304-1.043.222-.819z" fill="#FCDD09"/>
  <path d="M5.695 6.617c.105.05.24.088.308.09.08.003.06-.017-.09-.075a1.579 1.579 0 01-.321-.171c-.112-.092-.112-.092-.1-.011.006.046.09.117.203.167zm-2.438-.143c-.083.063-.078.068.102.04A4.82 4.82 0 003.7 6.45c.127-.034.117-.04-.102-.044-.146-.005-.283.024-.341.068z" fill="green"/>
  <path d="M2.047 5.962c.804.146 2.415.687 2.318.78-.024.024-.477-.088-.54-.132-.025-.024-.263-.015-.526.02-.492.053-.575.097-.565.297.005.097.005.097.03 0 .043-.18.116-.22.394-.22.301 0 1.13.122 1.494.22.487.136.502.136.341.049-.21-.117-.526-.332-.584-.395-.107-.122-2.05-.658-2.332-.649-.132.01-.137.01-.03.03zm2.852.56c.038.068.418.259.447.23.015-.015-.029-.054-.087-.088a.777.777 0 01-.18-.127c-.078-.073-.224-.088-.18-.015z" fill="green"/>
  <path d="M4.928 6.985c.039.069.419.259.448.23.014-.015-.03-.054-.088-.088A.778.778 0 015.108 7c-.078-.073-.224-.088-.18-.015zm-.544-.58c.007-.007.116.03.246.08s.298.098.37.103c.127.006.578.22.574.272 0 .048-.683-.16-.921-.281-.287-.143-.294-.15-.27-.174z" fill="green"/>
  <path d="M5.19 6.761a.495.495 0 00-.21.144c-.034.054-.006.055.111-.004a.989.989 0 01.298-.09c.136-.007.136-.007.05-.061-.05-.031-.156-.028-.249.011zM2.911 5.118c.151.288.765.95 1.106 1.204a.966.966 0 00.36.151l.19.03-.141-.156a6.338 6.338 0 01-.692-.936c-.122-.23-.136-.17-.034.122.039.117.195.35.346.516.15.17.248.312.224.312-.064 0-.473-.482-.765-.902-.316-.458-.33-.472-.243-.219.044.122.141.302.224.4.078.102.126.185.102.185-.049 0-.263-.244-.53-.595-.074-.102-.176-.234-.22-.292-.048-.064-.014.02.073.18zm7.363 3.765c.158.068.979.276 1.559.446.58.17 1.259.366 1.41.387.214-.469-.177.408.046-.123-.29-.074-1.432-.343-1.89-.475-.396-.111-.957-.284-1.1-.316-.144-.031-.146.028-.025.08z" fill="green"/>
  <path d="M10.374 8.761c.16.063.988.242 1.574.391.586.15 1.27.322 1.422.338.198-.476-.162.414.042-.125-.292-.063-1.443-.293-1.906-.408-.399-.097-.965-.25-1.11-.277-.145-.027-.145.033-.022.081zm-.227.21c.155.077.963.327 1.534.527.57.2 1.238.432 1.387.46.239-.456-.197.399.053-.12-.285-.089-1.412-.418-1.863-.573-.39-.132-.94-.334-1.082-.373-.142-.039-.147.02-.029.08z" fill="green"/>
  <path d="M10.049 9.071c.15.085.944.377 1.504.607.56.23 1.213.496 1.36.532.263-.443-.217.387.06-.118-.28-.103-1.389-.49-1.83-.67-.382-.151-.922-.382-1.062-.428-.139-.047-.147.012-.032.077z" fill="green"/>
  <path d="M9.956 9.197c.147.09.93.41 1.482.659.55.249 1.196.538 1.341.58.278-.435-.23.379.064-.116-.277-.114-1.37-.54-1.806-.734-.377-.165-.908-.414-1.046-.465-.137-.052-.148.007-.035.076z" fill="green"/>
  <path d="M8.314 10.46c.226.158.474.123.378-.093l-.056-.125.177.077c.254.107.49.021.35-.17l-.08-.111.19.038c.27.053.483-.08.307-.238l-.102-.093.194-.001c.275-.006.455-.18.251-.298l-.12-.069.19-.042c.268-.062.408-.27.184-.343l-.13-.043.175-.08c.25-.117.344-.35.109-.375l-.137-.014.156-.115c.22-.167.263-.414.028-.389l-.136.014.128-.145c.18-.208.171-.459-.053-.386l-.13.043.095-.17c.133-.24.072-.484-.132-.366l-.12.069.059-.185c.08-.264-.03-.49-.205-.331l-.102.092.018-.193c.024-.275-.13-.472-.27-.281l-.08.111-.022-.193c-.034-.273-.226-.434-.322-.219l-.056.126-.061-.184c-.09-.26-.312-.378-.36-.147l-.03.135-.098-.168c-.142-.236-.383-.305-.383-.068v.137l-.13-.143c-.19-.201-.439-.218-.39.013l.029.134-.158-.113c-.226-.157-.474-.122-.378.094l.056.125-.178-.077c-.254-.107-.489-.021-.35.17l.08.111-.19-.039c-.27-.052-.482.081-.307.24l.102.092-.193.001c-.276.006-.456.18-.251.298l.119.069-.19.042c-.268.062-.408.27-.183.343l.13.043-.176.08c-.25.117-.343.35-.108.374l.136.015-.156.115c-.22.167-.262.414-.028.389l.137-.014-.129.145c-.18.208-.17.459.053.386l.131-.043-.095.17c-.133.24-.072.484.132.366l.119-.069-.058.185c-.08.264.03.49.205.331L6 9.408l-.019.193c-.023.275.131.472.27.281l.08-.111.023.193c.034.274.226.434.322.219l.056-.126.06.184c.091.26.312.378.361.147l.029-.135.098.168c.143.236.383.305.383.069v-.138l.131.143c.189.201.438.218.39-.012l-.03-.135.159.112z" fill="#FCDD09"/>
</svg>
