<svg width="16" height="12" fill="none" xmlns="http://www.w3.org/2000/svg">
  <mask id="a" maskUnits="userSpaceOnUse" x="0" y="0" width="16" height="12">
    <path fill="#fff" d="M0 0h16v12H0z"/>
  </mask>
  <g mask="url(#a)">
    <path fill-rule="evenodd" clip-rule="evenodd" d="M0 0h16v12H0V0z" fill="#2B409A"/>
    <path d="M11.752 3.412s-.222-.29-.222-.357m.4.357s.222-.29.222-.357" stroke="#CDAD56" stroke-width=".25" stroke-linecap="round"/>
    <path d="M12.159 9.276a.653.653 0 01-.142-.06s-.081.127-.123.135c-.043.007-.262-.079-.262-.079s-.153.12-.188.113l-.388-.083-.193-.12s-.107.173-.111.169c-.004-.004-.323-.064-.323-.064s.096-.131.096-.135c0-.004-.046-.019-.046-.019l-.07.056-.284.027.07-.196.11-.165 1.366-1.296.673 1.213-.1.365s-.054.139-.085.139z" fill="#6A4C2D"/>
    <path d="M10.855 9.03c.048.058.674.698.775 1 .102.304-.823-.083-.823-.083s1.165-.757 1.747-.757c.582 0 1.725.757 1.725.757s-.767.54-.76.2c.008-.341.36-1.012.781-1.117" stroke="#FB0" stroke-width=".5" stroke-linecap="round" stroke-linejoin="round"/>
    <path d="M14.89 9.058v-.38l-1.181.055-.64-.175-.27.18.146.19.355.13h1.59z" fill="#F7FCFF"/>
    <g filter="url(#GS_-__S__Georgia_and_S__Sandwich_Islands__filter0_d)">
      <path d="M11.97 4.933c.006.016.149-.013.18.073.153-.227.334-.01.334-.01l.152-.18.172.162.157-.012.165.386-1.299-.024s.132-.411.138-.395z" fill="#656263"/>
    </g>
    <path d="M13.316 6.577c-.01-.122-.12-.137-.18-.133a.225.225 0 00-.114.055l-.2-.124s.1-.618.206-.656c.1-.072.119-.102.119-.119 0-.016-.038-.082-.038-.082l-.653-.076-.618.072s-.048.096-.041.125c.006.028.008.06.119.143.122.092.206.62.206.62s-.173.083-.183.073c-.01-.01-.063-.02-.09-.016a.163.163 0 00-.117.165c0 .116.09.183.09.183s.59.433.678.592c.085-.192.647-.624.713-.657.028-.016.113-.043.103-.165z" fill="#656263"/>
    <path d="M13.905 6c.05-.031.376-.047.454 0 .079.049.281.126.285.186.003.061.137.171.137.171s.23.486.233.786c.03.205.023.75-.058.958-.004.259-.335.448-.335.448s.026.045.023.093a.244.244 0 01-.03.092l-.245.106-.271-.045-.307-.897.072-1.517.02-.077-.033-.204s.006-.067.055-.1z" fill="#000"/>
    <path d="M12.131 6.797s.33 0 .366.105c.063-.14.349-.131.349-.131l.518-.017.009 1.222c-.101.474-.453.81-.84.952-.462-.146-.753-.527-.849-.96l-.053-1.162.5-.009z" fill="#F7FCFF"/>
    <path d="M11.809 6.801l.729 1.899.658-1.94c-.204.013-.642-.031-.697.15-.084-.162-.545-.097-.69-.109z" fill="#006B00"/>
    <path fill-rule="evenodd" clip-rule="evenodd" d="M12.654 6.939s.066.173 0 .259c-.067.085.005.155.045.155s.178.136.066.136c-.111 0-.174-.042-.174.077 0 .12.14.579.14.438 0-.14.034-.296.034-.296s.059.044.017.204c-.042.16-.233.392-.28.402-.048.009-.122.083-.132-.054-.01-.138-.049-.202-.017-.229.032-.027.074-.122.087-.047.014.075-.046.147-.036.174.01.027.015.089.056.037.041-.051.066-.136.096-.057.031.078.032.016-.032-.134-.064-.15-.118-.233-.11-.364.007-.132-.003-.181.007-.223.01-.043-.114-.248-.082-.308.031-.059.043-.25.082-.216.04.035.06.08.04.132-.02.052-.04.103-.02.138.02.035.088.135.102.11.013-.026.06-.001.06-.144s-.052-.193-.02-.227c.033-.034.07.037.07.037z" fill="#FFD100"/>
    <path d="M13.2 6.76l.099-.002-.176.217.21.24-.414.51.391.46a1.19 1.19 0 01-.159.282l-.224-.243.407-.496-.335-.37.201-.598zm-1.51.046l.197.208-.208.254.433.46-.358.469c.043.103.104.217.17.301l.214-.263-.438-.475.32-.398-.224-.558-.105.002z" fill="#1E5AA6"/>
    <path d="M14.193 6.426c0 .031.034 1.916.073 1.898.094-.045.116.053.116.053s.033.31-.049.351a1.13 1.13 0 01-.211.093l-.142-.103s-.144-.2-.176-.29a2.472 2.472 0 01-.059-.575 7.09 7.09 0 00.016-.616c-.006-.026-.032-.447-.016-.511s.118-.345.114-.345c0 0 .334.013.334.045z" fill="url(#GS_-__S__Georgia_and_S__Sandwich_Islands__paint0_linear)"/>
    <path d="M13.866 6.103c.069 0 .12.057.137.109.003.022-.006.038-.003.08.003.041-.497.009-.5.006 0 0 .232-.22.366-.195z" fill="#FF7000"/>
    <path d="M14.204 6.255a.05.05 0 11-.1 0 .05.05 0 01.1 0z" fill="#000"/>
    <path d="M12.91 5.954s.26.276.429.273c.03.08-.077.156-.12.191-.085-.026-.163.005-.362-.234.013-.153.056-.224.053-.23zm1.035-1.385c.025.177.44.393.559.247-.012.065.01.27-.62.268.238.221-.239.46-.374.407.248-.186-.07-.297-.248-.177.034-.102.282-.613.683-.745z" fill="#F7FCFF"/>
    <path fill-rule="evenodd" clip-rule="evenodd" d="M13.525 5.808c-.047-.194-.07-.418.034-.503-.137-.093-.287.003-.287.003a.087.087 0 01-.008.012c-.032.044-.14.192.008.458-.392-.102-.228.254-.2.281.016-.057.224-.11.276.18.018.058-.088.143-.122.17l-.01.01s.332.066.375-.372a.677.677 0 00.324-.595c-.253.005-.365.283-.39.356z" fill="#F7FCFF"/>
    <path d="M12.044 6.032s-.254.216-.398.147c-.107.063-.233-.048-.233-.048s.147.53.674.146a1.196 1.196 0 00-.043-.245z" fill="#F7FCFF"/>
    <path d="M11.643 6.17c.021-.11.11-.165.18-.06.095.018.19-.362-.147-.3.095-.496-.19-.681-.19-.681s-.1.55-.055.652c.046.102-.067-.189-.431-.27-.006.417.407.611.407.611s.116.105.236.048z" fill="#F7FCFF"/>
    <path d="M11.298 5.57c-.107.032-.367-.125-.202-.328-.542-.012-.837-.47-.656-.383.18.087.31-.099.444 0-.165-.15.058-.27.058-.27s.462.136.545.537c-.028.077-.04.215-.046.209 0-.003-.287-.005-.143.234z" fill="#F7FCFF"/>
    <path d="M12.348 3.434c-.068.226-.315.14-.315.14s.008.113-.017.167c.02.017.166.143.32.176.22.047.672-.082.823.108.152.19.144.343.144.343s-.197.025-.142.103c.035.051.133.089.142.141.028.167-.093.468-.05.581-.068.007-.073.086-.073.086-.004.089-.2.036-.2.036s.122-.348.13-.429c.008-.08-.086-.225-.16-.225-.073 0-.127.257-.127.257s-.036.194-.024.212c.012.018-.05-.063-.05-.063s-.019.078-.05.126a.234.234 0 01-.085.077s-.036-.118-.024-.163c.012-.045.2-.22.184-.347-.007-.056-.013-.153-.075-.185-.079-.041-.223-.011-.31-.031-.048.091-.07.595-.037.627.033.031-.082.099-.082.099l-.135.004c-.002-.068.08-.255.08-.412 0-.158.01-.327.01-.327s-.09.025-.14.126a.66.66 0 00-.036.266c.008.05.05.19.037.23-.013.04-.225.095-.225.095l-.009-.131s.09-.063.09-.221.009-.383.005-.397c-.003-.008-.074-.353-.168-.586-.063-.155-.16-.227-.164-.24-.013-.03-.013-.067-.013-.067s-.135.108-.295-.122c.147-.137.304-.036.304-.036s.04-.126.229-.117c.188.01.225.126.217.113 0 0 .14-.135.291-.014z" fill="#923F00"/>
    <path d="M11.814 5.682l.644.412.58-.382s.121-.065.11-.112c-.01-.047-.051-.028-.072-.02-.021.008-.607.414-.607.414l-.624-.386s-.046-.014-.055.015c-.008.028.018.044.024.059z" fill="#B4B6B9"/>
    <path d="M13.973 8.714s-.24-.016-.203.053c.02.039.338.034.338.034l-.135-.087zm.115.093l-.25.007s-.063.056-.067.069c-.004.014.04.017.04.017s.259.066.454.023c.098-.033.116-.074.047-.098-.07-.025-.223-.017-.224-.018z" fill="#FF7000"/>
    <path d="M11.195 6.495s-.032.1 0 .15c.033.05.237.454.237.454s.14-.168.191-.172c.051-.005.028.436.028.436s-.084.077-.135.073c-.05-.005.126.172.121.322-.005.15-.232.896-.316.91-.084.013-.156-.141-.156-.274 0-.133.086-.345.082-.404-.005-.059-.416.634-.441.742-.005.02.022.094.022.094s-.161.014-.126.219c-.474-.164-1.233-.26-1.228-.547.001-.11.182-.814.285-1.099.165-.459.746-.73.749-.781.005-.082.037-.118.042-.164.004-.045.05-.268.096-.31.047-.04.289-.14.35-.135.06.004.111.045.111.045s.228 0 .242.086c.014.087-.047.119-.047.119s.033.122-.107.236z" fill="#8A9396"/>
    <path d="M11.331 9.073a.863.863 0 00.254.084s-.436.118-.879-.11c-.04-.178.095-.217.129-.219.078-.02.42.191.496.245z" fill="#2B2B2B"/>
    <mask id="b" maskUnits="userSpaceOnUse" x="0" y="0" width="9" height="8">
      <path fill="#fff" d="M0 .2h9v7H0z"/>
    </mask>
    <g mask="url(#b)">
      <path d="M-1.002 6.7l1.98.869 8.067-6.425 1.045-1.29-2.118-.29-3.29 2.768-2.649 1.865L-1.002 6.7z" fill="#F7FCFF"/>
      <path d="M-.731 7.308l1.009.505 9.436-8.08H8.298L-.731 7.309z" fill="#F50100"/>
      <path d="M10.002 6.7l-1.98.869-8.067-6.425-1.045-1.29 2.118-.29 3.29 2.768 2.649 1.865L10.002 6.7z" fill="#F7FCFF"/>
      <path d="M9.935 7.137l-1.01.504-4.018-3.46-1.19-.386L-1.19-.142H.227L5.13 3.702l1.303.463 3.502 2.972z" fill="#F50100"/>
      <mask id="c" maskUnits="userSpaceOnUse" x="-1" y="-.8" width="11" height="9" fill="#000">
        <path fill="#fff" d="M-1-.8h11v9H-1z"/>
        <path fill-rule="evenodd" clip-rule="evenodd" d="M4.992.2h-1v3H0v1h3.992v3h1v-3H9v-1H4.992v-3z"/>
      </mask>
      <path fill-rule="evenodd" clip-rule="evenodd" d="M4.992.2h-1v3H0v1h3.992v3h1v-3H9v-1H4.992v-3z" fill="#F50100"/>
      <path d="M3.992.2v-.75h-.75V.2h.75zm1 0h.75v-.75h-.75V.2zm-1 3v.75h.75V3.2h-.75zM0 3.2v-.75h-.75v.75H0zm0 1h-.75v.75H0V4.2zm3.992 0h.75v-.75h-.75v.75zm0 3h-.75v.75h.75V7.2zm1 0v.75h.75V7.2h-.75zm0-3v-.75h-.75v.75h.75zM9 4.2v.75h.75V4.2H9zm0-1h.75v-.75H9v.75zm-4.008 0h-.75v.75h.75V3.2zm-1-2.25h1v-1.5h-1v1.5zm.75 2.25v-3h-1.5v3h1.5zM0 3.95h3.992v-1.5H0v1.5zm.75.25v-1h-1.5v1h1.5zm3.242-.75H0v1.5h3.992v-1.5zm.75 3.75v-3h-1.5v3h1.5zm.25-.75h-1v1.5h1v-1.5zm-.75-2.25v3h1.5v-3h-1.5zM9 3.45H4.992v1.5H9v-1.5zm-.75-.25v1h1.5v-1h-1.5zm-3.258.75H9v-1.5H4.992v1.5zM4.242.2v3h1.5v-3h-1.5z" fill="#F7FCFF" mask="url(#c)"/>
    </g>
  </g>
  <defs>
    <linearGradient id="GS_-__S__Georgia_and_S__Sandwich_Islands__paint0_linear" x1="14.177" y1="7.804" x2="14.749" y2="7.794" gradientUnits="userSpaceOnUse">
      <stop stop-color="#D5DFFF"/>
      <stop offset="1" stop-color="#fff"/>
    </linearGradient>
    <filter id="GS_-__S__Georgia_and_S__Sandwich_Islands__filter0_d" x="11.831" y="4.816" width="1.299" height=".787" filterUnits="userSpaceOnUse" color-interpolation-filters="sRGB">
      <feFlood flood-opacity="0" result="BackgroundImageFix"/>
      <feColorMatrix in="SourceAlpha" values="0 0 0 0 0 0 0 0 0 0 0 0 0 0 0 0 0 0 127 0"/>
      <feOffset dy=".25"/>
      <feColorMatrix values="0 0 0 0 1 0 0 0 0 1 0 0 0 0 1 0 0 0 1 0"/>
      <feBlend in2="BackgroundImageFix" result="effect1_dropShadow"/>
      <feBlend in="SourceGraphic" in2="effect1_dropShadow" result="shape"/>
    </filter>
  </defs>
</svg>
