<svg width="16" height="12" fill="none" xmlns="http://www.w3.org/2000/svg">
  <mask id="a" maskUnits="userSpaceOnUse" x="0" y="0" width="16" height="12">
    <path fill="#fff" d="M0 0h16v12H0z"/>
  </mask>
  <g mask="url(#a)">
    <path fill-rule="evenodd" clip-rule="evenodd" d="M11 0h5v12h-5V0zM0 0h6v12H0V0z" fill="#58A5FF"/>
    <path fill-rule="evenodd" clip-rule="evenodd" d="M5 0h6v12H5V0z" fill="#fff"/>
    <path d="M6.382 8.519l-.363-.344 3.844-4.064.363.344-3.844 4.064z" fill="#C6C6C6"/>
    <path fill-rule="evenodd" clip-rule="evenodd" d="M6.492 4.053s-1.23.742-1.23 2.604c0 1.861 2.996 2.113 2.996 2.113S6.465 7.677 6.23 6.894c-.234-.783.262-2.841.262-2.841z" fill="#5AB92D"/>
    <path fill-rule="evenodd" clip-rule="evenodd" d="M9.527 4.053s1.23.742 1.23 2.604c0 1.861-2.995 2.113-2.995 2.113S9.646 7.69 9.91 6.657c.264-1.033-.383-2.604-.383-2.604z" fill="#5AB92D"/>
    <path d="M7.404 3.8l.498.045c-.017.18.082.364.326.561.784.634 1.206 1.426.875 2.325-.24.653-.565 1.203-.977 1.651l-.368-.339c.366-.397.658-.891.876-1.484.237-.646-.084-1.25-.72-1.764-.364-.294-.543-.629-.51-.995z" fill="#5AB92D"/>
    <path fill-rule="evenodd" clip-rule="evenodd" d="M7.087 4.904l.525 1.484h-.386s-.14.468.123.468h1.614s.176-.118.088-.468c-.088-.351-.532-1.32-.532-1.32s.19-.16.19-.279c0-.119-.19-.132-.19-.132H7.322c-.153.026-.235.247-.235.247z" fill="#EFE298"/>
  </g>
</svg>
