<svg width="16" height="12" fill="none" xmlns="http://www.w3.org/2000/svg">
  <mask id="a" maskUnits="userSpaceOnUse" x="0" y="0" width="16" height="12">
    <path fill="#fff" d="M0 0h16v12H0z"/>
  </mask>
  <g mask="url(#a)">
    <path fill-rule="evenodd" clip-rule="evenodd" d="M0 0v12h16V0H0z" fill="#E31D1C"/>
    <mask id="b" maskUnits="userSpaceOnUse" x="0" y="0" width="16" height="12">
      <path fill-rule="evenodd" clip-rule="evenodd" d="M0 0v12h16V0H0z" fill="#fff"/>
    </mask>
    <g mask="url(#b)">
      <path fill-rule="evenodd" clip-rule="evenodd" d="M3.047 2.07c-.004-.046.051-.068.083-.034.224.246.818.858 1.16.858.43 0 2.117-1.421 2.616-1.19.498.232 1.508 2.652 1.508 2.652l-.658.826-.85-.464-.236-1.546s-1.561.782-2.38.477l-.459.167s-.442-.876-.617-1.144c-.115-.178-.154-.443-.167-.602z" fill="#F7FCFF"/>
      <path fill-rule="evenodd" clip-rule="evenodd" d="M4 4.138l-.588.309.112-.655-.475-.463.657-.096L4 2.638l.294.595.657.096-.475.463.112.655L4 4.137zm2.566-2.37a.18.18 0 01.36.03l-.11 1.381a.18.18 0 11-.36-.029l.11-1.382z" fill="#FECA00"/>
      <path fill-rule="evenodd" clip-rule="evenodd" d="M12.61 2.552c.041.021.031.08-.015.088-.327.06-1.16.24-1.343.53-.227.365.084 2.548-.376 2.849-.46.3-3.049-.127-3.049-.127l-.35-.995.843-.475 1.481.59s.14-1.68.832-2.21l.08-.51s.979.089 1.298.083c.212-.004.457.104.6.177z" fill="#F7FCFF"/>
      <path fill-rule="evenodd" clip-rule="evenodd" d="M10.252 2.428l.05-.662.495.442.646-.158-.268.608.35.565-.661-.066-.43.506-.14-.648-.615-.252.573-.335zm.725 3.172a.195.195 0 11-.235.31l-.962-.746a.177.177 0 01.213-.282l.984.717z" fill="#FECA00"/>
      <path fill-rule="evenodd" clip-rule="evenodd" d="M7.431 10.492c-.039.025-.085-.013-.07-.057.113-.314.374-1.125.213-1.428-.202-.38-2.248-1.202-2.278-1.75-.03-.55 1.634-2.577 1.634-2.577l1.037.193-.01.969-1.346.986s1.516.95 1.63 1.816l.363.336s-.566.802-.72 1.082c-.103.185-.319.344-.453.43z" fill="#F7FCFF"/>
      <path fill-rule="evenodd" clip-rule="evenodd" d="M8.946 8.457l.549.374-.63.208-.187.638-.393-.536-.663.02.387-.539-.224-.625.633.202.525-.406.003.664zm-3.394-.979a.203.203 0 01-.147-.379l1.009-.394a.207.207 0 11.15.385l-1.012.388z" fill="#FECA00"/>
      <path d="M6.831 4.882a.123.123 0 01-.074-.154c.021-.064.12-.17.183-.149l.868.303a.121.121 0 01.08.106l.078.952c.005.067-.092.121-.158.127a.12.12 0 01-.128-.112l-.072-.818-.777-.255z" fill="#FECA00"/>
      <path d="M8.34 4.384c.052-.042.145.006.185.06.04.053.031.13-.02.17l-.602.617c-.052.041-.168-.04-.209-.093-.04-.053-.052-.198 0-.239l.646-.515z" fill="#FECA00"/>
    </g>
  </g>
</svg>
