<svg width="16" height="12" fill="none" xmlns="http://www.w3.org/2000/svg">
  <mask id="a" maskUnits="userSpaceOnUse" x="0" y="0" width="16" height="12">
    <path fill="#fff" d="M0 0h16v12H0z"/>
  </mask>
  <g mask="url(#a)">
    <path fill-rule="evenodd" clip-rule="evenodd" d="M0 0v12h16V0H0z" fill="#F7FCFF"/>
    <mask id="b" maskUnits="userSpaceOnUse" x="0" y="0" width="16" height="12">
      <path fill-rule="evenodd" clip-rule="evenodd" d="M0 0v12h16V0H0z" fill="#fff"/>
    </mask>
    <g mask="url(#b)">
      <path fill-rule="evenodd" clip-rule="evenodd" d="M-.753 1.646l.744.708c.614-.58 1.193-.854 1.744-.854.266 0 .379.064.686.354.486.46.814.646 1.43.646.615 0 .942-.186 1.43-.646.306-.29.42-.354.685-.354.266 0 .38.064.686.354.487.46.814.646 1.43.646.615 0 .943-.186 1.43-.646.306-.29.42-.354.686-.354.266 0 .379.064.686.354.486.46.814.646 1.43.646.615 0 .943-.186 1.43-.646.306-.29.42-.354.685-.354.55 0 1.13.274 1.744.854l.744-.708C16.12.893 15.289.5 14.429.5c-.615 0-.943.186-1.43.646-.306.29-.42.354-.686.354-.266 0-.379-.064-.686-.354-.486-.46-.814-.646-1.43-.646-.615 0-.942.186-1.429.646-.307.29-.42.354-.686.354-.266 0-.38-.064-.686-.354C6.909.686 6.582.5 5.966.5c-.615 0-.943.186-1.43.646-.306.29-.42.354-.686.354-.266 0-.379-.064-.686-.354C2.678.686 2.35.5 1.734.5.875.5.045.893-.752 1.646zm.744 2.708l-.744-.708C.044 2.893.875 2.5 1.735 2.5c.615 0 .943.186 1.43.646.306.29.42.354.685.354.266 0 .38-.064.687-.354.486-.46.814-.646 1.43-.646.615 0 .942.186 1.429.646.307.29.42.354.686.354.266 0 .38-.064.686-.354.487-.46.814-.646 1.43-.646.615 0 .943.186 1.43.646.306.29.42.354.685.354.266 0 .38-.064.686-.354.487-.46.815-.646 1.43-.646.86 0 1.691.393 2.488 1.146l-.744.708c-.614-.58-1.193-.854-1.744-.854-.266 0-.38.064-.686.354-.486.46-.814.646-1.43.646-.615 0-.943-.186-1.43-.646-.306-.29-.42-.354-.685-.354-.266 0-.38.064-.686.354-.487.46-.815.646-1.43.646-.616 0-.943-.186-1.43-.646-.306-.29-.42-.354-.686-.354-.266 0-.38.064-.686.354-.487.46-.814.646-1.43.646-.615 0-.943-.186-1.43-.646-.306-.29-.42-.354-.685-.354-.55 0-1.13.274-1.744.854zm0 2l-.744-.708C.044 4.893.875 4.5 1.735 4.5c.615 0 .943.186 1.43.646.306.29.42.354.685.354.266 0 .38-.064.687-.354.486-.46.814-.646 1.43-.646.615 0 .942.186 1.429.646.307.29.42.354.686.354.266 0 .38-.064.686-.354.487-.46.814-.646 1.43-.646.615 0 .943.186 1.43.646.306.29.42.354.685.354.266 0 .38-.064.686-.354.487-.46.815-.646 1.43-.646.86 0 1.691.393 2.488 1.146l-.744.708c-.614-.58-1.193-.854-1.744-.854-.266 0-.38.064-.686.354-.486.46-.814.646-1.43.646-.615 0-.943-.186-1.43-.646-.306-.29-.42-.354-.685-.354-.266 0-.38.064-.686.354-.487.46-.815.646-1.43.646-.616 0-.943-.186-1.43-.646-.306-.29-.42-.354-.686-.354-.266 0-.38.064-.686.354-.487.46-.814.646-1.43.646-.615 0-.943-.186-1.43-.646-.306-.29-.42-.354-.685-.354-.55 0-1.13.274-1.744.854zm0 2l-.744-.708C.044 6.893.875 6.5 1.735 6.5c.615 0 .943.186 1.43.646.306.29.42.354.685.354.266 0 .38-.064.687-.354.486-.46.814-.646 1.43-.646.615 0 .942.186 1.429.646.307.29.42.354.686.354.266 0 .38-.064.686-.354.487-.46.814-.646 1.43-.646.615 0 .943.186 1.43.646.306.29.42.354.685.354.266 0 .38-.064.686-.354.487-.46.815-.646 1.43-.646.86 0 1.691.393 2.488 1.146l-.744.708c-.614-.58-1.193-.854-1.744-.854-.266 0-.38.064-.686.354-.486.46-.814.646-1.43.646-.615 0-.943-.186-1.43-.646-.306-.29-.42-.354-.685-.354-.266 0-.38.064-.686.354-.487.46-.815.646-1.43.646-.616 0-.943-.186-1.43-.646-.306-.29-.42-.354-.686-.354-.266 0-.38.064-.686.354-.487.46-.814.646-1.43.646-.615 0-.943-.186-1.43-.646-.306-.29-.42-.354-.685-.354-.55 0-1.13.274-1.744.854zm0 2l-.744-.708C.044 8.893.875 8.5 1.735 8.5c.615 0 .943.186 1.43.646.306.29.42.354.685.354.266 0 .38-.064.687-.354.486-.46.814-.646 1.43-.646.615 0 .942.186 1.429.646.307.29.42.354.686.354.266 0 .38-.064.686-.354.487-.46.814-.646 1.43-.646.615 0 .943.186 1.43.646.306.29.42.354.685.354.266 0 .38-.064.686-.354.487-.46.815-.646 1.43-.646.86 0 1.691.393 2.488 1.146l-.744.708c-.614-.58-1.193-.854-1.744-.854-.266 0-.38.064-.686.354-.486.46-.814.646-1.43.646-.615 0-.943-.186-1.43-.646-.306-.29-.42-.354-.685-.354-.266 0-.38.064-.686.354-.487.46-.815.646-1.43.646-.616 0-.943-.186-1.43-.646-.306-.29-.42-.354-.686-.354-.266 0-.38.064-.686.354-.487.46-.814.646-1.43.646-.615 0-.943-.186-1.43-.646-.306-.29-.42-.354-.685-.354-.55 0-1.13.274-1.744.854zm0 2l-.744-.708C.044 10.893.875 10.5 1.735 10.5c.615 0 .943.186 1.43.646.306.29.42.354.685.354.266 0 .38-.064.687-.354.486-.46.814-.646 1.43-.646.615 0 .942.186 1.429.646.307.29.42.354.686.354.266 0 .38-.064.686-.354.487-.46.814-.646 1.43-.646.615 0 .943.186 1.43.646.306.29.42.354.685.354.266 0 .38-.064.686-.354.487-.46.815-.646 1.43-.646.86 0 1.691.393 2.488 1.146l-.744.708c-.614-.58-1.193-.854-1.744-.854-.266 0-.38.064-.686.354-.486.46-.814.646-1.43.646-.615 0-.943-.186-1.43-.646-.306-.29-.42-.354-.685-.354-.266 0-.38.064-.686.354-.487.46-.815.646-1.43.646-.616 0-.943-.186-1.43-.646-.306-.29-.42-.354-.686-.354-.266 0-.38.064-.686.354-.487.46-.814.646-1.43.646-.615 0-.943-.186-1.43-.646-.306-.29-.42-.354-.685-.354-.55 0-1.13.274-1.744.854z" fill="#2E42A5"/>
      <mask id="c" maskUnits="userSpaceOnUse" x="0" y="0" width="7" height="5">
        <path fill="#fff" d="M0 0h7v5H0z"/>
      </mask>
      <g mask="url(#c)">
        <path fill="#2E42A5" d="M0 0h7v6H0z"/>
        <path d="M-1.079 5.667l1.828.772L8.195.729 9.16-.42 7.205-.677l-3.037 2.46-2.445 1.659-2.802 2.225z" fill="#fff"/>
        <path d="M-.829 6.208l.932.448 8.71-7.182H7.506L-.83 6.208z" fill="#F50100"/>
        <path d="M9.079 5.667l-1.828.772L-.195.729-1.16-.42.795-.677l3.037 2.46 2.445 1.659 2.802 2.225z" fill="#fff"/>
        <path d="M9.016 6.055l-.93.448-3.71-3.075-1.1-.343-4.528-3.5H.055l4.527 3.417 1.202.412 3.232 2.64z" fill="#F50100"/>
        <mask id="d" maskUnits="userSpaceOnUse" x="-.992" y="-1" width="9" height="7" fill="#000">
          <path fill="#fff" d="M-.992-1h9v7h-9z"/>
          <path fill-rule="evenodd" clip-rule="evenodd" d="M4 0H3v2H.008v1H3v2h1V3h3.008V2H4V0z"/>
        </mask>
        <path fill-rule="evenodd" clip-rule="evenodd" d="M4 0H3v2H.008v1H3v2h1V3h3.008V2H4V0z" fill="#F50100"/>
        <path d="M3 0v-.5h-.5V0H3zm1 0h.5v-.5H4V0zM3 2v.5h.5V2H3zM.008 2v-.5h-.5V2h.5zm0 1h-.5v.5h.5V3zM3 3h.5v-.5H3V3zm0 2h-.5v.5H3V5zm1 0v.5h.5V5H4zm0-2v-.5h-.5V3H4zm3.008 0v.5h.5V3h-.5zm0-1h.5v-.5h-.5V2zM4 2h-.5v.5H4V2zM3 .5h1v-1H3v1zM3.5 2V0h-1v2h1zm-3.492.5H3v-1H.008v1zm.5.5V2h-1v1h1zM3 2.5H.008v1H3v-1zM3.5 5V3h-1v2h1zm.5-.5H3v1h1v-1zM3.5 3v2h1V3h-1zm3.508-.5H4v1h3.008v-1zm-.5-.5v1h1V2h-1zM4 2.5h3.008v-1H4v1zM3.5 0v2h1V0h-1z" fill="#F7FCFF" mask="url(#d)"/>
      </g>
      <rect x="10.2" y="4.689" width=".5" height="6.311" rx=".25" fill="#D86D00"/>
      <path d="M10.202 1.029c.511.7.576 1.641.511 2.484l-.399-.029c.062-.804-.112-2.455-.112-2.455z" fill="#449A01"/>
      <path d="M10.854 3.692l-.368-.152c.354-1.123 2.124-2.078 2.124-2.078-.793.379-1.062 1.405-1.756 2.23z" fill="#449A01"/>
      <path d="M10.688 3.925l-.193-.34c.946-.657 2.474-.8 2.474-.8-.788.224-1.585.767-2.28 1.14z" fill="#449A01"/>
      <path d="M10.442 4.09l.167-.352c1.85.574 2.121 1.534 2.121 1.534-.243-.214-1.014-.615-2.288-1.181z" fill="#449A01"/>
      <path d="M10.248 4.065l.392-.073c.136.69.487 1.107.672 1.55 0 0-1.038-.464-1.064-1.477z" fill="#449A01"/>
      <path d="M10.218 3.742l.423.106c-.695.85-1.727 1.296-2.136 1.442 0 0 .898-.81 1.713-1.548z" fill="#449A01"/>
      <path d="M10.406 3.558l-.065.394c-.827-.252-2.317-.146-2.317-.146.626-.148 1.49-.394 2.382-.248z" fill="#449A01"/>
      <path d="M10.477 3.356l-.162.354C9.093 3.182 8.44 2.195 8.44 2.195c.041.181.958.694 2.037 1.16z" fill="#449A01"/>
      <path fill-rule="evenodd" clip-rule="evenodd" d="M10.5 4a.5.5 0 100-1 .5.5 0 000 1z" fill="#449A01"/>
      <path fill-rule="evenodd" clip-rule="evenodd" d="M11.956 7.654v-.072a1.153 1.153 0 00-.724-.273 1.33 1.33 0 00-.734-.137V7.17c-.372-.04-.748.139-.748.139-.378 0-.724.273-.724.273v.072l.452.5s.127.48 1.018.367v.001s.59-.018.631-.033l.051-.017c.116-.037.248-.08.326-.319l.452-.5zm-1.46-.46c-.013.166-.086 1.168 0 1.323V7.194z" fill="#F50100"/>
      <path fill-rule="evenodd" clip-rule="evenodd" d="M10.097 6.876c-.205 0-.289.055-.337.217-.03.103 0 .191.096.274l-.055.078c-.12-.103-.165-.227-.13-.365-.233-.01-.406.018-.52.079-.098.053-.116.187-.041.42l-.085.033c-.088-.275-.063-.461.087-.542.132-.07.325-.1.579-.088l-.002.038c.065-.175.185-.243.408-.243a.5.5 0 01.326.1v-.043h.18v.025a.526.526 0 01.29-.074c.227 0 .347.07.412.253v-.007c.253-.011.446.018.578.089.15.08.175.267.087.542l-.085-.033c.075-.234.057-.368-.042-.42-.113-.062-.285-.089-.515-.08.016.121-.031.231-.139.323l-.055-.078c.096-.082.126-.17.095-.273-.047-.163-.132-.217-.336-.217-.128 0-.224.032-.29.096v.495h-.18v-.07h-.036v-.433c-.067-.063-.162-.096-.29-.096zm-1.013.827l-.03.035.41.426a2.6 2.6 0 01.036.075.41.41 0 00.051.136l.004.024c0 .05.12.08.354.112.184.024.4.04.578.043h.045c.177-.003.394-.019.578-.043.234-.031.355-.061.355-.112a.79.79 0 01.09-.235l.41-.426-.03-.035-.414.428-.004.006a2.403 2.403 0 00-.045.096c.012-.055.017-.102.017-.102s-.463-.145-.986-.151h-.036a3.89 3.89 0 00-.973.147l-.41-.424zm2.34.666c-.02.03-.046.047-.077.03-.098-.05-.745-.097-.862-.105-.116.008-.763.055-.861.106l-.005.002a.47.47 0 00.059.018c.057.015.14.029.237.042.19.025.415.041.595.043.179-.002.405-.018.595-.043.097-.013.179-.027.236-.042a.402.402 0 00.079-.028.17.17 0 01.003-.023zm.052.023V8.39z" fill="#FECA00"/>
      <path d="M9.702 6.942L9.7 6.99c-.397-.008-.625.056-.683.183-.06.132-.049.291.035.481l-.04.022c-.09-.203-.102-.378-.035-.525.069-.15.31-.218.724-.21z" fill="#fff"/>
      <path d="M9.779 7.379l-.023.042c-.087-.057-.13-.154-.13-.287 0-.193.09-.305.289-.382.127-.05.3-.03.52.059l-.015.046c-.211-.085-.375-.104-.49-.059-.183.07-.26.167-.26.336 0 .117.037.197.109.245zm1.486-.389v.05c.398-.007.626.056.684.183.06.132.049.292-.035.481l.04.022c.09-.203.102-.378.035-.525-.069-.15-.31-.218-.724-.21z" fill="#fff"/>
      <path d="M11.125 7.389l.023.042c.086-.057.13-.154.13-.287 0-.192-.09-.305-.29-.382-.126-.05-.3-.03-.52.059l.015.046c.212-.084.375-.103.49-.059.183.071.26.167.26.336 0 .117-.036.198-.108.245z" fill="#fff"/>
    </g>
  </g>
</svg>
