<svg width="16" height="12" fill="none" xmlns="http://www.w3.org/2000/svg">
  <mask id="a" maskUnits="userSpaceOnUse" x="0" y="0" width="16" height="12">
    <path fill="#fff" d="M0 0h16v12H0z"/>
  </mask>
  <g mask="url(#a)">
    <path fill-rule="evenodd" clip-rule="evenodd" d="M0 0v12h16V0H0z" fill="#F7FCFF"/>
    <mask id="b" maskUnits="userSpaceOnUse" x="0" y="0" width="16" height="12">
      <path fill-rule="evenodd" clip-rule="evenodd" d="M0 0v12h16V0H0z" fill="#fff"/>
    </mask>
    <g mask="url(#b)">
      <path fill-rule="evenodd" clip-rule="evenodd" d="M0 0v4h16V0H0z" fill="#BF2714"/>
      <path fill-rule="evenodd" clip-rule="evenodd" d="M0 8v4h16V8H0z" fill="#272727"/>
      <path fill-rule="evenodd" clip-rule="evenodd" d="M2.668 6.406C3.123 7.058 2.5 7.5 2.5 7.5s.545 0 .753-.437h4.46V6.1s-.094-.463-.491-.463-.487.463-.487.463H5.167l1.517-1.34-.295-.26-1.685 1.488v.315h2.393v-.185s.013-.108.125-.108.084.108.084.108v.396H4.291v-.542l-.326.146v.396s-.4-.108-.653-.108c-.252 0-.267-.288-.267-.288l-.377.288zm6.055.037l.245.609h-.973V4.607l.41.132v1.704h.318zm4.532 0l.245.609h-.973V4.607l.41.132v1.704h.319zm-1.204-1.81l-.254.171v1.637h-.258V5.128l-.425.245v1.068h-.286V5.7l-.323.208v.201s-.622.043-.622.922h2.165l.003-2.399zm-8.305 2.85c.078 0 .142-.056.142-.125 0-.07-.064-.125-.142-.125-.078 0-.142.056-.142.125s.064.125.142.125zm7.211-2.662c-.11.145-.443 0-.443 0l.946-.11c-.098.191-.503.11-.503.11z" fill="#009C4E"/>
      <path d="M2.5 7.5l-.145-.204-.64.454H2.5V7.5zm.168-1.094l-.152-.199-.19.145.137.197.205-.143zm.585.657v-.25h-.157l-.068.142.225.108zm4.46 0v.25h.25v-.25h-.25zm0-.963h.25v-.025l-.006-.025-.245.05zm-.978 0v.25h.207l.039-.203-.246-.047zm-1.568 0l-.165-.188-.496.438h.661V6.1zm1.517-1.34l.166.188.212-.188-.212-.187-.166.187zM6.39 4.5l.166-.187-.166-.146-.165.146.165.187zM4.704 5.988L4.539 5.8l-.085.075v.113h.25zm0 .315h-.25v.25h.25v-.25zm2.393 0v.25h.25v-.25h-.25zm0-.185l-.249-.031-.001.015v.016h.25zm.21 0l-.243-.062-.008.03v.032h.25zm0 .396v.25h.25v-.25h-.25zm-3.016 0h-.25v.25h.25v-.25zm0-.542h.25v-.386l-.352.158.102.228zm-.326.146l-.102-.229-.148.066v.163h.25zm0 .396l-.066.241.316.086v-.327h-.25zm-.92-.396l.25-.013-.025-.475-.377.289.152.199zm5.923.934v.25h.37L9.2 6.958l-.232.094zm-.245-.61l.232-.093-.063-.156h-.169v.25zm-.728.61h-.25v.25h.25v-.25zm0-2.445l.076-.238-.326-.104v.342h.25zm.41.132h.25v-.183L8.481 4.5l-.076.239zm0 1.704h-.25v.25h.25v-.25zm5.095.609v.25h.37l-.138-.344-.232.094zm-.245-.61l.232-.093-.063-.156h-.168v.25zm-.728.61h-.25v.25h.25v-.25zm0-2.445l.076-.238-.326-.104v.342h.25zm.41.132h.25v-.183l-.173-.056-.077.239zm0 1.704h-.25v.25h.25v-.25zm-1.14-1.639l-.14-.207-.11.074v.133h.25zm.254-.172h.25v-.47l-.39.263.14.207zm-.254 1.809v.25h.25v-.25h-.25zm-.258 0h-.25v.25h.25v-.25zm0-1.313h.25v-.433l-.375.217.125.216zm-.425.245l-.125-.216-.125.072v.144h.25zm0 1.068v.25h.25v-.25h-.25zm-.286 0h-.25v.25h.25v-.25zm0-.741h.25v-.458l-.385.248.135.21zm-.323.208l-.136-.21-.114.073v.137h.25zm0 .201l.017.25.233-.017V6.11h-.25zm-.622.922h-.25v.25h.25v-.25zm2.165 0v.25h.25v-.25h-.25zm-1.534-2.21l-.03-.249-.923.108.853.37.1-.23zm.443 0l.05-.245-.154-.031-.095.125.2.15zm.503-.11l.222.114.213-.416-.464.054.029.248zM2.5 7.5l.145.204.002-.002a.278.278 0 00.011-.008.885.885 0 00.11-.097c.063-.064.144-.16.209-.285a.936.936 0 00.107-.47 1.087 1.087 0 00-.21-.58l-.41.287a.589.589 0 01.12.313.437.437 0 01-.052.221.669.669 0 01-.177.213l-.001.001h.001L2.5 7.5zm.528-.545a.501.501 0 01-.31.253.842.842 0 01-.22.042H2.5a32.552 32.552 0 01.001.5h.005a.723.723 0 00.115-.009c.066-.008.158-.025.258-.059a1 1 0 00.601-.512l-.451-.215zm4.684-.142H3.253v.5h4.46v-.5zm-.25-.713v.963h.5V6.1h-.5zm-.24-.213c.082 0 .136.042.182.115a.525.525 0 01.063.149.012.012 0 000-.001 31.831 31.831 0 01.49-.1v-.004a.566.566 0 00-.008-.03.986.986 0 00-.122-.28.704.704 0 00-.605-.349v.5zm-.487.213l.246.048v.001l.001-.007A.482.482 0 017.042 6c.045-.073.098-.114.18-.114v-.5a.7.7 0 00-.605.35 1.018 1.018 0 00-.127.315l.245.048zm-1.568.25h1.568v-.5H5.167v.5zM6.52 4.573l-1.517 1.34.33.374 1.518-1.34-.331-.374zm-.295.114l.295.26.33-.374-.294-.26-.331.374zM4.869 6.175l1.686-1.488-.331-.374L4.539 5.8l.33.375zm.085.128v-.315h-.5v.315h.5zm2.143-.25H4.704v.5h2.393v-.5zm-.25.065v.185h.5v-.185h-.5zm.375-.358a.366.366 0 00-.361.27.381.381 0 00-.011.047v.005l-.001.002v.002l.248.032.248.03v.004a.152.152 0 01-.005.02.105.105 0 01-.013.027.135.135 0 01-.105.061v-.5zm.084.358a25.223 25.223 0 00.243.06v-.003a.237.237 0 00.004-.018.38.38 0 00-.005-.158.317.317 0 00-.114-.17.345.345 0 00-.212-.069v.5a.157.157 0 01-.092-.035.183.183 0 01-.066-.097.14.14 0 010-.07v-.001l.242.06zm.25.396v-.396h-.5v.396h.5zm-3.265.25h3.015v-.5H4.291v.5zm-.25-.792v.542h.5v-.542h-.5zm.026.374l.326-.146-.204-.456-.326.145.204.457zm.148.168v-.396h-.5v.396h.5zm-.903.142c.1 0 .242.022.37.049a4.344 4.344 0 01.217.05 221.104 221.104 0 01.131-.482h-.001l-.004-.002a2.78 2.78 0 00-.067-.017 4.842 4.842 0 00-.174-.039 2.526 2.526 0 00-.472-.06v.5zm-.267-.538l-.25.013a.152.152 0 010 .01.543.543 0 00.01.07c.009.041.024.1.054.16a.49.49 0 00.453.285v-.5c-.012 0-.008-.003 0 .003.004.003.001.003-.004-.007a.16.16 0 01-.014-.05V6.1v.003l-.25.014zm-.225.486l.377-.288-.304-.397-.377.288.304.397zm6.38.354l-.245-.609-.464.187.245.609.464-.187zm-1.205.344h.973v-.5h-.973v.5zm-.25-2.695v2.445h.5V4.607h-.5zM8.48 4.5l-.41-.13-.152.475.41.132.152-.477zm.174 1.943V4.739h-.5v1.704h.5zm.068-.25h-.318v.5h.318v-.5zm5.009.765l-.244-.609-.464.187.244.609.464-.187zm-1.205.344h.973v-.5h-.973v.5zm-.25-2.695v2.445h.5V4.607h-.5zm.737-.107l-.41-.13-.153.475.41.132.153-.477zm.173 1.943V4.739h-.5v1.704h.5zm.069-.25h-.319v.5h.319v-.5zM11.936 5.01l.254-.171-.28-.415-.254.172.28.414zm.11 1.43V4.804h-.5v1.637h.5zm-.508.25h.258v-.5h-.258v.5zm-.25-1.563V6.44h.5V5.128h-.5zm-.05.462l.425-.245-.25-.433-.425.245.25.433zm.125.851V5.373h-.5v1.068h.5zm-.536.25h.286v-.5h-.286v.5zm-.25-.991v.741h.5V5.7h-.5zm.062.418l.323-.208-.27-.42-.324.208.271.42zm.115-.009v-.201h-.5v.201h.5zm-.622.922c0-.372.127-.526.214-.593a.418.418 0 01.173-.079h.004-.001l-.018-.25-.018-.25h-.003a.26.26 0 00-.015.002.615.615 0 00-.134.03.917.917 0 00-.295.152c-.224.174-.407.482-.407.988h.5zm1.915-.25H9.883v.5h2.165v-.5zM11.8 4.631l-.003 2.4h.5l.003-2.4h-.5zM3.638 7.358c0-.046.02-.08.043-.1a.1.1 0 01.065-.025v.5c.186 0 .392-.14.392-.375h-.5zm.108.125a.1.1 0 01-.065-.026.132.132 0 01-.043-.1h.5c0-.235-.206-.374-.392-.374v.5zm.108-.125c0 .045-.021.08-.043.099a.1.1 0 01-.065.026v-.5c-.186 0-.392.14-.392.375h.5zm-.108-.125a.1.1 0 01.065.026.13.13 0 01.043.099h-.5c0 .235.206.375.392.375v-.5zm6.768-2.412l-.1.23h.003l.005.002a.574.574 0 00.064.025c.04.013.098.031.162.043a.71.71 0 00.23.008.418.418 0 00.278-.157l-.398-.302c.025-.034.055-.036.048-.035a.23.23 0 01-.066-.006.668.668 0 01-.12-.035l-.007-.002-.1.229zm.917-.358l-.946.11.057.496.947-.11-.058-.496zm-.474.358l-.049.245h.003a.271.271 0 00.023.005 1.303 1.303 0 00.246.016.788.788 0 00.247-.044.459.459 0 00.255-.218l-.445-.228c.014-.026.031-.028.016-.023a.302.302 0 01-.089.014.787.787 0 01-.157-.012h-.001l-.049.245z" fill="#009C4E"/>
    </g>
  </g>
</svg>
