<svg width="16" height="12" fill="none" xmlns="http://www.w3.org/2000/svg">
  <mask id="a" maskUnits="userSpaceOnUse" x="0" y="0" width="16" height="12">
    <path fill="#fff" d="M0 0h16v12H0z"/>
  </mask>
  <g mask="url(#a)">
    <path fill-rule="evenodd" clip-rule="evenodd" d="M0 0v12h16V0H0z" fill="#F7FCFF"/>
    <mask id="b" maskUnits="userSpaceOnUse" x="0" y="0" width="16" height="12">
      <path fill-rule="evenodd" clip-rule="evenodd" d="M0 0v12h16V0H0z" fill="#fff"/>
    </mask>
    <g mask="url(#b)">
      <path fill-rule="evenodd" clip-rule="evenodd" d="M0 0v4h16V0H0z" fill="#5EAA22"/>
      <path fill-rule="evenodd" clip-rule="evenodd" d="M0 8v4h16V8H0z" fill="#E31D1C"/>
      <path d="M.186 8.683H-.95m-.012.451v-.261h.37v.252h.374v-.252h-.194m.582.25h-.19v-.245h.397v-.2.445h.18v-.445m.202.026v.42H.573m1.565-.441H1m-.011.451v-.261h.37v.252h.374v-.252h-.194m.616.25h-.188v-.245h.396v-.2.445h.18v-.445m.202.026v.42H2.56m1.564-.441H2.987m-.012.451v-.261h.37v.252h.374v-.252h-.194m.581.25h-.188v-.245h.397v-.2.445h.18v-.445m.201.026v.42H4.51m1.565-.441H4.938m-.012.451v-.261h.37v.252h.374v-.252h-.194m.582.25h-.189v-.245h.397v-.2.445h.18v-.445m.202.026v.42H6.46m1.566-.441H6.89m-.013.451v-.261h.37v.252h.374v-.252h-.194m.617.25h-.189v-.245h.397v-.2.445h.18v-.445m.202.026v.42h-.187m1.565-.441H8.875m-.012.451v-.261h.37v.252h.375v-.252h-.194m.616.25h-.19v-.245h.397v-.2.445h.18v-.445m.203.026v.42h-.187m1.565-.441h-1.137m-.011.451v-.261h.37v.252h.374v-.252H11.4m.616.25h-.189v-.245h.397v-.2.445h.18v-.445m.202.026v.42h-.187m1.565-.441h-1.137m-.012.451v-.261h.37v.252h.375v-.252h-.194m.581.25h-.188v-.245h.396v-.2.445h.18v-.445m.202.026v.42h-.186m1.564-.441H14.8m-.013.451v-.261h.37v.252h.374v-.252h-.194m.686.25h-.189v-.245h.397v-.2.445h.18v-.445M.186 2.583H-.95m-.012.451v-.261h.37v.252h.374v-.252h-.194m.582.25h-.19v-.245h.397v-.2.445h.18v-.446m.202.027v.42H.573m1.565-.441H1m-.011.451v-.261h.37v.252h.374v-.252h-.194m.616.25h-.188v-.245h.396v-.2.445h.18v-.446m.202.027v.42H2.56m1.564-.441H2.987m-.012.451v-.261h.37v.252h.374v-.252h-.194m.581.25h-.188v-.245h.397v-.2.445h.18v-.446m.201.027v.42H4.51m1.565-.441H4.938m-.012.451v-.261h.37v.252h.374v-.252h-.194m.582.25h-.189v-.245h.397v-.2.445h.18v-.446m.202.027v.42H6.46m1.566-.441H6.89m-.013.451v-.261h.37v.252h.374v-.252h-.194m.617.25h-.189v-.245h.397v-.2.445h.18v-.446m.202.027v.42h-.187m1.565-.441H8.875m-.012.451v-.261h.37v.252h.375v-.252h-.194m.616.25h-.19v-.245h.397v-.2.445h.18v-.446m.203.027v.42h-.187m1.565-.441h-1.137m-.011.451v-.261h.37v.252h.374v-.252H11.4m.616.25h-.189v-.245h.397v-.2.445h.18v-.446m.202.027v.42h-.187m1.565-.441h-1.137m-.012.451v-.261h.37v.252h.375v-.252h-.194m.581.25h-.188v-.245h.396v-.2.445h.18v-.446m.202.027v.42h-.186m1.564-.441H14.8m-.013.451v-.261h.37v.252h.374v-.252h-.194m.686.25h-.189v-.245h.397v-.2.445h.18v-.446" stroke="#F7FCFF" stroke-width=".5"/>
      <path fill-rule="evenodd" clip-rule="evenodd" d="M7.303 4.125s.214.112.432.112c.22 0 .44-.112.44-.112v.15s-.241.112-.454.112c-.213 0-.418-.112-.418-.112v-.15zm-1.575 1.77c0-.889 1.221-1.47 1.221-1.47s-.706.378-.706 1.433c0 1.055.367 1.512.367 1.512s-.882-.586-.882-1.475zm4.119-.049c0-.889-1.22-1.421-1.22-1.421s.706.378.706 1.433c0 1.055-.367 1.512-.367 1.512s.881-.635.881-1.524zm-3.285.243c-.047-.888.692-1.684.692-1.684s-.27.366-.214 1.42c.02.361.162.9.341 1.217v-2.58h.75v2.602c.18-.296.318-.802.338-1.169.055-1.053-.201-1.49-.201-1.49s.738.796.692 1.684c-.028.529-.435 1.088-.76 1.454.158.035.37.078.66.135.007.032-.058.03-.187.028a4.118 4.118 0 00-.65.028c-.133.136-.225.216-.225.216l-.037-.047c-.023.027-.037.047-.037.047s-.093-.08-.225-.216a4.118 4.118 0 00-.65-.028c-.13.003-.194.004-.188-.028.29-.057.502-.1.66-.135-.325-.366-.732-.925-.76-1.454z" fill="#E31D1C"/>
    </g>
  </g>
</svg>
