<svg width="16" height="12" fill="none" xmlns="http://www.w3.org/2000/svg">
  <path d="M0 0h16v12H0V0z" fill="#032EA1"/>
  <path d="M0 3h16v6H0V3z" fill="#E00025"/>
  <path fill-rule="evenodd" clip-rule="evenodd" d="M5.167 5.52v.03h.945v-.03h1.323v.06h.888v-.06H9.65v.03h.945v-.03h.11v1.306h-5.7V5.52h.163zm-.163 1.306h-.302v.249h.69v.005h-.996v.426h.996v.004H4.201v.375h7.36V7.51h-1.195v-.004h1.002V7.08h-1.002v-.005h.696v-.249h-.358v.008h-5.7v-.008zm5.59-1.306v-.84c-.014 0-.024.02-.035.045-.018.037-.04.084-.091.084-.045 0-.042-.054-.015-.096.021-.039.048-.09.012-.189-.027.075-.093.099-.081.054a.247.247 0 01.028-.062c.022-.04.04-.073.008-.157-.015.102-.081.099-.066.039a.405.405 0 01.015-.045c.017-.042.03-.077-.006-.15-.027.111-.06.105-.06.036 0-.102 0-.21-.126-.249 0 0-.009-.09-.057-.09-.045 0-.054.09-.054.09-.126.038-.126.145-.126.242v.007c0 .069-.033.075-.06-.036-.036.073-.023.108-.006.15l.015.045c.015.06-.05.063-.066-.039-.033.084-.014.118.008.157a.24.24 0 01.028.062c.012.045-.054.021-.08-.054-.037.099-.01.15.011.189.024.042.03.096-.015.096-.05 0-.073-.046-.09-.082-.012-.024-.022-.044-.036-.044v.837h.945zm-2.27 0h-.889v-.105c0-.046-.025-.068-.047-.089-.02-.017-.037-.034-.037-.061 0 0-.012-.09.012-.132.033.12.09.099.09.048 0-.039-.025-.077-.084-.166l-.015-.023c-.024-.033-.009-.138.021-.177.012.09.027.135.066.135.024 0 .042-.015.042-.06a.167.167 0 00-.033-.092.255.255 0 01-.027-.052.15.15 0 01.033-.159l.007.042c.008.06.012.084.044.084.075-.025.012-.127-.013-.166L7.49 4.54c-.018-.033.03-.102.03-.102.024.081.03.087.06.078.036-.009.03-.06-.012-.102-.027-.03-.024-.069.006-.099.03.057.066.054.069.018L7.618 4.2h.033l-.012-.1h.477l-.012.1h.036l-.027.129c-.006.036.042.045.072-.015.03.03.033.072.006.099-.042.042-.048.093-.012.102.03.009.036 0 .06-.078 0 0 .045.045.03.102l-.004.007c-.024.039-.09.145-.014.167.032 0 .036-.024.044-.084l.007-.042a.15.15 0 01.03.159c-.007.021-.018.039-.028.056-.016.026-.032.051-.032.088 0 .045.021.06.045.06.039 0 .054-.042.066-.135.03.039.045.144.021.18l-.025.037c-.052.076-.077.112-.077.149 0 .051.06.072.09-.048.027.042.015.132.015.132 0 .028-.017.044-.036.062-.022.02-.046.043-.048.088v.105zm-3.157 0v-.84c.014 0 .024.02.035.045.018.037.04.084.091.084.045 0 .042-.054.015-.096-.021-.039-.048-.09-.012-.189.027.075.093.099.081.054a.21.21 0 00-.028-.062c-.022-.04-.04-.073-.008-.157.015.102.081.099.066.039a.397.397 0 00-.015-.045c-.017-.042-.03-.077.006-.15.027.111.06.105.06.036 0-.102 0-.21.126-.249 0 0 .01-.09.057-.09.045 0 .054.09.054.09.126.038.126.145.126.242v.007c0 .069.033.075.06-.036.036.073.023.108.006.15a.397.397 0 00-.015.045c-.015.06.051.063.066-.039.033.084.014.118-.008.157a.24.24 0 00-.028.062c-.012.045.054.021.081-.054.036.099.01.15-.012.189-.024.042-.03.096.015.096.05 0 .073-.046.09-.082.012-.024.022-.044.036-.044v.837h-.945zM7.81 4.093s-.003-.123.07-.126c.068 0 .065.126.065.126H7.81z" fill="#fff"/>
  <path d="M5.167 5.55h-.015l.015.015V5.55zm.945 0v.015l.015-.015h-.015zm1.323.03H7.42l.015.015V5.58zm.888 0v.015l.015-.015h-.015zm1.326-.03h-.015l.015.015V5.55zm.945 0v.015l.015-.015h-.015zm.11-.03h.015l-.015-.015v.015zm-5.7 0v-.015l-.015.015h.015zm-.302 1.306v-.015l-.015.015h.015zm0 .249h-.015l.015.015v-.015zm.69 0h.015l-.015-.015v.015zm0 .005v.015l.015-.015h-.015zm-.996 0v-.015l-.015.015h.015zm0 .426h-.015l.015.015v-.015zm.996 0h.015l-.015-.015v.015zm0 .004v.015l.015-.015h-.015zm-1.191 0v-.015l-.015.015h.015zm0 .375h-.015l.015.015v-.015zm7.36 0V7.9l.014-.015h-.015zm0-.375h.014l-.015-.015v.015zm-1.195 0h-.015l.015.015V7.51zm0-.004V7.49l-.015.015h.015zm1.002 0v.015l.015-.015h-.015zm0-.426h.015l-.015-.015v.015zm-1.002 0h-.015l.015.015V7.08zm0-.005V7.06l-.015.015h.015zm.696 0v.015l.015-.015h-.015zm0-.249h.015l-.015-.015v.015zm-.358.008v.015l.015-.015h-.015zm-5.7 0H4.99l.015.015v-.015zm5.59-2.154h.015l-.015-.015v.015zm-.035.045l.013.006-.013-.006zm-.106-.012l.013.008-.013-.008zm.012-.189l.014-.005h-.028l.014.005zm-.081.054l.014.004-.014-.004zm.028-.062l-.013-.008.013.008zm.008-.157l.014-.005-.029.003.015.002zm-.066.039l-.014-.004.014.004zm.015-.045l-.014-.005.014.005zm-.006-.15l.014-.007-.029.003.015.004zm-.186-.213l-.015.001.01.013.005-.014zm-.111 0l.004.014.011-.013-.015-.001zm-.126.242h.015-.015zm-.06-.029l.015-.004-.028-.003.013.007zm-.006.15l.014-.005-.014.005zm.015.045l.015-.004-.015.004zm-.066-.039l.015-.002-.029-.003.014.005zm.008.157l.013-.008-.013.008zm.028.062l-.014.004.014-.004zm-.08-.054l.013-.005h-.028l.014.005zm.011.189l-.013.007.013-.007zm-.106.014l-.013.006.013-.006zm-.035-.044v-.015l-.015.015h.015zm-2.261.643l-.01.011.01-.01zm-.037-.061h.015v-.002l-.015.002zm.012-.132l.015-.004-.028-.003.013.007zm.006-.118l-.012.009.012-.009zm-.015-.023l.013-.008-.013.008zm.021-.177l.015-.002-.027-.007.012.009zm.075-.017l.013-.008-.013.008zm-.027-.052l-.014.005.014-.005zm.033-.159l.015-.002-.026-.009.011.011zm.007.042l-.015.003.015-.003zm0 0l.014-.002-.014.002zm.044.084v.016l.005-.002-.005-.014zm-.013-.166l-.013.008.013-.008zM7.49 4.54l-.013.007.013-.007zm.03-.102l.014-.004-.026-.005.012.009zm.06.078L7.575 4.5l.004.015zm-.012-.102l-.011.01.011-.01zm.006-.099l.013-.007-.024-.004.011.011zm.069.018l.016.001-.001-.004-.015.003zM7.618 4.2v-.015l-.015.018.015-.003zm.033 0v.015l.015-.017-.015.002zm-.012-.1v-.015l-.015.017.015-.002zm.477 0l.015.002-.015-.017V4.1zm-.012.1l-.015-.002.015.017V4.2zm.036 0l.015.003-.015-.018V4.2zm-.027.129l-.015-.003.015.003zm.072-.015l.01-.01-.023.003.013.007zm.006.099l-.01-.01.01.01zm-.012.102l.004-.014-.004.014zm.06-.078l.01-.01-.024.006.014.004zm.03.102l.013.008.002-.004-.015-.004zm-.004.007l.012.008-.012-.008zm-.014.167l-.004.015h.004v-.015zm.044-.084l.015.003-.015-.003zm0 0l-.014-.002.014.002zm0 0l.015.003-.014-.003zm.007-.042l.011-.01-.026.008.015.002zm.03.159l-.014-.006v.001l.014.005zm-.028.056l.013.007-.013-.007zm.08.013l.01-.01-.026.008.015.002zm.02.18l.012.008-.012-.008zm-.025.037l.012.009-.012-.009zm.013.101l.013-.008-.027.004.014.004zm.015.132l-.015-.002v.002h.015zm-.036.062l-.01-.011.01.01zm-.048.088h-.015.015zM5.167 4.68v-.015l-.015.015h.015zm.035.045l.014-.007-.014.007zm.106-.012l-.013.007v.001l.013-.008zm-.012-.189l.014-.005h-.028l.014.005zm.081.054l-.014.004.014-.004zm-.028-.062l.013-.008-.013.008zm-.008-.157l.015-.002-.029-.003.014.005zm.066.039l.015-.004-.015.004zm-.015-.045l-.014.006.014-.006zm.006-.15l.015-.004-.028-.003.013.007zm.186-.213l.004.014.011-.013-.015-.001zm.111 0l-.015.001.01.013.005-.014zm.126.242h-.015.015zm0 .007h-.015.015zm.06-.036l.013-.007-.028.003.015.004zm.006.15l.014.006-.014-.006zm-.015.045l-.014-.004.014.004zm.066-.039l.014-.005-.029.003.015.002zm-.008.157l-.013-.008.013.008zm-.028.062l.015.004-.015-.004zm.081-.054l.014-.005H5.97l.014.005zm-.012.189l.013.007-.013-.007zm.106.014l-.014-.007.014.007zm.035-.044h.015l-.015-.015v.015zm1.767-.716v-.015.015zm-.069.126h-.015l.015.015v-.015zm.135 0v.015l.015-.015h-.015zM5.182 5.55v-.03h-.03v.03h.03zm.93-.015h-.945v.03h.945v-.03zm-.015-.015v.03h.03v-.03h-.03zm1.338-.015H6.112v.03h1.323v-.03zm.015.075v-.06h-.03v.06h.03zm.873-.015h-.888v.03h.888v-.03zm-.015-.045v.06h.03v-.06h-.03zm1.341-.015H8.323v.03H9.65v-.03zm.015.045v-.03h-.03v.03h.03zm.93-.015h-.945v.03h.945v-.03zm-.015-.015v.03h.03v-.03h-.03zm.125-.015h-.11v.03h.11v-.03zm.015 1.321V5.52h-.03v1.306h.03zm-.015-.015h-5.7v.03h5.7v-.03zM4.989 5.52v1.306h.03V5.52h-.03zm.178-.015h-.163v.03h.163v-.03zm-.163 1.306h-.302v.03h.302v-.03zm-.317.015v.249h.03v-.249h-.03zm.015.264h.69v-.03h-.69v.03zm.675-.015v.005h.03v-.005h-.03zm.015-.01h-.996v.03h.996v-.03zm-1.011.015v.426h.03V7.08h-.03zm.015.44h.996v-.03h-.996v.03zm.981-.014v.004h.03v-.004h-.03zm.015-.011H4.201v.03h1.191v-.03zm-1.206.015v.375h.03V7.51h-.03zm.015.39h7.36v-.03H4.2v.03zm7.374-.015V7.51h-.03v.375h.03zm-.015-.39h-1.194v.03h1.194v-.03zm-1.179.015v-.004h-.03v.004h.03zm-.015.01h1.002v-.03h-1.002v.03zm1.017-.014V7.08h-.03v.426h.03zm-.015-.441h-1.002v.03h1.002v-.03zm-.987.015v-.005h-.03v.005h.03zm-.015.01h.696v-.03h-.696v.03zm.711-.015v-.249h-.03v.249h.03zm-.015-.264h-.358v.03h.358v-.03zm-.343.023v-.008h-.03v.008h.03zm-5.715.015h5.7v-.03h-5.7v.03zm-.015-.023v.008h.03v-.008h-.03zm5.59-2.146v.84h.03v-.84h-.03zm-.007.051a.224.224 0 01.016-.03.025.025 0 01.005-.005l.001-.001v-.03c-.015 0-.025.01-.031.02a.247.247 0 00-.018.033l.027.013zm-.104.093c.03 0 .053-.015.07-.033a.284.284 0 00.034-.06l-.027-.013a.235.235 0 01-.03.053.059.059 0 01-.047.023v.03zm-.028-.12a.125.125 0 00-.021.074c0 .012.004.023.013.032.01.01.022.014.036.014v-.03c-.008 0-.012-.002-.014-.005-.003-.002-.005-.006-.006-.013a.095.095 0 01.018-.055l-.026-.016zm.011-.175a.216.216 0 01.015.11.205.205 0 01-.026.067l.026.014a.235.235 0 00.03-.077.243.243 0 00-.017-.124l-.028.01zm-.081.045c-.004.013-.004.03.01.038a.03.03 0 00.02.003.055.055 0 00.017-.006.148.148 0 00.062-.08l-.028-.01a.118.118 0 01-.048.064.024.024 0 01-.008.003c-.001 0 0 0 0 0 .005.003 0 .006.004-.004l-.03-.008zm.029-.066c-.01.018-.022.039-.03.066l.03.008a.228.228 0 01.026-.059l-.026-.015zm.007-.144c.016.041.019.068.016.088a.155.155 0 01-.023.056l.026.015c.01-.02.022-.04.026-.067a.202.202 0 00-.017-.102l-.028.01zm-.067.03a.062.062 0 00.004.045c.004.006.01.011.016.014a.033.033 0 00.02 0 .062.062 0 00.035-.029.168.168 0 00.02-.063l-.029-.004a.137.137 0 01-.016.052c-.007.011-.014.015-.017.016h-.002l-.001-.001c-.002-.003-.004-.01 0-.022l-.03-.008zm.016-.046a.425.425 0 00-.016.046l.03.008a.362.362 0 01.014-.043l-.028-.011zm-.005-.138a.162.162 0 01.021.079.18.18 0 01-.016.059l.028.01a.18.18 0 00.018-.068.191.191 0 00-.024-.094l-.027.014zm-.062.029c0 .018.002.034.007.045a.035.035 0 00.011.015.024.024 0 00.022.004.037.037 0 00.016-.012.092.092 0 00.012-.02.324.324 0 00.022-.064l-.03-.008a.291.291 0 01-.02.06.062.062 0 01-.007.013l-.003.002.006.001-.002-.003a.095.095 0 01-.004-.033h-.03zm-.115-.235a.141.141 0 01.1.092.443.443 0 01.015.143h.03c0-.05 0-.106-.017-.153a.17.17 0 00-.12-.11l-.008.028zm-.053-.089c.007 0 .013.003.018.01.006.006.01.015.014.025a.19.19 0 01.01.04v.001l.015-.001.015-.002v-.004l-.002-.01a.215.215 0 00-.01-.034.11.11 0 00-.02-.036.054.054 0 00-.04-.019v.03zm-.054.075l.015.001v-.003a.233.233 0 01.01-.038.084.084 0 01.013-.026c.005-.006.01-.009.016-.009v-.03a.05.05 0 00-.039.02.113.113 0 00-.019.035.219.219 0 00-.01.044v.004l.014.002zm-.111.242c0-.049 0-.097.015-.138.014-.04.042-.072.1-.09l-.008-.028a.17.17 0 00-.12.108c-.017.047-.017.1-.017.148h.03zm0 .007v-.007h-.03v.007h.03zm-.09-.032a.37.37 0 00.022.065.096.096 0 00.012.019.04.04 0 00.017.012.024.024 0 00.021-.004.036.036 0 00.011-.015.123.123 0 00.007-.045h-.03a.095.095 0 01-.004.033l-.002.003a.007.007 0 01.006 0l-.003-.003a.066.066 0 01-.008-.013.298.298 0 01-.02-.06l-.029.008zm.023.14a.178.178 0 01-.016-.058.18.18 0 01.021-.08l-.026-.013a.19.19 0 00-.025.094c.001.026.01.048.018.069l.028-.011zm.016.047l-.016-.046-.028.01.015.044.029-.008zm-.096-.033a.168.168 0 00.021.063c.01.015.021.026.034.03a.033.033 0 00.021-.001.032.032 0 00.016-.014.062.062 0 00.004-.045l-.03.008c.004.013.002.02 0 .022H9.87c-.003 0-.01-.004-.016-.015a.138.138 0 01-.017-.052l-.03.004zm.036.147a.155.155 0 01-.023-.056.173.173 0 01.016-.088l-.028-.01a.202.202 0 00-.017.102.184.184 0 00.026.067l.026-.015zm.03.066c-.008-.027-.02-.048-.03-.066l-.026.015a.23.23 0 01.027.059l.029-.008zm-.11-.045c.014.04.04.068.062.08a.054.054 0 00.018.006.03.03 0 00.019-.003c.014-.008.014-.025.01-.038l-.028.008c.002.01-.002.007.003.004.001 0 .002 0 0 0a.025.025 0 01-.008-.003.119.119 0 01-.048-.064l-.028.01zm.04.177a.206.206 0 01-.027-.067.215.215 0 01.015-.11l-.028-.01a.245.245 0 00-.016.124.235.235 0 00.029.077l.026-.014zm-.029.118a.047.047 0 00.036-.014.051.051 0 00.012-.032.139.139 0 00-.02-.072l-.026.014a.11.11 0 01.016.056.023.023 0 01-.004.014c-.002.002-.006.004-.014.004v.03zm-.104-.09c.009.017.02.04.035.057a.09.09 0 00.07.033v-.03a.06.06 0 01-.047-.022.229.229 0 01-.031-.052l-.027.013zm-.022-.036h.001l.005.007c.005.006.01.016.016.028l.027-.013-.018-.033c-.006-.009-.016-.019-.03-.019v.03zm.015.822v-.837h-.03v.837h.03zm.93-.015h-.945v.03h.945v-.03zm-3.159.03h.888v-.03h-.888v.03zm-.015-.12v.105h.03v-.105h-.03zm-.042-.078c.022.02.042.04.042.078h.03c0-.053-.03-.08-.052-.1l-.02.022zm-.042-.072c0 .035.023.055.042.072l.02-.022c-.02-.018-.032-.03-.032-.05h-.03zm.014-.14a.129.129 0 00-.014.044.3.3 0 00-.001.083.435.435 0 00.001.014v.001l.015-.002.015-.002a.137.137 0 01-.002-.014.422.422 0 01.002-.075.1.1 0 01.01-.034l-.026-.014zm.088.056c0 .01-.003.017-.006.021s-.006.005-.009.004c-.004 0-.01-.004-.02-.016a.197.197 0 01-.025-.061l-.03.008a.225.225 0 00.03.07c.012.016.025.026.04.029a.039.039 0 00.037-.015.064.064 0 00.013-.04h-.03zm-.081-.157c.03.044.05.075.063.1a.121.121 0 01.018.057h.03a.15.15 0 00-.022-.071 1.122 1.122 0 00-.064-.103l-.025.017zM7.342 5l.015.024.025-.017-.015-.023L7.342 5zm.021-.194a.22.22 0 00-.034.098.243.243 0 000 .053.09.09 0 00.013.044l.024-.018a.062.062 0 01-.008-.029.214.214 0 01.001-.046.192.192 0 01.028-.084l-.024-.018zm.078.129a.024.024 0 01-.016-.005.052.052 0 01-.013-.02.38.38 0 01-.022-.097l-.03.004a.41.41 0 00.024.105.08.08 0 00.023.031c.01.008.021.012.034.012v-.03zm.027-.045c0 .02-.004.032-.009.038a.025.025 0 01-.018.007v.03c.015 0 .03-.005.042-.019a.091.091 0 00.015-.056h-.03zm-.03-.084c.016.028.03.05.03.084h.03c0-.043-.018-.072-.035-.1l-.026.016zm-.029-.055c.008.021.019.039.028.055l.026-.016a.31.31 0 01-.026-.05l-.028.011zm.036-.175a.165.165 0 00-.036.175l.028-.01a.135.135 0 01.03-.143l-.022-.022zm.032.051a2.176 2.176 0 00-.006-.042l-.03.004.007.043.03-.005zm0 0l-.03.005.03-.005zm.03.071c-.006 0-.01-.001-.011-.002a.023.023 0 01-.006-.009.273.273 0 01-.013-.06l-.03.005c.005.028.008.052.015.067.004.009.01.017.018.022a.05.05 0 00.027.007v-.03zm-.026-.143a.32.32 0 01.042.085.07.07 0 01.003.038c-.003.008-.01.016-.024.02l.01.03a.062.062 0 00.042-.041.098.098 0 00-.002-.056c-.01-.035-.033-.072-.045-.092l-.026.016zm-.005-.008l.005.008.026-.015-.005-.009-.026.016zm.043-.11l-.012-.009v.001a.144.144 0 00-.008.012.29.29 0 00-.015.028.16.16 0 00-.013.038.06.06 0 00.005.04l.026-.015c-.002-.004-.003-.01-.001-.02a.13.13 0 01.01-.03.258.258 0 01.019-.034v-.002h.001l-.012-.009zm.056.064a.037.037 0 01-.013.002L7.559 4.5a.76.76 0 01-.025-.068l-.03.01.016.048a.11.11 0 00.015.029.034.034 0 00.024.014.063.063 0 00.024-.004l-.008-.028zm-.019-.077a.1.1 0 01.031.054c.001.007 0 .013-.002.016-.001.003-.004.005-.01.006l.008.03a.044.044 0 00.028-.021.055.055 0 00.006-.034.13.13 0 00-.04-.073l-.02.022zm.006-.12a.093.093 0 00-.028.059.082.082 0 00.022.06l.022-.02a.052.052 0 01-.014-.039c0-.013.007-.027.02-.04l-.022-.02zm.065.027c0 .007-.002.01-.004.011l-.003.001c-.006 0-.02-.009-.034-.036l-.026.014c.015.03.035.049.056.052a.033.033 0 00.03-.01.048.048 0 00.011-.03l-.03-.002zm-.024-.128l.024.132.03-.006-.024-.132-.03.006zm.048-.018h-.033v.03h.033v-.03zm-.027-.083l.012.1.03-.004-.012-.1-.03.004zm.492-.017h-.477v.03h.477v-.03zm.003.117l.012-.1-.03-.004-.012.1.03.004zm.021-.017h-.036v.03h.036v-.03zm-.012.147l.027-.129-.03-.006-.027.129.03.006zm.044-.025c-.014.028-.03.035-.037.036-.004 0-.005-.001-.006-.002 0-.001-.002-.004-.001-.01l-.03-.004a.04.04 0 00.008.033.035.035 0 00.03.012c.023 0 .046-.019.062-.051l-.026-.014zm.03.117c.034-.034.028-.086-.006-.12l-.022.02c.026.026.026.058.006.078l.022.022zm-.02.076c-.005 0-.008-.003-.01-.006a.025.025 0 01-.001-.016.1.1 0 01.03-.054l-.02-.022a.13.13 0 00-.04.073.055.055 0 00.006.034c.006.01.016.017.028.02l.008-.029zm.043-.067a.821.821 0 01-.026.067c-.002.003-.003.003-.004.003L8.183 4.5l-.008.028a.058.058 0 00.025.003.035.035 0 00.023-.014.117.117 0 00.015-.03.851.851 0 00.015-.047l-.028-.008zm.059.11a.116.116 0 00-.011-.083.153.153 0 00-.023-.033l-.01.01-.012.01.002.002a.122.122 0 01.017.024.086.086 0 01.008.062l.029.008zm-.007.011l.005-.007-.026-.016-.004.007.025.016zm-.022.145c-.014-.005-.02-.012-.023-.02a.071.071 0 01.003-.04.38.38 0 01.042-.085l-.025-.016c-.012.02-.035.057-.046.094a.1.1 0 00-.002.055c.005.02.02.034.043.04l.008-.028zm.026-.072a.272.272 0 01-.013.06.023.023 0 01-.006.009c-.002 0-.005.002-.011.002v.03a.05.05 0 00.027-.007.047.047 0 00.018-.022c.007-.015.01-.039.014-.067l-.03-.005zm0 0l.03.004-.03-.004zm0 0l.03.005-.03-.005zm.006-.042a2.17 2.17 0 00-.006.042l.03.005a2.1 2.1 0 01.006-.043l-.03-.004zm.059.167a.165.165 0 00-.033-.175l-.022.02a.135.135 0 01.027.143l.028.012zm-.03.057a.21.21 0 00.03-.058l-.028-.01a.251.251 0 01-.027.053l.026.015zm-.029.081c0-.032.013-.054.03-.08l-.026-.016c-.016.026-.034.055-.034.096h.03zm.03.045a.026.026 0 01-.02-.008c-.005-.006-.01-.017-.01-.037h-.03c0 .025.006.044.017.057a.055.055 0 00.043.018v-.03zm.051-.122a.372.372 0 01-.021.098.048.048 0 01-.014.02.025.025 0 01-.016.004v.03a.055.055 0 00.034-.011.078.078 0 00.023-.03.397.397 0 00.024-.107l-.03-.004zm.049.19a.099.099 0 00.013-.044.25.25 0 00-.001-.055.219.219 0 00-.034-.098l-.024.018c.013.017.024.05.028.084a.221.221 0 01.001.048.07.07 0 01-.008.03l.025.017zm-.026.038l.025-.038-.024-.016-.026.037.025.017zm-.074.14a.11.11 0 01.017-.052c.012-.023.031-.05.057-.088l-.025-.017c-.025.037-.045.066-.058.09a.138.138 0 00-.02.067h.029zm.06-.052a.186.186 0 01-.024.06c-.009.013-.016.017-.02.017-.003.001-.006 0-.01-.004a.033.033 0 01-.006-.021h-.03c0 .016.005.03.013.04a.04.04 0 00.038.015.063.063 0 00.04-.03.214.214 0 00.029-.07l-.03-.007zm.03.136l.015.002v-.001a.312.312 0 00.003-.051.18.18 0 00-.02-.09l-.026.016a.153.153 0 01.016.074.383.383 0 01-.002.044v.003a.052.052 0 010 .001l.014.002zm-.026.073c.018-.017.041-.038.041-.073h-.03c0 .02-.012.032-.031.05l.02.023zm-.043.078c.001-.04.021-.058.043-.078l-.02-.022c-.023.02-.051.047-.053.098l.03.002zm0 .104v-.105h-.03v.105h.03zm-3.186-.84v.84h.03v-.84h-.03zm.064.038c-.006-.012-.011-.024-.018-.033-.006-.01-.016-.02-.031-.02v.03h.001l.005.007c.005.007.01.016.016.029l.027-.013zm.077.076a.059.059 0 01-.046-.023.236.236 0 01-.031-.053l-.027.013a.29.29 0 00.035.06.088.088 0 00.069.033v-.03zm.002-.073c.013.02.019.04.018.055-.001.007-.003.01-.006.013-.002.003-.006.005-.014.005v.03a.049.049 0 00.036-.014.051.051 0 00.014-.032.125.125 0 00-.022-.073l-.026.016zm-.013-.202a.245.245 0 00-.016.124.235.235 0 00.029.077l.026-.014a.206.206 0 01-.026-.067.215.215 0 01.015-.11l-.028-.01zm.08.063c.003.01 0 .007.004.004.001 0 .002 0 0 0a.025.025 0 01-.008-.003.119.119 0 01-.048-.064l-.028.01c.014.04.04.068.062.08a.054.054 0 00.018.006.03.03 0 00.019-.003c.014-.008.014-.025.01-.038l-.028.008zm-.026-.059a.23.23 0 01.027.059l.029-.008c-.008-.027-.02-.048-.03-.066l-.026.015zm-.009-.17a.202.202 0 00-.017.103.184.184 0 00.026.067l.026-.015a.155.155 0 01-.023-.056.173.173 0 01.016-.088l-.028-.01zm.066.049c.003.013 0 .02 0 .022h-.004c-.003 0-.01-.004-.016-.015a.138.138 0 01-.017-.052l-.03.004a.168.168 0 00.021.063c.01.015.021.026.034.03a.033.033 0 00.021-.001.032.032 0 00.016-.014.062.062 0 00.004-.045l-.03.008zm-.015-.043l.015.043.029-.008-.016-.046-.028.01zm.007-.163a.19.19 0 00-.025.094c.001.026.01.048.018.069l.028-.011a.178.178 0 01-.016-.06c0-.02.004-.044.021-.078l-.026-.014zm.058.043a.095.095 0 01-.004.033l-.002.003a.007.007 0 01.006 0l-.003-.003a.066.066 0 01-.008-.013.298.298 0 01-.02-.06l-.029.008a.37.37 0 00.022.065.096.096 0 00.012.019.04.04 0 00.017.012.024.024 0 00.021-.004.036.036 0 00.011-.015.123.123 0 00.007-.045h-.03zm.137-.263a.171.171 0 00-.12.11c-.017.047-.017.103-.017.153h.03c0-.052 0-.101.015-.143a.141.141 0 01.1-.092l-.008-.028zm.061-.091a.053.053 0 00-.04.019.11.11 0 00-.02.036.213.213 0 00-.012.047v.001a2.735 2.735 0 00.03.003v-.003a.187.187 0 01.01-.038.082.082 0 01.014-.026c.006-.006.011-.009.018-.009v-.03zm.054.105l.015-.002a.225.225 0 00-.01-.048.113.113 0 00-.02-.036.05.05 0 00-.039-.019v.03c.006 0 .01.003.016.009a.08.08 0 01.014.026.197.197 0 01.009.038v.003l.015-.001zm.141.242c0-.048 0-.101-.017-.148a.17.17 0 00-.12-.108l-.008.028c.058.018.086.05.1.09.015.04.015.09.015.138h.03zm0 .007v-.007h-.03v.007h.03zm.03-.04a.297.297 0 01-.02.06.066.066 0 01-.007.013l-.003.002.006.001-.002-.003a.095.095 0 01-.004-.033h-.03c0 .018.002.034.007.045a.036.036 0 00.011.015.024.024 0 00.022.004.037.037 0 00.016-.012.096.096 0 00.012-.02.326.326 0 00.022-.064l-.03-.008zm.035.16c.008-.021.017-.043.018-.07a.19.19 0 00-.025-.093l-.026.014a.16.16 0 01.021.079c0 .02-.007.037-.016.059l.028.01zm-.014.043a.386.386 0 01.014-.043l-.028-.011-.015.046.029.008zm.036-.045a.138.138 0 01-.016.052c-.007.011-.014.015-.017.016h-.002l-.001-.001c-.002-.003-.004-.01 0-.022l-.03-.008a.062.062 0 00.004.045c.004.006.01.011.016.014a.033.033 0 00.02 0 .062.062 0 00.035-.029.168.168 0 00.02-.063l-.029-.004zm.02.166c.01-.02.022-.04.026-.067a.202.202 0 00-.017-.102l-.028.01c.016.041.019.068.016.088a.155.155 0 01-.023.056l.026.015zm-.026.059a.23.23 0 01.026-.059l-.026-.015c-.01.018-.022.039-.03.066l.03.008zm.052-.063a.119.119 0 01-.048.064.025.025 0 01-.008.003c-.001 0 0 0 0 0 .005.003 0 .006.004-.004l-.03-.008c-.003.013-.003.03.011.038a.03.03 0 00.02.003.054.054 0 00.017-.006.148.148 0 00.062-.08l-.028-.01zm.015.201a.235.235 0 00.03-.077.245.245 0 00-.017-.124l-.028.01a.226.226 0 01.015.11.206.206 0 01-.026.067l.026.014zm.002.074c-.008 0-.012-.002-.014-.004a.023.023 0 01-.004-.014.11.11 0 01.016-.056l-.026-.014a.139.139 0 00-.02.072c0 .011.004.023.012.032.01.01.022.014.036.014v-.03zm.077-.074a.229.229 0 01-.03.052.06.06 0 01-.047.022v.03a.09.09 0 00.07-.033.25.25 0 00.034-.058l-.027-.013zm.05-.052c-.016 0-.026.01-.032.02a.228.228 0 00-.018.032l.027.013a.217.217 0 01.016-.028.026.026 0 01.005-.006v-.001h.001v-.03zm.014.852v-.837h-.03v.837h.03zm-.96.015h.945v-.03h-.945v.03zm2.711-1.583a.07.07 0 00-.052.026.13.13 0 00-.023.05.252.252 0 00-.008.06v.005h.03v-.001a.177.177 0 010-.017.225.225 0 01.007-.04.1.1 0 01.017-.038.04.04 0 01.03-.015v-.03zm.067.141h.015v-.006a.294.294 0 00-.008-.06.13.13 0 00-.022-.05.064.064 0 00-.05-.025v.03c.01 0 .02.005.027.014a.1.1 0 01.016.038.237.237 0 01.007.058l.015.001zm-.135.015h.135v-.03H7.81v.03z" fill="#fff"/>
</svg>
