<svg width="16" height="12" fill="none" xmlns="http://www.w3.org/2000/svg">
  <mask id="a" maskUnits="userSpaceOnUse" x="0" y="0" width="16" height="12">
    <path fill="#fff" d="M0 0h16v12H0z"/>
  </mask>
  <g mask="url(#a)">
    <path fill-rule="evenodd" clip-rule="evenodd" d="M0 0h16v12H0V0z" fill="#FECA00"/>
    <path fill="#1F8A6E" d="M1 1h3v10H1z"/>
    <path fill="#F56800" d="M4 1h3v10H4z"/>
    <path fill="#B01D00" d="M7 1h8v10H7z"/>
    <path fill-rule="evenodd" clip-rule="evenodd" d="M8.471 3s-.643-.002-.643 1.119v1.643s-.307.054-.307.245c0 .19.065.357.186.357.12 0 .241.558.12.558-.12 0-.24.24-.12.24.029 0 .05-.005.068-.007.017-.004.029-.006.037-.001.016.01.016.046.016.157 0 .217-.12.305-.12.305s-.115-.032-.115.096.114.16.114.16.065.029-.06.09c-.126.06-.126.09-.126.09h.307l.153.28.147-.28h.302s-.152-.098-.17-.118c-.018-.02-.04-.05 0-.085.011-.01.028-.017.046-.025.044-.02.096-.043.096-.112 0-.096-.193-.096-.193-.096s-.118-.213-.081-.305a.534.534 0 00.02-.07c.014-.05.021-.08.085-.08.087 0 .138-.11.027-.24 0 0 .127.138.09.315-.038.178.039.258.08.258s.107-.06.107-.06.343.306.494.306c.151 0 .367-.246.367-.246l.311.175s.227.318.194.537c-.034.22-.163.341-.316.307-.152-.034-.4.036-.42.13a1.353 1.353 0 01-.01.051c-.027.107-.066.268.053.228.141-.046.169-.082.169-.082s-.019.082.095.082c.113 0 .146-.082.146-.082s.118.082.2.082c.083 0 .175-.063.175-.063s.061.094.196.063c.134-.03.236-.382.138-.46 0 0 .325-.048.409-.33 0 0-.315-.005-.282-.198.032-.194.198-.318.198-.318s.478-.231.684-.305c.205-.075.547-.15.632-.15.034 0 .059.08.092.19.049.159.116.378.259.498.242.202.077.664.077.664s-.538.054-.538.2c0 .146.009.21.11.21.1 0 .098-.083.098-.083s.06.082.157.082c.096 0 .173-.082.173-.082s.026.082.152.082c.127 0 .126-.082.126-.082s.022.082.134.082c.111 0 .34-.082.34-.082s.036.082.152.082c.115 0 .118-.082.118-.082s.062.082.162.082.16-.082.16-.082.143.082.243.082.064-.149 0-.279a.758.758 0 00-.052-.086c-.05-.076-.087-.13-.001-.225.024-.027.052-.053.08-.08.103-.1.207-.202.13-.29a.38.38 0 00-.075-.064c-.087-.06-.176-.122-.135-.465a3.35 3.35 0 01.114-.527c.05-.183.096-.35.096-.542 0-.357-.21-.765-.21-.765s.283-.198.283-.601c0-.403-.633-.447-.633-.447s-.629.162-.906.081c-.063-.018-.116-.031-.16-.042-.149-.038-.195-.05-.195-.153 0-.134-.202.114-.202.114s-.159-.063-.05-.195c.107-.132.155-.183.155-.183s-.094-.108-.255-.054c-.16.054-.188.143-.188.143s-.183-.186-.069-.322c.114-.136.258 0 .258 0s.163.085.176-.027c.013-.112 0-.201 0-.201s.41.117.294.3c-.115.183-.042.25-.042.25s.282.018.333-.177a.41.41 0 00.002-.2c.081.038.173.083.147.158-.047.138-.15.313-.15.313s.283-.017.367-.237c.084-.221.053.054.053.054s.108-.004.27.09c.162.093 0-.144 0-.144s.337.417.655.367c.318-.05.3-.313.3-.313s-.075-.13-.233-.13c-.157 0-.067.13-.067.13s.153.087-.09 0c-.07-.026-.176-.107-.307-.209-.32-.249-.793-.616-1.28-.56-.686.08-.925.386-.925.386v-.256s-.116.178-.223.178-.406-.178-.406-.178l-.19.178s-.072-.178-.198-.178c-.127 0-.127.178-.127.178s-.159-.078-.334-.078a.449.449 0 01-.18-.047c-.067-.029-.106-.046-.106.047v.053c.004.125.006.203-.176.226-.206.027-.365.027-.365.027s-.124-.15-.22-.15-.207.116-.207.222c0 .107.124.41.207.474.022.017.018.016 0 .007-.05-.023-.207-.095-.207.058 0 .106.026.132.046.151.018.02.03.031.005.102-.01.03-.025.064-.04.1-.058.138-.126.299-.01.299.061 0 .12-.014.161-.024.056-.013.081-.019.045.024a1.204 1.204 0 01-.053.057c-.066.07-.134.14-.016.087a.79.79 0 00.157-.104c.063-.05.107-.084.132-.04.016.027.003.065-.008.096-.018.053-.031.092.101.048a.524.524 0 00.09-.036c0 .008.007.02.028.036.044.032.036.063.03.087-.008.027-.013.044.065.044.074 0 .179-.057.241-.091.06-.033.08-.045-.006.04a.755.755 0 01-.22.128c-.195.088-.433.195-.54.56-.146.493-.08.594-.071.606l-.448-.49s.107-.084.107-.224-.277-.245-.277-.245.01-1.747.09-2.128c.08-.382.12-.634.12-.634zm.893 2.294a.015.015 0 00-.014.017c.02-.011.02-.017.014-.017zm3.369-1.41l-.006-.002c-.066-.031-.122-.058-.1-.092.03-.049.083.002.106.094zm.296 3.78s-.212.209-.077.254c.04.014.09.022.136.03.107.016.194.03.114.108-.116.113-.213.265-.213.404s.003.256.04.197c.02-.032.104-.066.194-.102.075-.03.153-.061.205-.095.096-.064.095-.133.093-.258l-.001-.07c0-.17-.49-.467-.49-.467zm-1.646-2.786c.05-.04.053-.525.053-.525s.173.058.173.134a.232.232 0 01-.033.115.961.961 0 00-.042.096c-.038.105.066.17.162.23l.022.014c.065.042.084-.048.098-.118.008-.039.014-.071.027-.071.035 0 .298.06.496.16.172.088.342.045.73-.054l.185-.047c.523-.13.592.066.645.219.054.154-.352.366-.645.405-.13.017-.24.011-.343.006a.92.92 0 00-.367.03c-.186.067-.77.06-.998.058h-.072c-.105 0-.125-.034-.164-.1a1.114 1.114 0 00-.036-.057c-.071-.104.015-.172.07-.172.056 0 .039-.123 0-.17-.037-.047-.01-.114.039-.153z" fill="#FECA00"/>
    <path fill="#E8AA00" d="M6 1h1v10H6z"/>
    <path fill-rule="evenodd" clip-rule="evenodd" d="M7.086 1.061v.18c0 .023-.01.053-.02.087-.035.108-.08.252.13.293.278.054.483.175.545.29.04.073.029-.05.016-.193a2.871 2.871 0 01-.016-.232c0-.177-.198-.522-.339-.425-.14.097-.316 0-.316 0zm0 9.693v.18s.176-.097.316 0 .34-.248.34-.425c0-.063.007-.15.015-.231.013-.144.024-.267-.016-.193-.062.114-.267.236-.544.29-.212.04-.166.184-.132.292a.32.32 0 01.02.087zm7.832 0v.18s-.176-.097-.317 0c-.14.097-.339-.248-.339-.425a2.87 2.87 0 00-.015-.231c-.013-.144-.025-.267.015-.193.062.114.267.236.545.29.211.04.165.184.131.292a.334.334 0 00-.02.087zm0-9.512v-.18s-.176.096-.317 0c-.14-.098-.339.247-.339.424 0 .064-.008.151-.015.232-.013.144-.025.266.015.193.062-.115.267-.236.545-.29.211-.04.165-.185.131-.293a.334.334 0 01-.02-.086z" fill="#FECA00"/>
  </g>
</svg>
