<svg width="16" height="12" fill="none" xmlns="http://www.w3.org/2000/svg">
  <mask id="a" maskUnits="userSpaceOnUse" x="0" y="0" width="16" height="12">
    <path fill="#fff" d="M0 0h16v12H0z"/>
  </mask>
  <g mask="url(#a)" fill-rule="evenodd" clip-rule="evenodd">
    <path d="M0 8h16v4H0V8z" fill="#55BA07"/>
    <path d="M0 4h16v4H0V4z" fill="#F7FCFF"/>
    <path d="M0 0h16v4H0V0z" fill="#3D58DB"/>
    <path d="M7.625 4.12c-.261.07-.4.25-.4.57 0 .366.18.708.4.885V4.12zm.625 1.445a1.18 1.18 0 00.386-.874c0-.31-.136-.49-.386-.564v1.438zm-.021-1.699c.41.091.705.37.705.823 0 .329-.156.73-.4 1.004l1.218 1.193.3-.098.448.68S9.367 8 7.967 8 5.5 7.467 5.5 7.467l.382-.58.308.1 1.129-1.273c-.254-.275-.418-.688-.418-1.026 0-.468.317-.75.749-.83a.313.313 0 01.579.008z" fill="#1D1D1D"/>
  </g>
</svg>
