<svg width="16" height="12" fill="none" xmlns="http://www.w3.org/2000/svg">
  <mask id="a" maskUnits="userSpaceOnUse" x="0" y="0" width="16" height="12">
    <path fill="#fff" d="M0 0h16v12H0z"/>
  </mask>
  <g mask="url(#a)">
    <path fill-rule="evenodd" clip-rule="evenodd" d="M0 0h16v12H0V0z" fill="#E8AA00"/>
    <path fill-rule="evenodd" clip-rule="evenodd" d="M2 2h12v8H2V2z" fill="#C51918"/>
    <mask id="b" maskUnits="userSpaceOnUse" x="2" y="2" width="12" height="8">
      <path fill-rule="evenodd" clip-rule="evenodd" d="M2 2h12v8H2V2z" fill="#fff"/>
    </mask>
    <g mask="url(#b)">
      <path fill-rule="evenodd" clip-rule="evenodd" d="M10.115 7.876c.204 0 .37-.17.37-.379a.374.374 0 00-.37-.378.374.374 0 00-.369.378c0 .21.165.379.37.379z" fill="#1E5E91"/>
      <path fill-rule="evenodd" clip-rule="evenodd" d="M5.314 6.166c-.969-1.126.42-3.08.42-3.08s.207 1.167.975 1.953c0 .055-.072.138-.146.22a1.087 1.087 0 00-.13.168c-.068.123.164.193.276.193.05 0 .078.073.104.14.03.08.057.15.117.061.108-.161-.108-.517-.108-.517l.342-.36.115-.233h-.115v-.24l-.081.066s-.09-.214-.261-.214c-.172 0-.225-.098-.225-.098h.225c.113 0-.018-.15-.113-.228-.042-.034-.107-.022-.165-.012-.072.014-.134.025-.134-.054 0-.088.068-.1.147-.113a.356.356 0 00.152-.05c.074-.053.173-.037.28-.02.057.01.116.02.175.02h.278c.1 0-.163.163-.163.163l.163.144.242.248-.12.072.25.242s-.086.138 0 .138c.034 0 .057.029.072.062.015-.033.038-.062.073-.062.085 0 0-.138 0-.138l.25-.242-.121-.072.242-.248.163-.144s-.263-.163-.163-.163h.279c.059 0 .118-.01.174-.02.108-.017.207-.033.28.02.045.032.1.041.152.05.079.013.147.025.147.113 0 .08-.062.068-.134.054-.058-.01-.122-.022-.165.012-.094.078-.225.228-.113.228h.226s-.054.098-.226.098c-.171 0-.26.214-.26.214l-.081-.066v.24h-.116l.116.233.341.36s-.215.356-.107.517c.059.09.086.02.117-.062.025-.066.053-.14.103-.14.113 0 .345-.07.277-.192-.028-.05-.08-.109-.13-.167-.074-.083-.147-.166-.147-.221.768-.786.976-1.952.976-1.952s1.388 1.953.42 3.079c-.969 1.126-1.68.786-1.68.786s.858.799.953.799c.013 0-.017-.074-.047-.147-.029-.072-.058-.144-.045-.143.028.001.082.067.137.132a.791.791 0 00.117.126c.02.013.095-.014.166-.038.06-.02.115-.04.13-.033.059.03.043.09.029.148l-.01.044c-.002.012.074-.037.154-.089.085-.054.173-.112.18-.103l.004.005c.029.035.075.09-.265.352 0 .05.002.092.003.125.005.107.006.135-.067.135a.466.466 0 00-.13.035c-.134.047-.316.112-.448-.035-.183-.204-1.31-1.024-1.31-1.024l-.12.067s.412 1.14.633 1.147c.11.004-.057.11-.278.252-.223.142-.502.32-.606.464-.03.042-.055-.023-.073-.164-.018.141-.042.206-.073.164-.103-.144-.382-.322-.606-.464-.22-.142-.387-.248-.277-.252.22-.008.633-1.147.633-1.147l-.12-.067-.45.515s-.678.305-.86.51c-.133.146-.314.082-.449.034a.466.466 0 00-.13-.035c-.115 0-.154-.161 0-.36.09-.115.229-.13.36-.146a.557.557 0 00.25-.065c.164-.107.433-.386.433-.386l.397-.356s-.712.34-1.68-.786z" fill="#F6C540"/>
      <path fill-rule="evenodd" clip-rule="evenodd" d="M6.217 8.515l-.438-.767s-.572-1.319-.572-1.48c0-.16-.23-.634-.23-.496s-.02 1.242-.02 1.242l.985 1.43v.17h.13l.145-.099z" fill="#F6C540"/>
      <path d="M9.72 7.482l.068-.22.813.244-.067.221-.813-.245z" fill="#F6C540"/>
      <path d="M10.154 7.08l.22.072-.215.69-.22-.073.215-.689z" fill="#F6C540"/>
      <path fill-rule="evenodd" clip-rule="evenodd" d="M8.069 2.646a1.301 1.301 0 00-.102-.035l-.003.01a.485.485 0 00-.116-.009l-.007.001a.957.957 0 00-.194.045c-.364.041-.552.202-.532.477.011.142.059.243.138.3v.085s.416.27.624.27c.208 0 .624-.27.624-.27v-.053c.114-.045.183-.158.196-.332.021-.284-.18-.445-.565-.48l-.001.011a1.666 1.666 0 00-.062-.02zm.432.655v-.368a.252.252 0 01.058.192c-.006.081-.025.14-.058.176zm-1.248-.182v-.04.04z" fill="#F6C540"/>
      <path fill-rule="evenodd" clip-rule="evenodd" d="M6.977 5.18s.569-.108.877-.108c.276 0 .877.108.877.108 0 .68.191 1.096 0 1.56-.192.465-.66.242-.871.686-.27-.421-.636-.19-.883-.79-.247-.6.15-.876 0-1.456z" fill="#1E5E91"/>
      <mask id="c" maskUnits="userSpaceOnUse" x="6" y="5" width="3" height="3">
        <path fill-rule="evenodd" clip-rule="evenodd" d="M6.977 5.18s.569-.108.877-.108c.276 0 .877.108.877.108 0 .68.191 1.096 0 1.56-.192.465-.66.242-.871.686-.27-.421-.636-.19-.883-.79-.247-.6.15-.876 0-1.456z" fill="#fff"/>
      </mask>
      <g mask="url(#c)">
        <path fill="#5EAA22" d="M6.977 6.599h1.754v.851H6.977z"/>
      </g>
      <path fill-rule="evenodd" clip-rule="evenodd" d="M7.9 6.4a.5.5 0 100-1 .5.5 0 000 1z" fill="#F6C540"/>
    </g>
  </g>
</svg>
