<svg width="16" height="12" fill="none" xmlns="http://www.w3.org/2000/svg">
  <path fill="#21428E" d="M0 0h16v12H0z"/>
  <path fill-rule="evenodd" clip-rule="evenodd" d="M7 0h2v5h7v2H9v5H7V7H0V5h7V0z" fill="#F7FCFF"/>
  <path d="M1.278 3.17c.222.036.61.077.647-.006.049-.11.232-.624.893-.612.66.013 1.21-.122 1.21-.55 0-.435-.195-.452-.587-.342-.391.11-1.035.031-1.051-.22-.012-.168-.755-.072-.749-.205.003-.05.679-.057.766-.158.064-.163.24-.257.655-.249.673.012 1.553.232 1.639.832.098.684.098 1.112-.673 1.284-.728.161-.966.122-.856.22.233.207 1.529-.208 2.006 0 .28.122.379.905-.55.917-.93.012-1.59.147-2.067-.22-.477-.367-.196-.22-.636-.294-.404-.067-.51-.351-.647-.397zm0 7.078c.222.036.61.077.647-.006.049-.11.232-.624.893-.612.66.012 1.21-.122 1.21-.55 0-.436-.195-.453-.587-.343-.391.11-1.035.032-1.051-.22-.012-.167-.755-.071-.749-.204.003-.05.679-.057.766-.158.064-.163.24-.257.655-.25.673.013 1.553.233 1.639.832.098.685.098 1.113-.673 1.284-.728.162-.966.123-.856.22.233.208 1.529-.207 2.006 0 .28.123.379.905-.55.918-.93.012-1.59.146-2.067-.22-.477-.367-.196-.22-.636-.294-.404-.067-.51-.351-.647-.397zM10.45 3.17c.222.036.61.077.647-.006.049-.11.232-.624.893-.612.66.013 1.21-.122 1.21-.55 0-.435-.195-.452-.587-.342-.39.11-1.034.031-1.051-.22-.011-.168-.754-.072-.748-.205.002-.05.678-.057.765-.158.065-.163.24-.257.655-.249.673.012 1.553.232 1.639.832.098.684.098 1.112-.673 1.284-.728.161-.966.122-.856.22.233.207 1.529-.208 2.006 0 .28.122.379.905-.55.917-.93.012-1.59.147-2.067-.22-.477-.367-.196-.22-.636-.294-.404-.067-.51-.351-.647-.397zm0 7.078c.222.036.61.077.647-.006.049-.11.232-.624.893-.612.66.012 1.21-.122 1.21-.55 0-.436-.195-.453-.587-.343-.39.11-1.034.032-1.051-.22-.011-.167-.754-.071-.748-.204.002-.05.678-.057.765-.158.065-.163.24-.257.655-.25.673.013 1.553.233 1.639.832.098.685.098 1.113-.673 1.284-.728.162-.966.123-.856.22.233.208 1.529-.207 2.006 0 .28.123.379.905-.55.918-.93.012-1.59.146-2.067-.22-.477-.367-.196-.22-.636-.294-.404-.067-.51-.351-.647-.397z" fill="#fff"/>
</svg>
