<svg width="16" height="12" fill="none" xmlns="http://www.w3.org/2000/svg">
  <path fill="#fff" d="M0 0h16v12H0z"/>
  <path d="M5.545 10.614a5.741 5.741 0 00-1.004.423c-.062.04-.057.086.04.257.067.11.135.206.146.206.017 0 .203-.075.412-.171.209-.09.475-.21.598-.232a1.56 1.56 0 00.232-.051c.022.046.009.02.048.093.055.104.02.102.117.13.102.03.354-.091.354-.091.293-.09.457-.1 1.512-.1s1.219.01 1.512.105c0 0 .236.072.267.08.03.009.046.016.078.009.029-.006.059-.046.072-.07 0 0 .065-.139.082-.188.056.024.159.056.257.084.119.035.384.14.593.23.209.097.395.172.412.172.011 0 .079-.096.147-.206.135-.237.146-.217-.345-.443-.654-.302-1.309-.438-1.37-.292-.012.028-.022.044-.037.08a6.762 6.762 0 00-.41-.075c-.53-.085-1.986-.085-2.516 0-.173.025-.289.067-.386.091-.055-.098-.044-.059-.055-.086-.045-.101-.344-.085-.756.045z" fill="#DFDFDF"/>
  <path d="M6.025 4.396c-.012.164.022.28.112.368.04.042.073.092.073.092s-.045.05-.083.088a.438.438 0 00-.125.322c0 .124.036.21.133.322 0 0 .081.041.08.092-.003.051-.088.102-.088.102-.174.204-.169.438.013.632l.078.086h3.568l.087-.098c.169-.19.169-.396.002-.614 0 0-.084-.06-.085-.11-.001-.05.08-.1.08-.1.174-.22.17-.422-.01-.634-.081-.094-.083-.112-.019-.156.104-.074.169-.324.121-.475-.07-.228-.371-.38-.555-.28a1.23 1.23 0 00-.153.11.469.469 0 01-.108.078.506.506 0 01-.1-.08c-.185-.166-.406-.186-.59.002 0 0-.026.1-.065.104-.038.003-.092-.09-.092-.09-.188-.186-.423-.178-.614.018 0 0-.027.081-.07.072-.044-.01-.08-.106-.08-.106-.111-.108-.182-.106-.31-.108a.527.527 0 00-.29.077c-.082.06-.067.133-.086.129-.047-.013-.099-.088-.099-.088-.181-.164-.327-.192-.504-.094a.399.399 0 00-.221.34z" fill="#171796"/>
  <path d="M6.142 7.246s.073.035.07.08c-.002.046-.079.091-.079.091a.746.746 0 00-.106.156.456.456 0 00.104.47c.072.073.074.102.006.189a.777.777 0 00-.08.118.44.44 0 00.385.63.38.38 0 00.305-.136c.068-.075.104-.077.165-.01.09.103.207.166.305.166.116 0 .188-.038.305-.154 0 0 .047-.09.09-.09.042 0 .08.092.08.092.177.197.355.203.592.016 0 0 .052-.076.097-.075.045.001.083.079.083.079.105.094.182.132.285.132.102 0 .178-.042.297-.164 0 0 .062-.092.099-.098.037-.006.076.07.076.07.146.137.225.18.331.18.11 0 .188-.038.298-.14.102-.096.157-.209.144-.301a.8.8 0 00-.165-.346s-.064-.006-.055-.056c.01-.049.085-.1.085-.1.186-.226.188-.401.004-.626 0 0-.077-.044-.076-.094.001-.05.08-.1.08-.1.178-.22.176-.422-.004-.62L9.767 6.5l-1.775.002-1.774.002-.08.092c-.185.215-.183.433.004.65z" fill="#D42E12"/>
  <path fill-rule="evenodd" clip-rule="evenodd" d="M8.91 6.81c.086 0 .158.06.172.136l.003.03v.308l.368-.196a.168.168 0 01.227.068.164.164 0 01-.043.207l-.026.017-.308.163.308.164.026.016a.164.164 0 01.043.208.168.168 0 01-.227.067l-.368-.195v.343a.17.17 0 01-.175.165.173.173 0 01-.172-.136l-.003-.03v-.3l-.289.153a.168.168 0 01-.226-.067.164.164 0 01.043-.208l.025-.016.308-.164-.308-.163-.025-.017a.164.164 0 01-.043-.207.168.168 0 01.226-.068l.29.154v-.266a.17.17 0 01.174-.165zm-1.7 0c.087 0 .158.06.173.136l.003.03v.308l.367-.196a.168.168 0 01.227.068.164.164 0 01-.043.207l-.025.017-.308.163.308.164.025.016a.164.164 0 01.043.208.168.168 0 01-.227.067l-.367-.195v.343a.17.17 0 01-.175.165.173.173 0 01-.172-.136l-.003-.03v-.3l-.29.153a.168.168 0 01-.226-.067.164.164 0 01.043-.208l.025-.016.308-.164-.308-.163-.025-.017a.164.164 0 01-.043-.207.168.168 0 01.227-.068l.289.154v-.266a.17.17 0 01.175-.165z" fill="#E9D315"/>
  <path d="M5.401 6.428h.1v.045a.165.165 0 01-.1-.045h0v.344l.001.8c.001.607.002 1.293.004 1.605a.223.223 0 00.057.169.396.396 0 00.076.065l.03.022c.049.04.13.069.219.091.093.025.211.046.346.062a5.1 5.1 0 00.974.015c.149.002.257.03.338.07.083.04.144.093.196.15.026.028.05.057.074.086l.002.002c.022.028.047.058.071.084.051.053.12.108.22.108s.17-.056.219-.11a.94.94 0 00.07-.086l.002-.001c.022-.03.044-.057.069-.085a.603.603 0 01.183-.149.716.716 0 01.325-.069c.41.006.759-.004 1.022-.028.132-.013.244-.029.333-.05a.514.514 0 00.21-.087l.004-.002.012-.01a.63.63 0 00.037-.037.364.364 0 00.085-.127.395.395 0 00.019-.172V3.4H5.4v3.028z" stroke="#000" stroke-width=".2"/>
  <path d="M7.434 4.933c-.134.25-.14.362-.028.562a.69.69 0 00.329.314c.365.165.832.043 1.015-.264.113-.19.1-.505-.025-.643l-.034-.036-.032.109a.602.602 0 01-.181.317c-.17.155-.405.19-.647.094-.187-.075-.262-.18-.332-.47l-.017-.071-.048.088z" fill="#fff"/>
  <path fill-rule="evenodd" clip-rule="evenodd" d="M9.022 1.886c0 .366-.236.634-.568.634-.332 0-.566-.268-.566-.634 0-.368.234-.634.566-.634.332 0 .568.266.568.634zM4.496 2.5v-.854l.338.854h.148l.33-.854V2.5h.2V1.272H5.28l-.37.944-.374-.944h-.238V2.5h.198zm1.402 0l.126-.34h.47l.126.34h.212L6.36 1.272h-.2L5.688 2.5h.21zm.36-.974l-.168.454h.336l-.168-.454zm1.164.974v-.49l.446-.738h-.22l-.324.55-.326-.55h-.226l.444.738v.49h.206zm1.032-.166c-.216 0-.356-.188-.356-.448s.14-.448.356-.448c.216 0 .358.188.358.448s-.142.448-.358.448zm1.244-.878V2.5H9.49V1.456h-.408v-.184h1.024v.184h-.408zM10.842 2.5V1.456h.408v-.184h-1.024v.184h.408V2.5h.208zm1.406-.186V2.5h-.802V1.272h.802v.184h-.598v.324h.542v.182h-.542v.352h.598z" fill="#FF2500"/>
  <path fill-rule="evenodd" clip-rule="evenodd" d="M12.888 9.4s-.17-.335.26-.5c.43-.165.64.05.83.25.189.2.168.805.168.805l-.468.748-1.435.297-.572-.297L11 9.4l.05-1.28s.068-.49.068-.59c0-.102.312-.889.312-.889l.295-.292.834-.444.393-.196.488-.617-.054-.49-.556.708h-.471l-.49.205-.198.187-.241.007-.095-.194.263-.423.398-.4-.183-.339.27-.123-.051-.187.3.187.227-.187.043-.171-.518-.278s.507-.213.746-.19c.239.022.464.303.464.303l.684-.113s-.183.45-.124.45h.43l-.138.557h.53l-.392.43.306.168-.465.316.465.313-.432.284.243.47.383-.233.216.292-.324.72-.53.376-.504.127-.494.128-.196.129-.122-.493-.834.572-.433.897.127.815.306.417.563.201.735-.138.384-.467.092-.477s-.223-.324-.384-.298c-.162.027-.498.25-.498.25z" fill="#DFDFDF" stroke="#000" stroke-width=".2"/>
  <path d="M12.043 6.21s.89.082 1.127-.107m-1.796.684s.89.082 1.127-.107m-1.276.636s.48.081.527-.086" stroke="#000" stroke-width=".2"/>
  <path fill-rule="evenodd" clip-rule="evenodd" d="M12.375 4.75a.125.125 0 110-.25.125.125 0 010 .25z" fill="#000"/>
  <path fill-rule="evenodd" clip-rule="evenodd" d="M3.112 9.4s.17-.335-.26-.5c-.43-.165-.64.05-.83.25-.189.2-.168.805-.168.805l.468.748L3.757 11l.572-.297L5 9.4l-.05-1.28s-.068-.49-.068-.59c0-.102-.312-.889-.312-.889l-.295-.292-.834-.444-.393-.196-.488-.617.054-.49.556.708h.471l.49.205.198.187.241.007.095-.194-.263-.423-.398-.4.183-.339-.27-.123.051-.187-.3.187-.227-.187-.043-.171.518-.278s-.507-.213-.746-.19c-.239.022-.464.303-.464.303l-.684-.113s.183.45.124.45h-.43l.138.557h-.53l.392.43-.306.168.465.316-.465.313.432.284-.243.47-.383-.233L1 6.641l.324.72.53.376.504.127.494.128.196.129.122-.493.834.572.433.897-.127.815-.306.417-.563.201-.735-.138-.384-.467-.092-.477s.223-.324.384-.298c.162.027.498.25.498.25z" fill="#DFDFDF" stroke="#000" stroke-width=".2"/>
  <path d="M3.957 6.21s-.89.082-1.127-.107m1.796.684s-.89.082-1.127-.107m1.276.636s-.48.081-.527-.086" stroke="#000" stroke-width=".2"/>
  <path fill-rule="evenodd" clip-rule="evenodd" d="M3.625 4.75a.125.125 0 100-.25.125.125 0 000 .25z" fill="#000"/>
</svg>
