<svg width="16" height="12" fill="none" xmlns="http://www.w3.org/2000/svg">
  <mask id="a" maskUnits="userSpaceOnUse" x="0" y="0" width="16" height="12">
    <path fill="#fff" d="M0 0h16v12H0z"/>
  </mask>
  <g mask="url(#a)" fill-rule="evenodd" clip-rule="evenodd">
    <path d="M11 0h5v12h-5V0zM0 0h6v12H0V0z" fill="#409100"/>
    <path d="M5 0h6v12H5V0z" fill="#fff"/>
    <path d="M6.348 9.385c-.778.127-1.023-.253-1.023-.253l.098-.08c.065-.054.287-.036.502-.018.105.009.21.018.292.018.122 0 .261-.019.407-.038.158-.02.323-.042.48-.042.299 0-.887-.392-1.14-.152C5.711 9.06 5 8.71 5 8.51c0-.137.262-.087.5-.042.111.021.217.042.29.042.228 0-.228-.445-.465-.445-.238 0 .237-.103.465-.103.13 0 .25.033.354.062a.842.842 0 00.204.041c.13 0-.655-.337-.786-.337h.655c.225 0 .28.031.332.061.046.027.09.053.255.053.347 0 .157-.19.157-.19s-1.171-.121-1.4-.289c-.153-.113.26-.073.651-.036.188.018.37.036.481.036.346 0-.729-.247-.903-.247h.792c.174 0 .364.056.564.115.22.064.452.132.686.132.245 0-.235-.147-.762-.308-.426-.13-.883-.27-1.013-.349-.134-.082-.032-.05.154.008.217.067.546.17.75.17.378 0-.504-.372-.744-.372s-.47-.107-.253-.207c.133-.062.478.03.78.111.188.05.36.096.45.096.109 0 .19.043.275.088a.712.712 0 00.363.106c.3 0-.638-.401-1.028-.401s-.456-.19-.222-.19c.235 0-.525-.322-.525-.322s-.11-.228.16-.228h.365c.125 0-.125-.397-.365-.397s-.03-.12.365-.12c.24 0 .382.083.55.183.11.065.231.136.398.197.427.155.105-.26 0-.26S6.348 4.83 6.348 4.83s.11-.124 0-.294c-.083-.127.261-.062.47-.023.069.013.122.023.143.023.05 0 .192.036.367.08.118.029.25.062.38.09.32.07-1.088-.517-1.25-.517-.163 0 .346-.097.645-.097.148 0 .219.024.291.047.075.025.15.05.313.05.32 0-.604-.343-.903-.343-.3 0-.123-.296 0-.296.048 0 .168.016.316.035.23.03.528.07.712.07.14 0 .012-.04-.175-.097-.214-.065-.505-.155-.554-.235-.053-.089.056-.072.245-.044l.11.015c.13.068.237.112.253.06a.058.058 0 01.028-.033l.093.002c.178 0 .096-.027-.076-.06l-.016-.004c-.26-.08-.825-.25-.614-.145.042.02.088.046.136.072a3.603 3.603 0 00-.301-.031c-.143 0-.286-.11 0-.11h.57c-.178 0-.428 0-.428-.14 0-.095.198-.06.38-.029.086.015.168.03.224.03.178 0 .222 0 .125-.084-.093-.078-.41-.078-.608-.078h-.03c-.193 0 .41-.1.638-.1l.055-.001-.03-.004c-.099-.01-.428-.041-.663-.148-.21-.095-.026-.071.215-.04.145.019.31.04.423.04.3 0-.125-.202-.445-.202-.257 0-.134-.07.025-.162.039-.022.08-.046.118-.07.116-.073.2.052.25.124.034.05.052.076.052-.001a.28.28 0 00-.036-.149c.009.007.02.016.036.026.124.083 0-.217 0-.217s-.125-.083 0-.083c.124 0-.04-.143-.125-.143-.084 0 .222-.136.222-.136L7.996.9s.166.629.166.713v.443c0 .105-.074.179-.124.228-.063.062-.086.085.124.085.379 0 .363.121.132.121-.23 0 .066.152.48.152s-.347.18-.612.18.265.082.612.082c.234 0-.006.081-.228.156-.106.036-.209.07-.252.094-.068.037.101.035.28.026a26.79 26.79 0 00-.259.078.457.457 0 00-.114.039c0 .001.008.002.02.002.036.002.109.006.124.054.021.071.219-.04.405-.143l.088-.05.08-.006s.172.197.172.318c0 .07-.225.091-.466.114l-.024.002c.012-.016-.04-.008-.114.01a1.73 1.73 0 00-.324.056c-.077.025-.064.035-.001.038l-.017.005c-.06.018-.08.024-.08.028a.041.041 0 00.016.004c.026.005.078.015.093.063.022.071.154-.019.278-.104l.012-.008.118-.008c.136-.01.266-.018.338-.018.223 0-.224.107-.394.107-.073 0 .019.017.158.042.189.034.465.083.543.13.093.055-.18.034-.424.016a4.658 4.658 0 00-.277-.016c-.195 0-.23.158-.098.158h.492c.186 0 .38.285.307.285a.635.635 0 00-.134.035c-.15.047-.398.124-.665.124h.663c.172 0 .66 0 .66.17 0 .105-.092.128-.213.158-.074.019-.158.04-.239.084-.213.115.638.22.638.22s-.337.105-.5.105c-.165 0 .075.155.5.155.328 0 .232.178.171.29-.017.033-.032.06-.032.075 0 .03-.062.055-.152.092a1.432 1.432 0 00-.412.23c-.154.136.034.096.246.051.116-.024.24-.05.318-.05.223 0 .318.009.246.117-.073.108-.722.28-.886.28h.886c.245 0-.07.193-.385.193-.212 0-.33.08-.409.133-.038.026-.067.045-.092.045h.64c.033 0 .069-.052.101-.1.03-.042.056-.08.076-.078.29.046.16.41 0 .41-.183 0-.74.123-.653.247.043.06.109.033.216-.011.115-.047.276-.113.506-.113.444 0 .042.124-.07.124-.11 0-.582.09-.74.168-.105.052.26.034.624.017.18-.008.361-.017.483-.017.365 0-.867.311-1.32.311-.452 0 .301.12.453.12.058 0 .17.015.31.034a6.1 6.1 0 00.756.069c.391 0-.392.258-.742.258h-.08c-.312-.002-.547-.003-.396.187.084.105.364.076.656.046.277-.028.566-.058.708.025.256.149-.876.136-1.364.13h-.164c-.3 0 .3.11.817.11h.065c.462 0 .571 0 .571.152 0 .133-1.005.099-1.425.084a7.048 7.048 0 00-.165-.004c-.08 0-.127.048-.175.099-.052.053-.105.11-.204.11-.082 0-.12-.053-.155-.1-.047-.065-.088-.12-.22-.029-.23.16.23 1.768.23 1.768H7.53V9.385s-.405-.126-1.182 0zm1.429-7.377c-.002 0 .003.008.02.022a.07.07 0 00-.02-.022zm-.433 6.004c-.197-.074.301-.078.532-.078.074 0 .1 0 .102.006.001.004-.006.01-.016.018-.029.024-.086.071-.086.166 0 .142-.187.05-.363-.035-.06-.03-.12-.058-.17-.077zm.407-.58c-.23 0-.728.005-.532.079.05.018.109.047.169.076.176.087.363.178.363.036 0-.095.058-.143.087-.166.01-.009.016-.014.015-.018-.001-.006-.028-.006-.102-.006zm-.415-.334c-.16-.04.246-.041.434-.041.062 0 .083 0 .084.003 0 .002-.005.005-.014.01-.023.012-.07.037-.07.087 0 .074-.153.026-.297-.019-.049-.015-.097-.03-.137-.04zm.404-1.585c-.26-.08-.825-.25-.614-.145.054.027.116.062.18.097.186.104.383.215.405.144.015-.048.087-.052.123-.054.013 0 .02-.001.021-.003a.483.483 0 00-.115-.039zm-.614-.646c-.21-.105.354.065.614.145a.458.458 0 01.115.039c0 .002-.008.002-.02.003-.037.002-.11.006-.124.053-.022.072-.219-.039-.405-.143a4.375 4.375 0 00-.18-.097zm.614-.482c-.26-.08-.825-.25-.614-.145.054.027.116.062.18.097.186.105.383.215.405.144.015-.048.087-.052.123-.054.013 0 .02 0 .021-.003a.653.653 0 00-.115-.039zm.565 3.424c.23 0 .728.004.531.078-.05.018-.108.047-.168.076-.177.087-.363.178-.363.036a.204.204 0 00-.087-.167c-.01-.008-.017-.013-.016-.017.002-.006.028-.006.103-.006zm.531-.298c.197-.074-.301-.078-.531-.078-.075 0-.101 0-.103.006 0 .004.006.01.016.018a.204.204 0 01.087.166c0 .142.186.05.363-.036.06-.029.119-.058.168-.076zm.309-.867a.124.124 0 00-.006.001c-.053.013-.164.057-.289.106-.253.1-.564.222-.564.155 0-.05-.047-.075-.07-.087-.009-.005-.014-.007-.014-.01s.022-.003.084-.003c.157 0 .756-.138.859-.162zm-.216-1.527c.211-.105-.353.066-.614.145-.086.027-.115.036-.114.04 0 .001.008.002.02.002.036.002.109.006.124.054.021.071.219-.04.405-.144.064-.035.126-.07.18-.097zm-.614.647c.261-.08.825-.25.614-.145a4.518 4.518 0 00-.179.097c-.186.104-.384.214-.405.143-.015-.048-.088-.052-.124-.053l-.02-.003c-.001-.004.028-.013.114-.04zm.614-1.148c.211-.105-.353.066-.614.145-.086.027-.115.036-.114.04l.02.002c.036.002.109.006.124.054.021.071.219-.04.405-.144.064-.035.126-.07.18-.097zm-.785-.293c.18-.055.57-.172.427-.088-.036.022-.078.05-.12.08-.124.085-.256.175-.278.104-.015-.048-.067-.058-.093-.063-.009-.002-.015-.003-.015-.005 0-.003.02-.01.079-.028zm.115 1.907c-.207 0 0-.163 0-.163h.106c.036 0 .07-.015.112-.035a.957.957 0 01.457-.093c.389 0-.469.291-.675.291z" fill="#409100"/>
  </g>
</svg>
