<svg width="16" height="12" fill="none" xmlns="http://www.w3.org/2000/svg">
  <mask id="a" maskUnits="userSpaceOnUse" x="0" y="0" width="16" height="12">
    <path fill="#fff" d="M0 0h16v12H0z"/>
  </mask>
  <g mask="url(#a)">
    <path fill-rule="evenodd" clip-rule="evenodd" d="M0 0v12h16V0H0z" fill="#2E42A5"/>
    <mask id="b" maskUnits="userSpaceOnUse" x="0" y="0" width="16" height="12">
      <path fill-rule="evenodd" clip-rule="evenodd" d="M0 0v12h16V0H0z" fill="#fff"/>
    </mask>
    <g mask="url(#b)">
      <path fill-rule="evenodd" clip-rule="evenodd" d="M0 8v4h16V8H0z" fill="#FECA00"/>
      <mask id="c" maskUnits="userSpaceOnUse" x="0" y="0" width="16" height="8">
        <path fill="#fff" d="M0 0h16v8H0z"/>
      </mask>
      <g mask="url(#c)">
        <path d="M-1.131 7.565l3.171.733L8.8 4.563l.716-.418L15.938.787l1.521-1.06-3.48-.322L8.37 2.57 4.314 4.563l-5.445 3.002z" fill="#fff"/>
        <path d="M-.852 8.01l1.707.56 15.97-8.977h-2.398L-.853 8.009z" fill="#F50100"/>
        <path d="M17.185 7.365l.126.755-3.351.178-5.403-3.164-.51.174L-2.04.205l4.165-.801L7.693 2.48l4.355 2.104 5.137 2.781z" fill="#fff"/>
        <path d="M17.197 7.819l-1.708.56-6.8-3.844-2.016-.43-8.302-4.374H.768l8.298 4.271 2.204.515 5.927 3.302z" fill="#F50100"/>
        <path d="M6.595-.625v-.625H5.97v.625h.625zm0 3V3h.625v-.625h-.625zm-7.22 0V1.75h-.625v.625h.625zm0 3.25h-.625v.625h.625v-.625zm7.22 0h.625V5h-.625v.625zm0 4H5.97v.625h.625v-.625zm2.844 0v.625h.625v-.625h-.625zm0-4V5h-.625v.625h.625zm7.186 0v.625h.625v-.625h-.625zm0-3.25h.625V1.75h-.625v.625zm-7.186 0h-.625V3h.625v-.625zm0-3h.625v-.625h-.625v.625zm-1.25 3V3h.625v-.625h-.625zm0-1.75h.625V0h-.625v.625zm-.345 0V0H7.22v.625h.625zm0 1.75H7.22V3h.625v-.625zm.345 1.25h.625V3h-.625v.625zm-.345 0V3H7.22v.625h.625zm.345.75V5h.625v-.625h-.625zm-.345 0H7.22V5h.625v-.625zm-1.25-.75h.625V3h-.625v.625zm-5.969 0V3H0v.625h.625zm0 .75H0V5h.625v-.625zm5.97 0V5h.625v-.625h-.625zm1.25 1.25V5H7.22v.625h.625zm0 2.75H7.22V9h.625v-.625zm.344 0V9h.625v-.625h-.625zm0-2.75h.625V5h-.625v.625zm1.25-2V3h-.625v.625h.625zm0 .75h-.625V5h.625v-.625zm5.936-.75H16V3h-.625v.625zm0 .75V5H16v-.625h-.625zM6.595 0h.625v-1.25h-.625V0zm.625 0v-.625H5.97V0h1.25zm0 2.375V0H5.97v2.375h1.25zM0 3h6.595V1.75H0V3zm-.625 0H0V1.75h-.625V3zM0 3v-.625h-1.25V3H0zm0 2V3h-1.25v2H0zm0 .625V5h-1.25v.625H0zM0 5h-.625v1.25H0V5zm6.595 0H0v1.25h6.595V5zm.625 4V5.625H5.97V9h1.25zm0 .625V9H5.97v.625h1.25zm0-.625h-.625v1.25h.625V9zm1.594 0H7.219v1.25h1.595V9zm.625 0h-.625v1.25h.625V9zm-.625 0v.625h1.25V9h-1.25zm0-3.375V9h1.25V5.625h-1.25zM16 5H9.439v1.25H16V5zm.625 0H16v1.25h.625V5zM16 5v.625h1.25V5H16zm0-2v2h1.25V3H16zm0-.625V3h1.25v-.625H16zM16 3h.625V1.75H16V3zM9.439 3H16V1.75H9.439V3zm-.625-3v2.375h1.25V0h-1.25zm0-.625V0h1.25v-.625h-1.25zm0 .625h.625v-1.25h-.625V0zM7.219 0h1.595v-1.25H7.219V0zm1.595 2.375V.625h-1.25v1.75h1.25zM8.189 0h-.345v1.25h.345V0zm-.97.625v1.75h1.25V.625H7.22zM7.845 3h.345V1.75h-.345V3zm.345 0h-.345v1.25h.345V3zm.625 1.375v-.75h-1.25v.75h1.25zM7.844 5h.345V3.75h-.345V5zM7.22 3.625v.75h1.25v-.75H7.22zM6.595 3H.625v1.25h5.97V3zM0 3.625v.75h1.25v-.75H0zM.625 5h5.97V3.75H.625V5zm6.595-.625v-.75H5.97v.75h1.25zm0 1.25v2.75h1.25v-2.75H7.22zM7.845 9h.344V7.75h-.345V9zm.969-.625v-2.75h-1.25v2.75h1.25zM8.189 5h-.345v1.25h.345V5zm.625-1.375v.75h1.25v-.75h-1.25zM15.375 3H9.439v1.25h5.936V3zM16 4.375v-.75h-1.25v.75H16zM9.439 5h5.936V3.75H9.439V5z" fill="#fff"/>
        <path fill-rule="evenodd" clip-rule="evenodd" d="M8.846-.667H7.154V3H0v2h7.154v4.667h1.692V5H17V3H8.846V-.667z" fill="#F50100"/>
      </g>
      <path fill-rule="evenodd" clip-rule="evenodd" d="M8.025 5.3a1.375 1.375 0 100-2.75 1.375 1.375 0 000 2.75z" fill="#2E42A5"/>
      <path fill-rule="evenodd" clip-rule="evenodd" d="M8.05 4.346l-.649.451.229-.757L7 3.563l.79-.016.26-.747.26.747.79.016-.63.477.229.757-.649-.451zm-4.5-.058l-.54.376.19-.63-.525-.398.659-.014L3.55 3l.216.622.659.014-.525.398.19.63-.54-.376zm9 0l-.54.376.19-.63-.525-.398.659-.014L12.55 3l.216.622.659.014-.525.398.19.63-.54-.376zm-4.5-2.4l-.54.376.19-.63-.525-.398.659-.014L8.05.6l.216.622.659.014-.525.398.19.63-.54-.376zm0 5.3l-.54.376.19-.63-.525-.398.659-.014.216-.622.216.622.659.014-.525.398.19.63-.54-.376z" fill="#FECA00"/>
    </g>
  </g>
</svg>
