<svg width="16" height="12" fill="none" xmlns="http://www.w3.org/2000/svg">
  <mask id="a" maskUnits="userSpaceOnUse" x="0" y="0" width="16" height="12">
    <path fill="#fff" d="M0 0h16v12H0z"/>
  </mask>
  <g mask="url(#a)">
    <path fill-rule="evenodd" clip-rule="evenodd" d="M4 0h8.5v12H4V0z" fill="#F7FCFF"/>
    <path fill-rule="evenodd" clip-rule="evenodd" d="M12 0h4v12h-4V0zM0 0h4v12H0V0z" fill="#F50101"/>
    <path d="M7.87 4.373l.017.18c-.499.051-.768-.193-.768-.7 0-.502.263-.769.76-.772v.182c-.401.003-.587.19-.587.59 0 .398.18.56.579.52zm.222 0l-.017.18c.5.051.769-.193.769-.7 0-.502-.264-.769-.76-.772l-.001.182c.402.003.587.19.587.59 0 .398-.18.56-.578.52z" fill="#A2BB6A"/>
    <mask id="b" maskUnits="userSpaceOnUse" x="5.588" y="3.441" width="5" height="6" fill="#000">
      <path fill="#fff" d="M5.588 3.441h5v6h-5z"/>
      <path fill-rule="evenodd" clip-rule="evenodd" d="M8.043 4.453l.021-.012v.023c.096.053.339.178.496.178.2 0 .473-.201.473-.201l.456.643s-.307.643-.072 1.43c.234.785-.013 1.391-1.057 1.458 0 0-.206.04-.296.102v.057c0-.014-.008-.028-.02-.04-.014.012-.021.026-.021.04v-.057c-.09-.063-.296-.102-.296-.102C6.683 7.905 6.435 7.3 6.67 6.513c.235-.786-.072-1.429-.072-1.429l.456-.643s.272.2.472.2c.158 0 .4-.124.497-.177v-.023l.02.012z"/>
    </mask>
    <path fill-rule="evenodd" clip-rule="evenodd" d="M8.043 4.453l.021-.012v.023c.096.053.339.178.496.178.2 0 .473-.201.473-.201l.456.643s-.307.643-.072 1.43c.234.785-.013 1.391-1.057 1.458 0 0-.206.04-.296.102v.057c0-.014-.008-.028-.02-.04-.014.012-.021.026-.021.04v-.057c-.09-.063-.296-.102-.296-.102C6.683 7.905 6.435 7.3 6.67 6.513c.235-.786-.072-1.429-.072-1.429l.456-.643s.272.2.472.2c.158 0 .4-.124.497-.177v-.023l.02.012z" fill="#E8AA00"/>
    <path d="M8.064 4.44h.5v-.88l-.756.451.256.43zm-.02.013l-.247.435.246.14.247-.14-.247-.435zm.02.011h-.5v.295l.259.143.241-.438zm.969-.023l.408-.29-.295-.415-.41.303.297.402zm.456.643l.45.215.127-.264-.17-.24-.407.29zm-.072 1.43l-.48.142.48-.143zM8.36 7.971l-.032-.499-.031.002-.03.006.093.491zm-.296.102l-.284-.412-.216.15v.262h.5zm-.02.017l.35-.357-.35-.344-.35.344.35.357zm-.021-.017h.5v-.262l-.216-.15-.284.412zm-.296-.102l.093-.49-.03-.007-.031-.002-.032.5zM6.598 5.084l-.408-.289-.17.24.127.264.451-.215zm.456-.643l.297-.402-.41-.303-.295.416.408.289zm.969.023l.241.438.259-.143v-.295h-.5zm0-.023l.256-.43-.756-.45v.88h.5zm.041 0l-.256-.43c.001 0 .001 0 0 0l-.011.007.493.87a2.254 2.254 0 00.029-.017h.001l-.256-.43zm.5.023v-.023h-1v.023h1zm-.741.438c.056.031.16.086.277.134.101.041.278.106.46.106v-1c.021 0 .023.003 0-.003a.718.718 0 01-.082-.029 1.746 1.746 0 01-.172-.083l-.483.875zm.737.24c.234 0 .447-.106.55-.16a2.074 2.074 0 00.212-.133l.005-.004.002-.001v-.001a141.29 141.29 0 00-.593-.805h.001l-.003.002a.913.913 0 01-.18.099c-.026.008-.021.003.006.003v1zm.065-.412l.456.643.816-.578-.456-.643-.816.578zm.864.354l-.452-.215a.03.03 0 00-.001.003l-.002.004a.864.864 0 00-.02.046 2.605 2.605 0 00-.141.492c-.058.315-.081.755.065 1.242l.958-.286a1.666 1.666 0 01.046-1.074l-.001.001V5.3l-.452-.215zm-.551 1.572c.098.33.059.507.007.59-.043.068-.178.199-.617.227l.064.998c.605-.039 1.116-.244 1.399-.692.274-.434.24-.954.105-1.409l-.958.286zM8.36 7.972a223.97 223.97 0 00-.093-.49h-.003a.353.353 0 00-.014.002 1.907 1.907 0 00-.139.034c-.063.018-.21.06-.331.144l.568.823c-.023.017-.035.019-.018.013a.583.583 0 01.106-.03.842.842 0 01.016-.004h.002l-.094-.492zm.204.16v-.058h-1v.057h1zm-.87.316a.443.443 0 01-.13-.317h1a.557.557 0 00-.17-.397l-.7.714zm0-.714a.557.557 0 00-.171.397h1a.443.443 0 01-.13.317l-.7-.714zm.829.397v-.057h-1v.057h1zm-.796-.159l-.094.492h.002a.864.864 0 01.122.034c.017.006.005.004-.019-.013l.569-.823a1.143 1.143 0 00-.331-.144 2.103 2.103 0 00-.154-.036H7.82l-.094.49zM6.19 6.37c-.136.455-.17.975.105 1.41.283.447.794.652 1.399.691l.064-.998c-.44-.028-.574-.16-.617-.228-.052-.082-.091-.258.007-.589L6.19 6.37zm.407-1.286l-.451.215-.001-.002v-.001h-.001l.004.009a1.605 1.605 0 01.081.289c.037.203.05.477-.039.776l.958.286a2.666 2.666 0 00-.096-1.78l-.002-.004V4.87l-.452.214zm.048-.932l-.456.643.816.578.456-.643-.816-.578zm.88-.01c.028 0 .033.005.008-.003a1.073 1.073 0 01-.18-.099l-.005-.003a.007.007 0 01.002.001l-.297.403-.297.402h.001l.002.002.005.004a1.259 1.259 0 00.06.04c.037.025.09.059.152.092.102.055.316.16.55.16v-1zm.255-.115c-.04.021-.105.056-.173.083a.718.718 0 01-.081.029c-.024.006-.021.003 0 .003v1c.182 0 .358-.065.46-.106.117-.048.22-.103.277-.134l-.483-.875zm.742.437v-.023h-1v.023h1zm-.5-.023l-.256.43h.001a.19.19 0 00.008.005l.02.012.494-.87-.01-.006-.002-.001-.255.43z" fill="#E8AA00" mask="url(#b)"/>
    <mask id="d" maskUnits="userSpaceOnUse" x="6" y="3" width="5" height="6">
      <mask id="c" maskUnits="userSpaceOnUse" x="5.588" y="3.441" width="5" height="6" fill="#000">
        <path fill="#fff" d="M5.588 3.441h5v6h-5z"/>
        <path fill-rule="evenodd" clip-rule="evenodd" d="M8.043 4.453l.021-.012v.023c.096.053.339.178.496.178.2 0 .473-.201.473-.201l.456.643s-.307.643-.072 1.43c.234.785-.013 1.391-1.057 1.458 0 0-.206.04-.296.102v.057c0-.014-.008-.028-.02-.04-.014.012-.021.026-.021.04v-.057c-.09-.063-.296-.102-.296-.102C6.683 7.905 6.435 7.3 6.67 6.513c.235-.786-.072-1.429-.072-1.429l.456-.643s.272.2.472.2c.158 0 .4-.124.497-.177v-.023l.02.012z"/>
      </mask>
      <path fill-rule="evenodd" clip-rule="evenodd" d="M8.043 4.453l.021-.012v.023c.096.053.339.178.496.178.2 0 .473-.201.473-.201l.456.643s-.307.643-.072 1.43c.234.785-.013 1.391-1.057 1.458 0 0-.206.04-.296.102v.057c0-.014-.008-.028-.02-.04-.014.012-.021.026-.021.04v-.057c-.09-.063-.296-.102-.296-.102C6.683 7.905 6.435 7.3 6.67 6.513c.235-.786-.072-1.429-.072-1.429l.456-.643s.272.2.472.2c.158 0 .4-.124.497-.177v-.023l.02.012z" fill="#fff"/>
      <path d="M8.064 4.44h.5v-.88l-.756.451.256.43zm-.02.013l-.247.435.246.14.247-.14-.247-.435zm.02.011h-.5v.295l.259.143.241-.438zm.969-.023l.408-.29-.295-.415-.41.303.297.402zm.456.643l.45.215.127-.264-.17-.24-.407.29zm-.072 1.43l-.48.142.48-.143zM8.36 7.971l-.032-.499-.031.002-.03.006.093.491zm-.296.102l-.284-.412-.216.15v.262h.5zm-.02.017l.35-.357-.35-.344-.35.344.35.357zm-.021-.017h.5v-.262l-.216-.15-.284.412zm-.296-.102l.093-.49-.03-.007-.031-.002-.032.5zM6.598 5.084l-.408-.289-.17.24.127.264.451-.215zm.456-.643l.297-.402-.41-.303-.295.416.408.289zm.969.023l.241.438.259-.143v-.295h-.5zm0-.023l.256-.43-.756-.45v.88h.5zm.041 0l-.256-.43c.001 0 .001 0 0 0l-.011.007.493.87a2.254 2.254 0 00.029-.017h.001l-.256-.43zm.5.023v-.023h-1v.023h1zm-.741.438c.056.031.16.086.277.134.101.041.278.106.46.106v-1c.021 0 .023.003 0-.003a.718.718 0 01-.082-.029 1.746 1.746 0 01-.172-.083l-.483.875zm.737.24c.234 0 .447-.106.55-.16a2.074 2.074 0 00.212-.133l.005-.004.002-.001v-.001a141.29 141.29 0 00-.593-.805h.001l-.003.002a.913.913 0 01-.18.099c-.026.008-.021.003.006.003v1zm.065-.412l.456.643.816-.578-.456-.643-.816.578zm.864.354l-.452-.215a.03.03 0 00-.001.003l-.002.004a.864.864 0 00-.02.046 2.605 2.605 0 00-.141.492c-.058.315-.081.755.065 1.242l.958-.286a1.666 1.666 0 01.046-1.074l-.001.001V5.3l-.452-.215zm-.551 1.572c.098.33.059.507.007.59-.043.068-.178.199-.617.227l.064.998c.605-.039 1.116-.244 1.399-.692.274-.434.24-.954.105-1.409l-.958.286zM8.36 7.972a223.97 223.97 0 00-.093-.49h-.003a.353.353 0 00-.014.002 1.907 1.907 0 00-.139.034c-.063.018-.21.06-.331.144l.568.823c-.023.017-.035.019-.018.013a.583.583 0 01.106-.03.842.842 0 01.016-.004h.002l-.094-.492zm.204.16v-.058h-1v.057h1zm-.87.316a.443.443 0 01-.13-.317h1a.557.557 0 00-.17-.397l-.7.714zm0-.714a.557.557 0 00-.171.397h1a.443.443 0 01-.13.317l-.7-.714zm.829.397v-.057h-1v.057h1zm-.796-.159l-.094.492h.002a.864.864 0 01.122.034c.017.006.005.004-.019-.013l.569-.823a1.143 1.143 0 00-.331-.144 2.103 2.103 0 00-.154-.036H7.82l-.094.49zM6.19 6.37c-.136.455-.17.975.105 1.41.283.447.794.652 1.399.691l.064-.998c-.44-.028-.574-.16-.617-.228-.052-.082-.091-.258.007-.589L6.19 6.37zm.407-1.286l-.451.215-.001-.002v-.001h-.001l.004.009a1.605 1.605 0 01.081.289c.037.203.05.477-.039.776l.958.286a2.666 2.666 0 00-.096-1.78l-.002-.004V4.87l-.452.214zm.048-.932l-.456.643.816.578.456-.643-.816-.578zm.88-.01c.028 0 .033.005.008-.003a1.073 1.073 0 01-.18-.099l-.005-.003a.007.007 0 01.002.001l-.297.403-.297.402h.001l.002.002.005.004a1.259 1.259 0 00.06.04c.037.025.09.059.152.092.102.055.316.16.55.16v-1zm.255-.115c-.04.021-.105.056-.173.083a.718.718 0 01-.081.029c-.024.006-.021.003 0 .003v1c.182 0 .358-.065.46-.106.117-.048.22-.103.277-.134l-.483-.875zm.742.437v-.023h-1v.023h1zm-.5-.023l-.256.43h.001a.19.19 0 00.008.005l.02.012.494-.87-.01-.006-.002-.001-.255.43z" fill="#fff" mask="url(#c)"/>
    </mask>
    <g mask="url(#d)">
      <path fill="#67BAFF" d="M6.652 4.364h1.391v1.909H6.652z"/>
      <path fill="#fff" d="M8.043 4.364h1.391v1.909H8.043z"/>
      <path fill="#C51918" d="M6.478 6.455h3.478v2.182H6.478z"/>
      <path d="M8.717 6.137h-.174V4.83h.174v1.307z" fill="#C9A951"/>
      <path d="M8.647 5.543l-.085.152-.3-.168.085-.152.3.168zm0-.363l-.085.151-.3-.168.085-.151.3.167z" fill="#C9A951"/>
      <path d="M8.61 5.543l.085.152.3-.168-.085-.152-.3.168zm0-.363l.085.151.3-.168-.085-.151-.3.167z" fill="#C9A951"/>
      <path fill-rule="evenodd" clip-rule="evenodd" d="M7.688 4.785c-.105.092-.037.427-.209.427s-.413-.251-.474-.086c-.061.166 0 .11 0 .251 0 .141-.146.533-.073.6.073.066.147.24.134.159-.013-.082-.068-.202-.045-.333-.022-.134.123-.264.123-.264s-.016.14-.027.192c0 0-.048.105-.028.175 0 0 .049.197.069.21 0 0 .013-.465.028-.542.015-.077.122.086.157.068 0 0 .012.319-.006.357 0 0-.038.075-.024.1 0 0 .035.087.065.061l.016-.087s-.018-.051.01-.168c0 0 .028-.257.04-.201 0 0-.005.121.009.184 0 0 .021.155.026.172 0 0 .105.15.108.087 0 0-.101-.12-.08-.212 0 0-.057-.258.023-.316 0 0 .214-.099.226-.267 0 0 .031-.193.037-.281 0 0-.047-.026.05-.072 0 0 .155-.06.058-.143" fill="#D18219"/>
    </g>
    <path d="M6.1 3.843l.387.31c-.504.829-.387 1.609-.387 2.11 0 .925.695 1.992 1.905 1.992.9 0 1.878-.7 2.109-1.556.181-.674-.236-2.257-.55-2.67l.372-.186c.488.642 1.414 2.111 1.143 3.116-.352 1.306-1.735 2.296-3.074 2.296C6.13 9.255 5.1 7.673 5.1 6.263c0-.716.41-1.449 1-2.42z" fill="#00A854"/>
    <path fill-rule="evenodd" clip-rule="evenodd" d="M8 7.6c.552 0 1-.224 1-.5s-.448-.5-1-.5-1 .224-1 .5.448.5 1 .5z" fill="#FDD200"/>
    <path fill="#CA0000" d="M6.5 8h3v1h-3z"/>
  </g>
</svg>
