<svg width="16" height="12" fill="none" xmlns="http://www.w3.org/2000/svg">
  <mask id="a" maskUnits="userSpaceOnUse" x="0" y="0" width="16" height="12">
    <path fill="#fff" d="M0 0h16v12H0z"/>
  </mask>
  <g mask="url(#a)">
    <path fill-rule="evenodd" clip-rule="evenodd" d="M0 0v12h16V0H0z" fill="#BF2714"/>
    <mask id="b" maskUnits="userSpaceOnUse" x="0" y="0" width="16" height="12">
      <path fill-rule="evenodd" clip-rule="evenodd" d="M0 0v12h16V0H0z" fill="#fff"/>
    </mask>
    <g mask="url(#b)">
      <path fill-rule="evenodd" clip-rule="evenodd" d="M0-1v7h16v-7H0z" fill="#3D58DB"/>
    </g>
    <path fill-rule="evenodd" clip-rule="evenodd" d="M0 0v12l9-6-9-6z" fill="#F7FCFF"/>
    <mask id="c" maskUnits="userSpaceOnUse" x="0" y="0" width="9" height="12">
      <path fill-rule="evenodd" clip-rule="evenodd" d="M0 0v12l9-6-9-6z" fill="#fff"/>
    </mask>
    <g mask="url(#c)" fill-rule="evenodd" clip-rule="evenodd" fill="#FECA00">
      <path d="M6.803 5.46l.638.246.38-.447.01.598.586.19-.618.21.041.55-.407-.421-.64.122.378-.485-.368-.563zm-6 3l.586.26.431-.46-.041.61.638.178-.67.223.093.535-.466-.382-.58.084.325-.471-.316-.577zm0-6l.648.24.37-.44.02.59.576.198-.607.203.03.555-.404-.402-.643.104.389-.492-.38-.556zM4.06 7.266a1.25 1.25 0 100-2.5 1.25 1.25 0 000 2.5z"/>
      <path d="M3.913 4.12l.067.803a.112.112 0 00.221.004l.09-.8a.191.191 0 00-.214-.221.19.19 0 00-.164.214zm-.21.388l.105.35c.01.032.042.052.078.045a.056.056 0 00.042-.067l-.083-.35a.079.079 0 00-.098-.058.065.065 0 00-.043.08zm.562.364c-.008.03.01.06.043.07a.067.067 0 00.077-.045l.116-.345a.065.065 0 00-.05-.084.079.079 0 00-.09.056l-.096.348zm1.039-.351l-.559.617a.112.112 0 00.154.159l.667-.505a.19.19 0 10-.262-.271zm-.17 1.31l.834-.065a.19.19 0 11-.006.377l-.832-.091a.112.112 0 01.004-.221zm.433 1.329l-.648-.564a.112.112 0 00-.16.153l.537.673a.19.19 0 10.271-.262zm-1.341-.176l.05.843a.19.19 0 11-.378-.007l.107-.84a.112.112 0 01.221.004zm-1.315.456l.55-.67a.112.112 0 00-.154-.16l-.658.558a.19.19 0 10.262.272zm.161-1.363l-.84.069a.19.19 0 11.007-.377l.837.086a.112.112 0 01-.004.222zM2.575 4.76l.712.55a.112.112 0 00.16-.153l-.6-.659a.19.19 0 10-.271.262zm2.095.209l.173-.32a.065.065 0 01.095-.023c.033.025.043.07.02.106l-.189.307a.056.056 0 01-.076.018.067.067 0 01-.023-.088zm.879.584l-.35.104a.067.067 0 00-.046.079c.008.03.038.049.068.041l.35-.082a.079.079 0 00.058-.098.065.065 0 00-.08-.044zm-.462.966l.32.174a.065.065 0 01.022.094.079.079 0 01-.105.021l-.307-.189A.056.056 0 015 6.543a.067.067 0 01.088-.023zm-.585.88l-.104-.35a.067.067 0 00-.078-.046.056.056 0 00-.042.067l.083.35a.079.079 0 00.098.059.065.065 0 00.043-.08zm-.965-.462l-.174.32a.065.065 0 01-.095.022.079.079 0 01-.02-.106l.189-.306a.056.056 0 01.077-.018c.03.02.039.058.023.088zm-.88-.585l.35-.104a.067.067 0 00.046-.079.056.056 0 00-.067-.041l-.351.083a.079.079 0 00-.058.097c.01.034.046.054.08.044zm.462-.966l-.32-.173a.065.065 0 01-.022-.095.079.079 0 01.105-.021l.307.19c.026.016.034.05.018.076a.067.067 0 01-.088.023zm1.864-.084c-.027.016-.036.05-.02.08a.067.067 0 00.086.023l.327-.163A.065.065 0 005.4 5.15a.079.079 0 00-.104-.025l-.313.178zm.133.855a.056.056 0 01.069-.042l.347.095a.079.079 0 01.055.1.065.065 0 01-.082.04l-.345-.116a.067.067 0 01-.044-.077zm-.363.675a.057.057 0 00-.079-.019.067.067 0 00-.023.086l.162.326a.065.065 0 00.094.025.079.079 0 00.025-.105l-.179-.313zm-.855.133c.033.009.051.04.043.07l-.095.347a.079.079 0 01-.1.054.065.065 0 01-.04-.081l.116-.346a.067.067 0 01.076-.044zm-.675-.362c.027-.015.037-.05.02-.08a.067.067 0 00-.086-.022l-.326.162a.065.065 0 00-.025.094.079.079 0 00.105.024l.312-.178zm-.132-.855c-.01.033-.04.05-.07.042l-.347-.095a.079.079 0 01-.055-.1.065.065 0 01.082-.04l.346.116c.032.01.05.044.044.077zm.362-.675c.015.027.05.036.079.019a.067.067 0 00.023-.086l-.162-.326a.065.065 0 00-.094-.025.079.079 0 00-.025.105l.179.313z"/>
    </g>
  </g>
</svg>
