<svg width="16" height="12" fill="none" xmlns="http://www.w3.org/2000/svg">
  <path fill="#C00" d="M0 0h4v4H0z"/>
  <path d="M4 .52V0h-.49L0 3.48V4h.49L4 .52z" fill="#08672F"/>
  <path d="M0 .52V0h.49L4 3.48V4h-.499L0 .52z" fill="#08672F"/>
  <path d="M0 1.604L4 1.6v.796L0 2.4v-.796z" fill="#fff"/>
  <path d="M1.6 0h.796L2.4 4h-.796L1.6 0zM0 4h4v4H0V4z" fill="#fff"/>
  <path fill="#000" d="M1.2 4.8h.5v.5h-.5zm0 2h.5v.5h-.5zm0-1h.5v.5h-.5zM1 8h.5v.5H1zm1.2-2.2h.5v.5h-.5zM2 8h.5v.5H2zm.2-3.2h.5v.5h-.5zm0 2h.5v.5h-.5z"/>
  <path d="M0 12h4V8H0v4z" fill="#C00"/>
  <path d="M4 0h12v12H4V0z" fill="#0092C8"/>
  <path d="M1.335 9.077c-.038-.046 0-.131.033-.095-.017-.035.012-.062.025-.045-.006-.028.022-.047.035-.02-.004-.032.037-.05.048-.016 0-.031.041-.056.05-.01.008-.035.053-.04.057.01.013-.03.047-.027.049.015.014-.02.052.01.046.045.023-.006.052.044.023.08.05-.028.063.064.032.106.016.01.017.001.031.01.014.007.04.02.063.025.02 0 .098-.003.114-.005.015-.003.037-.011.063-.02.027-.01.066-.01.101-.02.029-.003.82.014.843.012.022-.003.056-.026.054-.054-.002-.028-.028-.049-.054-.051a1.499 1.499 0 00-.186.002.168.168 0 00-.077.036c-.008.006-.022.028-.034.042-.011.01-.042.011-.042-.002 0-.008-.003.002-.01.005-.01.007-.055.008-.053 0 .003-.01 0-.012-.012-.002a.15.15 0 01-.082.002c.006-.012.006-.01-.012-.001-.012.005-.06.01-.064 0 0-.009-.006-.005-.013-.003-.055.016-.06-.002-.052-.01.009-.007.022-.051.008-.049l-.131.026c-.03.005-.246 0-.275-.003-.03-.002-.063-.032-.065-.074-.003-.067.049-.084.08-.094a.69.69 0 01.142-.026c.032 0 .122.012.146.002a.817.817 0 01.12-.041c.031-.003.12.008.163.062-.022.01-.033.016-.008.007l.143-.032c.08-.004.059.009.02.02-.013.042-.129.103-.165.11a.517.517 0 01-.133-.001c-.017-.002-.1-.006-.13-.026a.378.378 0 00-.178-.057c-.037 0-.143.012-.142.05 0 .069.098.072.14.07.042-.003.147-.008.177-.02a.426.426 0 01.129-.017c.035 0 .086.009.102.006.016-.003.052-.003.07-.016a.178.178 0 01.094-.026c.039 0 .324-.012.363-.01.056 0 .095.065.096.12 0 .025-.012.063-.022.069a.59.59 0 01.075.01c.027.005.07.036.075.065a.2.2 0 00-.083-.035l-.678-.001a.356.356 0 01.26.187c.023.038.08.023.1.018.021-.005.046-.028.063-.046.018-.018.045-.023.057-.018.028-.003.032.028.022.043-.01.016.002.01.03.01.028 0 .052.01.069.033-.016.016-.024.003-.001.006.023.002.05.046.033.059-.015.007-.019.005 0 .007.029.003.037.022.04.057-.024.005-.012-.003 0 .01.013.012.03.069-.013.071-.016-.008-.016-.01-.013.008.004.018-.005.061-.03.061-.033.007-.064-.013-.068-.036-.003-.023-.003.045-.051.055-.045.011-.07-.016-.073-.03-.004-.012-.002-.002-.02-.004-.017-.003-.039-.003-.048-.033 0-.018.003-.042.034-.045.014-.003.018-.022.008-.024-.01-.003-.002-.041.02-.031.023.01.076.013.088.025.012.013.016-.01-.003-.03-.02-.02-.137-.062-.168-.046a.423.423 0 01-.218.028c-.02-.005-.081.009-.11-.084a.204.204 0 00-.152-.148c-.198-.02-.188-.004-.059.002 0 .018-.005.054.016.06.035-.005.108-.022.125-.006.018.015.035.028.032.064-.004.035.001.025-.014.04-.016.016-.01.046.015.057.025.01.035.023.051.038.016.015-.007.046-.02.036-.015-.01-.015-.01-.017.01-.001.02-.019.059-.048.062-.007-.003-.005-.013-.004-.021.002-.018-.006.022-.015.033-.006.008-.056.022-.07.015.007-.016.003-.01-.01-.002-.011.005-.076.014-.047-.018.007-.012-.01.015-.02.02-.008.005-.047.008-.047-.007-.012.01-.04.01-.045.002-.009-.01-.01.008-.025.01-.016.003-.05-.002-.052-.023-.002-.02.003-.007-.016-.005-.047.033-.07-.012-.07-.028 0-.015-.002-.033.004-.043.005-.01-.033-.014-.022-.034.014-.024.027-.042.053-.038.012.003.01-.005.005-.015-.005-.01.014-.015.037-.005.023.01.039.036.046.059.007.023.06.005.084.007.022.003.024-.038.01-.05-.014-.014-.052-.06-.068-.075-.016-.015-.005-.069.009-.082.081-.058.036-.076.007-.071a.315.315 0 00-.131.065c-.025.028-.215.166-.233.181-.017.016-.043.02-.053.002-.01-.018-.018-.006-.016.02.014.097-.068.127-.083.126a.07.07 0 01-.034-.016c-.01.054-.056.06-.097.054 0-.006.008-.018.003-.014-.013.019-.054.017-.09.014-.002-.011.012-.025.005-.017-.012.023-.032.02-.066.017 0-.005.016-.022.008-.012-.014.017-.045.011-.068.012-.003-.004.012-.03-.002-.013-.013.015-.04.018-.067.014-.005-.013.006-.013.008-.021.007-.013-.003 0-.012 0-.009 0-.02.003-.026-.01-.005-.013-.002.013-.007.02-.006.006-.011.02-.029.025-.017.005-.063.01-.07-.013-.01-.01-.014-.033-.007-.046.007-.013-.033.025-.05.028-.052.01-.058-.074-.036-.082.023-.007.02-.02.007-.03C.967 9.59.96 9.55.976 9.537c.016-.013.052-.02.075-.005.014.01.043.043.037.018-.004-.016.006-.036.017-.045.01-.009.04-.011.048.009.018.047.031.067.054.066a.833.833 0 01.133-.03c.025-.006.156-.02.156-.032-.079.029-.11-.008-.12-.006-.008.003-.03-.008-.03-.015 0-.016.02-.014-.008-.009-.016-.001-.031-.002-.046-.02-.002-.01.02-.042.027-.07-.018-.005-.058.03-.072.06-.009-.012-.012-.001-.045.007a.07.07 0 01-.055-.003c-.014-.007-.069-.051-.042-.057l-.02-.007c-.02-.009-.038-.026-.032-.03-.005-.008.005-.008-.003-.01-.01-.002-.036-.022-.03-.03l-.028-.015C.979 9.306.967 9.28.965 9.266c-.011.001-.035-.021-.024-.028C.922 9.224.907 9.2.919 9.192c-.01-.009-.018-.025-.01-.019-.012-.014-.008-.03 0-.03.009 0 .006-.04-.01-.04s-.041.013-.06 0c-.015-.013-.028-.067-.014-.09.014-.023.042-.048.056-.046.014.003.007.008.004-.015-.004-.023.02-.04.035-.046.018-.009.054-.003.065.008.01.01.014.01.014-.008 0-.013.013-.02.025-.022.02-.005.036 0 .043.01.01.016.017.035.003.05-.014.016-.001.003.021-.002.015-.006.041.001.046.018.006.017.01.048-.005.063-.016.016-.039.054-.027.067.013.013.051.069.06.077.009.007.02.025.033.023l.042-.008c.049-.01.07-.016.008-.014.014-.02.044-.027.057-.03-.012-.018.03-.056.03-.06zm0 1.393c-.038-.047 0-.132.033-.096-.017-.035.012-.062.025-.045-.006-.028.022-.047.035-.02-.004-.032.037-.05.048-.016 0-.031.041-.056.05-.01.008-.035.053-.04.057.01.013-.03.047-.027.049.015.014-.02.052.01.046.044.023-.005.052.045.023.082.05-.029.063.064.032.105.016.01.017.002.031.01a.27.27 0 00.063.025c.02 0 .098-.003.114-.005.015-.003.037-.012.063-.02.027-.01.066-.01.101-.02.029-.003.82.014.843.012.022-.003.056-.026.054-.054-.002-.028-.028-.049-.054-.051a1.508 1.508 0 00-.186.002.168.168 0 00-.077.036c-.008.006-.022.028-.034.042-.011.01-.042.011-.042-.002 0-.008-.003.002-.01.005-.01.007-.055.008-.053 0 .003-.01 0-.012-.012-.002a.149.149 0 01-.082.002c.006-.012.006-.01-.012-.001-.012.005-.06.01-.064 0 0-.009-.006-.005-.013-.003-.055.016-.06-.002-.052-.01.009-.007.022-.051.008-.049l-.131.026c-.03.005-.246 0-.275-.003-.03-.002-.063-.032-.065-.074-.003-.067.049-.084.08-.094a.692.692 0 01.142-.026c.032 0 .122.012.146.002a.818.818 0 01.12-.041c.031-.003.12.008.163.062-.022.01-.033.016-.008.007l.143-.032c.08-.004.059.009.02.02-.013.042-.129.102-.165.11a.517.517 0 01-.133-.001c-.017-.002-.1-.006-.13-.027a.379.379 0 00-.178-.056c-.037 0-.143.012-.142.05 0 .069.098.072.14.07.042-.003.147-.008.177-.02a.429.429 0 01.129-.017c.035 0 .086.009.102.006.016-.002.052-.003.07-.016a.178.178 0 01.094-.026c.039 0 .324-.012.363-.01.056 0 .095.065.096.12 0 .025-.012.063-.022.069a.59.59 0 01.075.01c.027.005.07.036.075.065a.201.201 0 00-.083-.035l-.678-.001a.356.356 0 01.26.187c.023.038.08.023.1.018.021-.005.046-.028.063-.046.018-.018.045-.023.057-.018.028-.003.032.028.022.043-.01.015.002.01.03.01.028 0 .052.01.069.033-.016.016-.024.003-.001.006.023.002.05.046.033.059-.015.008-.019.005 0 .007.029.003.037.022.04.057-.024.005-.012-.003 0 .01.013.012.03.069-.013.071-.016-.008-.016-.009-.013.008.004.018-.005.061-.03.061-.033.007-.064-.013-.068-.036-.003-.023-.003.045-.051.055-.045.011-.07-.016-.073-.03-.004-.012-.002-.002-.02-.004-.017-.003-.039-.003-.048-.034 0-.017.003-.04.034-.044.014-.003.018-.022.008-.024-.01-.003-.002-.041.02-.031.023.01.076.013.088.025.012.013.016-.01-.003-.03-.02-.02-.137-.061-.168-.046a.422.422 0 01-.218.028c-.02-.005-.081.009-.11-.084a.204.204 0 00-.152-.148c-.198-.02-.188-.004-.059.002 0 .018-.005.054.016.06.035-.005.108-.022.125-.006.018.015.035.028.032.063-.004.036.001.026-.014.041-.016.016-.01.046.015.057.025.01.035.023.051.038.016.015-.007.046-.02.036-.015-.01-.015-.01-.017.01-.001.02-.019.059-.048.062-.007-.003-.005-.013-.004-.021.002-.018-.006.022-.015.033-.006.008-.056.022-.07.015.007-.016.003-.01-.01-.002-.011.005-.076.014-.047-.018.007-.012-.01.015-.02.02-.008.005-.047.008-.047-.007-.012.01-.04.01-.045.002-.009-.01-.01.008-.025.01-.016.003-.05-.002-.052-.023-.002-.02.003-.007-.016-.005-.047.033-.07-.012-.07-.028 0-.015-.002-.033.004-.043.005-.01-.033-.014-.022-.034.014-.024.027-.042.053-.038.012.003.01-.005.005-.015-.005-.01.014-.015.037-.005.023.01.039.036.046.059.007.023.06.005.084.007.022.003.024-.038.01-.05-.014-.014-.052-.06-.068-.075-.016-.015-.005-.069.009-.082.081-.058.036-.076.007-.071a.315.315 0 00-.131.065c-.025.028-.215.166-.233.181-.017.016-.043.02-.053.002-.01-.018-.018-.005-.016.02.014.096-.068.127-.083.126a.07.07 0 01-.034-.016c-.01.054-.056.06-.097.054 0-.006.008-.018.003-.014-.013.019-.054.017-.09.014-.002-.011.012-.025.005-.017-.012.023-.032.02-.066.017 0-.005.016-.022.008-.012-.014.017-.045.011-.068.012-.003-.004.012-.03-.002-.013-.013.015-.04.018-.067.014-.005-.013.006-.013.008-.021.007-.013-.003 0-.012 0-.009 0-.02.003-.026-.01-.005-.013-.002.013-.007.02-.006.006-.011.02-.029.025-.017.005-.063.01-.07-.013-.01-.01-.014-.033-.007-.046.007-.013-.033.025-.05.028-.052.01-.058-.074-.036-.082.023-.007.02-.02.007-.03-.012-.01-.019-.051-.003-.064.016-.013.052-.02.075-.005.014.01.043.043.037.018-.004-.016.006-.036.017-.044.01-.01.04-.012.048.008.018.047.031.067.054.066a.83.83 0 01.133-.03c.025-.006.156-.02.156-.032-.079.029-.11-.008-.12-.006-.008.003-.03-.008-.03-.015 0-.016.02-.014-.008-.009-.016-.001-.031-.002-.046-.02-.002-.01.02-.042.027-.07-.018-.005-.058.03-.072.06-.009-.012-.012-.001-.045.007a.07.07 0 01-.055-.003c-.014-.007-.069-.051-.042-.057a.069.069 0 00-.02-.007c-.02-.009-.038-.026-.032-.03-.005-.008.005-.008-.003-.01-.01-.002-.036-.022-.03-.03l-.028-.015c-.013-.008-.025-.034-.027-.047-.011.001-.035-.021-.024-.028-.019-.014-.034-.038-.022-.046-.01-.009-.018-.025-.01-.019-.012-.014-.008-.03 0-.03.009 0 .006-.04-.01-.04s-.041.013-.06 0c-.015-.013-.028-.067-.014-.09.014-.023.042-.048.056-.046.014.003.007.008.004-.015-.004-.023.02-.04.035-.046.018-.009.054-.003.065.008.01.01.014.01.014-.008 0-.013.013-.02.025-.022.02-.005.036 0 .043.01.01.016.017.035.003.05-.014.016-.001.003.021-.002.015-.006.041.001.046.018.006.018.01.048-.005.063-.016.016-.039.054-.027.067.013.013.051.069.06.077.009.007.02.025.033.023l.042-.008c.049-.01.07-.016.008-.014.014-.02.044-.027.057-.03-.012-.018.03-.056.03-.06z" fill="#FFCF00" stroke="#650000" stroke-width=".05"/>
  <path fill-rule="evenodd" clip-rule="evenodd" d="M9.823 1.549c.185-.046.485-.061.646-.034.032.007.09.012.149.018.095.009.19.018.176.03a1.446 1.446 0 00-.148.396c0 .021.755.546.787.546.042 0 .106.076.089.106a1.05 1.05 0 01-.104.105c-.046.044-.122.27-.194.522a.672.672 0 01.165-.135c.11-.074 1.082-.812 1.365-1.036.032-.023-.048-.038-.215-.036a1.83 1.83 0 00-.42.057c-.225.057-.393-.118-.465-.193a.278.278 0 00-.031-.03c-.063-.043-.154-.174-.154-.223 0-.01.061-.002.141.02.186.052.35.05.562-.005.19-.049.392-.06.605-.034l.028.004c.038.007.063.01.078.01.014.092.105.389.122.403.034.03.779.323.836.33.084.01.118.044.118.116 0 .07-.086.135-.209.158-.143.028-.502.442-.753.87-.17.287-.262.5-.262.604 0 .106.063.51.129.817.04.182.05.213.071.184.024-.03.087-.034.51-.034h.485l.164-.286c.09-.158.163-.291.158-.294a9.572 9.572 0 00-.546-.044 19.24 19.24 0 01-.545-.04 8.881 8.881 0 01.23-.43l.235-.422.476.08.15.025c.2.034.361.06.387.066.046.008.063 0 .1-.066a.41.41 0 00.027-.058v.01c-.005.137-.02.483-.168.77l-.365.695v.48h-.084a.45.45 0 00-.084.005l.016.099.015.085a.635.635 0 01.02.171c-.007.01-.062.02-.121.02l-.11.001-.061.16a6.55 6.55 0 01-.618.997l-.051.065.118.055c.167.076.34.258.454.478.088.174.093.186.093.37 0 .18-.049.41-.089.413l-.51.078-.233.036c-.4.061-.738.108-.753.103-.044-.016-.15-.194-.186-.31l-.013-.043c-.014-.044-.026-.082-.031-.093-.004-.017-.087.013-.256.1a3.44 3.44 0 01-.852.306 3.73 3.73 0 01-2.07-.127 6.052 6.052 0 01-.84-.416c-.39-.241-.551-.383-1.203-1.066-.211-.22-.266-.264-.41-.336-.145-.072-.187-.083-.314-.083-.118 0-.15-.006-.175-.04-.053-.074-.032-.16.07-.27 0 0 .031-.072.02-.079l-.247-.16c-.19-.098.499-1.244.784-1.544.139-.148.145-.157.145-.258 0-.203.13-.603.266-.836.064-.105.07-.124.049-.173-.04-.089 0-.14.257-.324.51-.365.808-.59.817-.615.015-.047-.207-.03-.378.03-.342.12-.65.148-.798.071-.067-.033-.17-.152-.17-.196 0-.007.07-.007.156 0 .064.004.051-.1.04-.193a.829.829 0 01-.007-.086c0-.03.003-.053.007-.053l.066.023.022.009c.15.052.378.04.67-.04.143-.04.324-.079.4-.087 0 0 .43-.08.368-.013-.034.036-.07.127-.104.256-.03.11-.05.2-.05.203l.065.013.424.086c.32.066.509.095.555.087.08-.017.131.017.131.087 0 .059-.042.095-.211.173a1.796 1.796 0 00-.264.16 3.833 3.833 0 00-.618.648.613.613 0 00-.099.166c-.01.037-.01.078-.01.153 0 .178.041.449.096.635l.034.116.059-.159a2.51 2.51 0 01.325-.62c.095-.13.112-.166.084-.177-.044-.017 0-.188.038-.211.038-.024.292-.248.562-.502l.49-.46v-.123c0-.119.001-.123.065-.136a1.06 1.06 0 01.143-.012c.061-.002.1-.024.203-.117.067-.063.118-.122.107-.13a.63.63 0 00-.187-.024c-.137-.006-.23.006-.45.057-.31.074-.462.08-.606.032-.099-.034.049-.093.142-.119 0 0-.22-.378-.186-.368.291.09.412.093.663.03zm4.95 2.02c-.004-.011-.005.007-.006.047.007-.02.01-.038.007-.047zM12.89 1.615c-.008-.008-.009.001-.006.023.02 0 .02-.006.006-.023zm-1.694 1.728c-.093.333-.174.674-.174.674l.074-.16c.04-.09.1-.451.1-.506v-.008zm.188-.762l-.002-.001.002.001zm-.002-.001c-.043-.028-.771-.54-.771-.54l-.025.084c-.024.08.595.363.759.439l.037.017zm-2.74-.168c.443.09.452.093.37.116l-.213.06-.258.073-.41.115.015-.057c.047-.195.101-.383.112-.383.008 0 .18.034.384.076zm-.739.427l.043-.152.052-.178c.007-.013.007-.025.005-.025-.007 0-.69.501-.707.516a.563.563 0 00.135-.03l.308-.087.164-.044zm3.084 1.273l-.053.174a4.38 4.38 0 00-.142.691.661.661 0 01-.11.336 1.565 1.565 0 00-.103.2c-.056.129-.062.036-.071-.259a3.682 3.682 0 01.078-.941c.044-.2.316-.374.346-.313l.055.112zm-2.662.685c.017-.072.011-.116-.031-.24a2.302 2.302 0 01-.118-.555c.004-.21-.018-.224-.097-.023-.135.302-.165.433-.165.746 0 .172.01.322.027.375.024.08.034.09.089.09h.063v.265c0 .22-.004.264-.031.264-.045 0-.04.024.023.174.101.243.633.81.58.706-.173-.357-.422-1.083-.382-1.487.013-.124.032-.268.042-.315zm4.525.385c.027.108.027.127-.01.237a1.486 1.486 0 00-.014.04.816.816 0 01-.109.241c-.1.11-.101.112-.127.066-.1-.193-.139-.681-.075-1.013.027-.146.135-.535.147-.535.004 0 .017.078.032.173.027.195.11.614.156.791zM6.647 4.51l.137.467s-.188-.391-.192-.431l.055-.036zm1.234.662c0 .01-.086.019-.192.019h-.192l-.525.008c.003-.014.15-.074.32-.145h.001l.104-.043c.197.01.393.023.413.049a.49.49 0 01.071.112zm-.484-.16l-.08-.005c-.171-.008-.327-.016-.345-.03l.616-.125.235-.047c-.009.03-.217.12-.426.206zm-.391.707l-.138-.215c0-.176-.008-.24-.046-.328a.553.553 0 00-.067-.135c-.004 0-.03.1-.068.247l-.095.357-.158.58.063.023c.036.013.16.078.276.148.119.07.23.127.25.127.067 0 .075-.087.033-.267a1.877 1.877 0 01-.046-.35l-.004-.187zm3.821.176c.049.245.137.476.275.717.065.114.116.211.111.215a.778.778 0 01-.255.043c-.03-.02-.148-.275-.228-.495-.09-.248-.173-.59-.158-.654a1.84 1.84 0 01.101-.234l.087-.18.017.207c.008.114.03.286.05.38zm1.682.03c.005-.036-.019-.058-.101-.1-.11-.055-.403.125-.403.125.067.14.251.383.3.383.012 0 .095-.064.185-.142.175-.152.194-.203.082-.214-.056-.006-.067-.014-.063-.053zm-.264.46l-.054.039c-.074.05-.56.29-.57.28a5.99 5.99 0 01.114-.422l.103-.148c.021.04.081.055.143.07.055.014.11.027.142.059l.123.122zm-.966.379a5.63 5.63 0 00.127-.364c.059-.19-.136-.044-.16.127-.016.112.005.265.033.237zm-2.3-.379c-.049.15-.097.284-.106.292-.008.01-.053 0-.099-.023-.07-.036-.087-.057-.11-.15-.025-.104-.025-.112.028-.203a.457.457 0 01.278-.22c.114-.028.12-.028.11.002-.005.01-.03.086-.063.186l-.038.116zm.69.305a1.821 1.821 0 01-.15-.391c-.03-.144-.044-.176-.082-.186-.085-.024-.093-.013-.148.171l-.068.22-.04.127-.05.163.215.044c.116.023.262.05.323.057l.11.013-.11-.218zm.234-.4l.22.106-.098.11a.788.788 0 00-.133.207.579.579 0 01-.048.112c-.038.043-.274-.507-.274-.636 0-.045.078-.02.333.101zm.68.635l.263-.02c.043-.004-.268-.238-.5-.38a1.313 1.313 0 00-.152-.087.83.83 0 00-.093.093.69.69 0 00-.179.322l-.013.065.216.013c.118.006.325.002.457-.006z" fill="#FFCF00"/>
  <path d="M10.469 1.515l.03-.147h-.005l-.025.147zm-.646.034l-.037-.145.037.145zm.795-.016l.014-.15-.014.15zm.176.03l-.101-.11-.002.002.103.109zm.728 1.048l.125.083.005-.009-.13-.074zm-.104.105l-.101-.11.101.11zm-.194.522l-.144-.041.266.129-.122-.088zm.165-.135l-.084-.124.084.124zm1.365-1.036l-.089-.12-.004.003.093.117zm-.215-.036l-.002-.15.002.15zm-.42.057l-.036-.145.036.145zm-.465-.193l-.112.1.004.003.108-.103zm0 0l.113-.1-.002-.002-.11.102zm0 0l.111-.102-.002-.002-.109.104zm-.031-.03l.083-.126-.083.125zm-.013-.204l.041-.144h-.002l-.039.144zm.562-.004l-.038-.145.038.145zm.605-.034l.024-.148h-.006l-.018.148zm.028.004l.026-.147h-.002l-.024.147zm0 0l-.026.148h.002l.024-.147zm.2.413l.1-.113-.006-.004-.094.117zm.836.33l.019-.15h-.003l-.016.15zm-.09.274l-.029-.147.028.147zm-.754.87l-.13-.076.13.076zm-.133 1.42l-.147.032v.001l.147-.032zm.071.185l-.118-.093-.004.006.122.087zm.995-.034v.15h.086l.043-.075-.13-.075zm.164-.286l.13.075-.13-.075zm.158-.294l-.106.107.018.017.021.01.067-.134zm-.546-.044l-.01.15.01-.15zm-.545-.04l-.134.067.023.045.044.022.067-.134zm.23-.43l-.13-.072.13.073zm.235-.422l.024-.148-.104-.018-.052.093.132.073zm.476.08l-.024.148.024-.148zm.15.025l-.026.148.025-.148zm0 0l-.025.148.025-.148zm0 0l.025-.148-.025.148zm0 0l.025-.148-.025.148zm0 0l-.024.148.025-.148zm0 0l.025-.148-.024.148zm.387.066l-.03.147h.003l.027-.147zm.1-.066l.13.076.002-.003-.131-.073zm.027-.048l-.15-.006.15.006zm-.168.77l.133.07v-.001l-.133-.07zm-.365.695l-.133-.07-.017.033v.037h.15zm0 .48v.15h.15v-.15h-.15zm-.152.104l.148-.026-.148.026zm.015.085l.148-.026-.148.026zm.02.171l-.12-.09-.005.006-.005.007.13.077zm-.121.02V5.8h-.003l.003.15zm-.11.001l-.003-.15-.1.002-.037.095.14.053zm-.061.16l.137.062.003-.008-.14-.053zm-.618.997l.118.091.001-.001-.12-.09zm-.051.065l-.119-.091-.114.148.17.08.063-.137zm.118.055l-.063.136.063-.136zm.454.478l.133-.068-.133.068zm.004.783l-.008-.15h-.014l-.014.004.036.146zm-.51.078l-.023-.148.023.148zm-.233.036l-.022-.148.022.148zm-.753.103l-.054.141.013.004.04-.145zm-.186-.31l.144-.045v-.001l-.144.046zm-.013-.043l.142-.046v-.002l-.143.048zm0 0l-.144.044.001.003.143-.047zm0 0l.143-.045-.143.045zm-.031-.093l-.146.037.003.011.005.011.138-.059zm-.256.1l.068.134h.001l-.069-.134zm-.852.306l.033.147-.033-.147zm-2.07-.127l-.052.141h.001l.05-.14zm-.84-.416l.079-.128-.08.128zM6.784 7.058l.108-.104-.108.104zm-.41-.336l.068-.134H6.44l-.066.134zm-.489-.123l-.122.087.002.003.12-.09zm.07-.27l.11.101.017-.018.01-.023-.137-.06zm.02-.079l-.081.126.081-.126zm-.247-.16l.082-.126-.007-.005-.006-.003-.069.133zm.784-1.544l.109.103-.11-.103zm.411-1.094l-.128-.077-.001.001.13.076zm.049-.173l.137-.06v-.002l-.137.062zm.257-.324l.087.122-.087-.122zm.817-.615l.142.047v-.002l-.142-.045zm-.378.03l-.049-.142.05.142zm-.798.071l.07-.133h-.002l-.068.133zm-.014-.196l.01-.15-.01.15zm.04-.193l-.149.014v.004l.15-.018zm0 0l.15-.014v-.003l-.15.017zm.066-.116l.051-.14-.051.14zm0 0l-.052.141.052-.14zm0 0l.051-.14-.051.14zm0 0l-.052.141.052-.14zm0 0l.052-.14h-.001l-.051.14zm0 0l-.052.14v.001l.052-.14zm.022.009l-.051.14.002.001.05-.141zm.67-.04l.04.144-.04-.145zm.4-.087l.017.15.01-.003-.027-.147zm.368-.013l.109.103-.11-.103zm-.104.256l.145.039v-.001l-.145-.038zm-.05.203h-.15v.15h.15v-.15zm.065.013l-.03.147.03-.147zm0 0l.03-.147-.03.147zm.424.086l.03-.147-.03.147zm.555.087l.027.148.004-.001-.03-.147zm-.08.26l-.063-.136h-.001l.064.136zm-.264.16l.09.12-.09-.12zm-.618.648l.123.086-.123-.086zm-.099.166l.144.042-.144-.042zm.086.788l.144-.042-.144.042zm.034.116l-.144.042.126.435.158-.425-.14-.052zm.059-.159l.14.053.001-.001-.141-.052zm.325-.62l-.121-.087.121.088zm.084-.177l.054-.14-.054.14zm.038-.211L8.8 3.293l.078.128zm.562-.502l.102.11-.102-.11zm.49-.46l.102.109.047-.045v-.065h-.15zm.065-.259l-.026-.147h-.004l.03.147zm.143-.012v.15h.005l-.005-.15zm.203-.117l.1.112.003-.002-.103-.11zm.107-.13l-.106.105.006.006.007.005.094-.117zm-.187-.024l-.007.15h.003l.004-.15zm-.45.057l-.034-.146.034.146zm-.606.032l-.048.142.048-.142zm.142-.119l.04.145.187-.051-.097-.169-.13.075zM9.16 1.52l-.045.144h.001l.044-.144zm5.614 2.05l.14-.053-.002-.004-.138.057zm-1.885-1.954l.115-.097-.006-.007-.109.104zm-1.867 2.402l-.146-.035.282.098-.136-.063zm.173-.674h.15l-.295-.04.145.04zm-.1.513l.137.063v-.001l-.137-.062zm.1-.505l-.15-.001h.15zm.188-.77l.106-.106-.015-.016-.02-.01-.07.132zm-.773-.541l.086-.123-.17-.12-.06.2.144.043zm-.025.084l.143.044-.143-.044zm.759.439l-.063.136.063-.136zM9.01 2.528l-.04-.144-.004.001.044.143zm-.369-.116l-.03.147.03-.147zm.157.176l-.04-.144h-.001l.041.144zm0 0l.04.145h.002l-.042-.145zm-.258.073l.04.145-.04-.145zm-.41.115l-.145-.038-.065.252.25-.07-.04-.144zm.015-.057l.145.037.001-.003-.146-.034zm-.2-.032L7.8 2.643v.004l.144.04zm-.043.152l.04.145.082-.022.023-.083-.145-.04zm.095-.33l-.134-.067-.006.013-.004.013.144.041zM7.295 3l-.1-.112-.014.013-.011.017.125.083zm.135-.029l.038.145h.003L7.43 2.97zm.308-.087l.038.146-.038-.146zm3.195 1.403l-.144-.044v.001l.144.043zm.053-.174l.143.044.017-.057-.026-.053-.134.066zm-.195.865l-.148-.02v.001l.148.02zm-.11.336l-.128-.077v.002l.129.075zm-.103.2l.138.059.003-.008.003-.007-.144-.045zm-.071-.259l.15-.005v-.002l-.15.007zm.078-.941l-.147-.032.147.032zM10.93 4l-.135.065v.001L10.931 4zm-2.638.556l-.142.048.142-.048zm.031.241l-.146-.034v.001l.146.033zm-.15-.795L8.025 4v.006l.15-.003zm-.096-.023l.137.061.002-.006-.14-.055zm-.138 1.12l.145-.041-.002-.004-.143.046zm.152.092h.15v-.15h-.15v.15zm-.008.702l.138-.058-.138.058zm.58.706l-.135.065.002.003.133-.068zm-.382-1.487l-.149-.015.15.015zm4.556.307l.142.05v-.001l-.142-.049zm.011-.237l.145-.037-.145.037zm-.024.277l-.143-.047-.001.006.144.04zm0 0l.143.044.001-.003-.144-.041zm0 0l.142.047.001-.003-.143-.044zm-.109.241l.111.1-.11-.1zm-.127.066l-.132.07v.002l.132-.072zm-.075-1.013l.147.028-.147-.028zm.179-.362l.148-.02v-.003l-.148.023zm-5.909.586l-.135.065.279-.107-.144.042zm-.137-.467l.144-.043-.057-.194-.17.111.083.126zm-.055.036L6.51 4.42l-.077.05.01.091.149-.015zm.905.645v-.15h-.002l.002.15zm-.525.008l-.145-.039-.051.192.198-.003-.002-.15zm.32-.145l.058.14v-.001l-.057-.139zm0 0l.059.139-.058-.139zm.001 0l-.056-.139-.002.001.058.138zm0 0l-.041-.144-.008.002-.007.003.056.14zm0 0l.041.145.008-.003.008-.003-.057-.139zm.517.006l.12-.091-.003-.002-.117.093zm-.492-.053l.007-.15-.007.15zm-.346-.03l-.03-.147-.327.066.267.201.09-.12zm.616-.125l.03.147-.03-.147zm.235-.047l.144.04.065-.236-.24.049.03.147zm-.955.699h-.15v.043l.024.037.126-.08zm.138.215l.15-.003-.001-.042-.023-.035-.126.08zm-.184-.543l-.139.057.001.002.138-.06zm-.135.112l.145.038-.145-.038zm0 0l-.145-.038.145.038zm-.095.357l.145.04-.145-.04zm-.158.58l-.145-.04-.036.133.129.048.052-.141zm.063.023l-.052.14.002.001.05-.141zm.276.148l-.077.129h.001l.076-.129zm.283-.14l.146-.034V6.22l-.146.037zm-.046-.35l.15-.004-.15.003zm4.092.706l-.13.074.13-.074zm-.275-.717l.148-.03-.001-.003-.147.033zm.386.932l.101.112.006-.006-.107-.106zm-.255.043l-.081.126.008.005.073-.131zm-.228-.495l.141-.051-.14.05zm-.158-.654l.146.034v-.002l-.146-.032zm.101-.234l.135.066v-.001l-.135-.065zm.087-.18l.15-.012-.046-.551-.24.498.136.065zm.017.207l.15-.01v-.002l-.15.012zm1.63.311l.07-.133-.002-.001-.067.134zm.102.1l-.149-.018v.001l.15.016zm-.504.025l-.079-.128-.115.071.059.123.135-.066zm.485.24l.098.115-.098-.114zm.082-.213l-.016.15h.002l.014-.15zm-.381.447l.084.123h.001l-.085-.123zm.054-.039l.086.124.147-.103-.126-.126-.107.105zm-.624.32l-.107.106.007.006.006.005.094-.117zm.114-.423l-.123-.086-.015.02-.006.025.144.04zm.103-.148l.132-.07-.115-.218-.14.202.123.086zm.143.07l.036-.145-.036.145zm.142.059l-.106.106.106-.106zm-.717.137l.142.047v-.002l-.142-.045zm-.127.364l.106.106.006-.006.005-.006-.117-.094zm-.034-.237l-.148-.022v.003l.148.02zm-2.372.15l-.106-.106-.006.006-.005.007.117.093zm.106-.292l-.143-.047v.001l.143.046zm-.205.27l-.069.132.002.001.067-.134zm-.11-.151l-.145.036.145-.036zm.028-.203l-.13-.076.13.076zm.278-.22l-.035-.146.035.146zm.11.002l.138.06.003-.01-.141-.05zm-.063.186l.143.047-.143-.047zm.502.03l-.147.03v.003L9.52 6.3zm.15.391l.134-.067-.134.067zm-.232-.577l.04-.145-.04.145zm-.148.171l.143.044v-.001l-.143-.043zm-.068.22l-.143-.045.143.045zm-.04.127l.144.044-.144-.044zm-.05.163l-.144-.045-.049.158.162.034.03-.147zm.215.044l-.03.147.03-.147zm.323.057l.017-.149h-.002l-.015.15zm.11.013l-.018.149.277.032-.126-.249-.134.068zm.344-.512l.112.1.131-.15-.178-.085-.066.135zm-.22-.106l.065-.135h-.001l-.064.135zm.122.216l.112.1-.112-.1zm-.133.207l.142.051-.142-.05zm-.048.112l-.106-.106-.006.006.112.1zm1.002.08v.15h.015l-.015-.15zm-.264.02l.01.15h.002l-.011-.15zm-.236-.4l-.08.127.002.001.078-.128zm-.245.006l.11.103.001-.001-.11-.102zm-.179.322l.147.028-.147-.028zm-.013.065l-.147-.028-.032.168.17.01.01-.15zm.216.013l-.01.15h.002l.008-.15zm.369-5.564a2.073 2.073 0 00-.708.037l.073.29a1.78 1.78 0 01.584-.03l.05-.297zm.138.016a1.836 1.836 0 01-.134-.015l-.059.294c.042.009.11.015.165.02l.028-.299zm.263.292a.154.154 0 00.009-.218.164.164 0 00-.07-.044.39.39 0 00-.065-.015l-.137-.015-.028.3c.049.004.092.008.12.012.017.003.02.004.014.002a.138.138 0 01-.053-.035.147.147 0 01.008-.209l.202.222zm-.1.284c0 .01 0 .013.002 0a2.023 2.023 0 01.112-.3c.007-.011.002 0-.013.014l-.205-.218c-.024.022-.039.05-.045.06a2.13 2.13 0 00-.142.379.306.306 0 00-.008.065h.3zm.638.396c.021 0 .037.005.041.006l.012.004.003.001a14.378 14.378 0 01-.734-.509l.005.006a.132.132 0 01.013.017c.002.003.023.034.023.08h-.3c0 .046.021.077.024.081a.174.174 0 00.034.04l.031.026.09.068a14.126 14.126 0 00.674.457.288.288 0 00.039.016.157.157 0 00.045.007v-.3zm.219.33a.183.183 0 00.01-.156.302.302 0 00-.112-.137.214.214 0 00-.117-.037v.3a.102.102 0 01-.048-.012c-.003-.002-.002-.002 0 0l-.005-.009a.099.099 0 01-.006-.03c0-.016.002-.041.017-.068l.26.149zm-.132.142l.073-.07a.523.523 0 00.053-.063l-.25-.167.005-.006-.004.005a.83.83 0 01-.08.08l.203.221zm-.152.453c.036-.125.072-.241.104-.33.016-.045.03-.08.042-.105.015-.032.018-.03.006-.019l-.204-.22a.363.363 0 00-.073.11 1.521 1.521 0 00-.053.132 5.858 5.858 0 00-.11.349l.288.083zm-.063-.3a.794.794 0 00-.203.17l.244.176a.6.6 0 01.127-.098l-.168-.249zm1.356-1.03c-.283.224-1.252.959-1.356 1.029l.168.249a63.98 63.98 0 001.374-1.043l-.186-.235zm-.12.231c.081 0 .132.003.154.007h.003a.11.11 0 01-.036-.02.143.143 0 01-.049-.138c.011-.054.048-.08.052-.084l.178.242a.157.157 0 00.01-.253.19.19 0 00-.063-.033.315.315 0 00-.044-.01 1.25 1.25 0 00-.21-.01l.005.3zm-.386.053a1.68 1.68 0 01.386-.053l-.005-.3a1.99 1.99 0 00-.453.062l.072.29zm-.609-.236a.958.958 0 00.208.172c.101.06.24.104.401.064l-.073-.291a.23.23 0 01-.177-.032.67.67 0 01-.142-.12l-.217.207zm-.004-.004l.225-.199-.225.2zm.002.002l.221-.203-.221.203zm-.004-.007a.144.144 0 01-.008-.006c-.002 0-.002-.002-.003-.002l.001.001a.522.522 0 01.007.006.031.031 0 00.01.01l.216-.207-.022-.022a.24.24 0 00-.035-.03l-.166.25zm-.221-.347c0 .048.019.092.03.114a.625.625 0 00.05.085c.034.05.086.111.14.148l.167-.25-.002-.001a.151.151 0 01-.021-.02.472.472 0 01-.064-.092l-.003-.007.001.006.002.017h-.3zm.33-.126a1.036 1.036 0 00-.12-.025.318.318 0 00-.057-.003.175.175 0 00-.056.012.153.153 0 00-.097.142h.3a.148.148 0 01-.091.136.13.13 0 01-.04.01h.001a.747.747 0 01.083.018l.077-.29zm.485-.004a.846.846 0 01-.483.005l-.082.288c.215.062.408.058.64-.003l-.075-.29zm.661-.038a1.794 1.794 0 00-.66.038l.074.29c.17-.043.353-.053.55-.03l.036-.298zm.034.005l-.028-.004-.047.296.028.005.047-.297zm.002 0l-.052.296.052-.295zm.055.009l-.012-.002a2.415 2.415 0 01-.045-.007l-.048.297a.936.936 0 00.1.012l.005-.3zm.213.435a.138.138 0 01.027.029l.007.01c.001.003.002.003 0 0a2.66 2.66 0 01-.101-.346l-.297.043a2.869 2.869 0 00.123.422.3.3 0 00.022.042.16.16 0 00.031.034l.188-.234zm.758.297c.011.002.017.004.008.001a13.676 13.676 0 01-.776-.306c-.011-.006 0 0 .015.012l-.198.225c.019.017.04.027.045.03l.035.016.098.043a13.761 13.761 0 00.696.268c.008.002.026.008.044.01l.033-.299zm.252.266a.256.256 0 00-.072-.188.298.298 0 00-.178-.077l-.037.297a.144.144 0 01.018.004h.001s-.007-.003-.015-.01a.066.066 0 01-.016-.026c-.002-.006-.001-.007-.001 0h.3zm-.33.306a.512.512 0 00.212-.09.275.275 0 00.118-.216h-.3c0-.03.018-.036 0-.023a.218.218 0 01-.087.034l.056.295zm-.653.798c.121-.206.268-.41.401-.563a1.93 1.93 0 01.178-.181.503.503 0 01.06-.046c.018-.01.021-.01.013-.008l-.056-.295a.345.345 0 00-.114.047.799.799 0 00-.098.074 2.13 2.13 0 00-.21.213 4.263 4.263 0 00-.433.607l.259.152zm-.241.528c0-.018.011-.072.055-.173a3.41 3.41 0 01.186-.355l-.259-.152a3.706 3.706 0 00-.202.387.803.803 0 00-.08.293h.3zm.126.785a9.328 9.328 0 01-.088-.475 2.958 2.958 0 01-.038-.31h-.3c0 .067.018.207.042.357.024.154.057.335.09.491l.293-.063zm-.198.129c.001-.001.011-.016.031-.03a.143.143 0 01.128-.015.136.136 0 01.068.053c.006.009.008.015.007.013a1.657 1.657 0 01-.037-.15l-.293.064c.02.086.034.153.05.193a.229.229 0 00.022.043.157.157 0 00.223.048.182.182 0 00.046-.045l-.245-.174zm.631-.097c-.209 0-.336 0-.414.006a.516.516 0 00-.106.016.202.202 0 00-.106.07l.236.184a.1.1 0 01-.047.034l.043-.005c.066-.004.181-.005.394-.005v-.3zm.486 0h-.486v.3h.486v-.3zm.034-.21l-.165.285.26.15.165-.286-.26-.15zm.221-.085a.15.15 0 01-.082-.141c0-.017.004-.03.005-.032l.003-.01.001-.003s0 .003-.004.01a9.816 9.816 0 01-.144.261l.26.149a9.733 9.733 0 00.165-.304.172.172 0 00.013-.057.151.151 0 00-.082-.142l-.135.269zm-.489-.03a21.94 21.94 0 01.524.042h.001a.124.124 0 01-.025-.008.142.142 0 01-.05-.032l.212-.213a.154.154 0 00-.099-.045 22.3 22.3 0 00-.544-.043l-.019.3zm-.602-.055a.148.148 0 00.052.015.587.587 0 00.048.005l.12.01.382.026.02-.3a37.405 37.405 0 01-.527-.038h-.006a.048.048 0 00.004 0 .138.138 0 01.042.014l-.135.268zm.166-.636a27.233 27.233 0 00-.23.428.22.22 0 00-.013.033.16.16 0 00-.005.023c0 .003-.006.042.015.085l.269-.134a.15.15 0 01.014.084.14.14 0 01-.008.035c-.001.003-.002.004 0 .002a25.765 25.765 0 01.222-.41l-.264-.146zm.234-.423l-.234.423.263.145.234-.423-.263-.145zm.633.005l-.477-.08-.05.296.478.08.05-.296zm.15.025l-.15-.025-.05.296.15.025.05-.296zm0 0l-.05.296.05-.296zm0 0l-.05.296.05-.296zm0 0l-.05.296.05-.296zm0 0l-.05.296.05-.296zm0 0l-.05.296.05-.296zm.391.067a25.492 25.492 0 00-.39-.067l-.05.296c.202.034.359.06.381.065l.059-.294zm-.058.006a.236.236 0 01-.014.023c-.002.002.004-.006.017-.014a.102.102 0 01.045-.015h.007l-.053.295a.218.218 0 00.16-.026.31.31 0 00.098-.112l-.26-.15zm.015-.033a.26.26 0 01-.017.036l.263.145a.551.551 0 00.037-.081l-.283-.1zm.291.066v-.01l-.3-.012v.01l.3.012zm-.184.833c.165-.32.179-.699.184-.833l-.3-.012c-.005.14-.02.454-.15.706l.266.139zm-.366.696l.365-.696-.265-.14-.365.697.265.139zm.017.41v-.48h-.3v.48h.3zm-.234.15h.084v-.3h-.084v.3zm.066-.145a.15.15 0 01-.088.136c-.014.006-.025.008-.027.009a.119.119 0 01-.012.002h.01l.051-.002v-.3a1.354 1.354 0 00-.095.004.193.193 0 00-.021.004.15.15 0 00-.118.147h.3zm.014.073l-.012-.07-.003-.018v-.003.018h-.3a.12.12 0 00.001.012v.006l.001.005.002.01.003.022.013.07.295-.052zm.015.085l-.015-.085-.295.052.014.084.296-.051zm-.009.287a.147.147 0 00.03-.077.543.543 0 00-.002-.082 2.367 2.367 0 00-.019-.128l-.296.051a2.114 2.114 0 01.02.132v-.01l.004-.02a.141.141 0 01.023-.046l.24.18zm-.24.08a.688.688 0 00.154-.02.198.198 0 00.035-.015.161.161 0 00.06-.058l-.258-.154a.14.14 0 01.07-.058h-.004a.394.394 0 01-.057.004v.3zm-.107.001l.11-.002-.006-.3-.11.002.006.3zm.076.064l.061-.16-.28-.107-.061.16.28.107zM13.325 7.2c.239-.316.522-.772.636-1.025l-.274-.123a6.409 6.409 0 01-.601.967l.24.181zm-.051.067l.05-.066-.237-.183-.05.066.237.183zm.063-.173l-.119-.055-.126.272.118.055.126-.272zm.523.545c-.124-.24-.318-.451-.524-.545l-.125.273c.127.058.279.21.383.41l.266-.138zm.11.44c0-.089 0-.157-.018-.227-.017-.067-.05-.13-.091-.212l-.268.136a.801.801 0 01.068.15.648.648 0 01.009.152h.3zm-.231.561a.171.171 0 00.127-.07.285.285 0 00.035-.062.758.758 0 00.036-.126c.02-.09.033-.202.033-.304h-.3c0 .079-.011.17-.026.242a.467.467 0 01-.02.073c-.004.008-.003.004.003-.004 0 0 .031-.045.096-.048l.016.3zm-.496.078l.362-.056a43.084 43.084 0 00.138-.021l.025-.005-.074-.29c.008-.003.013-.003.001-.001a7.058 7.058 0 01-.136.02c-.09.015-.216.034-.361.056l.045.297zm-.232.035l.232-.035-.045-.297-.232.036.045.296zm-.817.1c.02.005.037.006.038.006a.209.209 0 00.036-.002 37.005 37.005 0 00.743-.104l-.045-.296a36.624 36.624 0 01-.724.101h-.006.006a.132.132 0 01.034.006l-.082.289zm-.288-.411a1.114 1.114 0 00.17.32.396.396 0 00.037.043.213.213 0 00.068.044l.107-.28c.013.004.02.01.024.012l.006.004-.002-.002a.83.83 0 01-.123-.23l-.287.089zm-.013-.042l.013.043.286-.091-.014-.043-.285.091zm0 .002l.285-.095-.285.095zm0-.003l.286-.089-.287.09zm-.026-.078l.001.004.006.018.019.057.285-.09a1.517 1.517 0 00-.035-.107l-.276.118zm-.049.174c.083-.043.14-.069.175-.082l.018-.006c-.001 0-.019.003-.043-.002a.145.145 0 01-.109-.106l.291-.073a.156.156 0 00-.119-.115.185.185 0 00-.068 0 .406.406 0 00-.078.022c-.05.02-.118.051-.204.095l.137.267zm-.888.32c.329-.075.572-.162.887-.32l-.135-.267a3.288 3.288 0 01-.818.294l.066.293zm-2.154-.132a3.88 3.88 0 002.154.132l-.066-.293A3.58 3.58 0 018.878 8.4l-.102.283zm-.868-.43c.233.143.654.351.867.43l.103-.282a5.919 5.919 0 01-.812-.404l-.158.255zm-1.233-1.09c.654.684.825.838 1.233 1.09l.158-.256c-.374-.23-.523-.36-1.174-1.042l-.217.208zm-.368-.306a.727.727 0 01.152.094c.05.041.11.101.217.212l.216-.208a2.982 2.982 0 00-.243-.236 1.023 1.023 0 00-.207-.13l-.135.268zM6.06 6.79c.06 0 .087.003.112.01a.757.757 0 01.136.057l.133-.269a1.026 1.026 0 00-.193-.079.71.71 0 00-.188-.019v.3zm-.295-.1a.23.23 0 00.14.09c.045.01.099.01.155.01v-.3a1.224 1.224 0 01-.09-.003s.007.001.017.007a.07.07 0 01.018.016l-.24.18zm.08-.462a.511.511 0 00-.128.213.29.29 0 00.046.246l.244-.174c-.002-.003-.001-.002 0 0v.002a.234.234 0 01.058-.084l-.22-.203zm.049.15a.146.146 0 01-.066-.112c-.001-.016.001-.027.001-.027 0-.004.001-.003-.002.004a.381.381 0 01-.006.018l-.003.006v.002l.137.06.137.061a.026.026 0 010-.001l.002-.004a.76.76 0 00.03-.09.19.19 0 00.003-.047.154.154 0 00-.07-.122l-.163.251zm-.248-.162l.248.161.163-.251-.247-.161-.164.251zm.757-1.773c-.156.165-.407.54-.593.88-.093.17-.175.341-.222.48a.726.726 0 00-.042.201c-.002.055.008.166.114.22l.137-.267c.058.03.048.084.049.056 0-.02.007-.057.027-.115.038-.113.11-.266.2-.431.182-.333.419-.681.548-.817l-.218-.207zm.104-.154v.038c-.001.001-.001 0 0 0v-.001a3.223 3.223 0 01-.104.118l.218.205c.063-.067.116-.122.146-.174.04-.071.04-.134.04-.186h-.3zm.287-.912a2.368 2.368 0 00-.198.46c-.05.158-.089.327-.089.452h.3c0-.078.027-.211.075-.361.047-.147.11-.295.17-.398l-.258-.153zm.04-.037c.003.007 0 .003 0-.007a.074.074 0 010-.029c.002-.002.001 0-.006.015a1.293 1.293 0 01-.033.057l.257.154c.028-.047.058-.097.071-.144a.227.227 0 00-.014-.166l-.275.12zm.308-.506a1.42 1.42 0 00-.27.226.273.273 0 00-.062.142.267.267 0 00.025.14l.273-.124c-.004-.01.002-.001 0 .016s-.01.023-.002.013c.022-.027.077-.073.21-.169l-.174-.244zm.762-.54a.138.138 0 01.025-.045c.001-.002.001-.002-.002.001a5.346 5.346 0 01-.191.151c-.138.104-.34.25-.594.433l.175.244c.255-.183.458-.331.6-.437a5.647 5.647 0 00.215-.172.327.327 0 00.021-.022.152.152 0 00.035-.059l-.284-.094zm-.187.218a.955.955 0 01.259-.048l.013.001s-.004 0-.01-.003a.115.115 0 01-.03-.017.138.138 0 01-.046-.15l.286.091a.162.162 0 00-.056-.178.204.204 0 00-.088-.038.515.515 0 00-.13-.003 1.254 1.254 0 00-.296.062l.098.283zm-.915.064c.112.058.26.067.408.054a2.13 2.13 0 00.508-.118l-.1-.283c-.161.057-.312.09-.435.102a.492.492 0 01-.244-.022l-.137.267zm-.252-.33c0 .055.026.102.038.122a.573.573 0 00.059.079.57.57 0 00.156.13l.135-.269h-.002a.412.412 0 01-.09-.094l-.002-.003s.006.014.006.035h-.3zm.317-.15a1.745 1.745 0 00-.17-.003.158.158 0 00-.078.026.151.151 0 00-.07.127h.3a.149.149 0 01-.118.145h-.004.018c.024 0 .059.001.1.004l.022-.299zm-.12-.025a1.515 1.515 0 01.008.1v-.002a.088.088 0 01.014-.026.114.114 0 01.098-.047l-.022.3a.187.187 0 00.167-.078.24.24 0 00.042-.118c.005-.056-.004-.124-.008-.164l-.298.035zm0-.004l.3-.028-.3.028zm-.008-.1a.84.84 0 00.009.104l.298-.035a.732.732 0 01-.007-.07h-.3zm.157-.203a.152.152 0 00-.147.11.51.51 0 00-.01.092h.3a.345.345 0 01.001-.019v-.001.003a.139.139 0 01-.02.05.148.148 0 01-.124.065v-.3zm.117.032l-.047-.017a1.055 1.055 0 00-.042-.013l-.028-.002v.3a.148.148 0 01-.042-.006c-.001 0-.002 0 0 0a.763.763 0 01.056.02l.103-.282zm0 0l-.103.282.103-.282zm0 0l-.103.282.103-.282zm0 0l-.103.282.103-.282zm0 0l-.103.282.103-.282zm0 0l-.102.282.102-.282zm0 0l-.103.282.104-.281zm.023.009l-.023-.009-.103.282.023.008.103-.281zm.578-.044c-.284.078-.474.08-.58.043l-.1.283c.195.069.46.045.76-.037l-.08-.29zm.424-.091c-.088.01-.278.05-.425.09l.08.29c.14-.04.313-.075.378-.082l-.033-.298zm.493.238a.17.17 0 00.046-.098.158.158 0 00-.063-.143.183.183 0 00-.07-.031.28.28 0 00-.044-.006.956.956 0 00-.156.008 3.311 3.311 0 00-.216.033h-.001l.027.148.028.147h.004l.013-.003a3.672 3.672 0 01.18-.027.712.712 0 01.102-.007h-.003c-.002-.001-.022-.005-.044-.022a.142.142 0 01-.055-.128c.004-.045.03-.071.033-.076l.22.205zm-.068.192c.016-.061.032-.11.046-.145.016-.04.025-.05.022-.046l-.219-.206a.452.452 0 00-.081.14c-.02.051-.04.113-.058.18l.29.077zm-.045.165l-.002.02a.13.13 0 01-.001.008.798.798 0 01.012-.054 6.37 6.37 0 01.036-.138l-.29-.078a6.603 6.603 0 00-.054.222l-.001.02h.3zm-.055-.134l-.048-.01-.013-.002a.457.457 0 00-.009-.002H8.29l-.005-.001-.016-.001v.3a.15.15 0 01-.022-.002h-.005.002a3.783 3.783 0 01.06.012l.06-.294zm0 0l-.06.294.06-.294zm.423.086l-.423-.086-.06.294.425.086.058-.294zm.5.086c.01-.002.008 0-.022-.002a1.672 1.672 0 01-.103-.014 8.74 8.74 0 01-.374-.07l-.06.294c.161.033.291.057.387.073.048.007.09.013.124.016a.397.397 0 00.101-.001l-.054-.296zm.307.235a.235.235 0 00-.102-.201.273.273 0 00-.21-.033l.062.294c.017-.004.004.004-.018-.011a.076.076 0 01-.027-.03.048.048 0 01-.005-.02h.3zm-.298.31a.962.962 0 00.201-.115.273.273 0 00.071-.086.237.237 0 00.026-.11h-.3c0-.004.001-.015.007-.026.005-.011.01-.014.005-.01a.287.287 0 01-.041.027 1.55 1.55 0 01-.095.047l.126.272zm-.236.143a1.53 1.53 0 01.237-.144l-.128-.272a1.94 1.94 0 00-.29.177l.18.24zm-.586.614c.124-.178.426-.492.586-.614l-.181-.239c-.186.141-.51.478-.651.681l.246.172zm-.078.122a.565.565 0 01.078-.122l-.246-.172c-.053.075-.099.137-.12.21l.288.084zm-.005.111a.42.42 0 01.005-.11l-.288-.085c-.018.062-.017.128-.017.195h.3zm.091.592a2.456 2.456 0 01-.09-.592h-.3c0 .194.044.48.102.677l.288-.085zm.034.117l-.034-.116-.288.083.034.117.288-.084zm-.226-.169l-.059.159.281.104.06-.158-.282-.105zm.344-.655a2.661 2.661 0 00-.344.656l.282.103c.078-.215.177-.405.306-.584l-.244-.175zm.152.05a.135.135 0 01-.083-.11.117.117 0 01.003-.042l.003-.009a2.26 2.26 0 01-.074.11l.242.177c.046-.063.083-.117.103-.158A.206.206 0 009 3.629a.165.165 0 00-.107-.137l-.108.28zm.014-.48a.2.2 0 00-.06.059.5.5 0 00-.068.256.22.22 0 00.02.075c.014.03.042.07.095.09l.107-.28a.127.127 0 01.07.064c.007.016.008.027.008.027l.003-.023a.202.202 0 01.012-.037c.002-.005.003-.005 0-.002a.115.115 0 01-.031.028L8.8 3.293zm.537-.482a19.32 19.32 0 01-.49.444c-.037.031-.05.04-.047.039l.157.256a.851.851 0 00.084-.066 19.645 19.645 0 00.501-.454l-.205-.219zm.49-.46l-.49.46.206.219.49-.461-.206-.219zm-.048-.014v.122h.3v-.122h-.3zm.186-.283c-.012.003-.041.008-.068.02a.186.186 0 00-.094.09.251.251 0 00-.022.093 1.231 1.231 0 00-.002.08h.3l.001-.06v-.003a.112.112 0 01-.062.074l-.007.003a.302.302 0 01.013-.003l-.059-.294zm.173-.015a1.15 1.15 0 00-.17.015l.053.295a.865.865 0 01.117-.01v-.3zm.102-.078a.628.628 0 01-.097.076l-.001.001h-.002a.07.07 0 01-.007 0l.01.3a.32.32 0 00.155-.043.878.878 0 00.143-.111l-.2-.223zm.115.097a.147.147 0 01-.052-.14.115.115 0 01.012-.035c.002-.004.002-.002-.006.007a.902.902 0 01-.07.073l.205.219c.036-.034.07-.07.095-.1a.363.363 0 00.037-.052.183.183 0 00.02-.054.155.155 0 00-.054-.152l-.187.234zm-.098.01a1.058 1.058 0 01.139.013l-.004-.002a.14.14 0 01-.05-.032l.213-.212a.16.16 0 00-.063-.039.631.631 0 00-.085-.018 1.393 1.393 0 00-.143-.01l-.007.3zm-.412.053c.215-.05.292-.059.409-.053l.014-.3c-.158-.007-.266.01-.49.061l.067.292zm-.688.028c.186.063.374.047.689-.028l-.07-.292c-.305.073-.421.07-.522.036l-.097.284zm.15-.405a.763.763 0 00-.181.073.264.264 0 00-.051.04.18.18 0 00-.051.102.167.167 0 00.053.144.221.221 0 00.08.046l.097-.284c-.004-.001.01.002.027.018a.13.13 0 01.04.113.121.121 0 01-.032.07c-.006.007-.01.008-.006.006a.497.497 0 01.103-.039l-.079-.29zm-.101-.367a.153.153 0 00-.197.129.168.168 0 00.007.07c.006.02.016.043.024.06a8.203 8.203 0 00.167.31l.008.013.001.003v.001h.001l.13-.075.13-.075a.402.402 0 01-.01-.016 8.4 8.4 0 01-.155-.287l-.009-.02.003.012c0 .004.003.019 0 .038a.147.147 0 01-.19.124l.09-.287zm.581.028a.917.917 0 01-.273.037 1.253 1.253 0 01-.31-.065l-.087.287c.15.045.267.073.384.078.119.005.228-.013.36-.047l-.074-.29zm5.127 2.108c-.002-.002-.011-.029-.035-.052a.151.151 0 00-.254.072l-.004.023a.493.493 0 00-.003.055l.3.012v-.03l-.002.012a.148.148 0 01-.15.111.15.15 0 01-.13-.09l.277-.113zm-.005.154a.306.306 0 00.014-.054.187.187 0 00-.008-.096l-.28.105a.126.126 0 01-.008-.057c0-.004 0-.003-.001.002l.283.1zm-1.91-2.155a.153.153 0 00-.266.12c0 .011.002.02.003.028l.297-.043c0-.002 0-.002 0 0v.009l-.003.021a.148.148 0 01-.249.071l.218-.206zm-.117.277c.009 0 .032 0 .059-.008a.156.156 0 00.088-.227.223.223 0 00-.024-.035l-.23.193-.008-.013c-.002-.004-.025-.043-.014-.097a.144.144 0 01.124-.113h.01l-.005.3zm-1.86 2.229l.146.035V4.05l.001-.003.003-.011.01-.043a18.56 18.56 0 01.158-.611l-.289-.08a19.58 19.58 0 00-.16.62l-.01.044a1.254 1.254 0 00-.004.011v.004l.146.035zm-.062-.223l-.074.16.273.126.074-.161-.273-.125zm.085-.443l-.001.017a1.935 1.935 0 01-.03.196 3.041 3.041 0 01-.052.223l-.002.005v.002l.273.124a.809.809 0 00.042-.136 3.345 3.345 0 00.07-.431h-.3zm0-.01v.009l.3.002v-.008l-.3-.002zm.41-.892l-.002-.001-.141.264.002.001.14-.264zm-.154.257l.012.007.013.006a.146.146 0 00.017.006.15.15 0 00.17-.222.098.098 0 00-.023-.028l-.212.212a.148.148 0 01-.043-.12.15.15 0 01.134-.135c.03-.003.053.004.057.005a.15.15 0 01.029.012l.006.004h.002l-.162.253zm-.69-.666l-.086.122.002.002.006.004.023.016a133.157 133.157 0 01.338.238c.185.13.382.268.407.284l.162-.252-.003-.002-.009-.006a4.288 4.288 0 01-.122-.085 173.645 173.645 0 01-.517-.364l-.083-.058-.024-.016c-.002-.002-.004-.004-.006-.004l-.001-.002-.087.123zm.118.127l.026-.084-.288-.086-.025.084.287.086zm.678.26a9.846 9.846 0 01-.443-.215 2.292 2.292 0 01-.208-.12.325.325 0 01-.044-.034c-.002-.002.004.003.01.016a.127.127 0 01.007.094l-.287-.087a.173.173 0 00.013.128.24.24 0 00.042.058.58.58 0 00.09.073c.064.043.15.092.238.138.176.092.376.183.457.221l.125-.273zm.041.018l-.04-.019-.126.273.024.011a.358.358 0 01.008.003l.002.002.132-.27zm-2.396.228l.036-.012a.165.165 0 00.08-.055.154.154 0 00-.037-.225.243.243 0 00-.062-.029c-.057-.018-.181-.043-.397-.087l-.06.294c.228.047.33.068.367.08.011.003 0 .001-.015-.01a.138.138 0 01-.053-.066.146.146 0 01.022-.143c.018-.023.039-.034.042-.036a.1.1 0 01.008-.004h-.001a.741.741 0 01-.011.004l.081.289zm-.212.06l.216-.062-.09-.286a17.93 17.93 0 01-.207.06l.08.288zm0 0l-.082-.289.083.289zm-.258.073l.258-.073-.081-.289-.26.073.083.289zm-.41.114l.409-.114-.08-.29-.41.115.08.29zM8 2.68l-.015.058.29.075.015-.057L8 2.681zm.257-.494a.152.152 0 00-.126.066.424.424 0 00-.031.066 5.942 5.942 0 00-.1.366l.292.07a5.64 5.64 0 01.092-.336l.004-.01a.083.083 0 01-.01.016.148.148 0 01-.12.062v-.3zm.414.079a34.854 34.854 0 00-.396-.078l-.018-.001v.3h-.011l-.005-.001H8.24h.003a1.491 1.491 0 01.104.02l.265.054.06-.294zm-.87.382l-.043.152.289.08.042-.152-.289-.08zm.052-.18a7.18 7.18 0 01-.052.176l.287.088.054-.18-.289-.083zm.149.167a.15.15 0 01-.148-.127.127.127 0 010-.032.097.097 0 01.01-.033l.268.134a.203.203 0 00.02-.111.15.15 0 00-.15-.13v.299zm-.608.479l.025-.02a24.022 24.022 0 01.322-.236 62.422 62.422 0 01.337-.244l.002-.002-.005.004a.14.14 0 01-.026.011c-.003.001-.022.008-.047.008v-.3a.151.151 0 00-.094.032 1.91 1.91 0 00-.105.075 61.314 61.314 0 00-.563.412l-.044.034.198.226zm-.003-.288c-.04.01-.072.02-.094.024l-.014.003h.007a.135.135 0 01.054.007.149.149 0 01.075.224l-.25-.166a.151.151 0 00.11.233c.021.003.04 0 .044 0a3.605 3.605 0 00.145-.034l-.077-.29zm.309-.087c-.091.024-.232.065-.312.088l.083.288c.081-.023.218-.063.305-.085l-.076-.29zm.163-.044L7.7 2.74l.078.29.164-.045-.078-.29zm3.213 1.635l.053-.173-.287-.088-.053.174.287.087zm-.136.667c.033-.255.076-.46.137-.668l-.288-.085a4.48 4.48 0 00-.146.715l.297.038zm-.13.395a.852.852 0 00.088-.18c.02-.063.032-.13.042-.215l-.297-.038a.853.853 0 01-.03.16.561.561 0 01-.06.118l.257.155zm-.088.166a1.05 1.05 0 01.028-.058l.061-.11-.259-.151a2.953 2.953 0 00-.067.12.748.748 0 00-.05.11l.287.089zm-.365-.298c.002.074.004.137.007.187a.883.883 0 00.015.129c.003.013.01.049.035.081a.158.158 0 00.205.042c.042-.024.063-.06.07-.07a.475.475 0 00.027-.056l-.275-.12a.278.278 0 01-.007.016l-.002.004-.001.001v-.001l.005-.006a.125.125 0 01.034-.028.142.142 0 01.183.036c.018.024.02.045.018.036a.635.635 0 01-.007-.081 7.413 7.413 0 01-.008-.18l-.3.01zm.081-.978a3.83 3.83 0 00-.081.98l.3-.014a3.53 3.53 0 01.074-.902l-.293-.064zm.628-.346a.173.173 0 00-.146-.097.248.248 0 00-.1.015.551.551 0 00-.15.087.635.635 0 00-.232.34l.293.065a.344.344 0 01.125-.169.265.265 0 01.065-.04c.006-.002-.003.003-.022.001a.127.127 0 01-.103-.072l.27-.13zm.054.111l-.054-.112-.27.132.055.112.27-.132zm-2.97.558a.657.657 0 01.032.112.113.113 0 01-.004.047l.293.069a.41.41 0 00.009-.155.918.918 0 00-.045-.169l-.284.096zm-.125-.6c.002.146.06.406.126.6l.284-.096A2.18 2.18 0 018.325 4l-.3.005zm.192.03a.903.903 0 01.041-.093c.005-.009.003-.004-.005.005a.126.126 0 01-.038.026.142.142 0 01-.175-.045.117.117 0 01-.016-.031c-.002-.008-.002-.01 0 0 0 .018.002.051 0 .103l.3.006a1.206 1.206 0 00-.002-.138.304.304 0 00-.013-.064.183.183 0 00-.024-.05.16.16 0 00-.083-.06.163.163 0 00-.166.046.274.274 0 00-.04.056 1.156 1.156 0 00-.058.129l.28.11zm-.154.691c0-.152.007-.25.028-.344a1.77 1.77 0 01.124-.34l-.274-.123a2.056 2.056 0 00-.143.398 1.838 1.838 0 00-.035.41h.3zm.02.33l-.002-.009a3.163 3.163 0 01-.018-.32h-.3c0 .088.003.172.008.242a.851.851 0 00.027.177l.285-.09zM8.03 5.04h-.007.003a.1.1 0 01.055.03c.013.013.017.023.015.02a.349.349 0 01-.01-.033l-.289.083a.483.483 0 00.022.064c.008.02.022.05.048.075.06.061.135.06.163.06v-.3zm.063 0H8.03v.3h.063v-.3zm.15.414V5.19h-.3v.264h.3zm-.181.414a.167.167 0 00.147-.087.254.254 0 00.028-.095c.006-.05.006-.125.006-.232h-.3c0 .113 0 .17-.004.197v.006c0-.001.002-.01.008-.022a.133.133 0 01.114-.066v.3zm.161-.035a2.169 2.169 0 01-.034-.084l-.007-.021s.01.058-.042.106a.13.13 0 01-.073.034H8.06v-.3c-.012 0-.075-.001-.127.047a.175.175 0 00-.05.154c.003.03.014.06.023.084.01.027.023.06.039.097l.276-.117zm.309.833s-.005-.008-.008-.02a.147.147 0 01.021-.12.148.148 0 01.16-.06c.02.005.033.014.034.014.006.004 0 0-.024-.022a3.993 3.993 0 01-.369-.427 1.107 1.107 0 01-.123-.197l-.277.115c.033.079.095.172.16.26a4.288 4.288 0 00.401.465.5.5 0 00.073.06.173.173 0 00.045.02.15.15 0 00.167-.059.153.153 0 00.021-.129.192.192 0 00-.014-.036l-.267.136zm-.398-1.57c-.023.232.036.538.116.817.081.285.19.563.28.75l.27-.13a4.662 4.662 0 01-.261-.702c-.078-.273-.124-.533-.106-.705l-.299-.03zm.045-.333a3.96 3.96 0 00-.045.333l.299.03a3.93 3.93 0 01.039-.297l-.293-.066zm4.802.704a.56.56 0 00.038-.162.55.55 0 00-.024-.16l-.29.073a.303.303 0 01.014.075.32.32 0 01-.021.076l.283.098zm-.013.038l.013-.037-.283-.1-.014.043.284.094zm.002-.006l-.288-.082.288.082zm0 .003l-.287-.088.286.088zm-.141.297a.554.554 0 00.089-.154c.02-.05.038-.103.05-.14l-.284-.094a1.81 1.81 0 01-.066.168.216.216 0 01-.009.015l-.004.005.224.2zm-.37.038a.196.196 0 00.05.066.164.164 0 00.187.02.296.296 0 00.07-.056c.018-.017.038-.04.062-.067l-.222-.201a2.337 2.337 0 01-.064.068c-.001.001.004-.004.014-.009a.136.136 0 01.17.041l-.004-.006-.263.144zm-.092-1.113c-.035.182-.04.4-.026.598.015.192.051.388.117.513l.265-.14a1.17 1.17 0 01-.083-.396 2.088 2.088 0 01.022-.519l-.295-.056zm.295-.657a.151.151 0 00-.136.085 1.046 1.046 0 00-.03.082 4.97 4.97 0 00-.128.49l.294.056a4.801 4.801 0 01.131-.492l-.001.002a.14.14 0 01-.039.046.149.149 0 01-.09.03v-.3zm.18.3a7.672 7.672 0 00-.029-.17.27.27 0 00-.007-.024.15.15 0 00-.144-.106v.3a.15.15 0 01-.13-.077.065.065 0 01-.01-.022l-.001-.004a6.022 6.022 0 01.025.15l.296-.047zm.153.776a9.763 9.763 0 01-.153-.774l-.297.042c.028.2.112.624.16.808l.29-.076zm-6.066-.21l-.137-.467-.288.085.137.467.288-.084zm-.485-.373a.504.504 0 00.018.068l.025.06a6.597 6.597 0 00.155.336l.006.012a.875.875 0 01.002.005l.135-.065.135-.065-.002-.004-.006-.012a20.007 20.007 0 01-.15-.325 1.33 1.33 0 01-.023-.06c-.002-.004.002.005.003.019l-.298.031zm.122-.177l-.055.036.164.251.055-.036-.164-.25zm1.124.957c.056 0 .11-.003.15-.007a.485.485 0 00.061-.009.205.205 0 00.043-.014.153.153 0 00.089-.139h-.3a.147.147 0 01.08-.132.114.114 0 01.02-.007h-.005a1.318 1.318 0 01-.137.007v.3zm-.192 0h.192v-.3h-.192v.3zm-.523.008L7.5 5.34l-.005-.3-.525.008.004.3zm.262-.433l-.226.094a1.542 1.542 0 00-.112.056.193.193 0 00-.025.018c-.003.004-.034.03-.046.076l.29.077a.146.146 0 01-.042.07l-.013.01.006-.003c.012-.007.033-.016.062-.029l.22-.092-.114-.277zm0 0l.115.277-.116-.277zm-.001 0l.116.277-.116-.277zm.002 0l.112.278-.112-.279zm.015-.006l.082.289-.082-.289zm.088-.037l-.104.043.114.277.104-.043-.114-.277zm.587.094a.166.166 0 00-.082-.057.361.361 0 00-.05-.014 1.164 1.164 0 00-.11-.015 6.355 6.355 0 00-.28-.02l-.016.3c.1.005.194.011.266.018a.887.887 0 01.08.01l.008.003a.13.13 0 01-.051-.04l.235-.185zm.104.205c0-.034-.012-.06-.012-.062a.549.549 0 00-.032-.058 1.258 1.258 0 00-.058-.083l-.239.181a.971.971 0 01.053.078l-.002-.005a.123.123 0 01-.007-.026.145.145 0 01-.003-.025h.3zm-.721-.015l.08.004.015-.3-.08-.003-.015.3zm-.428-.06a.16.16 0 00.067.03 1.419 1.419 0 00.127.016c.065.006.149.01.234.014l.015-.3-.227-.012a1.149 1.149 0 01-.067-.007l-.01-.002.008.003a.13.13 0 01.033.018l-.18.24zm.676-.392l-.616.125.06.294L7.618 5l-.06-.294zm.235-.047l-.235.047.06.294.235-.047-.06-.294zm-.339.492c.105-.043.212-.088.294-.127.041-.02.08-.038.11-.056a.392.392 0 00.074-.058.167.167 0 00.035-.065l-.289-.08a.133.133 0 01.039-.062 1.124 1.124 0 01-.095.05 7.518 7.518 0 01-.282.12l.114.278zm-.712.434l.137.216.253-.161-.137-.216-.253.161zm-.058-.35c.026.061.034.1.034.27h.3c0-.181-.008-.27-.058-.387l-.276.118zm.07-.043a.148.148 0 01-.11-.05l-.007-.01a1.624 1.624 0 01.046.102l.278-.114a1.909 1.909 0 00-.067-.143.166.166 0 00-.046-.053.153.153 0 00-.093-.032v.3zm.078.135l.046-.177.013-.046.002-.004-.007.014a.145.145 0 01-.046.052.15.15 0 01-.085.026v-.3a.15.15 0 00-.143.102 1.97 1.97 0 00-.023.078l-.048.18.29.075zm0 0l-.29-.076.29.076zm-.095.359l.095-.359-.29-.076-.095.356.29.079zm-.159.58l.159-.58-.29-.08-.158.58.29.08zm-.03-.158l-.063-.023-.103.282.063.023.104-.282zm.303.16a4.017 4.017 0 00-.175-.099 1.16 1.16 0 00-.129-.061l-.1.282.006.003a.67.67 0 01.082.041c.048.026.105.058.161.092l.155-.258zm.171.106a.13.13 0 01.03.003l.006.002-.007-.003a2.981 2.981 0 01-.202-.108l-.152.258a3.268 3.268 0 00.236.126l.03.012c.006.001.03.01.06.01v-.3zM6.91 6.29c.01.041.016.075.02.101a.22.22 0 01.002.047c-.001.007-.001-.01.018-.032a.1.1 0 01.072-.034v.3a.2.2 0 00.153-.067.238.238 0 00.054-.131.773.773 0 00-.027-.253l-.292.069zm-.05-.382a2.1 2.1 0 00.05.385l.292-.075a1.758 1.758 0 01-.042-.317l-.3.007zm-.004-.186l.004.186.3-.007-.004-.186-.3.007zm4.376.815a2.195 2.195 0 01-.257-.672l-.295.058c.052.263.147.509.291.762l.261-.148zm.088.395a.15.15 0 00.035-.16 1.153 1.153 0 00-.038-.082 4.416 4.416 0 00-.085-.154l-.26.15a4.29 4.29 0 01.098.183c.002.004.002.003 0 0a.128.128 0 01-.006-.056.149.149 0 01.043-.092l.213.211zM10.885 7c.028.015.055.018.06.02h.028l.043-.001a1.31 1.31 0 00.23-.043.174.174 0 00.068-.038l-.2-.223a.134.134 0 01.03-.02l.005-.003a.99.99 0 01-.174.028l.008.001.014.003a.139.139 0 01.034.014L10.885 7zm-.296-.575a4.633 4.633 0 00.2.461.646.646 0 00.048.073.18.18 0 00.04.036l.162-.252c.018.01.027.022.027.023.002.002.003.003.002.001A1.91 1.91 0 0111 6.635a4.335 4.335 0 01-.129-.311l-.282.102zm-.163-.739a.283.283 0 00-.005.08 2.29 2.29 0 00.045.247c.03.13.076.283.123.413l.282-.104a3.69 3.69 0 01-.145-.53.516.516 0 01-.006-.045c0-.014.002-.007-.002.007l-.292-.068zm.113-.266c-.026.051-.05.105-.07.15a.76.76 0 00-.044.12l.294.062.005-.013a3.424 3.424 0 01.084-.187l-.27-.132zm.086-.18l-.087.18.27.13.087-.179-.27-.13zm.301.261l-.017-.207-.299.024.017.207.3-.024zm.048.36a3.11 3.11 0 01-.048-.359l-.299.022c.009.118.03.297.054.402l.293-.065zm1.365.096c.02.01.032.017.041.023.01.006.01.007.007.004a.099.099 0 01-.026-.078l.297.035a.201.201 0 00-.063-.173.503.503 0 00-.119-.077l-.137.266zm-.334-.008l.078.128.002-.001a.56.56 0 01.04-.023c.026-.014.062-.033.1-.05a.577.577 0 01.105-.036c.036-.007.031.001.01-.009l.135-.268a.318.318 0 00-.208-.016.869.869 0 00-.162.055 1.606 1.606 0 00-.174.09l-.003.001-.001.001.078.128zm.3.233a.124.124 0 01.06.014l.002.002-.004-.003a1.426 1.426 0 01-.223-.311l-.27.13a1.707 1.707 0 00.271.384.426.426 0 00.053.045.189.189 0 00.11.039v-.3zm.087-.106a2.689 2.689 0 01-.148.12c-.004.001-.003.001 0 0a.102.102 0 01.012-.006c.004-.001.023-.008.049-.008v.3a.159.159 0 00.077-.02.917.917 0 00.078-.053 3.95 3.95 0 00.128-.105l-.196-.228zm.166.05l.01.001s-.012-.003-.028-.015a.124.124 0 01-.045-.073.112.112 0 01.004-.063c.005-.012.007-.009-.016.015-.02.021-.049.049-.091.086l.197.226c.045-.04.083-.075.113-.107a.363.363 0 00.077-.112.188.188 0 00.01-.106.176.176 0 00-.066-.104.262.262 0 00-.136-.047l-.029.299zm-.198-.219a.187.187 0 00.062.17.2.2 0 00.079.04.41.41 0 00.055.008l.033-.298-.014-.002s.019.005.039.021a.13.13 0 01.042.07c.004.018.002.029.002.024l-.298-.033zm-.084.639l.055-.038-.171-.247-.055.038.171.247zm-.749.275c.04.032.082.033.09.033a.157.157 0 00.056-.008 7.509 7.509 0 00.603-.3l-.17-.247a8.586 8.586 0 01-.517.258l-.006.002.015-.003a.143.143 0 01.029-.002c.007 0 .048.001.088.033l-.188.234zm.064-.581a23.903 23.903 0 00-.116.425l-.004.02v.024c0 .006 0 .017.004.03.002.01.01.042.04.07l.212-.211a.15.15 0 01.043.098v.027c0-.002 0-.008.003-.018l.023-.088.083-.294-.288-.082zm.123-.193l-.102.148.246.171.103-.148-.247-.17zm.303.01a1.273 1.273 0 01-.065-.018c-.005-.002-.005-.002 0 0 .003.004.011.011.018.024l-.265.14a.254.254 0 00.131.113c.039.016.082.026.11.033l.071-.291zm.212.099a.316.316 0 00-.117-.071c-.034-.013-.07-.021-.095-.027l-.071.291a.645.645 0 01.063.018c.016.005.014.007.008 0l.212-.211zm.123.123l-.123-.123-.212.212.122.122.213-.211zm-1.09.074a14.144 14.144 0 01-.109.322l-.007.019c0 .001 0 .001 0 0l.003-.007a.132.132 0 01.013-.018l.234.188a.128.128 0 00.02-.032l.006-.015.012-.029c.008-.022.019-.05.03-.084.024-.067.053-.157.084-.251l-.285-.093zm.132.195a.178.178 0 01.024-.064.155.155 0 01.03-.038c.003-.002-.005.005-.024.01a.13.13 0 01-.122-.036c-.037-.038-.035-.08-.035-.08 0-.006 0-.002-.005.015l.287.089a.358.358 0 00.018-.098.187.187 0 00-.051-.137.17.17 0 00-.165-.044.238.238 0 00-.086.043.484.484 0 00-.168.296l.297.044zm-.221.11a.143.143 0 01.212.014c.006.008.01.015.011.019.004.008.002.006-.001-.015a.528.528 0 01-.001-.13l-.297-.04a.835.835 0 000 .212.364.364 0 00.027.098.173.173 0 00.072.08.157.157 0 00.19-.027l-.213-.212zm-2.194.124a.14.14 0 00.027-.035.239.239 0 00.02-.042l.026-.07a6.42 6.42 0 00.07-.204l-.286-.093a6.17 6.17 0 01-.094.266l.002-.004a.122.122 0 01.023-.03l.212.212zm-.272.005a.456.456 0 00.096.036.243.243 0 00.06.007c.013 0 .08-.001.127-.06l-.234-.187a.14.14 0 01.101-.053l.015.001a.165.165 0 01-.03-.012l-.135.268zm-.188-.248a.411.411 0 00.062.15.34.34 0 00.124.097l.138-.266c-.031-.016-.027-.018-.02-.01l-.001-.003a.381.381 0 01-.012-.04l-.291.072zm.043-.314c-.023.039-.054.09-.062.152-.008.06.008.119.019.162l.291-.072a.764.764 0 01-.012-.05v-.001c-.001.006-.003.009 0 .002a.597.597 0 01.023-.043l-.26-.15zm.372-.29a.606.606 0 00-.371.289l.258.152a.308.308 0 01.185-.15l-.072-.292zm.287.197a.165.165 0 00.008-.102.156.156 0 00-.08-.102.168.168 0 00-.074-.018.316.316 0 00-.068.008l-.072.016.07.292.062-.015c.018-.003.014-.001.002-.001a.144.144 0 01-.132-.11.122.122 0 010-.06l.002-.008.282.1zm-.061.183a40.594 40.594 0 01.055-.164l.003-.01-.276-.118a1.354 1.354 0 00-.025.071l-.042.127.285.094zm-.039.117l.039-.117-.285-.094-.039.116.285.095zm.252-.1c.029.124.086.276.162.425l.268-.136a1.675 1.675 0 01-.138-.357l-.292.067zm.023-.076a.093.093 0 01-.037-.021c-.012-.012-.016-.022-.015-.02a1.602 1.602 0 01.028.112l.294-.06a.899.899 0 00-.048-.173.238.238 0 00-.054-.079.207.207 0 00-.087-.048l-.08.29zm.037.07a1.763 1.763 0 01.038-.116l-.006.007a.104.104 0 01-.073.035h-.011l.016.004.08-.289c-.02-.005-.057-.016-.098-.014a.194.194 0 00-.141.069.33.33 0 00-.055.101 2.003 2.003 0 00-.038.117l.288.086zm-.07.222l.07-.221-.288-.088-.067.22.286.089zm-.038.126l.039-.127-.287-.089-.039.127.287.09zm-.051.163l.05-.163-.286-.089-.05.163.286.09zm.102-.147l-.215-.044-.06.294.215.044.06-.294zm.308.055a4.95 4.95 0 01-.309-.055l-.059.294c.114.023.267.052.337.06l.031-.3zm.112.013l-.11-.013-.034.298.11.013.034-.298zm-.261-.002l.11.218.267-.135-.11-.217-.267.135zm.653-.496l-.22-.106-.13.27.22.106.13-.27zm-.05.344l.097-.11-.225-.198-.097.11.225.198zm-.104.159a.664.664 0 01.103-.158l-.223-.2a.927.927 0 00-.163.257l.283.101zm-.084.167a.208.208 0 00.036-.051 1.546 1.546 0 00.048-.116l-.283-.101a1.247 1.247 0 01-.032.08l.001-.002a.107.107 0 01.018-.022l.212.212zm-.53-.742c0 .034.007.07.014.1.008.034.018.07.03.107a2.968 2.968 0 00.191.44.48.48 0 00.055.08c.008.01.03.032.063.047a.156.156 0 00.183-.038l-.224-.2a.144.144 0 01.165-.035.122.122 0 01.036.025l-.018-.028a2.672 2.672 0 01-.19-.467c-.005-.024-.005-.033-.005-.031h-.3zm.547-.034a2.321 2.321 0 00-.282-.12.272.272 0 00-.125-.014.169.169 0 00-.14.168h.3a.13.13 0 01-.029.08.131.131 0 01-.08.048c-.027.005-.04-.004-.015.004.04.012.113.044.243.105l.128-.271zm.88.6c-.019 0-.148.01-.276.02l.023.3.177-.014.075-.005v-.3zm-.579-.102c.111.068.242.16.34.233.05.038.087.069.109.088.012.012.011.013.006.005a.14.14 0 01-.023-.076.147.147 0 01.131-.147l.03.299a.153.153 0 00.125-.218.17.17 0 00-.016-.028.344.344 0 00-.05-.055 1.84 1.84 0 00-.13-.107 4.712 4.712 0 00-.366-.25l-.156.256zm-.074-.065a.147.147 0 01-.046-.007l-.009-.003h.002a2.998 2.998 0 01.126.074l.158-.254a3.345 3.345 0 00-.166-.095.195.195 0 00-.015-.006c-.001 0-.022-.009-.05-.009v.3zm.018.045a2 2 0 01.073-.076l-.003.003-.014.008a.145.145 0 01-.074.02v-.3a.152.152 0 00-.094.033 2.304 2.304 0 00-.11.11l.222.202zm-.143.247a.545.545 0 01.142-.246l-.22-.205a.837.837 0 00-.216.396l.294.055zm-.012.067l.012-.066-.294-.057-.013.066.295.057zm.076-.166l-.215-.012-.017.3.215.012.017-.3zm.44-.006a4.7 4.7 0 01-.44.006l-.016.3c.126.007.339.002.475-.007l-.019-.299z" fill="#000"/>
  <path d="M15.055 8.714v2.576H4.67V8.556c.01.043.17.097.282.14.205.077.22.077.42-.065.27-.19.44-.185.747.022.46.311.583.317.72.044.103-.213.333-.213.727.005.17.093.343.164.394.164.046 0 .159-.087.246-.191.194-.24.307-.224.808.087.404.257.542.273.583.06.057-.267.103-.31.338-.31.143.005.358.07.578.18.19.098.384.174.42.174.04 0 .086-.076.107-.17a.453.453 0 01.138-.245c.138-.092.281-.054.732.191.45.24.578.218.578-.103 0-.099.097-.164.245-.164.046 0 .236.098.425.224.41.261.522.261.557-.006.036-.273.205-.278.645-.033.327.191.695.268.695.154z" fill="#0091C8"/>
  <path d="M4.709 8.65c.01.043.117.108.23.152.204.076.219.076.418-.066.27-.19.439-.185.745.022.459.311.581.317.72.044.101-.213.33-.213.724.005.168.093.342.164.393.164.046 0 .158-.087.245-.191.193-.24.306-.224.806.087.403.257.54.273.581.06.057-.267.102-.31.337-.31.143.005.357.07.577.18.189.098.383.174.418.174.041 0 .087-.076.107-.17a.453.453 0 01.138-.245c.138-.092.28-.054.73.191.449.24.576.219.576-.103 0-.099.097-.164.245-.164.046 0 .235.098.424.224.408.262.52.262.556-.006.036-.273.204-.278.643-.033.326.191.633.257.633.142" stroke="#fff" stroke-width=".5" stroke-linecap="round" stroke-linejoin="round"/>
</svg>
