<svg width="16" height="12" fill="none" xmlns="http://www.w3.org/2000/svg">
  <mask id="a" maskUnits="userSpaceOnUse" x="0" y="0" width="16" height="12">
    <path fill="#fff" d="M0 0h16v12H0z"/>
  </mask>
  <g mask="url(#a)">
    <path fill-rule="evenodd" clip-rule="evenodd" d="M0 0v12h16V0H0z" fill="#2E42A5"/>
    <mask id="b" maskUnits="userSpaceOnUse" x="0" y="0" width="16" height="12">
      <path fill-rule="evenodd" clip-rule="evenodd" d="M0 0v12h16V0H0z" fill="#fff"/>
    </mask>
    <g mask="url(#b)">
      <path fill-rule="evenodd" clip-rule="evenodd" d="M10.308 5.835s.05.52-.059.814c-.108.295-.163.466-.163.277 0-.188-.076-.337-.137-.337-.061 0-.013.187-.075.187-.061 0-.273.032-.273-.078s-.028.294.11.33c.137.036-.067.148-.158.113 0 0 .375.116.522.215 0 0 .44.522.852.458 0 0-.56-.184-.462-.535.099-.352.462-.403.462-.403s.17.054.166.196c-.005.142.124-.044.124-.044s.021-.18-.002-.223c-.023-.044.39-.128.417-.313 0 0-.423.018-.452-.03-.029-.047.131-.121.081-.213-.05-.093-.796.527-.796.527s.258-.422.258-.648c0-.227-.066-.382-.258-.382s-.157.089-.157.089zm3.884.123v.001c.028-.026.2-.176.343-.057.157.129-.079.255-.079.255s.11.101.236.101.157-.101.157-.101.01.225.42.31c0 0 .147-.199 0-.308 0 0 .174-.034.16-.168 0 0-.141.046-.243-.06-.101-.105-.299-.154-.443-.13-.365-.125-.53.12-.551.157z" fill="#5EAA22"/>
      <path fill-rule="evenodd" clip-rule="evenodd" d="M11.702 7.097s.424.759.16.916c-.266.157 1.26.045 1.405 0 .144-.045-.03-.285-.189-.35-.16-.067-.816-.288-.99-.455-.174-.167-.068-.226.073-.39.14-.165.66-.23.66-.384s.33-.788.561-.836c.231-.048.107-.123.053-.123-.053 0-.372.312-.492.256-.121-.057-.136-.053 0-.189.135-.136.237-.293.058-.18-.18.113-.475.291-.617.291-.143 0-.649-.06-.586.078.063.138.09.378.363.54.273.163.154.281-.073.438a1.715 1.715 0 00-.386.388z" fill="#96877D"/>
      <path d="M14.52 6.094l-.81 1.541s-.023.436.555.146c.579-.29.556-.496.723-.496.166 0 .22-.088.22-.088l-.112-.083s-.013-.152.058-.186c0 0-.138-.072-.158-.012-.02.06-.117-.126-.062-.126 0 0-.122.187-.147.26 0 0-.177-.068-.168-.383.008-.315-.1-.573-.1-.573zm-3.852-.244s-.412.09-.367.186c.044.094.11-.003-.092.111 0 0-.355.26-.432.232-.077-.028.055.066.055-.232 0-.297-.206-.055 0-.254.206-.198.278-.043.377-.158.099-.114.01-.053.278-.053.269 0 .181.168.181.168zm1.257 1.532s-1.153.86-1.384.925c-.23.064.474-.018.647-.131.172-.114.737-.794.737-.794z" fill="#FFD018"/>
      <path fill-rule="evenodd" clip-rule="evenodd" d="M14.212 8.892s.111.679-.178.612c-.29-.067-.409-.101-.409-.101s.106.316.258.316c0 0 .258.478.158.629 0 0 .445-.343.373-.615-.072-.273.115.044.115.044s.164.075.282-.008c.118-.084-.002-.047-.12-.207-.118-.16-.089-.607-.449-.84-.36-.232-.443-.224-.443-.224s-.265-.412-.106-.385c0 0 1.137.37 1.167.466.03.095.33.077.18-.194-.15-.272-.964-.435-1.06-.512-.098-.077-.008-.367-.181-.43-.174-.063-.649-.512-.649-.729 0-.216-.223-.318-.417-.318-.194 0-.56-.053-.715-.053-.154 0-.298.246-.149.246.15 0 .022.46-.228.56-.25.1-.443.245-.729.245-.285 0 .404.234.514.141.11-.092.074-.23.443-.386.37-.157.722-.25.677-.125-.045.125.07.333.243.258.174-.076.23-.266.23-.133s.266.816.47 1.082c.204.267.723.661.723.661z" fill="#5EAA22"/>
      <path d="M11.786 6.4s-.136.204 0 .204c.135 0 .352 0 .22-.103-.133-.102-.22-.102-.22-.102zm.452-.006s0 .136.094.136.177.136.177 0 .13-.09-.07-.136c-.201-.045-.201 0-.201 0zm.577.031s-.09.065-.045.18c.045.116.147.344 0 .344-.148 0-.269.082-.154.082.115 0 .32.082.32 0s.083.136.083 0v-.28c0-.08.084-.102 0-.214-.083-.112-.204-.112-.204-.112zm.209.795s.188.562.29.635c.103.072.149.684.194.75.045.067.657.402.657.582 0 .18.189-.138.094-.316-.094-.179-.39-.558-.604-.641-.214-.083-.187-.283-.232-.424-.045-.141.266.114 0-.206-.265-.32-.258-.148-.184-.148.075 0 .15-.038.075-.088-.075-.05-.29-.145-.29-.145zm-1.997 1.16s-.612 1.027-.72 1.08c-.11.053-.191.063-.247 0-.056-.064-.062.17 0 .235.061.065.246.065.349-.05 0 0 .016.289.176.507.16.217.226.157.226.28 0 .123.038.286.087.286.048 0 .086.388 0 .388-.087 0 .2.032.325-.065s.179-.171.152-.171c-.027 0-.348-.16-.348-.274 0-.114-.216-.203-.216-.372 0-.168-.112-.369-.112-.449 0-.08.096.03.199-.045.102-.075.13-.27.13-.27s-.163.103-.217.051c-.054-.051-.224-.153-.112-.328.112-.175.328-.803.328-.803z" fill="#FFD018"/>
      <path fill-rule="evenodd" clip-rule="evenodd" d="M12.087 5.144s-.219.092-.146.23c.073.137.1.198.146.168.047-.03.375-.088.302-.243-.074-.155-.228-.155-.228-.155h-.074z" fill="#5EAA22"/>
      <path d="M12.847 5.07s-.29-.122-.193 0c.097.12.22.185.309.185.088 0 .273-.025.18-.074-.092-.05-.296-.112-.296-.112z" fill="#FFD018"/>
      <path fill-rule="evenodd" clip-rule="evenodd" d="M9.99 8.23c.002-.007-.007-.013-.012-.008-.06.055-.242.237-.165.396a.698.698 0 00.183.254s.056.29.17.368c0 0 .155-.008.163-.233 0 0 .263-.073.34.083 0 0-.05.018-.05.15s.118.276.118.276.054-.457.299-.751c.245-.295.315-.353.315-.353v-.331s-.507.392-.614.717c0 0-.255.008-.358-.033-.104-.042.129-.11 0-.259-.13-.148-.07.209-.212.112-.222-.059-.192-.309-.176-.388z" fill="#5EAA22"/>
      <path fill-rule="evenodd" clip-rule="evenodd" d="M11.093 7.942h2.593v1.505s-.212 1.23-1.34 1.835c0 0-1.094-.614-1.253-1.835V7.943z" fill="#5EAA22"/>
      <mask id="c" maskUnits="userSpaceOnUse" x="11" y="7" width="3" height="5">
        <path fill-rule="evenodd" clip-rule="evenodd" d="M11.093 7.942h2.593v1.505s-.212 1.23-1.34 1.835c0 0-1.094-.614-1.253-1.835V7.943z" fill="#fff"/>
      </mask>
      <g mask="url(#c)">
        <path fill-rule="evenodd" clip-rule="evenodd" d="M12.326 7.861l-1.133 2.233 1.536-1.325 1.057 1.665V7.86l-1.057.823-.403-.823z" fill="#58A5FF"/>
        <path d="M12.29 9.476a.084.084 0 11.17 0V10.9a.085.085 0 01-.17 0V9.476z" fill="#FFD018"/>
        <path d="M11.992 9.825a.079.079 0 110-.158h.772a.079.079 0 110 .158h-.772zm.54.97l-.086.07c-.127-.155-.243-.229-.345-.229-.15 0-.272-.126-.372-.366l.102-.043c.085.203.177.298.27.298.142 0 .285.092.43.27z" fill="#FFD018"/>
        <path fill-rule="evenodd" clip-rule="evenodd" d="M11.629 9.888h-.001v.542s0 .001 0 0l.405-.167v-.001l-.404-.374z" fill="#FFD018"/>
        <path d="M12.254 10.795l.086.07c.127-.155.242-.229.345-.229.15 0 .272-.126.372-.366l-.102-.043c-.085.203-.177.298-.27.298-.142 0-.285.092-.43.27z" fill="#FFD018"/>
        <path fill-rule="evenodd" clip-rule="evenodd" d="M13.157 9.888h.001v.542s0 .001 0 0l-.405-.167v-.001l.404-.374z" fill="#FFD018"/>
        <path fill="#fff" d="M12.204 8.828h.338v.478h-.338z"/>
      </g>
    </g>
  </g>
  <mask id="d" maskUnits="userSpaceOnUse" x="0" y="0" width="9" height="7">
    <path fill="#fff" d="M0 0h9v7H0z"/>
  </mask>
  <g mask="url(#d)">
    <path d="M-1.002 6.5l1.98.869L9.045.944l1.045-1.29-2.118-.29-3.29 2.768-2.649 1.865L-1.002 6.5z" fill="#F7FCFF"/>
    <path d="M-.731 7.108l1.009.505 9.436-8.08H8.298L-.731 7.109z" fill="#F50100"/>
    <path d="M10.002 6.5l-1.98.869L-.045.944-1.09-.346l2.118-.29 3.29 2.768 2.649 1.865L10.002 6.5z" fill="#F7FCFF"/>
    <path d="M9.935 6.937l-1.01.504-4.018-3.46-1.19-.386L-1.19-.342H.227L5.13 3.502l1.303.463 3.502 2.972z" fill="#F50100"/>
    <mask id="e" maskUnits="userSpaceOnUse" x="-1" y="-1" width="11" height="9" fill="#000">
      <path fill="#fff" d="M-1-1h11v9H-1z"/>
      <path fill-rule="evenodd" clip-rule="evenodd" d="M4.992 0h-1v3H0v1h3.992v3h1V4H9V3H4.992V0z"/>
    </mask>
    <path fill-rule="evenodd" clip-rule="evenodd" d="M4.992 0h-1v3H0v1h3.992v3h1V4H9V3H4.992V0z" fill="#F50100"/>
    <path d="M3.992 0v-.75h-.75V0h.75zm1 0h.75v-.75h-.75V0zm-1 3v.75h.75V3h-.75zM0 3v-.75h-.75V3H0zm0 1h-.75v.75H0V4zm3.992 0h.75v-.75h-.75V4zm0 3h-.75v.75h.75V7zm1 0v.75h.75V7h-.75zm0-3v-.75h-.75V4h.75zM9 4v.75h.75V4H9zm0-1h.75v-.75H9V3zM4.992 3h-.75v.75h.75V3zm-1-2.25h1v-1.5h-1v1.5zM4.742 3V0h-1.5v3h1.5zM0 3.75h3.992v-1.5H0v1.5zM.75 4V3h-1.5v1h1.5zm3.242-.75H0v1.5h3.992v-1.5zM4.742 7V4h-1.5v3h1.5zm.25-.75h-1v1.5h1v-1.5zM4.242 4v3h1.5V4h-1.5zM9 3.25H4.992v1.5H9v-1.5zM8.25 3v1h1.5V3h-1.5zm-3.258.75H9v-1.5H4.992v1.5zM4.242 0v3h1.5V0h-1.5z" fill="#F7FCFF" mask="url(#e)"/>
  </g>
</svg>
