<svg width="16" height="12" fill="none" xmlns="http://www.w3.org/2000/svg">
  <mask id="a" maskUnits="userSpaceOnUse" x="0" y="0" width="16" height="12">
    <path fill="#fff" d="M0 0h16v12H0z"/>
  </mask>
  <g mask="url(#a)">
    <path fill="#E11C1B" d="M0 0h16v12H0z"/>
    <path fill-rule="evenodd" clip-rule="evenodd" d="M0 0l16 12H0V0z" fill="#1D1D1D"/>
    <path fill-rule="evenodd" clip-rule="evenodd" d="M3.542 9.134h.666l.316-.746.373.741.682.037-.583.635.3.765-.742-.426-.684.43.258-.743-.586-.693zm-2-2h.666l.316-.746.373.741.682.038-.583.634.3.765-.742-.426-.684.43.258-.743-.586-.693zm2-1h.666l.316-.746.373.741.682.038-.583.634.3.765-.742-.426-.684.43.258-.743-.586-.693z" fill="#EEEEF6"/>
    <path fill-rule="evenodd" clip-rule="evenodd" d="M4.856 8.282l.457-.015.166-.472.185.47.421.04-.379.268.306.475-.53-.199-.46.205.242-.468-.408-.304zm1-1l.457-.015.166-.472.185.47.421.04-.379.268.306.475-.53-.199-.46.205.242-.468-.408-.304z" fill="#EEEEF6"/>
    <path fill-rule="evenodd" clip-rule="evenodd" d="M10.542 1s-1.544.308-1.111 2.455h-.22s.018-.112-.194-.178c-.212-.065-.17-.04-.279 0-.11.041-.774 0-.774 0v.082l.47.204s-.011.169.186.263c.196.093.34.139.34.139s.028.186-.156.186-.926-.24-1.19.35C7.351 5.093 7 5.526 7 5.526h.395l-.106.132h.446l-.12.069s.55-.006.593-.069c.043-.062 0 .169 0 .169s.534-.244.563-.3l.249.17.071-.289.267.118.073-.275s.756 1.264 1.33 1.192v-.21l.523.21.066-.094s.632.258.827.282l-.139-.282h.139l-.139-.522h.139l-.278-.419.078-.113-.051-.15s1.017.325.971.84c-.046.517-.499.725-.499.725s-.434.133-.827.104c0 0 .312.368.971.244.66-.125.878-.764.878-.764s.302.628.053.958c-.248.33-1.357.562-1.357.562s.401.235.781.175.972-.391 1.086-.931c.115-.54-.395-1.536-.626-1.65l-.091-.345.207.083-.426-1.042.207.045-.603-.75.166-.051-.833-.6.25-.065s-.617-.312-1.319.066l.007-.13-.185.03.011-.143.184-.278-.276-.106s.223-.335.19-.33c0 0-.249.071-.235.041 0 0 .125-.322.092-.313 0 0-.287.097-.245.048l.11-.196L10.543 1z" fill="#FBCD17"/>
  </g>
</svg>
