<svg width="16" height="12" fill="none" xmlns="http://www.w3.org/2000/svg">
  <mask id="a" maskUnits="userSpaceOnUse" x="0" y="0" width="16" height="12">
    <path fill="#fff" d="M0 0h16v12H0z"/>
  </mask>
  <g mask="url(#a)">
    <path fill-rule="evenodd" clip-rule="evenodd" d="M0 0v12h16V0H0z" fill="#F7FCFF"/>
    <mask id="b" maskUnits="userSpaceOnUse" x="0" y="0" width="16" height="12">
      <path fill-rule="evenodd" clip-rule="evenodd" d="M0 0v12h16V0H0z" fill="#fff"/>
    </mask>
    <g mask="url(#b)">
      <path fill-rule="evenodd" clip-rule="evenodd" d="M0 6v6h16V6H0z" fill="#56C6F5"/>
      <path fill-rule="evenodd" clip-rule="evenodd" d="M5.127 4.514a.28.28 0 00-.028-.107c-.128-.24-.087-.539-.087-.539s-.153.35-.243.681c-.095-.154-.128-.308-.128-.308s-.06.969.126 1.199c.187.23.312.33.312.33s.014-.402-.04-.717c.038-.131.073-.275.085-.399a4.77 4.77 0 00.17-.133 2.01 2.01 0 00-.035.291s.705-.512.723-.783c.018-.271.212-.503.212-.503s-.16.11-.344.257c.049-.228.199-.407.199-.407s-.801.548-.867.837a3.274 3.274 0 00-.055.301zm.034 1.665c-.076-.145-.41-.753-.644-.805-.265-.06-.464-.288-.464-.288s.417.877.692.987c.22.088.366.123.414.134-.008.118-.009.2-.009.2s.13-.095.329-.314c.199-.22.188-1.19.188-1.19s-.078.292-.29.462c-.142.114-.196.544-.216.814zm-.625-.091c.302-.002.768.74.768.74s-.18.01-.496-.04c-.315-.05-.806-.895-.806-.895s.231.196.534.195zM6.01 7.816s.18-.946-.09-1.166a.958.958 0 01-.317-.55s-.24 1.049 0 1.32c.24.272.407.396.407.396zm-1.088-.255c.176.209.737 0 .737 0s.124.112-.321-.295c-.445-.406-1.35-.15-1.107-.15.244 0 .515.236.69.445zm.416 1.11c.326.276 1.032-.38 1.032-.38s-.182-.22-.519-.383c-.336-.162-1.578 0-1.578 0l.553.246s-.615.24-.452.227c.163-.013.637.013.964.29z" fill="#006923"/>
      <path fill-rule="evenodd" clip-rule="evenodd" d="M9.607 8.098s-.28-.472 0-.7c.28-.227.392-.076.392-.338s.028-.184.166-.314.04-.446.225-.288c.184.158.219-.145.219.485v-.925c0-.353-.22-.27-.22-.506 0-.237-.218-.591 0-.591.22 0 .349.263.349.263s.215.367.215 0-.383-.258-.563-.663c-.18-.405-.152.045-.391-.477-.24-.521-.526-.687-.263-.687h.429c.225 0 .573-.187.573 0v.394c0 .293.215.293.215.293s.117-.586.264-.293c.147.293.047.77.155.77s.018-.492.254-.115c.235.377 0 .633 0 .778 0 .146-.254.502-.254.502s.05.174.254 0c.204-.174.397-.349.397-.174 0 .174.398.228 0 .506-.397.279-.144.557-.397.557-.254 0-.553.368-.673.368s-.568.28-.344.28c.224 0 .454-.562.608-.28.155.28.153-.046.28.117.129.164.256 1.05.129.695-.128-.356-.329-.356-.673-.356-.344 0-1.013.025-.788.19.225.166.477-.165.573 0 .095.166.068.33.215.166.148-.166.293 0 .419 0s-.126.184 0 .343c.126.159.406.37.126.37s-.425-.224-.545 0c-.12.224-.125.614-.344.307-.22-.307-.61-.151-.61-.307 0-.155.085-.18-.154-.18-.238 0-.238-.19-.238-.19z" fill="#093"/>
      <path fill-rule="evenodd" clip-rule="evenodd" d="M10.758 4.725a.123.123 0 01-.12.125.123.123 0 01-.122-.125c0-.07.054-.125.121-.125s.121.056.121.125zM5.17 5a.123.123 0 00.121-.125.123.123 0 00-.12-.125.123.123 0 00-.122.125c0 .069.055.125.121.125zm.121.525a.123.123 0 01-.12.125.123.123 0 01-.122-.125c0-.07.055-.125.121-.125.067 0 .121.056.121.125zM5.363 6.8a.123.123 0 00.12-.125.123.123 0 00-.12-.125.123.123 0 00-.121.125c0 .069.054.125.121.125zm.968 1.25a.123.123 0 00.12-.125.123.123 0 00-.12-.125.123.123 0 00-.121.125c0 .069.054.125.12.125zm4.645-1.9c.067 0 .12-.056.12-.125a.123.123 0 00-.12-.125.123.123 0 00-.121.125c0 .069.054.125.12.125zm-.266.875a.123.123 0 01-.121.125.123.123 0 01-.121-.125c0-.07.054-.125.12-.125.068 0 .122.056.122.125zM9.573 8.25a.123.123 0 00.12-.125.123.123 0 00-.12-.125.123.123 0 00-.121.125c0 .069.054.125.12.125zM6.5 8.275a.123.123 0 01-.12.125.123.123 0 01-.122-.125c0-.07.054-.125.121-.125s.121.056.121.125z" fill="#C51918"/>
      <path fill-rule="evenodd" clip-rule="evenodd" d="M9.019 9.91c0-.103-1.55-1.17-1.966-1.407C6.636 8.268 4.605 6.971 5.158 5h-.084S4.7 7.428 7.28 8.938c1.174.788 1.233.972 1.233.972s.506.102.506 0z" fill="#FECA00"/>
      <path fill-rule="evenodd" clip-rule="evenodd" d="M6.962 9.91c0-.103 1.55-1.17 1.967-1.407.416-.235 2.448-1.532 1.894-3.503h.084s.374 2.428-2.206 3.938c-1.174.788-1.233.972-1.233.972s-.506.102-.506 0z" fill="#FECA00"/>
      <path fill-rule="evenodd" clip-rule="evenodd" d="M8.024 8.443c1.083 0 1.96-1.401 1.96-2.768 0-1.367-.877-2.075-1.96-2.075-1.082 0-1.96.708-1.96 2.075 0 1.367.878 2.768 1.96 2.768z" fill="#56C6F5"/>
      <path fill-rule="evenodd" clip-rule="evenodd" d="M7.157 4.77s.301-.267.15-.267a.616.616 0 01-.103-.012c-.16-.025-.367-.059-.367.278v.581h-.045a.05.05 0 100 .1h.04c-.008.124-.02.344-.031.564l-.057.005a.054.054 0 00-.05.058l.005.042c.002.03.028.052.058.05l.036-.004a33.75 33.75 0 00-.025.51c0 .067.46.04.46.04s-.015-.27-.03-.585l.03-.003a.054.054 0 00.05-.058l-.005-.043a.054.054 0 00-.058-.049l-.025.003c-.01-.19-.018-.38-.025-.53h.06a.05.05 0 100-.1H7.16a5.214 5.214 0 01-.004-.159v-.422z" fill="#fff"/>
      <path fill-rule="evenodd" clip-rule="evenodd" d="M6.936 5.5h.16v.215h-.16V5.5zm-.049.75h.269v.5h-.269v-.5z" fill="#000"/>
      <path fill-rule="evenodd" clip-rule="evenodd" d="M8.173 4.77s.302-.267.15-.267a.616.616 0 01-.103-.012c-.16-.025-.367-.059-.367.278v.581h-.045a.05.05 0 000 .1h.04c-.007.124-.02.344-.03.564l-.058.005a.054.054 0 00-.049.058l.004.042c.002.03.028.052.058.05l.036-.004c-.013.257-.025.482-.025.51 0 .067.46.04.46.04s-.015-.27-.03-.585l.03-.003a.054.054 0 00.05-.058l-.005-.043a.054.054 0 00-.058-.049l-.025.003c-.01-.19-.018-.38-.025-.53h.06a.05.05 0 100-.1h-.064a5.224 5.224 0 01-.004-.159v-.422zm.967 0s.302-.267.151-.267a.616.616 0 01-.103-.012c-.16-.025-.367-.059-.367.278v.581h-.045a.05.05 0 000 .1h.039l-.03.564-.057.005a.054.054 0 00-.05.058l.004.042c.003.03.03.052.059.05l.036-.004a33.75 33.75 0 00-.025.51c0 .067.46.04.46.04s-.015-.27-.03-.585l.03-.003a.054.054 0 00.049-.058l-.004-.043a.054.054 0 00-.058-.049l-.025.003c-.01-.19-.018-.38-.025-.53h.06a.05.05 0 100-.1h-.064a5.224 5.224 0 01-.004-.159v-.422z" fill="#fff"/>
      <path fill-rule="evenodd" clip-rule="evenodd" d="M8.92 5.5h.16v.215h-.16V5.5zm-.049.75h.269v.5h-.27v-.5z" fill="#000"/>
      <path fill-rule="evenodd" clip-rule="evenodd" d="M9.258 3.2H6.694v.383l-.018.001s-1.256.977-.907 2.44C6.117 7.485 7.502 8.57 7.502 8.57l.07-.253s-1.32-1.794-1.32-2.512c0-.717.25-1.39.513-1.494.159-.063.186-.05.23-.03.028.013.064.03.149.03.214 0 .428-.154.428-.154s.15.154.288.154c.138 0 .14-.154.14-.154V3.65h.015v.508s.002.154.14.154c.14 0 .288-.154.288-.154s.215.154.429.154c.085 0 .12-.017.15-.03.042-.02.07-.033.228.03.264.104.513.777.513 1.494 0 .718-1.32 2.512-1.32 2.512l.07.253s1.385-1.085 1.734-2.548c.348-1.462-.908-2.439-.908-2.439l-.08-.007V3.2z" fill="#E8AA00"/>
      <path d="M6.694 3.2v-.25h-.25v.25h.25zm2.564 0h.25v-.25h-.25v.25zm-2.564.383l.022.249.228-.02v-.23h-.25zm-.018.001l-.022-.249-.073.007-.058.045.153.197zm-.907 2.44l-.244.057.244-.058zM7.502 8.57l-.154.196.295.231.1-.36-.24-.067zm.07-.253l.241.067.033-.117-.072-.098-.202.148zm-.807-4.006l-.092-.233.092.233zm.23-.03l-.107.226.106-.226zm.577-.124l.18-.174-.15-.154-.175.125.145.203zm.428 0l.25.004v-.004H8zm0-.508V3.4h-.25v.25H8zm.015 0h.25V3.4h-.25v.25zm0 .508h-.25v.004l.25-.004zm.428 0l.146-.203-.175-.125-.15.154.18.174zm.578.124l.106.226-.106-.226zm.23.03l-.093.232.092-.232zm-.808 4.006l-.201-.148-.072.098.032.117.241-.067zm.07.253l-.24.066.099.361.295-.23-.154-.197zm.826-4.987l.153-.197-.058-.045-.073-.007-.022.25zm-.08-.007h-.25v.229l.227.02.022-.249zM6.693 3.45h2.564v-.5H6.694v.5zm.25.133V3.2h-.5v.383h.5zm-.245.25l.017-.001-.045-.498-.017.001.045.498zm-.687 2.132c-.154-.645.044-1.186.291-1.576a2.78 2.78 0 01.527-.608l-.154-.197-.153-.197-.002.002a.832.832 0 00-.063.052 3.279 3.279 0 00-.578.68c-.293.464-.55 1.143-.355 1.96l.487-.116zm1.49 2.606l.155-.197a.205.205 0 01-.013-.01 4.76 4.76 0 01-.194-.17 6.14 6.14 0 01-.494-.512c-.378-.44-.783-1.04-.944-1.717l-.487.116c.188.787.65 1.46 1.052 1.927a6.64 6.64 0 00.77.758l.001.001.154-.196zm-.17-.32l-.07.253.481.133.07-.252-.482-.134zm-1.33-2.445c0 .238.105.528.23.8.13.282.3.583.467.856a15.993 15.993 0 00.656.983l.012.015.003.005v.001l.202-.148.202-.148-.001-.001-.003-.004-.01-.014a9.941 9.941 0 01-.188-.266 15.51 15.51 0 01-.446-.684 8.007 8.007 0 01-.44-.804c-.123-.267-.184-.47-.184-.59h-.5zm.67-1.727a.7.7 0 00-.305.27c-.076.11-.14.248-.193.397-.105.3-.172.675-.172 1.06h.5c0-.331.058-.65.144-.894.043-.121.09-.217.135-.283.048-.071.078-.086.076-.085l-.184-.465zm.428-.024c-.03-.014-.096-.046-.194-.039a.798.798 0 00-.233.063l.184.465a.834.834 0 01.074-.026c.015-.005.016-.004.009-.003a.118.118 0 01-.044-.005.119.119 0 01-.013-.005l.005.003.212-.453zm.044.007a.25.25 0 01-.028-.002H7.11l-.01-.006-.212.453c.017.008.051.024.099.036a.638.638 0 00.157.018v-.5zm.428.096a55.611 55.611 0 01-.145-.203l-.003.002a.571.571 0 01-.093.052.47.47 0 01-.187.053v.5a.959.959 0 00.402-.101 1.316 1.316 0 00.17-.099h.001l-.145-.204zm.288-.096c.01 0 .009.002-.005-.004a.495.495 0 01-.104-.074l-.179.174-.179.175.002.001a.206.206 0 00.01.01.902.902 0 00.115.096.61.61 0 00.34.122v-.5zm.14.096l-.25-.003v-.003a.338.338 0 010-.01l.005-.012a.117.117 0 01.037-.044.12.12 0 01.068-.024v.5a.382.382 0 00.384-.34.454.454 0 00.006-.056v-.004L8 4.158zm-.25-.508v.508h.5V3.65h-.5zm.265-.25H8v.5h.015v-.5zm-.25.25v.508h.5V3.65h-.5zm.25.508l-.25.004v.004a.323.323 0 00.006.057.455.455 0 00.036.117.382.382 0 00.349.221v-.5a.12.12 0 01.067.025.117.117 0 01.038.044l.004.012a.045.045 0 010 .007.084.084 0 010 .005v.001l-.25.003zm.14.404a.61.61 0 00.34-.122.997.997 0 00.126-.106.015.015 0 00.001-.001l-.179-.175-.179-.174-.001.001a.407.407 0 01-.103.073c-.014.006-.014.004-.004.004v.5zm.288-.404l-.145.204.002.001.003.003a.764.764 0 00.046.03c.03.017.07.041.12.065a.959.959 0 00.403.1v-.5a.47.47 0 01-.187-.052.815.815 0 01-.097-.054l-.145.203zm.429.404c.059 0 .11-.006.157-.018a.5.5 0 00.098-.036l-.212-.453a.192.192 0 01-.01.004h.001L8.9 4.06a.25.25 0 01-.027.002v.5zm.255-.054l.006-.003a.12.12 0 01-.038.01h-.02c-.007 0-.005-.002.01.003a.833.833 0 01.073.026l.185-.465a.798.798 0 00-.234-.063.358.358 0 00-.194.04l.212.452zm.031.036c-.001 0 .029.014.077.085.045.066.092.162.135.283.085.243.143.563.143.894h.5c0-.385-.066-.76-.172-1.06a1.75 1.75 0 00-.192-.398.7.7 0 00-.306-.269l-.185.465zm.355 1.262c0 .12-.06.324-.183.591a8.005 8.005 0 01-.44.804 15.51 15.51 0 01-.634.95l-.01.014-.003.004h-.001v.001a302.845 302.845 0 01.403.296v-.001l.004-.005a4.547 4.547 0 00.054-.075 15.556 15.556 0 00.613-.923 8.43 8.43 0 00.468-.856c.125-.272.229-.562.229-.8h-.5zm-1.31 2.579l.07.252.481-.133-.07-.253-.482.134zm.31.186l.154.196.002-.001a.407.407 0 00.017-.014 5.25 5.25 0 00.218-.19c.141-.13.332-.318.535-.554.402-.468.864-1.14 1.051-1.927l-.486-.116c-.162.677-.567 1.278-.944 1.717a6.14 6.14 0 01-.699.69l-.002.002.154.197zm1.977-2.49c.195-.817-.061-1.496-.355-1.96a3.28 3.28 0 00-.636-.73l-.004-.002-.002-.001v-.001l-.154.197a32.07 32.07 0 01-.154.197l.002.001.007.007.033.028a2.78 2.78 0 01.485.572c.248.39.446.93.292 1.576l.486.116zM9.361 3.335l-.08-.007-.045.498.08.007.045-.498zM9.008 3.2v.377h.5V3.2h-.5z" fill="#FFD018"/>
      <path fill-rule="evenodd" clip-rule="evenodd" d="M6.552 6.892s.157-.422.432-.281c.275.14.25.63.501.456.25-.175.108-.456.48-.456.37 0 .315.456.538.456.222 0 .241-.456.49-.456.248 0 .5.281.5.281l-1.47 2.002-1.471-2.002z" fill="#8FC753"/>
      <path fill-rule="evenodd" clip-rule="evenodd" d="M7.947 1.015h.1v.107h.123v.1h-.123v.182a.297.297 0 01.243.296c0 .166-.13.3-.29.3a.295.295 0 01-.29-.3c0-.147.102-.27.237-.295v-.183h-.113v-.1h.113v-.107z" fill="#FFD018"/>
      <path fill-rule="evenodd" clip-rule="evenodd" d="M6.874 2.583c-.14 0-.436.182-.436.182l.23.62 1.384-.063 1.385.063.229-.62s-.295-.182-.435-.182c-.062 0-.07-.044-.078-.093-.011-.064-.024-.135-.152-.135a.694.694 0 00-.207.033c-.078.022-.129.037-.202-.033l-.01-.01c-.117-.113-.24-.231-.439-.231-.04 0-.069.046-.09.119-.023-.073-.052-.12-.092-.12-.199 0-.321.119-.44.233l-.009.009c-.073.07-.123.055-.202.033a.694.694 0 00-.206-.033c-.129 0-.141.071-.152.135-.01.049-.017.093-.078.093z" fill="#E31D1C"/>
      <path fill-rule="evenodd" clip-rule="evenodd" d="M7.5 2s.333-.241.5-.241c.167 0 .5.241.5.241v2h-1V2z" fill="#FFD018"/>
      <path fill-rule="evenodd" clip-rule="evenodd" d="M7.804 1.784l-.097.034c-.257.089-.48.118-.667.09-.387-.06-.891.141-.828.436.028.129.108.373.193.58.116.286.198.43.293.43a14.365 14.365 0 01.2.011c.14.007.264.01.383.01.345-.001.558-.035.634-.138l.023-.03-.01-.037c-.091-.312-.133-.738-.125-1.28l.001-.106zm-1.45.527c-.031-.144.363-.302.665-.255.187.029.4.007.638-.065-.002.482.038.873.118 1.174-.069.036-.25.06-.495.06-.116 0-.237-.003-.375-.01l-.192-.01a2.412 2.412 0 01-.175-.34 4.11 4.11 0 01-.184-.554zm1.873-.527l.098.034c.256.089.479.118.667.09.386-.06.89.141.828.436a4.32 4.32 0 01-.193.58c-.117.286-.198.43-.294.43a14.365 14.365 0 00-.199.011c-.14.007-.264.01-.384.01-.344-.001-.558-.035-.634-.138l-.022-.03.01-.037c.09-.312.133-.738.125-1.28l-.002-.106zm1.45.527c.032-.144-.363-.302-.664-.255-.188.029-.4.007-.638-.065.001.482-.038.873-.118 1.174.068.036.25.06.494.06.116 0 .238-.003.376-.01l.191-.01a2.41 2.41 0 00.175-.34 4.04 4.04 0 00.185-.554z" fill="#FFD018"/>
      <path d="M3.979 10.16l-.37-.929c1.53-.61 2.994-.917 4.391-.917 1.38 0 2.682.19 3.905.567l-.295.956A12.151 12.151 0 008 9.314c-1.264 0-2.604.281-4.021.846z" fill="#fff"/>
      <path d="M6.887 8.942l.03-.248c.538.066.896.099 1.077.1.273.011.598-.008.974-.06l.035.247c-.391.054-.73.075-1.014.062-.19 0-.555-.034-1.102-.1z" fill="#272727"/>
      <path fill-rule="evenodd" clip-rule="evenodd" d="M5.162 4S3.77 5.255 4.045 6.483C4.357 8.352 6.23 9.004 6.23 9.004l.992-.351s-1.9-1.09-1.9-2.17C5.32 5.402 5.606 4 5.606 4h-.444z" fill="#006923"/>
      <path fill-rule="evenodd" clip-rule="evenodd" d="M11.06 4s1.39 1.255 1.116 2.483c-.312 1.869-2.184 2.521-2.184 2.521L9 8.653s1.9-1.09 1.9-2.17C10.9 5.402 10.616 4 10.616 4h.443z" fill="#093"/>
    </g>
  </g>
</svg>
