<svg width="16" height="12" fill="none" xmlns="http://www.w3.org/2000/svg">
  <mask id="a" maskUnits="userSpaceOnUse" x="0" y="0" width="16" height="12">
    <path fill="#fff" d="M0 0h16v12H0z"/>
  </mask>
  <g mask="url(#a)">
    <path fill-rule="evenodd" clip-rule="evenodd" d="M0 0h16v12H0V0z" fill="#F7FCFF"/>
    <path fill-rule="evenodd" clip-rule="evenodd" d="M0 0v4h16V0H0z" fill="#C51918"/>
    <path fill-rule="evenodd" clip-rule="evenodd" d="M0 8v4h16V8H0z" fill="#409100"/>
    <path fill-rule="evenodd" clip-rule="evenodd" d="M7.973 7.789c-.207.006-.344-.212-.344-.212l.211-.055c.014-.14.11-.214.11-.214.062.041.13.224.13.224l.182.026s-.083.225-.29.23zm-1.008.062c-.203.035-.37-.162-.37-.162l.202-.084a.322.322 0 01.078-.226c.069.031.162.203.162.203h.183s-.051.234-.255.269zm-.724.198l.093.328c.478-.13 1.033-.194 1.664-.194.632 0 1.187.065 1.665.194l.092-.328c-.51-.138-1.096-.207-1.757-.207-.661 0-1.247.07-1.757.207zm3.129-.326s-.166.197-.37.162c-.203-.035-.254-.269-.254-.269h.183s.093-.172.161-.203c0 0 .085.087.078.226l.202.084z" fill="#FB0"/>
    <path fill-rule="evenodd" clip-rule="evenodd" d="M7.98 6.85s-.235.536-.605.577c-.369.042-.556-.305-.556-.305s-.025.36-.463.5c-.439.139-.67-.417-.67-.417s.229.205.583.116c.354-.09.494-.418.494-.418s.262.343.612.171c.351-.171.545-.38.545-.581v-.601s-.09-.156-.247-.156-.201.11-.201.11-.061-.625.503-.663V5.18h.031v.002c.565.038.504.663.504.663s-.044-.11-.201-.11c-.157 0-.248.156-.248.156v.6c0 .202.194.411.545.582.35.172.613-.171.613-.171s.14.329.494.418a.663.663 0 00.582-.116s-.23.556-.67.417c-.438-.14-.462-.5-.462-.5s-.188.347-.557.305c-.37-.041-.604-.578-.604-.578l-.011-.708-.012.708zm-.006-1.5c-.26 0-.313.221-.313.221.23 0 .313.1.313.1s.17-.1.34-.1c0 0-.08-.22-.34-.22z" fill="#FB0"/>
    <path d="M5.95 6.5l-.996.085c-.073-.852.278-1.658 1.014-2.396 1.084-1.087 3.279-.98 4.213.01.534.566.807 1.35.833 2.33l-1 .026c-.02-.75-.21-1.3-.56-1.67-.558-.591-2.104-.665-2.778.01-.542.543-.771 1.07-.726 1.604z" fill="#FB0"/>
  </g>
</svg>
