<svg width="16" height="12" fill="none" xmlns="http://www.w3.org/2000/svg">
  <mask id="a" maskUnits="userSpaceOnUse" x="0" y="0" width="16" height="12">
    <path fill="#fff" d="M0 0h16v12H0z"/>
  </mask>
  <g mask="url(#a)">
    <path fill-rule="evenodd" clip-rule="evenodd" d="M0 0h16v12H0V0z" fill="#F7FCFF"/>
    <path fill-rule="evenodd" clip-rule="evenodd" d="M0 0v4h16V0H0z" fill="#C51918"/>
    <path fill-rule="evenodd" clip-rule="evenodd" d="M0 8v4h16V8H0z" fill="#5EAA22"/>
    <path fill-rule="evenodd" clip-rule="evenodd" d="M0-1l8.335 7L0 13V-1z" fill="#272727"/>
    <mask id="b" maskUnits="userSpaceOnUse" x="-1" y="-4.677" width="18" height="21" fill="#000">
      <path fill="#fff" d="M-1-4.677h18v21H-1z"/>
      <path fill-rule="evenodd" clip-rule="evenodd" d="M0-1.677L8.704 5H16v2H8.585L0 13.406V11.17L7 6 0 .767v-2.444z"/>
    </mask>
    <path fill-rule="evenodd" clip-rule="evenodd" d="M0-1.677L8.704 5H16v2H8.585L0 13.406V11.17L7 6 0 .767v-2.444z" fill="#FFD018"/>
    <path d="M8.704 5l-.609.793.27.207h.34V5zM0-1.677l.609-.794L-1-3.705v2.028h1zM16 5h1V4h-1v1zm0 2v1h1V7h-1zM8.585 7V6h-.332l-.266.199.598.801zM0 13.406h-1V15.4l1.598-1.193L0 13.406zm0-2.236l-.594-.804-.406.3v.504h1zM7 6l.594.804 1.083-.8L7.599 5.2 7 6zM0 .767h-1v.501l.401.3.599-.8zm9.313 3.44L.609-2.471-.61-.884l8.704 6.677 1.218-1.586zM16 4H8.704v2H16V4zm1 3V5h-2v2h2zM8.585 8H16V6H8.585v2zM.598 14.207l8.585-6.406L7.987 6.2l-8.585 6.405 1.196 1.603zM-1 11.17v2.236h2V11.17h-2zm7.406-5.974l-7 5.17 1.188 1.609 7-5.17-1.188-1.61zM-.6 1.568l7 5.233 1.2-1.602-7-5.233-1.2 1.602zM-1-1.677V.767h2v-2.444h-2z" fill="#272727" mask="url(#b)"/>
    <path d="M2.437 8.384v-.79c.705-.155 1.171-.358 1.399-.6.559-.69.187-2.304-.962-2.294-.569 0-1.157.272-1.157.91 0 .793.163 1.132.72 1.132.555 0 .759.03 1.124-.469l.396.123c-.391.533-.919.955-1.52.955-.991 0-1.53-.747-1.53-1.611 0-1.067.866-1.814 1.91-1.814.779 0 2.01.954 2.01 1.814 0 .86 0 1.253-.675 1.854a3.666 3.666 0 01-1.715.79z" fill="#FFD018"/>
    <path fill-rule="evenodd" clip-rule="evenodd" d="M2.496 4.94a.071.071 0 00-.088.05l-.027.104-.004-.005a.071.071 0 00-.113.087l.049.064-.082.076a.071.071 0 00.097.105l.072-.068.125.164-.137.074a.071.071 0 00.068.126l.156-.084.107.143-.188.1a.071.071 0 10.068.127l.205-.111a14 14 0 01.144.2l-.131.07a.071.071 0 00.067.126l.146-.078c.06.09.091.144.091.159a.071.071 0 10.143 0c0-.037-.037-.113-.116-.235a.075.075 0 00.003-.006l.106-.232a.071.071 0 10-.13-.06l-.072.16a10.927 10.927 0 00-.159-.221l.075-.165a.071.071 0 10-.13-.06l-.042.093-.072-.096.101-.223a.071.071 0 10-.13-.059l-.069.152-.138-.18.056-.21a.071.071 0 00-.051-.087z" fill="#FFD018"/>
    <path fill-rule="evenodd" clip-rule="evenodd" d="M2.976 4.94a.071.071 0 01.087.05l.028.104.004-.005a.071.071 0 01.113.087l-.05.064.083.076a.071.071 0 01-.097.105l-.072-.068-.125.164.137.074a.071.071 0 11-.068.126l-.156-.084-.107.143.188.1a.071.071 0 11-.068.127l-.206-.111a14 14 0 00-.143.2l.131.07a.071.071 0 11-.067.126l-.146-.078a.665.665 0 00-.092.159.071.071 0 11-.142 0c0-.037.037-.113.116-.235a.075.075 0 01-.003-.006l-.106-.232a.071.071 0 11.13-.06l.072.16c.045-.065.098-.139.159-.221L2.5 5.61a.071.071 0 11.13-.06l.042.093.072-.096-.101-.223a.071.071 0 01.13-.059l.069.152.138-.18-.056-.21a.071.071 0 01.051-.087z" fill="#FFD018"/>
  </g>
</svg>
