<svg width="16" height="12" fill="none" xmlns="http://www.w3.org/2000/svg">
  <mask id="a" maskUnits="userSpaceOnUse" x="0" y="0" width="16" height="12">
    <path fill="#fff" d="M0 0h16v12H0z"/>
  </mask>
  <g mask="url(#a)">
    <path fill-rule="evenodd" clip-rule="evenodd" d="M0 0h16v12H0V0z" fill="#F7FCFF"/>
    <path fill-rule="evenodd" clip-rule="evenodd" d="M0 0v12h16V0H0z" fill="#5EAA22"/>
    <mask id="b" maskUnits="userSpaceOnUse" x="0" y="0" width="16" height="12">
      <path fill-rule="evenodd" clip-rule="evenodd" d="M0 0v12h16V0H0z" fill="#fff"/>
    </mask>
    <g mask="url(#b)">
      <path fill="#FF8126" d="M13 5h3v7h-3z"/>
      <path fill="#272727" d="M10 5h3v7h-3z"/>
      <path fill="#C51918" d="M7 5h3v7H7z"/>
      <path fill-rule="evenodd" clip-rule="evenodd" d="M10.808 1.558c.27.1 0 .252 0 .252s-.054-.062-.054-.114c0-.052-.207 0-.314.189-.101.178.085.177.282.177h.032c.111 0 .285-.011.446-.021.14-.01.271-.017.344-.017.157 0 .231 0 .438-.14.134-.09.578-.2.909-.283a3.88 3.88 0 00.368-.1c.13-.058-.13.247-.13.247s1.006-.406 1.207-.544c.125-.086.068-.013-.024.107a2.871 2.871 0 00-.177.247c-.085.141.088.007.28-.142a4.22 4.22 0 01.29-.212c.22-.139-.057.237-.18.354-.122.118.287 0 .43-.117.103-.086.008.065-.072.192a2.535 2.535 0 00-.07.115l-.003.005c-.055.1-.072.132.06.132s-.344.37-.344.37.142-.022 0 .224c-.084.146-.492.293-.822.412-.23.083-.424.153-.445.199-.037.083-.409.18-.582.225-.061.016-.098.025-.085.025.049 0 .13.062.042.062s-.243.05-.243.05.082 0 0 .116c-.039.056-.107.047-.155.04-.053-.006-.08-.01-.02.076.054.077.074.106.068.114-.008.01-.048-.007-.111-.007a.51.51 0 01-.18-.05c-.069-.027-.142-.057-.218-.057-.139 0 0 .098.088.16l.01.007c.078.055.045.055-.095.054h-.046c-.087 0-.134-.01-.159-.014-.026-.006-.029-.006-.029.014s-.065-.007-.144-.04c-.082-.034-.178-.074-.23-.074-.103 0 .218.212.218.212s-.168-.054-.258-.098c-.052-.024.014.092.073.198.045.08.086.154.07.154a.265.265 0 01-.072-.029c-.065-.03-.145-.07-.145-.018 0 .078.074.135.164.135.09 0 .106.12.052.12-.018 0-.041-.008-.063-.015-.041-.015-.08-.028-.08.015 0 .028.017.05.036.073.025.034.055.073.055.145 0 .125-.134.143-.09.06.044-.083-.153-.283-.153-.185v.125c0 .089-.018.094-.044.103a.106.106 0 00-.058.04c-.033.042-.038.065-.04.079-.003.013-.004.016-.027.016-.019 0-.034-.028-.055-.065-.032-.057-.076-.136-.164-.173-.082-.034-.087-.01-.094.034a.163.163 0 01-.055.109c-.063.053-.046.075-.025.101.012.015.025.031.025.055 0 .066-.11-.066-.11-.156s-.126-.21-.126-.143 0 .143-.064.143c-.031 0-.032.022-.034.052-.002.032-.004.073-.044.104-.04.031-.04.015-.037-.022a.213.213 0 00-.027-.134c-.038-.058-.006-.149.01-.195.01-.029.015-.04-.01-.014-.062.066-.142.066-.196.066H9.8c-.027 0-.051.035-.068.06-.017.024-.027.038-.027 0 0-.076.08-.278.23-.278.117 0 .175-.047.225-.087a.498.498 0 01.044-.033c.065-.041 0-.095-.064-.135-.03-.018-.019-.075.002-.127.035-.023.062-.052.062-.08 0-.036-.038.018-.063.08a.314.314 0 01-.143.05c-.034 0-.012-.062.014-.14a.7.7 0 00.05-.202c0-.057.01-.107.016-.141.008-.045.012-.063-.016-.04-.035.03-.221-.003-.349-.025a.967.967 0 00-.114-.017c-.023 0-.004-.044.015-.089.024-.056.047-.111-.015-.077-.097.054-.295.052-.42.05h-.05c-.073 0-.023-.064.004-.1.016-.019.024-.029-.004-.012a.408.408 0 01-.233.062c-.037 0-.048-.022-.06-.047-.015-.03-.03-.063-.099-.062-.124 0-.152-.001-.22-.055-.036-.028-.016-.045-.005-.054.01-.009.014-.011-.04-.011h-.338c-.168 0 0-.131.061-.131.06 0 .131-.118 0-.065-.083.034-.173.024-.279.013-.06-.006-.124-.013-.196-.013-.199 0-.237-.092-.12-.092.119 0 .126-.068-.058-.068a.861.861 0 01-.28-.054.376.376 0 00-.098-.025c-.065 0-.135-.09 0-.09.134 0 .307-.076.16-.076-.084 0-.222-.044-.343-.083a1.033 1.033 0 00-.213-.056c-.03 0 .016-.01.077-.023.121-.026.302-.065.071-.065-.247 0-.505-.2-.684-.34a1.144 1.144 0 00-.172-.12c-.138-.064 0-.189.04-.137.04.052.32.132.198.062a.724.724 0 01-.238-.252c-.04-.064-.009-.108.04-.057.05.05.276.195.276.195s-.121-.138-.218-.354c-.096-.216.097-.163.261 0 .165.164.32.207.398.216.077.01-.078-.117-.227-.216-.15-.098-.116-.45 0-.31.06.074.344.213.623.35.257.125.508.248.573.314.113.115.022-.056-.076-.24l-.06-.114c-.065-.125.197.018.496.18.214.117.448.244.591.288.099.03.217.08.335.129.29.12.581.241.581.085 0-.22.266-.565.551-.682.181-.073.266-.007.374.077.062.049.13.103.23.14zM10.5 4.142c.064 0 .046-.669.046-.669s.19.41.19.588c0 .081-.005.105-.003.129.002.027.015.054.06.176.047.124.016.11-.068.074a.725.725 0 00-.296-.074c-.28 0 .006-.224.07-.224z" fill="#FF8126"/>
    </g>
  </g>
</svg>
